<svg width="551" height="519" viewBox="0 0 551 519" fill="none" xmlns="http://www.w3.org/2000/svg">
<path d="M158.224 491.234C166.369 506.293 185.259 512.045 200.416 504.083L523.516 334.334C538.673 326.371 544.356 307.708 536.211 292.649L392.736 27.3958C384.59 12.3367 365.701 6.58405 350.544 14.5468L27.4433 184.296C12.2868 192.259 6.60329 210.922 14.7487 225.981L158.224 491.234Z" fill="#4F4F4F"/>
<rect x="496.052" y="280.53" width="13.9955" height="61.5051" transform="rotate(58.773 496.052 280.53)" fill="#F2C94C"/>
<rect x="401.54" y="329.941" width="13.9955" height="61.5051" transform="rotate(58.773 401.54 329.941)" fill="#F2C94C"/>
<rect x="307.024" y="379.338" width="13.9955" height="61.5051" transform="rotate(58.773 307.024 379.338)" fill="#F2C94C"/>
<rect x="212.511" y="428.75" width="13.9955" height="61.5051" transform="rotate(58.773 212.511 428.75)" fill="#F2C94C"/>
<rect x="385.255" y="65.8977" width="13.9955" height="61.5051" transform="rotate(58.773 385.255 65.8977)" fill="#F2C94C"/>
<rect x="290.711" y="115.325" width="13.9955" height="61.5051" transform="rotate(58.773 290.711 115.325)" fill="#F2C94C"/>
<rect x="196.169" y="164.752" width="13.9955" height="61.5051" transform="rotate(58.773 196.169 164.752)" fill="#F2C94C"/>
<rect x="101.81" y="214.083" width="13.9955" height="61.5051" transform="rotate(58.773 101.81 214.083)" fill="#F2C94C"/>
<path d="M479.642 170.738L479.701 170.726L479.763 170.687L479.642 170.738Z" fill="#EDEDED"/>
<path d="M421.3 250.165L398.698 237.788L422.581 234.317L421.3 250.165Z" fill="#353A3F"/>
<path d="M450.584 206.256L421.795 222.565L398.786 209.517L427.605 193.177L450.584 206.256Z" fill="#476093"/>
<path d="M450.616 206.287L428.151 245.048L405.14 232.001L398.786 219.461V209.517L421.795 222.565L450.584 206.256L450.616 206.287Z" fill="#353A3F"/>
<path d="M450.616 206.256V232.318L428.151 245.048L421.795 232.507V222.564L450.584 206.256H450.616Z" fill="#799ACF"/>
<path d="M421.795 222.565V232.508L398.786 219.461V209.517L421.795 222.565Z" fill="#476093"/>
<path d="M379.84 274.803L354.246 255.05C354.246 255.05 370.039 246.443 382.341 236.507C394.213 226.919 379.041 212.215 386.142 213.061C387.873 213.268 390.088 214.74 391.636 215.631L419.817 237.198L422.266 246.527C422.266 246.527 414.77 229.906 399.281 239.666C388.183 246.66 387.212 251.07 385.741 256.423C384.556 260.743 379.84 274.803 379.84 274.803Z" fill="#353A3F"/>
<path d="M169.834 308.491L241.451 349.133V332.15L169.834 291.508V308.491Z" fill="#353A3F"/>
<path d="M303.008 215.926L374.625 256.567L241.451 332.15L169.834 291.508L303.008 215.926Z" fill="#F68513"/>
<path d="M374.625 273.681L241.451 349.133V332.019L374.625 256.567V273.681Z" fill="#5E6061"/>
<path d="M166.595 294.624L240.478 336.55V326.002L166.595 284.075V294.624Z" fill="#476093"/>
<path d="M303.981 206.102L377.863 248.028L240.477 326.002L166.595 284.076L303.981 206.102Z" fill="#476093"/>
<path d="M377.864 258.712L240.478 336.55V325.867L377.864 248.029V258.712Z" fill="#799ACF"/>
<path d="M357.363 171.231L337.476 113.439L340.058 112.573L354.972 155.912L347.439 107.213L350.136 106.806L360.003 170.596L357.363 171.231Z" fill="#2D3593"/>
<path d="M236.306 345.544L231.395 353.449L219.419 372.73L219.418 372.731L213.504 382.251L205.671 377.771L205.48 377.66L205.251 377.526L205.261 377.51C203.548 376.411 202.294 374.59 201.648 372.16C201.579 371.903 201.514 371.646 201.461 371.376C201.424 371.196 201.394 371.013 201.364 370.827C201.316 370.535 201.279 370.233 201.247 369.925C201.231 369.763 201.212 369.605 201.201 369.438C201.166 368.953 201.146 368.457 201.151 367.938C201.271 358.311 208.379 346.634 217.029 341.855C217.504 341.593 217.973 341.362 218.437 341.155C222.153 339.471 225.478 339.436 227.958 340.806L227.977 340.775L236.306 345.544Z" fill="url(#paint0_linear_7_608)"/>
<path d="M240.444 355.188C240.324 364.818 233.216 376.495 224.567 381.273C215.919 386.05 209.004 382.118 209.123 372.491C209.242 362.863 216.35 351.185 224.999 346.408C233.648 341.63 240.563 345.561 240.444 355.188Z" fill="#4E5666"/>
<path d="M235.88 357.705C235.868 358.614 235.767 359.558 235.586 360.502C235.058 363.331 233.821 366.249 232.134 368.858C231.077 370.5 229.829 372.021 228.468 373.319C227.264 374.474 225.971 375.45 224.632 376.194C223.576 376.781 222.54 377.182 221.574 377.402C219.842 377.813 218.278 377.659 217.018 377.015L216.906 376.948C216.433 376.692 216.007 376.37 215.624 375.96C215.331 375.649 215.073 375.306 214.847 374.917C214.736 374.752 214.645 374.573 214.579 374.395C214.375 374.019 214.229 373.618 214.105 373.186C214.06 373.064 214.027 372.941 213.994 372.809C213.892 372.398 213.813 371.954 213.768 371.477C213.712 371 213.679 370.5 213.689 369.968C213.689 369.801 213.7 369.646 213.712 369.479C213.734 368.835 213.79 368.193 213.903 367.537C213.994 366.982 214.116 366.428 214.274 365.862C214.488 365.03 214.769 364.197 215.096 363.365C215.556 362.188 216.118 361.035 216.771 359.913L216.783 359.892C216.94 359.603 217.108 359.326 217.288 359.048C218.165 357.682 219.155 356.373 220.258 355.229L220.28 355.208C220.47 354.975 220.696 354.753 220.921 354.543C221.821 353.655 222.766 352.867 223.755 352.213C224.138 351.946 224.531 351.712 224.937 351.49C225.285 351.291 225.633 351.124 225.971 350.968C226.398 350.78 226.826 350.625 227.23 350.492C227.534 350.403 227.815 350.325 228.097 350.258C228.524 350.17 228.951 350.103 229.356 350.08C229.941 350.036 230.492 350.059 231.02 350.159C231.594 350.258 232.123 350.447 232.618 350.713C234.125 351.513 235.193 353.022 235.643 355.153C235.812 355.918 235.89 356.773 235.88 357.705Z" fill="#ACABAA"/>
<path d="M227.635 353.699C227.625 354.608 227.522 355.552 227.343 356.496C226.814 359.326 225.576 362.243 223.889 364.852C222.833 366.495 221.584 368.014 220.223 369.313C219.02 370.467 217.727 371.443 216.388 372.187C215.613 372.621 214.836 372.953 214.105 373.186C214.06 373.064 213.892 372.301 213.859 372.168C213.758 371.757 213.813 371.954 213.768 371.477C213.712 371 213.679 370.5 213.689 369.968C213.7 369.168 213.768 368.358 213.903 367.537C213.994 366.982 214.116 366.428 214.274 365.862C214.802 363.843 215.669 361.812 216.783 359.892C216.94 359.603 217.108 359.326 217.288 359.048C218.165 357.671 219.166 356.363 220.28 355.209C220.47 354.975 220.696 354.754 220.921 354.543C222.169 353.31 223.52 352.267 224.937 351.49C225.285 351.291 225.633 351.124 225.971 350.968C226.398 350.78 226.826 350.625 227.23 350.492C227.298 350.703 227.355 350.924 227.399 351.147C227.568 351.912 227.646 352.767 227.635 353.699Z" fill="#353A3F"/>
<path d="M231.928 350.399C233.405 351.676 234.276 353.838 234.24 356.738C234.156 363.561 229.12 371.836 222.99 375.221C220.323 376.694 217.891 376.996 215.999 376.308C217.996 378.035 221.107 378.138 224.63 376.191C230.759 372.806 235.796 364.531 235.881 357.709C235.929 353.855 234.383 351.291 231.928 350.399Z" fill="url(#paint1_linear_7_608)"/>
<path d="M232.865 358.559L225.948 362.498L229.155 372.669C228.98 373.186 227.105 372.083 227.105 372.083L222.338 367.026L218.852 375.461C217.75 375.727 218.491 377.46 217.557 377.272C216.239 376.818 215.466 375.783 215.466 375.783L217.514 367.304L213.712 369.479C213.734 368.835 213.79 368.192 213.903 367.537C213.994 366.982 214.36 365.119 214.851 364.014L218.121 361.645L217.019 359.486C217.019 359.476 217.108 359.326 217.289 359.048C218.166 357.682 219.155 356.373 220.259 355.229L221.732 357.117L224.465 351.758C224.847 351.492 224.531 351.712 224.937 351.49C225.285 351.29 225.633 351.123 225.971 350.968C226.399 350.78 226.826 350.625 227.231 350.492C227.534 350.402 227.816 350.325 228.097 350.258C228.525 350.17 228.951 350.103 229.357 350.08L226.556 356.84L233.924 353.953C233.924 353.953 235.773 354.872 235.761 355.804C235.75 356.713 233.044 357.615 232.865 358.559Z" fill="#ACABAA"/>
<path d="M235.751 359.777L228.671 364.441L231.268 370.118C230.212 371.759 230.398 371.482 229.038 372.78L225.06 368.969L220.979 377.522C219.247 377.933 218.817 377.917 217.557 377.272L220.235 369.247L213.91 372.447C213.696 371.603 213.679 371.011 213.689 369.968C213.701 369.168 213.689 368.89 213.824 368.068L220.842 363.586L217.794 358.255C218.84 356.602 218.919 356.518 220.28 355.208L224.453 359.059L228.835 350.131C230.368 349.909 230.6 349.87 231.928 350.399L229.277 358.781L235.761 355.804C235.93 356.569 235.89 356.773 235.88 357.705C235.868 358.614 235.93 358.835 235.751 359.777Z" fill="#E3E2E0"/>
<path d="M227.22 362.492C227.201 363.992 226.095 365.809 224.749 366.554C223.404 367.297 222.327 366.684 222.345 365.187C222.364 363.687 223.471 361.87 224.817 361.125C226.163 360.382 227.239 360.994 227.22 362.492Z" fill="#64737D"/>
<path d="M244.705 308.036L470.338 185.182L396.456 143.255L170.823 266.109L244.705 308.036Z" fill="#E4F4F1"/>
<path d="M274.736 288.792L214.348 254.348L374.404 167.2L436.207 202.539L274.736 288.792Z" fill="#96A29F"/>
<path d="M258.14 175.838C258.14 175.838 261.364 172.048 257.276 165.91C253.79 160.673 251.164 162.254 251.164 162.254C251.164 162.254 247.166 164.845 249.764 169.754C251.409 172.869 253.024 177.084 254.154 177.122C255.288 177.161 255.9 180.922 255.9 180.922L259.182 177.668L258.14 175.838Z" fill="#296A81"/>
<path d="M308.367 260.159L285.858 246.934L313.021 236.712L308.367 260.159Z" fill="#272D32"/>
<path d="M427.139 197.112L404.632 183.889L431.794 173.667L427.139 197.112Z" fill="#272D32"/>
<path d="M303.07 250.216L299.116 256.459L289.475 271.685H289.474L284.714 279.203L278.406 275.344L278.253 275.248L278.068 275.133L278.077 275.12C276.698 274.179 275.688 272.67 275.168 270.684C275.113 270.476 275.06 270.265 275.016 270.046C274.987 269.899 274.963 269.751 274.938 269.6C274.901 269.36 274.87 269.117 274.844 268.866C274.831 268.735 274.817 268.605 274.807 268.471C274.779 268.079 274.764 267.677 274.768 267.257C274.865 259.477 280.586 250.252 287.55 246.65C287.932 246.452 288.311 246.279 288.683 246.127C291.676 244.877 294.353 244.949 296.35 246.132L296.365 246.108L303.07 250.216Z" fill="url(#paint2_linear_7_608)"/>
<path d="M306.402 258.14C306.307 265.92 300.584 275.146 293.621 278.747C286.657 282.347 281.09 278.959 281.186 271.179C281.281 263.399 287.004 254.173 293.967 250.572C300.931 246.972 306.498 250.359 306.402 258.14Z" fill="#3C4559"/>
<path d="M302.728 260.035C302.718 260.77 302.637 261.53 302.492 262.287C302.066 264.56 301.071 266.882 299.712 268.939C298.861 270.234 297.856 271.426 296.761 272.435C295.792 273.331 294.75 274.081 293.673 274.643C292.822 275.086 291.988 275.378 291.21 275.528C289.815 275.807 288.556 275.635 287.542 275.076L287.451 275.019C287.072 274.798 286.728 274.524 286.42 274.181C286.185 273.921 285.977 273.635 285.795 273.314C285.705 273.176 285.631 273.029 285.578 272.884C285.415 272.573 285.296 272.245 285.197 271.892L285.107 271.584C285.025 271.249 284.963 270.887 284.925 270.501C284.88 270.113 284.853 269.708 284.863 269.278C284.863 269.142 284.872 269.017 284.88 268.883C284.898 268.364 284.944 267.845 285.035 267.319C285.107 266.873 285.207 266.429 285.332 265.975C285.506 265.308 285.731 264.644 285.994 263.981C286.365 263.045 286.819 262.129 287.343 261.242L287.352 261.223C287.479 260.995 287.615 260.776 287.759 260.558C288.465 259.48 289.263 258.453 290.15 257.562L290.168 257.543C290.323 257.361 290.504 257.189 290.684 257.025C291.409 256.335 292.169 255.726 292.966 255.227C293.274 255.024 293.592 254.847 293.917 254.68C294.198 254.529 294.479 254.405 294.75 254.289C295.094 254.15 295.438 254.037 295.764 253.942C296.008 253.879 296.235 253.825 296.462 253.779C296.806 253.721 297.149 253.679 297.476 253.674C297.947 253.655 298.39 253.689 298.816 253.788C299.277 253.885 299.703 254.054 300.102 254.284C301.315 254.975 302.174 256.228 302.537 257.964C302.673 258.588 302.736 259.282 302.728 260.035Z" fill="#9D9D9C"/>
<path d="M296.091 256.547C296.082 257.283 296 258.043 295.855 258.799C295.429 261.071 294.434 263.393 293.075 265.45C292.224 266.746 291.218 267.938 290.124 268.946C289.154 269.842 288.113 270.593 287.035 271.153C286.41 271.48 285.786 271.725 285.197 271.892L284.999 271.061C284.918 270.726 284.963 270.887 284.925 270.501C284.88 270.113 284.853 269.708 284.863 269.278C284.872 268.632 284.925 267.978 285.035 267.319C285.107 266.873 285.207 266.429 285.332 265.975C285.759 264.359 286.456 262.743 287.352 261.224C287.479 260.996 287.615 260.776 287.759 260.558C288.465 259.472 289.271 258.443 290.168 257.544C290.323 257.361 290.504 257.189 290.684 257.025C291.689 256.067 292.777 255.265 293.917 254.68C294.198 254.529 294.479 254.405 294.75 254.29C295.094 254.15 295.438 254.038 295.764 253.942C295.819 254.115 295.864 254.296 295.9 254.477C296.036 255.101 296.099 255.794 296.091 256.547Z" fill="#272D32"/>
<path d="M299.545 254.009C300.736 255.086 301.436 256.861 301.407 259.204C301.339 264.718 297.285 271.256 292.349 273.807C290.203 274.918 288.244 275.089 286.722 274.476C288.329 275.932 290.834 276.109 293.671 274.643C298.605 272.09 302.659 265.552 302.727 260.039C302.766 256.925 301.523 254.806 299.545 254.009Z" fill="url(#paint3_linear_7_608)"/>
<path d="M300.3 260.635L294.731 263.611L297.312 271.928C297.172 272.342 295.662 271.394 295.662 271.394L291.825 267.161L289.018 273.874C288.131 274.056 288.726 275.481 287.975 275.3C286.915 274.891 286.291 274.032 286.291 274.032L287.941 267.239L284.88 268.882C284.897 268.364 284.943 267.845 285.034 267.319C285.107 266.873 285.4 265.378 285.796 264.498L288.43 262.683L287.542 260.904C287.542 260.895 287.614 260.776 287.759 260.558C288.465 259.48 289.262 258.453 290.149 257.562L291.336 259.131L293.536 254.882C293.845 254.679 293.591 254.847 293.916 254.68C294.198 254.529 294.478 254.405 294.75 254.29C295.093 254.15 295.437 254.037 295.763 253.942C296.008 253.879 296.234 253.825 296.461 253.779C296.805 253.721 297.149 253.68 297.475 253.674L295.22 259.053L301.151 256.942C301.151 256.942 302.642 257.741 302.632 258.494C302.623 259.229 300.445 259.878 300.3 260.635Z" fill="#9D9D9C"/>
<path d="M302.624 261.708L296.923 265.263L299.016 269.932C298.164 271.227 298.315 271.008 297.219 272.015L294.017 268.814L290.732 275.606C289.338 275.885 288.99 275.859 287.976 275.301L290.133 268.893L285.04 271.287C284.868 270.599 284.853 270.12 284.863 269.277C284.872 268.632 284.862 268.405 284.97 267.745L290.622 264.335L288.168 259.934C289.01 258.628 289.072 258.561 290.169 257.543L293.528 260.784L297.056 253.7C298.291 253.566 298.477 253.541 299.546 254.009L297.413 260.706L302.633 258.494C302.768 259.118 302.737 259.282 302.728 260.035C302.718 260.77 302.768 260.95 302.624 261.708Z" fill="#D4D4D2"/>
<path d="M295.757 263.646C295.741 264.855 294.851 266.292 293.766 266.852C292.683 267.412 291.816 266.885 291.831 265.675C291.847 264.464 292.736 263.027 293.821 262.467C294.904 261.907 295.771 262.434 295.757 263.646Z" fill="#B5B4B2"/>
<path d="M421.846 186.751L417.892 192.994L408.251 208.22H408.249L403.489 215.738L397.181 211.878L397.029 211.783L396.844 211.668L396.851 211.655C395.472 210.715 394.464 209.205 393.942 207.221C393.887 207.011 393.836 206.8 393.791 206.581C393.762 206.435 393.737 206.286 393.714 206.135C393.675 205.897 393.645 205.652 393.62 205.401C393.607 205.27 393.591 205.141 393.583 205.006C393.555 204.614 393.538 204.212 393.544 203.793C393.639 196.013 399.362 186.787 406.325 183.186C406.708 182.989 407.085 182.815 407.459 182.662C410.452 181.412 413.129 181.487 415.125 182.67L415.141 182.644L421.846 186.751Z" fill="url(#paint4_linear_7_608)"/>
<path d="M425.178 194.674C425.081 202.455 419.358 211.682 412.395 215.282C405.433 218.883 399.864 215.494 399.961 207.714C400.057 199.935 405.779 190.708 412.743 187.108C419.705 183.506 425.273 186.895 425.178 194.674Z" fill="#3C4559"/>
<path d="M421.502 196.572C421.494 197.306 421.413 198.065 421.267 198.824C420.842 201.095 419.846 203.417 418.488 205.475C417.637 206.77 416.632 207.962 415.535 208.97C414.566 209.866 413.526 210.617 412.449 211.177C411.597 211.62 410.765 211.913 409.986 212.062C408.591 212.342 407.333 212.169 406.319 211.611L406.228 211.553C405.848 211.333 405.504 211.06 405.195 210.717C404.959 210.456 404.751 210.17 404.571 209.849C404.48 209.711 404.408 209.565 404.353 209.42C404.189 209.108 404.072 208.781 403.973 208.427L403.882 208.119C403.801 207.784 403.737 207.423 403.701 207.036C403.656 206.648 403.629 206.243 403.638 205.813C403.638 205.679 403.646 205.553 403.656 205.418C403.674 204.899 403.719 204.38 403.81 203.855C403.882 203.408 403.981 202.964 404.109 202.511C404.28 201.845 404.507 201.179 404.77 200.517C405.141 199.58 405.593 198.664 406.119 197.777L406.128 197.76C406.255 197.531 406.391 197.313 406.535 197.093C407.242 196.017 408.039 194.988 408.926 194.098L408.945 194.08C409.098 193.898 409.278 193.724 409.46 193.562C410.184 192.87 410.945 192.262 411.742 191.763C412.05 191.559 412.366 191.382 412.693 191.216C412.973 191.065 413.255 190.941 413.526 190.825C413.87 190.686 414.214 190.573 414.54 190.477C414.784 190.415 415.011 190.361 415.236 190.315C415.58 190.257 415.925 190.215 416.25 190.21C416.721 190.192 417.166 190.227 417.591 190.324C418.053 190.422 418.479 190.59 418.876 190.82C420.09 191.512 420.951 192.765 421.313 194.501C421.449 195.125 421.512 195.818 421.502 196.572Z" fill="#9D9D9C"/>
<path d="M414.865 193.083C414.857 193.818 414.776 194.578 414.63 195.335C414.205 197.606 413.208 199.928 411.851 201.986C411 203.282 409.995 204.473 408.898 205.481C407.929 206.379 406.889 207.128 405.812 207.688C405.186 208.015 404.561 208.261 403.973 208.427L403.775 207.596C403.693 207.261 403.737 207.423 403.701 207.036C403.656 206.648 403.629 206.243 403.638 205.813C403.646 205.167 403.701 204.515 403.81 203.855C403.882 203.409 403.981 202.964 404.109 202.511C404.535 200.894 405.231 199.278 406.128 197.76C406.255 197.531 406.391 197.313 406.535 197.093C407.242 196.007 408.048 194.98 408.944 194.08C409.098 193.898 409.278 193.724 409.46 193.562C410.465 192.604 411.552 191.8 412.693 191.216C412.973 191.065 413.255 190.941 413.526 190.825C413.87 190.686 414.214 190.573 414.54 190.478C414.594 190.65 414.64 190.831 414.676 191.012C414.812 191.636 414.875 192.329 414.865 193.083Z" fill="#272D32"/>
<path d="M418.322 190.545C419.511 191.622 420.213 193.396 420.184 195.74C420.116 201.254 416.06 207.791 411.126 210.342C408.979 211.452 407.021 211.623 405.497 211.011C407.106 212.467 409.611 212.644 412.446 211.177C417.382 208.626 421.436 202.089 421.504 196.575C421.543 193.461 420.299 191.341 418.322 190.545Z" fill="url(#paint5_linear_7_608)"/>
<path d="M419.075 197.17L413.507 200.146L416.088 208.465C415.947 208.877 414.437 207.929 414.437 207.929L410.601 203.698L407.793 210.411C406.906 210.592 407.503 212.017 406.752 211.836C405.69 211.428 405.068 210.568 405.068 210.568L406.717 203.775L403.656 205.418C403.674 204.899 403.718 204.381 403.809 203.855C403.882 203.409 404.176 201.913 404.572 201.034L407.205 199.218L406.318 197.44C406.318 197.431 406.391 197.313 406.535 197.093C407.241 196.017 408.039 194.988 408.926 194.098L410.111 195.667L412.313 191.418C412.62 191.214 412.366 191.382 412.693 191.216C412.973 191.065 413.254 190.941 413.526 190.825C413.87 190.685 414.214 190.573 414.54 190.477C414.784 190.415 415.011 190.361 415.236 190.315C415.58 190.257 415.925 190.215 416.25 190.209L413.995 195.59L419.928 193.478C419.928 193.478 421.417 194.277 421.408 195.031C421.398 195.766 419.221 196.413 419.075 197.17Z" fill="#9D9D9C"/>
<path d="M421.4 198.244L415.699 201.799L417.79 206.467C416.94 207.763 417.09 207.543 415.995 208.551L412.793 205.35L409.508 212.141C408.113 212.42 407.766 212.395 406.752 211.836L408.909 205.428L403.816 207.824C403.644 207.136 403.629 206.655 403.638 205.813C403.647 205.167 403.638 204.942 403.746 204.281L409.397 200.872L406.943 196.469C407.785 195.164 407.849 195.098 408.945 194.08L412.303 197.32L415.832 190.235C417.065 190.101 417.253 190.077 418.322 190.544L416.189 197.242L421.409 195.031C421.545 195.654 421.513 195.818 421.503 196.572C421.494 197.306 421.545 197.487 421.4 198.244Z" fill="#D4D4D2"/>
<path d="M414.532 200.18C414.517 201.392 413.626 202.827 412.543 203.387C411.458 203.947 410.593 203.421 410.607 202.21C410.622 200.998 411.513 199.563 412.596 199.002C413.681 198.442 414.546 198.969 414.532 200.18Z" fill="#B5B4B2"/>
<path d="M433.012 170.486L433.132 177.266L425.595 187.839C425.21 187.255 424.796 186.732 424.348 186.24C423.549 185.419 422.59 184.749 421.536 184.329C420.545 183.88 419.459 183.649 418.308 183.606C416.23 183.528 413.993 184.11 411.724 185.26C407.825 187.298 404.31 190.869 401.817 194.988C399.42 198.952 397.918 203.423 397.885 207.602C397.885 209.312 398.077 210.871 398.525 212.249L308.367 260.159C308.43 259.527 308.496 258.865 308.496 258.232C308.526 254.686 307.535 251.736 305.586 249.73C304.98 249.106 304.308 248.573 303.541 248.164C302.358 247.487 300.985 247.118 299.546 247.064C297.437 246.985 295.231 247.567 292.962 248.748C288.68 250.962 284.876 254.999 282.352 259.654C280.37 263.316 279.156 267.292 279.123 271.092C279.091 272.643 279.284 274.106 279.668 275.419V275.45L277.126 276.69L268.726 274.435L263.294 266.6L266.154 264.929L262.733 251.214L316.238 217.963C316.238 217.963 327.823 191.428 335.986 184.027C346.417 174.565 387.658 157.784 387.658 157.784L410.378 167.042L427.771 160.108L431.219 164.269L433.012 170.486Z" fill="#50A9BA"/>
<path d="M431.218 164.269L264.028 251.82L316.237 218.169L410.377 167.042L427.77 160.108L431.218 164.269Z" fill="#80D5D5"/>
<path d="M397.884 207.602C397.884 209.312 398.077 210.871 398.524 212.25L308.367 260.159C308.43 259.528 308.495 258.865 308.495 258.232C308.525 254.686 307.535 251.736 305.586 249.731C304.979 249.106 304.308 248.573 303.541 248.164L401.816 194.989C399.42 198.952 397.918 203.423 397.884 207.602Z" fill="#51A1B5"/>
<path d="M325.473 247.727L325.094 231.171L322.977 219.793L323.844 219.638L325.967 231.084L326.322 246.327L364.682 227.14L366.239 210.636L363.556 196.093L378.684 170.623L393.628 180.026L396.96 194.779L396.945 194.866L393.672 213.018L392.804 212.865L396.062 194.799L392.848 180.566L378.983 171.841L364.482 196.254L367.127 210.599L367.121 210.659L365.515 227.699L365.297 227.807L325.473 247.727Z" fill="#3B8A89"/>
<path d="M308.37 255.104C308.435 255.719 308.5 256.335 308.496 256.995C308.496 257.628 308.431 258.291 308.367 258.922L398.525 211.013C398.181 209.954 398.026 208.758 397.956 207.499L308.37 255.104Z" fill="#4D6170"/>
<path d="M308.495 254.416C308.522 251.299 307.714 248.683 306.204 246.723L303.541 248.164C304.308 248.573 304.979 249.106 305.586 249.731C307.168 251.357 308.083 253.629 308.368 256.313C308.431 255.691 308.495 255.04 308.495 254.416Z" fill="#40A244"/>
<path d="M308.37 256.341C308.435 256.957 308.5 257.572 308.496 258.232C308.496 258.865 308.431 259.528 308.367 260.159L398.525 212.25C398.181 211.191 398.026 209.995 397.956 208.735L308.37 256.341Z" fill="#3C4559"/>
<path d="M436.173 176.457V181.555L434.415 186.809L430.004 191.109L428.055 196.578L427.065 197.109C427.192 196.322 427.257 195.566 427.257 194.773C427.288 192.082 426.712 189.718 425.594 187.839C425.21 187.255 424.795 186.732 424.348 186.24C423.549 185.419 422.59 184.749 421.535 184.329L430.036 179.71L431.827 178.763L436.173 176.457Z" fill="#3C4559"/>
<path d="M403.31 170.879L400.506 177.743L394.178 181.084L393.475 181.437L392.739 181.853L390.791 182.951L389.192 183.842L388.201 184.406L386.859 185.147L385.773 185.739L363.369 198.228L360.493 199.83L330.291 216.65L328.885 217.419L321.278 221.662L320.415 216.816L332.751 194.954L334.126 192.504L338.185 185.31L383.375 162.406L383.887 162.108L385.37 161.367L403.31 170.879Z" fill="#3C4559"/>
<path d="M384.546 163.228L399.395 173.005L398.836 177.193L322.205 219.67L321.76 217.101L339.116 186.263L384.546 163.228Z" fill="#559DA2"/>
<path d="M393.238 181.131L392.247 182.107L391.543 182.461L390.808 182.877L380.998 164.52L381.444 163.429L381.955 163.132L383.043 163.711L393.238 181.131Z" fill="#3C4559"/>
<path d="M365.097 196.705L362.221 198.307L357.312 176.785L360.221 175.47L365.097 196.705Z" fill="#3C4559"/>
<path d="M334.477 192.327V213.582L333.072 214.353L332.751 194.954L334.126 192.504L334.477 192.327Z" fill="#3C4559"/>
<path d="M310.62 244.359V249.604L397.71 198.533L396.511 197.795L310.62 244.359Z" fill="#4D6170"/>
<path d="M311.819 245.097V250.342L397.71 203.777V198.532L311.819 245.097Z" fill="#3C4559"/>
<path d="M207.66 229.136L206.327 217.198L263.279 250.951L265.833 263.647C265.833 263.647 227.93 253.019 207.66 229.136Z" fill="#272D32"/>
<path d="M265.296 261.668L264.89 259.65C260.344 257.891 231.733 246.354 208.085 225.74C207.671 225.38 207.561 223.642 207.561 223.642L207.307 223.85L207.412 225.626L207.561 225.505C207.561 225.505 207.671 227.242 208.085 227.603C232.62 248.989 262.496 260.607 265.296 261.668Z" fill="#272D32"/>
<path d="M265.296 258.907L264.89 256.888C260.344 255.129 231.733 243.592 208.085 222.979C207.671 222.618 207.561 220.881 207.561 220.881L207.307 221.089L207.412 222.866L207.561 222.744C207.561 222.744 207.671 224.481 208.085 224.842C232.62 246.229 262.496 257.846 265.296 258.907Z" fill="#272D32"/>
<path d="M265.296 256.146L264.89 254.126C260.344 252.369 231.733 240.83 208.085 220.217C207.671 219.856 207.561 218.119 207.561 218.119L207.307 218.327L207.412 220.104L207.561 219.982C207.561 219.982 207.671 221.719 208.085 222.08C232.62 243.467 262.496 255.084 265.296 256.146Z" fill="#272D32"/>
<path d="M265.296 262.166L264.89 260.146C260.344 258.389 231.733 246.85 208.085 226.237C207.671 225.877 207.561 224.139 207.561 224.139L207.307 224.347L207.412 226.124L207.561 226.002C207.561 226.002 207.671 227.739 208.085 228.1C232.62 249.487 262.496 261.104 265.296 262.166Z" fill="#4D6170"/>
<path d="M265.296 259.403L264.89 257.385C260.344 255.626 231.733 244.088 208.085 223.475C207.671 223.115 207.561 221.377 207.561 221.377L207.307 221.585L207.412 223.362L207.561 223.239C207.561 223.239 207.671 224.978 208.085 225.337C232.62 246.724 262.496 258.343 265.296 259.403Z" fill="#4D6170"/>
<path d="M265.296 256.641L264.89 254.623C260.344 252.864 231.733 241.327 208.085 220.714C207.671 220.353 207.561 218.616 207.561 218.616L207.307 218.823L207.412 220.601L207.561 220.479C207.561 220.479 207.671 222.216 208.085 222.577C232.62 243.962 262.496 255.581 265.296 256.641Z" fill="#4D6170"/>
<path d="M264.889 251.861C260.364 250.111 231.984 238.657 208.395 218.212C208.179 218.564 207.997 218.933 207.822 219.308C207.891 219.532 207.976 219.72 208.085 219.814C232.62 241.2 262.496 252.819 265.295 253.88L264.889 251.861Z" fill="#4D6170"/>
<path d="M210.469 244.626L268.215 279.366L268.726 274.436L210.989 239.671L210.469 244.626Z" fill="#191D21"/>
<path d="M279.123 271.092C279.091 272.642 279.283 274.106 279.667 275.419L277.045 276.682L268.224 279.358L268.736 274.438L266.914 274.242C265.125 274.048 263.399 275.261 261.769 274.471C261.385 274.266 261.002 274.062 260.65 273.858L206.991 241.661C206.415 241.323 205.904 240.86 205.521 240.34C204.944 239.59 204.593 238.689 204.53 237.8L204.114 230.523L205.521 231.335L261.769 264.326L263.303 265.24V265.461L282.351 258.828V259.654C280.369 263.316 279.156 267.292 279.123 271.092Z" fill="#3C4559"/>
<path d="M261.769 264.326V274.459C261.385 274.256 261.002 274.052 260.65 273.848C260.65 273.848 249.688 269.793 235.978 262.059C231.535 259.547 226.774 256.677 222.012 253.395C216.898 249.908 211.785 245.979 206.991 241.651C206.51 241.22 205.904 240.85 205.521 240.328V231.335L261.769 264.326Z" fill="#272D32"/>
<path d="M263.939 253.011L253.467 247.691C252.726 247.33 251.739 247.979 251.807 248.781L252.128 252.625C252.236 253.922 252.997 255.021 254.191 255.606L263.126 259.989L263.939 253.011Z" fill="#9FB7D6"/>
<path d="M216.861 226.222L208.833 219.706L209.456 228.233L217.244 234.581C217.924 235.134 218.912 234.651 218.85 233.796L218.531 229.391C218.443 228.165 217.836 227.013 216.861 226.222Z" fill="#9FB7D6"/>
<path d="M209.456 220.212C209.726 219.526 206.699 217.702 206.699 217.702C205.243 223.195 207.573 226.386 207.573 226.386L209.456 228.233C209.456 228.233 208.88 221.68 209.456 220.212Z" fill="#DF7E26"/>
<path d="M232.346 238.458C232.363 239.885 233.412 241.655 234.687 242.41C235.963 243.166 236.984 242.623 236.965 241.196C236.948 239.768 235.899 237.999 234.624 237.244C233.348 236.488 232.328 237.031 232.346 238.458Z" fill="#718799"/>
<path d="M231.687 238.746C231.704 240.174 232.753 241.943 234.03 242.698C235.305 243.455 236.325 242.911 236.307 241.484C236.29 240.057 235.241 238.287 233.966 237.532C232.689 236.777 231.669 237.32 231.687 238.746Z" fill="#C4C2C1"/>
<path d="M280.675 257.924L282.351 258.828L265.47 265.806C264.095 266.307 262.541 266.148 261.249 265.374C261.249 265.374 218.935 247.122 204.845 231.557C204.141 230.781 203.822 229.777 204.606 229.137L207.56 226.723C207.56 226.723 207.67 228.462 208.085 228.822C233.85 251.28 265.531 262.975 265.531 262.975L280.675 257.924Z" fill="#4D6170"/>
<path d="M252.387 263.789V265.234C252.387 265.877 252.745 266.423 253.316 266.664L259.561 269.302C260.064 269.514 260.694 269.065 260.694 268.498V268.092L255.465 265.887C254.894 265.646 254.536 265.1 254.536 264.458V263.419L253.519 262.995C253.015 262.783 252.387 263.23 252.387 263.789Z" fill="#4D6170"/>
<path d="M254.536 263.418V264.457C254.536 265.1 254.894 265.646 255.464 265.887L260.693 268.091V267.062C260.693 266.41 260.335 265.864 259.763 265.623L254.536 263.418Z" fill="#C1DAE1"/>
<path d="M206.597 235.108V236.176C206.597 236.749 206.811 237.287 207.153 237.586L210.89 240.858C211.191 241.122 211.567 240.815 211.567 240.311V239.949L208.438 237.214C208.096 236.915 207.884 236.376 207.884 235.803V235.098L207.274 234.57C206.974 234.305 206.597 234.612 206.597 235.108Z" fill="#4D6170"/>
<path d="M207.884 235.097V235.803C207.884 236.376 208.097 236.914 208.439 237.214L211.568 239.948V239.25C211.568 238.67 211.354 238.131 211.013 237.832L207.884 235.097Z" fill="#C1DAE1"/>
<path d="M236.042 257.089V261.649C236.042 261.808 236.01 261.934 235.978 262.059C231.535 259.548 226.775 256.677 222.012 253.395C221.949 253.234 221.916 253.075 221.916 252.948V248.388C221.916 247.469 222.587 247.178 223.419 247.684L234.54 254.531C235.372 255.037 236.042 256.203 236.042 257.089Z" fill="#18191B"/>
<path d="M223.41 254.576C222.584 254.064 221.911 252.921 221.911 252.025L221.909 247.454C221.909 246.559 222.582 246.245 223.41 246.756L234.535 253.615C235.363 254.124 236.036 255.268 236.036 256.164V260.734C236.036 261.631 235.363 261.944 234.536 261.435L223.41 254.576Z" fill="#D4D4D2"/>
<path d="M234.537 261.129L223.41 254.27C222.739 253.855 222.193 252.929 222.193 252.199V247.628C222.193 246.9 222.737 246.646 223.41 247.061L234.535 253.92C235.208 254.335 235.754 255.262 235.754 255.99V260.562C235.754 261.29 235.21 261.544 234.537 261.129Z" fill="#E9F066"/>
<path d="M235.748 255.959C235.734 255.235 235.199 254.33 234.535 253.921L223.41 247.061C222.747 246.652 222.212 246.898 222.198 247.602L235.748 255.959Z" fill="#CEA630"/>
<path d="M222.198 252.233C222.212 252.956 222.747 253.861 223.41 254.27L234.536 261.13C235.199 261.539 235.734 261.292 235.75 260.588L222.198 252.233Z" fill="#CEA630"/>
<path d="M368.665 123.996L427.771 160.109L410.377 167.042L347.648 128.7L361.186 123.306C363.601 122.344 366.38 122.6 368.665 123.996Z" fill="#96DCDD"/>
<path d="M263.939 253.011L254.116 248.007L254.377 251.118C254.485 252.415 255.245 253.514 256.44 254.1L262.901 257.27L263.939 253.011Z" fill="#C1DAE1"/>
<path d="M218.531 229.391C218.443 228.165 217.836 227.013 216.861 226.222L211.388 221.78L211.674 225.692C211.756 226.818 212.312 227.876 213.207 228.605L218.805 233.168L218.531 229.391Z" fill="#C1DAE1"/>
<path d="M347.647 128.7C369.045 136.92 410.377 167.042 410.377 167.042L387.658 157.784L327.314 120.374C327.314 120.374 341.922 126.501 347.647 128.7Z" fill="#3C4559"/>
<path d="M387.422 156.908C359.89 137.697 338.188 125.348 338.188 125.348C341.643 126.753 344.926 128.228 346.879 128.976C362.565 135.004 388.267 152.899 402.203 162.588C402.203 162.588 390.679 159.182 387.422 156.908Z" fill="#90DADB"/>
<path d="M207.697 218.07C232.042 237.569 264.029 251.82 264.029 251.82L316.237 217.963L253.483 179.65L206.524 217.131C206.524 217.131 206.524 217.131 207.697 218.07Z" fill="#80D5D5"/>
<path d="M260.549 187.975C260.549 187.975 262.68 194.887 278.261 204.183C293.842 213.476 302.315 213.533 302.315 213.533L316.238 218.168L254.217 179.679L260.549 187.975Z" fill="#3C4559"/>
<path d="M276.263 147.324C276.263 147.324 294.23 165.017 335.985 184.027C335.985 184.027 325.386 200.435 316.237 217.964C316.237 217.964 278.945 203.056 253.483 179.65C253.483 179.65 263.746 164.581 276.263 147.324Z" fill="#3C4559"/>
<path d="M334.478 184.379C331.666 187.946 323.516 202.112 315.781 216.767C310.285 214.471 277.623 200.322 254.675 179.445C256.177 176.398 265.956 163.592 276.408 148.691C276.887 149.12 277.589 149.717 278.485 150.478C281.297 152.833 286.123 156.719 293.25 161.548C302.743 167.922 316.261 175.998 334.478 184.379Z" fill="#417C88"/>
<path d="M218.408 224.051L260.549 187.975C260.549 187.975 254.341 180.718 252.387 181.955C229.942 196.167 210.746 215.405 210.746 215.405L218.408 224.051Z" fill="#6DC2B5"/>
<path d="M218.408 224.051L259.74 186.894L253.483 179.65C231.038 193.864 206.327 217.198 206.327 217.198L218.408 224.051Z" fill="#96DCDD"/>
<path d="M262.615 251.211L316.238 218.169L302.315 213.534L249.204 243.272L262.615 251.211Z" fill="#96DCDD"/>
<path d="M293.407 215.806L292.448 216.397C291.958 216.701 290.974 216.685 290.311 216.363L280.459 211.65C279.231 211.055 279.136 210.143 280.254 209.686L281.182 209.307C281.71 209.09 282.552 209.137 283.138 209.414L292.874 213.976C293.987 214.502 294.221 215.304 293.407 215.806Z" fill="#382931"/>
<path d="M289.059 216.124L289.852 216.385L294.133 214.149L293.483 213.777L289.059 216.124Z" fill="#80D5D5"/>
<path d="M286.956 215.261L287.749 215.522L292.03 213.285L291.38 212.915L286.956 215.261Z" fill="#80D5D5"/>
<path d="M284.853 214.399L285.646 214.66L289.928 212.423L289.277 212.052L284.853 214.399Z" fill="#80D5D5"/>
<path d="M282.75 213.537L283.543 213.798L287.825 211.562L287.175 211.192L282.75 213.537Z" fill="#80D5D5"/>
<path d="M280.784 212.609L281.577 212.869L285.858 210.634L285.208 210.262L280.784 212.609Z" fill="#80D5D5"/>
<path d="M279.135 211.503L279.928 211.762L284.211 209.526L283.56 209.156L279.135 211.503Z" fill="#80D5D5"/>
<path d="M256.967 193.131L257.897 192.504C258.372 192.184 259.217 192.275 259.733 192.702L267.4 198.99C268.354 199.783 268.278 200.865 267.235 201.321L266.367 201.701C265.874 201.916 265.157 201.8 264.699 201.429L257.105 195.329C256.239 194.626 256.177 193.663 256.967 193.131Z" fill="#382931"/>
<path d="M260.77 193.079L260.131 192.714L256.05 195.033L256.545 195.519L260.77 193.079Z" fill="#80D5D5"/>
<path d="M262.431 194.252L261.794 193.886L257.713 196.206L258.208 196.69L262.431 194.252Z" fill="#80D5D5"/>
<path d="M264.094 195.424L263.455 195.057L259.374 197.377L259.87 197.863L264.094 195.424Z" fill="#80D5D5"/>
<path d="M265.756 196.597L265.117 196.23L261.035 198.55L261.531 199.036L265.756 196.597Z" fill="#80D5D5"/>
<path d="M267.289 197.837L266.65 197.47L262.568 199.79L263.064 200.274L267.289 197.837Z" fill="#80D5D5"/>
<path d="M268.515 199.263L267.878 198.897L263.794 201.217L264.291 201.701L268.515 199.263Z" fill="#80D5D5"/>
<path d="M274.875 155.706L260.03 177.092L260.475 179.662L271.847 173.377L274.875 155.706Z" fill="#93D1A8"/>
<path d="M293.249 161.548L273.275 172.608L276.566 153.257L278.485 150.479C281.297 152.833 286.123 156.72 293.249 161.548Z" fill="#93D1A8"/>
<path d="M327.315 120.375C324.917 119.354 276.263 147.325 276.263 147.325C276.263 147.325 296.093 166.54 335.985 184.027L387.658 157.784C387.658 157.784 348.842 129.539 327.315 120.375Z" fill="#96DCDD"/>
<path d="M436.173 176.457L433.05 172.679L432.88 175.267L419.415 182.952L421.536 184.329L436.173 176.457Z" fill="#4D6170"/>
<path d="M431.219 164.268C430.731 164.545 430.944 164.384 430.481 164.687C430.078 164.95 429.753 165.477 429.54 165.897C429.27 166.429 429.224 166.875 429.224 167.469C429.224 168.149 429.224 168.829 429.224 169.509C429.224 170.267 429.224 171.025 429.224 171.785C429.224 172.128 429.224 172.47 429.224 172.814C429.224 173.24 429.377 173.595 429.676 173.923L429.813 174.055C430.162 174.336 430.625 173.983 430.929 173.829C431.397 173.592 431.826 173.241 432.259 172.949C432.762 172.612 432.51 172.691 433.011 172.352V170.485L431.219 164.268Z" fill="#DF7E26"/>
<path d="M311.819 245.097V250.342L310.62 249.603V244.358L311.819 245.097Z" fill="#272D32"/>
<path d="M282.351 259.655C282.351 259.655 288.94 250.197 294.421 248.072C299.899 245.945 304.247 247.954 305.586 249.731C306.925 251.507 308.53 253.439 308.447 256.798C308.366 260.159 308.366 260.159 308.366 260.159L308.972 253.512C308.972 253.512 308.023 242.706 296.737 243.836C285.451 244.968 279.139 258.436 279.139 258.436L282.351 259.655Z" fill="#4D6170"/>
<path d="M304.495 245.53C302.903 244.848 300.927 244.488 298.414 244.74C287.127 245.872 280.968 259.993 280.968 259.993L282.073 260.181C283.478 258.254 289.672 249.912 294.421 248.071C298.87 246.345 302.54 247.351 304.493 248.738C305.786 249.242 307.773 252.56 308.367 260.158L310.405 259.075C309.619 251.524 307.788 247.836 304.495 245.53Z" fill="#3C4559"/>
<path d="M421.846 184.464C421.846 184.464 414.583 183.033 410.266 186.103C405.948 189.175 400.344 195.603 399.745 202.013L397.955 208.735L397.208 207.895C397.208 207.895 397.941 202.271 398.524 199.918C399.108 197.565 400.373 190.369 408.703 185.02C414.505 181.295 419.415 182.952 419.415 182.952L421.846 184.464Z" fill="#4D6170"/>
<path d="M398.525 212.249L399.608 211.534C399.608 211.534 398.958 205.918 400.456 200.614C401.954 195.308 406.249 189.383 411.143 187.143C416.037 184.902 419.765 184.633 421.846 185.807C423.926 186.982 426.351 188.973 426.886 191.135C427.422 193.298 428.421 190.366 428.421 190.366L424.625 184.446L421.846 184.465C421.846 184.465 417.698 183.359 413.5 184.473C409.304 185.589 402.076 191.706 399.633 200.582C397.726 207.505 397.956 208.735 397.956 208.735L396.511 211.813L398.525 212.249Z" fill="#3C4559"/>
<path d="M304.268 235.513L302.411 236.465C301.912 236.732 301.603 237.249 301.603 237.821V238.505C301.603 239.12 302.276 239.531 302.814 239.243L304.672 238.282C305.172 238.015 305.479 237.499 305.479 236.927V236.253C305.479 235.637 304.806 235.227 304.268 235.513Z" fill="#E05E1C"/>
<path d="M304.606 235.787L302.75 236.739C302.249 237.006 301.94 237.523 301.94 238.095V238.779C301.94 239.394 302.613 239.805 303.152 239.517L305.009 238.556C305.509 238.288 305.817 237.773 305.817 237.201V236.527C305.817 235.911 305.145 235.501 304.606 235.787Z" fill="#DCA61F"/>
<path d="M263.216 252.642L263.939 253.011C264.016 253.058 264.68 252.634 264.822 252.609C265.943 252.424 266.09 253.614 266.304 254.315C266.565 255.172 267.183 255.762 267.445 256.62C267.677 257.383 268.135 259.107 267.563 259.952C267.333 260.29 265.761 261.277 265.385 261.094L263.126 259.99C263.126 259.99 261.716 255.902 263.216 252.642Z" fill="#DF7E26"/>
<path d="M266.155 178.186C265.466 178.347 260.856 179.302 255.916 177.4C255.337 178.278 254.902 178.985 254.675 179.445C277.623 200.322 310.285 214.471 315.781 216.767C316.587 215.241 318.287 212.07 319.095 210.565C307.115 202.843 291.743 193.432 266.155 178.186Z" fill="#5A959B"/>
<path d="M297.571 208.141L310.612 212.624L313.387 207.421L300.318 203.117L297.571 208.141Z" fill="#F5F012"/>
<path d="M342.18 216.115C342.18 216.115 342.403 219.861 338.599 220.73C337.961 220.897 337.194 220.962 336.33 220.93C332.432 220.72 327.542 221.075 326.775 219.969C325.975 218.894 322.172 219.986 322.172 219.986C321.534 219.423 321.246 218.685 321.246 217.924C321.246 217.164 321.534 216.447 322.172 215.933L322.972 215.297L325.305 215.481C325.305 215.481 325.4 215.136 325.656 214.607C326.423 213.053 328.821 209.944 335.052 211.287C343.17 213.05 342.18 216.115 342.18 216.115Z" fill="#3A8397"/>
<path d="M362.885 205.843L356.475 209.331C356.47 208.112 356.267 207.39 357.538 206.7C357.538 206.7 359.514 205.423 361.316 204.581C363.008 203.794 362.885 205.843 362.885 205.843Z" fill="#3C4559"/>
<path d="M392.011 189.598L385.602 193.084C385.597 191.867 385.392 191.143 386.663 190.454C386.663 190.454 388.641 189.176 390.442 188.334C392.135 187.547 392.011 189.598 392.011 189.598Z" fill="#3C4559"/>
<path d="M297.039 265.939L294.323 265.756V200.111H297.052V246.16L304.357 193.931L307.06 194.3L297.039 265.939Z" fill="#2D3593"/>
<path d="M410.794 201.475L390.906 143.682L393.489 142.816L408.402 186.156L400.87 137.457L403.566 137.051L413.433 200.84L410.794 201.475Z" fill="#2D3593"/>
<path d="M269.365 184.599L261.69 180.224L359.08 121.984L366.755 126.36L269.365 184.599Z" fill="#B4B2A8"/>
<path d="M394.045 146.673L334.478 112.68V107.811L406.372 134.452V139.32L394.045 146.673Z" fill="#B4B2A8"/>
<path d="M269.365 179.732L261.69 175.356L359.08 117.115L366.755 121.492L269.365 179.732Z" fill="#E4F4F1"/>
<path d="M394.045 141.805L334.478 107.811L346.804 100.457L406.372 134.452L394.045 141.805Z" fill="#E4F4F1"/>
<path d="M295.324 201.793L235.754 167.8V162.931L307.649 189.57V194.439L295.324 201.793Z" fill="#B4B2A8"/>
<path d="M295.324 196.925L235.754 162.931L248.081 155.577L307.649 189.57L295.324 196.925Z" fill="#E4F4F1"/>
<path d="M325.756 141.806H323.028V103.323H325.756V141.806Z" fill="#2D3593"/>
<path d="M120.741 232.061L157.436 217.905V304.11L110.419 330.534V288.612L120.741 232.061Z" fill="#F27824"/>
<path d="M110.42 288.613C110.42 288.613 106.452 312.943 110.42 329.496C115.325 349.952 184.289 371.416 184.289 371.416V330.535C184.289 330.535 128.784 312.943 110.42 288.613Z" fill="#476093"/>
<path d="M122.194 318.951C120.657 317.797 118.46 318.873 118.51 320.778C118.586 323.861 118.661 326.82 119.201 331.017C119.327 331.994 119.979 332.839 120.757 333.453C124.091 336.09 135.243 343.977 164.638 358.127C166.23 358.893 168.068 357.672 167.932 355.929C167.695 352.889 167.6 349.883 167.796 346.487C167.903 344.641 166.817 342.948 165.099 342.208C157.21 338.815 135.776 329.163 122.194 318.951Z" fill="#20262D"/>
<path d="M244.705 318.254L470.338 190.419V185.181L244.705 308.035V318.254Z" fill="#BDCEC9"/>
<path d="M170.823 275.909L244.705 317.835V307.287L170.823 265.361V275.909Z" fill="#353A3F"/>
<path d="M240.197 326.109L260.628 314.533L249.127 257.474L237.854 263.86L240.197 326.109Z" fill="#799ACF"/>
<path d="M175.244 215.557L249.126 257.485L237.854 263.872L163.972 221.944L175.244 215.557Z" fill="#5D7CBA"/>
<path d="M165.356 247.557L239.238 289.483L237.854 263.871L163.972 221.943L165.356 247.557Z" fill="#476093"/>
<path d="M318.102 112.226V126.655C318.102 128.032 319.536 129.231 321.626 129.801C321.846 129.865 322.083 129.916 322.324 129.967L322.604 130.014L322.821 130.046L323.053 130.079C323.25 130.106 323.455 130.121 323.659 130.133L323.924 130.148C324.076 130.153 324.236 130.157 324.392 130.157C324.55 130.157 324.71 130.153 324.862 130.148L325.123 130.133C325.331 130.121 325.523 130.106 325.72 130.079L325.964 130.046L326.178 130.014L326.458 129.967C326.699 129.923 326.935 129.865 327.16 129.801L327.517 129.694C327.736 129.623 327.95 129.548 328.149 129.461L328.359 129.373C328.526 129.295 328.687 129.215 328.84 129.132L329.048 129.01C329.257 128.883 329.454 128.745 329.63 128.598L329.77 128.471L330.059 128.174L330.283 127.882L330.423 127.649L330.535 127.403L330.551 127.359L330.592 127.232L330.616 127.163C330.66 126.996 330.68 126.826 330.68 126.652V112.226C330.68 111.046 329.63 109.998 328.018 109.368C327.833 109.294 327.641 109.223 327.436 109.163L327.16 109.076C326.322 108.851 325.388 108.724 324.392 108.724C323.399 108.724 322.46 108.851 321.626 109.076C319.536 109.649 318.102 110.841 318.102 112.226Z" fill="#646668"/>
<path d="M316.958 104.275V122.122L323.818 126.014L327.942 119.563L334.6 105.003L335.581 103.323L328.735 99.429L316.958 104.275Z" fill="#476093"/>
<path d="M323.804 126.014V108.167L335.581 103.323L331.564 121.623L323.804 126.014Z" fill="#5D7CBA"/>
<path d="M202.011 190.256C203.704 187.365 206.417 185.784 208.072 186.728L208.258 186.856L208.261 186.852L210.724 188.253L204.597 198.725L201.945 197.2C200.289 196.257 200.318 193.148 202.011 190.256Z" fill="url(#paint6_linear_7_608)"/>
<path d="M204.597 198.725C206.252 199.667 208.966 198.088 210.657 195.196C212.35 192.304 212.379 189.196 210.725 188.252C209.068 187.31 206.356 188.89 204.663 191.781C202.972 194.673 202.941 197.782 204.597 198.725Z" fill="#4E5666"/>
<path d="M211.984 252.762L228.733 254.415L224.898 240.154L211.984 247.312V252.762Z" fill="#799ACF"/>
<path d="M211.983 252.763L202.971 247.627V242.177L211.983 247.312V252.763Z" fill="#EA8C14"/>
<path d="M224.9 240.158L211.984 247.312L202.969 242.177L215.887 235.022L224.9 240.158Z" fill="#20262D"/>
<path d="M204.877 203.558V242.653L211.736 246.545L215.861 240.094L222.519 204.288L223.5 202.608L216.653 198.714L204.877 203.558Z" fill="#476093"/>
<path d="M211.724 246.545V207.452L223.5 202.608L223.387 240.13L211.724 246.545Z" fill="#5D7CBA"/>
<path d="M215.886 212.592L229.348 204.871V202.24L215.886 209.962V212.592Z" fill="#5D7CBA"/>
<path d="M215.886 212.592L200.727 203.953V201.324L215.886 209.962V212.592Z" fill="#5D7CBA"/>
<path d="M229.35 202.245L215.887 209.962L200.723 201.324L214.187 193.606L229.35 202.245Z" fill="#799ACF"/>
<path d="M306.576 87.7767C308.318 84.7993 311.11 83.173 312.814 84.1436L313.005 84.2762L313.008 84.2719L315.544 85.7143L309.238 96.4922L306.508 94.923C304.804 93.9524 304.834 90.7526 306.576 87.7767Z" fill="url(#paint7_linear_7_608)"/>
<path d="M309.237 96.4919C310.94 97.4625 313.732 95.8363 315.474 92.8603C317.216 89.8829 317.247 86.6831 315.544 85.7139C313.839 84.7433 311.047 86.3696 309.305 89.3455C307.563 92.3215 307.533 95.5213 309.237 96.4919Z" fill="#4E5666"/>
<path d="M326.514 106.191L332.519 96.3209L317.205 87.5855C317.205 87.5855 312.957 86.0305 310.34 89.893C307.208 94.5108 309.678 96.586 309.678 96.586L326.514 106.191Z" fill="url(#paint8_linear_7_608)"/>
<path d="M213.099 188.603L313.606 87.2014L323.237 92.7099L318.251 105.835L227.003 200.177L225.616 202.54L215.992 197.046L213.099 188.603Z" fill="#799ACF"/>
<path d="M224.956 208.911L228.821 200.608L211.22 190.566C211.22 190.566 207.861 189.337 205.793 192.39C203.319 196.04 205.27 197.68 205.27 197.68L224.956 208.911Z" fill="url(#paint9_linear_7_608)"/>
<path d="M323.228 92.6941L222.723 194.096L225.616 202.54L323.341 108.741L323.228 92.6941Z" fill="#5D7CBA"/>
<path d="M220.585 200.894C222.276 198.001 224.99 196.422 226.646 197.364L226.831 197.493L226.835 197.488L229.299 198.889L223.17 209.363L220.517 207.837C218.862 206.895 218.892 203.785 220.585 200.894Z" fill="url(#paint10_linear_7_608)"/>
<path d="M223.17 209.363C224.826 210.305 227.54 208.726 229.231 205.834C230.924 202.943 230.953 199.833 229.299 198.889C227.644 197.947 224.93 199.526 223.237 202.42C221.545 205.311 221.515 208.42 223.17 209.363Z" fill="#4E5666"/>
<path d="M324.867 98.3116C326.607 95.3341 329.401 93.7079 331.104 94.6785L331.296 94.8111L331.299 94.8068L333.833 96.2492L327.527 107.027L324.797 105.458C323.094 104.487 323.125 101.288 324.867 98.3116Z" fill="url(#paint11_linear_7_608)"/>
<path d="M327.527 107.027C329.23 107.997 332.023 106.371 333.765 103.395C335.506 100.419 335.537 97.2199 333.833 96.2493C332.13 95.2788 329.336 96.9049 327.596 99.8807C325.854 102.856 325.824 106.056 327.527 107.027Z" fill="#4E5666"/>
<path d="M416.275 242.912L411.366 250.818L399.39 270.099L399.389 270.1L393.475 279.619L385.641 275.14L385.451 275.029L385.222 274.895L385.232 274.878C383.519 273.779 382.265 271.959 381.618 269.529C381.55 269.272 381.485 269.014 381.43 268.745C381.394 268.565 381.364 268.381 381.335 268.196C381.287 267.903 381.248 267.602 381.218 267.294C381.202 267.131 381.183 266.972 381.172 266.807C381.137 266.322 381.117 265.826 381.122 265.307C381.242 255.68 388.349 244.001 396.998 239.224C397.475 238.962 397.943 238.731 398.406 238.524C402.124 236.838 405.448 236.805 407.928 238.175L407.948 238.144L416.275 242.912Z" fill="url(#paint12_linear_7_608)"/>
<path d="M420.415 252.557C420.295 262.186 413.187 273.863 404.537 278.64C395.888 283.419 388.974 279.487 389.092 269.859C389.212 260.232 396.32 248.553 404.969 243.776C413.617 238.997 420.533 242.929 420.415 252.557Z" fill="#4E5666"/>
<path d="M415.848 255.074C415.838 255.983 415.736 256.927 415.556 257.87C415.028 260.699 413.79 263.618 412.103 266.226C411.047 267.868 409.798 269.389 408.437 270.687C407.234 271.842 405.941 272.818 404.602 273.561C403.545 274.149 402.511 274.55 401.543 274.771C399.811 275.181 398.248 275.026 396.989 274.383L396.876 274.316C396.404 274.061 395.976 273.739 395.593 273.328C395.301 273.018 395.043 272.674 394.818 272.285C394.705 272.118 394.615 271.941 394.547 271.763C394.345 271.386 394.199 270.987 394.075 270.555C394.03 270.432 393.997 270.31 393.962 270.177C393.861 269.767 393.783 269.322 393.737 268.844C393.681 268.368 393.648 267.868 393.659 267.335C393.659 267.17 393.671 267.014 393.681 266.848C393.704 266.203 393.76 265.561 393.873 264.905C393.962 264.351 394.087 263.796 394.244 263.23C394.458 262.398 394.738 261.566 395.065 260.733C395.525 259.556 396.089 258.402 396.74 257.281L396.752 257.259C396.909 256.971 397.078 256.693 397.259 256.416C398.135 255.051 399.125 253.741 400.227 252.598L400.25 252.577C400.441 252.343 400.666 252.121 400.891 251.911C401.79 251.023 402.734 250.235 403.725 249.579C404.108 249.313 404.501 249.081 404.905 248.858C405.255 248.659 405.603 248.492 405.941 248.337C406.369 248.149 406.795 247.993 407.201 247.859C407.504 247.771 407.786 247.694 408.066 247.627C408.493 247.539 408.921 247.472 409.325 247.449C409.91 247.405 410.462 247.427 410.991 247.527C411.564 247.627 412.093 247.815 412.587 248.082C414.095 248.881 415.162 250.39 415.613 252.521C415.782 253.287 415.86 254.142 415.848 255.074Z" fill="#ACABAA"/>
<path d="M407.605 251.067C407.593 251.976 407.492 252.92 407.312 253.863C406.785 256.693 405.547 259.612 403.86 262.22C402.802 263.862 401.554 265.382 400.194 266.681C398.99 267.835 397.696 268.812 396.359 269.556C395.582 269.987 394.806 270.321 394.075 270.555C394.03 270.432 393.863 269.668 393.83 269.536C393.729 269.125 393.783 269.322 393.737 268.844C393.681 268.368 393.648 267.868 393.659 267.335C393.671 266.537 393.737 265.727 393.873 264.905C393.962 264.351 394.087 263.796 394.244 263.23C394.773 261.209 395.638 259.178 396.752 257.258C396.909 256.971 397.078 256.693 397.259 256.416C398.135 255.039 399.136 253.73 400.25 252.576C400.441 252.343 400.666 252.12 400.891 251.911C402.139 250.678 403.488 249.635 404.905 248.858C405.255 248.658 405.603 248.492 405.941 248.336C406.369 248.148 406.795 247.993 407.201 247.859C407.267 248.07 407.323 248.292 407.368 248.515C407.537 249.28 407.617 250.135 407.605 251.067Z" fill="#353A3F"/>
<path d="M411.898 247.767C413.375 249.045 414.247 251.206 414.211 254.108C414.126 260.929 409.089 269.205 402.96 272.59C400.294 274.064 397.862 274.366 395.969 273.678C397.967 275.405 401.077 275.508 404.601 273.561C410.73 270.176 415.767 261.901 415.85 255.078C415.898 251.224 414.354 248.66 411.898 247.767Z" fill="url(#paint13_linear_7_608)"/>
<path d="M412.835 255.927L405.918 259.866L409.125 270.035C408.949 270.554 407.074 269.451 407.074 269.451L402.309 264.394L398.822 272.829C397.72 273.095 398.459 274.828 397.526 274.64C396.209 274.186 395.435 273.151 395.435 273.151L397.483 264.672L393.681 266.847C393.704 266.203 393.76 265.56 393.873 264.905C393.963 264.35 394.328 262.486 394.819 261.381L398.091 259.013L396.989 256.854C396.989 256.844 397.078 256.692 397.259 256.416C398.136 255.051 399.125 253.741 400.227 252.598L401.7 254.485L404.435 249.126C404.817 248.859 404.501 249.08 404.906 248.858C405.255 248.659 405.603 248.492 405.941 248.336C406.369 248.148 406.795 247.993 407.201 247.859C407.504 247.771 407.786 247.694 408.066 247.627C408.494 247.538 408.921 247.471 409.326 247.448L406.525 254.207L413.893 251.321C413.893 251.321 415.743 252.239 415.732 253.172C415.72 254.081 413.015 254.984 412.835 255.927Z" fill="#ACABAA"/>
<path d="M415.72 257.146L408.64 261.809L411.238 267.486C410.181 269.128 410.369 268.85 409.008 270.148L405.03 266.337L400.95 274.89C399.218 275.301 398.786 275.283 397.526 274.641L400.206 266.614L393.879 269.815C393.665 268.971 393.648 268.378 393.66 267.335C393.671 266.537 393.658 266.258 393.794 265.437L400.812 260.954L397.765 255.624C398.81 253.971 398.89 253.887 400.25 252.577L404.422 256.426L408.804 247.5C410.338 247.276 410.571 247.239 411.898 247.767L409.248 256.15L415.732 253.173C415.901 253.938 415.86 254.142 415.849 255.074C415.839 255.983 415.901 256.204 415.72 257.146Z" fill="#E3E2E0"/>
<path d="M407.191 259.86C407.172 261.36 406.066 263.177 404.72 263.921C403.373 264.665 402.297 264.052 402.316 262.554C402.335 261.055 403.441 259.238 404.788 258.494C406.134 257.751 407.21 258.363 407.191 259.86Z" fill="#64737D"/>
<path d="M106.666 331.622C130.254 348.729 180.534 373.538 180.534 373.538L184.288 391.434C184.288 391.434 172.278 395.974 110.569 354.879C108.124 353.251 106.666 350.522 106.666 347.611V331.622Z" fill="#353A3F"/>
<path d="M110.42 288.612C110.42 288.612 109.494 296.093 108.997 301.475C128.989 325.79 183.949 343.222 183.949 343.222L184.289 330.534C184.289 330.534 128.784 312.943 110.42 288.612Z" fill="#20262D"/>
<path d="M229.246 253.712L231.321 336.525C228.882 336.621 224.977 340.604 222.346 342.094C217.66 344.691 214.761 350.976 211.68 356.011C211.359 356.55 211.039 357.12 210.718 357.657L184.272 372.479C184.272 372.479 179.731 360.81 184.272 330.519C186.403 316.313 194.639 273.993 194.639 273.993L229.246 253.712Z" fill="#799ACF"/>
<path d="M188.93 324.911L190.815 356.681C190.845 357.183 191.116 357.613 191.559 357.863C191.998 358.11 192.512 358.126 192.966 357.896L198.482 355.114C200.293 354.202 201.619 352.637 202.216 350.711C203.683 345.967 206.626 337.436 209.831 333.609C211.011 332.202 212.763 330.62 215.04 328.907C221.687 323.909 225.5 316.446 225.5 308.431V263.46L205.583 272.974L188.93 324.911ZM192.293 358.927C191.888 358.927 191.484 358.823 191.12 358.618C190.425 358.226 189.983 357.52 189.936 356.732L188.042 324.802L188.065 324.725L204.858 272.355L226.381 262.073V308.431C226.381 316.72 222.442 324.435 215.574 329.598C213.351 331.272 211.648 332.807 210.511 334.163C207.403 337.873 204.507 346.282 203.058 350.966C202.392 353.119 200.909 354.868 198.882 355.888L193.367 358.67C193.029 358.842 192.66 358.927 192.293 358.927Z" fill="#5D7CBA"/>
<path d="M233.292 333.128C233.292 333.128 222.862 339.296 218.689 343.016C214.518 346.736 208.95 354.007 207.746 358.057C206.543 362.108 204.904 366.791 205.173 371.014C205.44 375.236 205.812 375.996 205.812 375.996L204.637 376.651L202.23 377.798C202.23 377.798 197.211 357.782 211.122 343.502C224.437 329.838 231.321 330.145 231.321 330.145L233.292 333.128Z" fill="#64737D"/>
<path d="M110.419 329.495C109.624 328.771 106.666 331.622 106.666 331.622C127.446 347.674 180.534 373.538 180.534 373.538L184.288 371.416C184.288 371.416 125.975 343.649 110.419 329.495Z" fill="#64737D"/>
<path d="M148.125 361.838V366.397C148.125 366.557 148.094 366.682 148.06 366.809C143.6 364.466 138.818 361.774 134.037 358.671C133.972 358.513 133.94 358.355 133.94 358.228V353.668C133.94 352.749 134.614 352.433 135.448 352.907L146.616 359.336C147.451 359.811 148.125 360.951 148.125 361.838Z" fill="#1E2225"/>
<path d="M135.441 359.8C134.61 359.321 133.934 358.203 133.934 357.308V352.735C133.934 351.841 134.61 351.501 135.441 351.98L146.613 358.422C147.444 358.9 148.12 360.018 148.12 360.913V365.484C148.12 366.38 147.444 366.72 146.613 366.241L135.441 359.8Z" fill="#E3E2E0"/>
<path d="M146.614 365.936L135.441 359.496C134.767 359.105 134.218 358.198 134.218 357.47V352.899C134.218 352.171 134.765 351.896 135.441 352.286L146.614 358.727C147.29 359.116 147.837 360.023 147.837 360.751V365.322C147.837 366.05 147.29 366.325 146.614 365.936Z" fill="#F8F791"/>
<path d="M147.831 360.718C147.817 359.995 147.279 359.11 146.613 358.727L135.441 352.286C134.775 351.901 134.238 352.168 134.223 352.874L147.831 360.718Z" fill="#DCB646"/>
<path d="M134.223 357.503C134.239 358.226 134.775 359.11 135.441 359.494L146.613 365.936C147.279 366.32 147.817 366.053 147.831 365.348L134.223 357.503Z" fill="#DCB646"/>
<path d="M177.1 385.675L177.074 381.664C177.056 380.351 176.328 379.235 175.186 378.717L164.715 373.998L162.68 373.09C161.67 372.634 160.43 373.502 160.444 374.626L160.48 379.473C160.496 380.765 161.224 381.883 162.368 382.399L174.874 388.045C175.882 388.503 177.124 387.634 177.11 386.492L177.1 385.675Z" fill="#BFCFE1"/>
<path d="M176.275 386.734L163.769 381.087C162.625 380.571 161.897 379.454 161.881 378.16L161.845 373.313L161.93 372.983C161.146 373.074 160.432 373.773 160.444 374.625L160.48 379.472C160.496 380.765 161.224 381.883 162.368 382.399L174.874 388.045C175.771 388.453 176.803 387.79 177.022 386.841C176.772 386.87 176.516 386.844 176.275 386.734Z" fill="#64737D"/>
<path d="M177.073 381.665C177.056 380.351 176.328 379.235 175.185 378.718L164.715 373.999L164.205 373.771L164.232 376.589C164.249 377.882 164.976 379 166.12 379.514L177.095 384.472L177.073 381.665Z" fill="#E5ECEE"/>
<path d="M177.074 375.027C177.056 373.713 176.328 372.596 175.186 372.079L164.715 367.36L162.68 366.452C161.67 365.997 160.43 366.864 160.444 367.987L160.48 369.229C160.496 370.523 161.224 371.639 162.368 372.155L174.874 377.803C175.882 378.26 177.124 377.391 177.11 376.25L177.074 375.027Z" fill="#EC953C"/>
<path d="M176.275 376.492L163.769 370.845C162.625 370.329 161.897 369.211 161.881 367.917L161.845 366.674L161.93 366.346C161.146 366.438 160.432 367.134 160.444 367.987L160.48 369.229C160.496 370.524 161.224 371.64 162.368 372.156L174.874 377.804C175.771 378.21 176.845 377.596 177.063 376.645C176.815 376.674 176.516 376.601 176.275 376.492Z" fill="#64737D"/>
<path d="M123.561 357.38L123.536 353.366C123.521 352.048 122.842 350.805 121.774 350.088L111.994 343.538L110.092 342.273C109.151 341.642 107.992 342.292 108.005 343.418L108.038 348.271C108.054 349.568 108.733 350.812 109.801 351.527L121.483 359.362C122.424 359.995 123.584 359.343 123.571 358.199L123.561 357.38Z" fill="#BFCFE1"/>
<path d="M122.791 358.296L111.11 350.462C110.041 349.747 109.362 348.503 109.346 347.206L109.313 342.351L109.393 342.038C108.66 341.992 107.995 342.565 108.005 343.419L108.038 348.272C108.054 349.569 108.733 350.813 109.801 351.528L121.482 359.363C122.32 359.926 123.284 359.444 123.487 358.532C123.256 358.518 123.016 358.448 122.791 358.296Z" fill="#64737D"/>
<path d="M123.536 353.368C123.52 352.049 122.841 350.806 121.774 350.089L111.994 343.539L111.517 343.222L111.543 346.044C111.559 347.341 112.238 348.586 113.307 349.301L123.558 356.176L123.536 353.368Z" fill="#E5ECEE"/>
<path d="M123.536 346.728C123.521 345.411 122.842 344.167 121.774 343.45L111.994 336.901L110.092 335.637C109.151 335.004 107.992 335.655 108.005 336.78L108.038 338.03C108.054 339.325 108.733 340.571 109.801 341.287L121.483 349.12C122.424 349.752 123.584 349.102 123.571 347.957L123.536 346.728Z" fill="#EC953C"/>
<path d="M122.791 348.053L111.11 340.219C110.041 339.504 109.362 338.259 109.346 336.962L109.313 335.714L109.393 335.399C108.66 335.353 107.995 335.926 108.005 336.78L108.038 338.03C108.054 339.325 108.733 340.571 109.801 341.287L121.483 349.12C122.32 349.682 123.324 349.256 123.528 348.344C123.295 348.33 123.017 348.204 122.791 348.053Z" fill="#64737D"/>
<path d="M161.121 213.336C187.864 226.914 218.528 245.529 228.218 251.491C229.625 252.356 229.576 254.387 228.136 255.194L194.622 273.977C194.622 273.977 140.818 256.246 120.74 232.062C119.933 231.092 144.303 218.299 153.76 213.387C156.067 212.189 158.802 212.159 161.121 213.336Z" fill="#799ACF"/>
<path d="M120.741 232.062C120.741 232.062 107.345 284.538 110.419 288.612C128.783 312.943 184.288 330.534 184.288 330.534L194.623 273.977C194.623 273.977 142.021 255.245 120.741 232.062Z" fill="#353A3F"/>
<path d="M190.981 276.019C190.981 276.019 185.781 304.584 183.182 318.675C182.444 322.729 178.176 325.103 174.292 323.615C159.336 317.947 132.667 306.515 118 292.297L117.84 292.137C117.133 291.473 116.524 290.745 115.978 289.953C114.021 287.071 113.154 283.525 113.667 279.977C114.984 270.668 118.546 254.232 122.494 238.303C124.067 239.76 125.735 241.185 127.468 242.546C132.956 246.949 139.246 251.098 145.728 254.866C164.151 265.57 184.017 273.391 190.981 276.019Z" fill="#528B94"/>
<path d="M117.999 292.297L145.728 268.293V254.866C139.245 251.097 132.955 246.948 127.467 242.547L122.299 245.302L115.977 275.671V289.952L117.999 292.297Z" fill="#B5DDC1"/>
<path d="M233.287 338.966C233.287 338.966 224.834 342.28 220.661 346C216.49 349.72 210.922 356.992 209.718 361.041C208.515 365.091 206.877 369.776 207.144 373.998C207.412 378.22 207.784 378.98 207.784 378.98L206.61 379.634L204.202 380.781C204.202 380.781 199.183 360.767 213.095 346.487C226.409 332.822 233.293 333.128 233.293 333.128L233.287 338.966Z" fill="#4E5666"/>
<path d="M193.43 326.742C191.187 326.742 189.36 324.939 189.36 322.724V318.685L191.986 299.604L194.667 283.585C195.292 280.578 197.222 278.018 199.964 276.565L214.032 269.099C214.756 268.717 215.533 268.519 216.342 268.519C219.037 268.519 221.23 270.684 221.23 273.345V294.719C221.23 299.802 218.796 304.693 214.721 307.802L209.309 311.938L206.346 318.121C205.538 319.804 204.248 321.185 202.617 322.117L195.466 326.197C194.842 326.554 194.138 326.742 193.43 326.742Z" fill="#4E5666"/>
<path d="M213.386 306.184L207.938 310.342L204.958 316.56C204.321 317.89 203.288 318.997 201.997 319.734L195.172 323.631C193.57 324.544 191.567 323.404 191.567 321.578V317.723L194.044 299.806L196.602 284.519C197.109 282.082 198.686 279.991 200.908 278.813L214.334 271.689C216.453 270.565 219.021 272.08 219.021 274.454V294.851C219.021 299.286 216.941 303.471 213.386 306.184Z" fill="#6BABAE"/>
<path d="M205.213 359.642C202.613 364.361 206.545 365.229 206.481 370.01C206.481 371.182 204.888 373.058 205.048 374.102C204.952 374.895 206.545 374.919 206.545 375.678C206.545 376.249 206.545 376.786 206.61 377.325L180.534 373.538V371.229L184.272 369.091L202.622 358.787C202.301 359.326 205.534 359.103 205.213 359.642Z" fill="#64737D"/>
<path d="M210.718 357.657C208.118 362.376 206.545 367.537 206.481 372.319C206.481 373.491 206.545 374.6 206.705 375.645C206.61 376.436 206.545 377.228 206.545 377.988C206.545 378.558 206.545 379.096 206.61 379.634L186.359 390.935C183.756 392.387 180.534 390.531 180.534 387.581V373.538L184.272 371.4L211.68 356.01C211.359 356.55 211.038 357.12 210.718 357.657Z" fill="#4E5666"/>
<path d="M174.715 358.066C174.683 358.858 174.683 359.618 174.715 360.346C162.777 355.185 134.181 342.075 115.791 328.267L115.728 328.236C115.696 327.445 115.664 326.652 115.664 325.893L115.791 325.988C134.181 339.794 162.777 352.905 174.715 358.066Z" fill="#5D7CBA"/>
<path d="M174.715 353.777C174.683 354.569 174.683 355.329 174.715 356.057C162.777 350.896 134.181 337.785 115.791 323.979L115.728 323.946C115.696 323.155 115.664 322.363 115.664 321.603L115.791 321.699C134.181 335.505 162.777 348.616 174.715 353.777Z" fill="#5D7CBA"/>
<path d="M174.715 349.489C174.683 350.281 174.683 351.04 174.715 351.769C162.777 346.608 134.181 333.497 115.791 319.691L115.728 319.659C115.696 318.867 115.664 318.076 115.664 317.315L115.791 317.41C134.181 331.217 162.777 344.327 174.715 349.489Z" fill="#5D7CBA"/>
<path d="M138.71 337.549C138.729 338.976 139.78 340.706 141.063 341.413C142.343 342.121 143.368 341.538 143.349 340.111C143.332 338.686 142.279 336.956 140.998 336.248C139.717 335.541 138.693 336.123 138.71 337.549Z" fill="#8E9AA4"/>
<path d="M138.05 337.863C138.067 339.289 139.12 341.019 140.401 341.727C141.683 342.434 142.707 341.851 142.689 340.426C142.672 338.999 141.619 337.269 140.338 336.562C139.057 335.854 138.033 336.437 138.05 337.863Z" fill="#D3D2D0"/>
<path d="M145.196 225.64L147.471 220.421L172.103 234.397L169.828 239.744L145.196 225.64Z" fill="#D94220"/>
<path d="M172.103 234.398L182.146 228.613L186.193 230.406L169.828 239.744L172.103 234.398Z" fill="#F2531B"/>
<path d="M147.472 220.421L172.105 234.396L182.149 228.611L157.513 214.586L147.472 220.421Z" fill="#F4692B"/>
<path d="M169.828 239.705L172.103 234.486L180.589 239.211L178.315 244.56L169.828 239.705Z" fill="#BAB9B8"/>
<path d="M180.589 239.212L190.633 233.427L194.679 235.22L178.315 244.56L180.589 239.212Z" fill="#9D9D9C"/>
<path d="M172.103 234.486L180.591 239.211L190.635 233.426L182.145 228.651L172.103 234.486Z" fill="#DEDEDC"/>
<path d="M178.315 244.52L180.589 239.301L205.22 253.278L202.947 258.626L178.315 244.52Z" fill="#D94220"/>
<path d="M205.22 253.278L215.265 247.493L219.311 249.286L202.947 258.626L205.22 253.278Z" fill="#F2531B"/>
<path d="M180.589 239.301L205.222 253.278L215.266 247.491L190.63 233.466L180.589 239.301Z" fill="#F4692B"/>
<path d="M194.679 235.22L219.311 249.285L215.267 247.491L190.63 233.465L194.679 235.22Z" fill="#D94220"/>
<path d="M161.562 216.34L186.194 230.406L182.149 228.611L157.513 214.586L161.562 216.34Z" fill="#D94220"/>
<path d="M186.193 230.405L182.149 228.611L190.631 233.465L194.679 235.22L186.193 230.405Z" fill="#BAB9B8"/>
<path d="M127.81 358.536L128.047 363.178C128.047 363.178 133.796 367.356 142.689 372.128C151.582 376.9 154.057 377.931 154.057 377.931L155.339 374.12C155.339 374.12 139.55 366.784 127.81 358.536Z" fill="#161A1E"/>
<path d="M144.337 371.523C135.444 366.75 129.696 362.572 129.696 362.572L129.551 359.726C128.964 359.331 128.379 358.935 127.81 358.536L128.047 363.178C128.047 363.178 133.796 367.356 142.689 372.128C151.582 376.9 154.057 377.931 154.057 377.931L154.455 376.748C152.949 376.027 149.898 374.506 144.337 371.523Z" fill="#4E5666"/>
<path d="M112.882 272.61C113.299 270.693 113.632 268.742 113.821 266.822C113.993 265.083 114.303 263.079 113.461 261.452C112.596 259.778 110.932 258.268 109.183 257.537C108.328 257.179 107.094 256.951 106.248 257.49C105.148 261.782 104.225 266.134 103.769 270.542C103.495 273.193 103.125 275.844 103.145 278.513C103.162 280.839 102.605 283.406 103.291 285.688C103.625 286.797 104.66 287.531 105.631 288.181C106.005 288.432 106.44 288.694 106.879 288.588C107.496 288.44 107.707 287.696 107.808 287.079C108.237 287.123 111.138 289.704 111.433 289.188C112.342 287.601 109.743 283.677 110.774 282.156C111.547 281.017 113.146 280.208 113.584 278.817C113.816 278.076 113.701 277.454 113.148 276.983C112.561 276.482 111.843 276.793 112.141 275.669C112.407 274.667 112.657 273.643 112.882 272.61Z" fill="#353A3F"/>
<path d="M188.246 321.764C188.707 318.606 187.915 313.621 190.573 311.194C191.34 310.495 192.345 310.599 193.316 310.586C194.461 310.573 195.608 310.557 196.751 310.495C198.064 310.422 199.255 311.079 200.272 311.913C202.394 313.656 201.607 317.634 201.413 320.011C201.166 323.034 200.684 326.031 200.323 329.043C200.138 330.589 200.008 332.182 199.392 333.632C198.367 336.052 195.495 336.491 193.138 336.575C191.874 336.619 190.479 336.407 189.614 335.405C188.965 334.654 188.863 333.86 188.933 332.942C189.03 331.689 189.008 330.418 189.036 329.162C189.043 328.824 189.049 328.478 188.936 328.16L188.776 327.917L188.4 327.86C187.35 327.976 186.475 328.78 185.562 329.252C184.678 329.708 183.667 330.277 182.631 330.062C182.49 330.033 182.345 329.987 182.244 329.886C182.14 329.779 182.101 329.627 182.069 329.483C181.558 327.118 182.081 324.912 183.615 323.065C184.717 321.741 186.198 321.911 187.759 321.986L187.958 321.996L188.169 321.952L188.246 321.764Z" fill="#353A3F"/>
<path d="M203.321 360.796C203.321 360.796 200.834 366.06 201.531 370.674C202.23 375.286 202.23 375.286 202.23 375.286L187.152 383.459V369.626L203.321 360.796Z" fill="#26292C"/>
<path d="M203.321 360.796L200.764 362.193C196.445 368.056 197.332 372.782 197.332 372.782L187.152 378.301V383.459L202.23 375.286C202.23 375.286 202.23 375.286 201.531 370.672C200.834 366.06 203.321 360.796 203.321 360.796Z" fill="#353A3F"/>
<path d="M222.481 306.749C222.239 309.76 222.548 312.719 222.548 312.719C222.532 314.751 223.892 313.621 225.876 312.438L225.941 302.202C225.941 302.202 222.715 303.918 222.481 306.749Z" fill="#4E5666"/>
<path d="M384.82 272.438L379.839 274.803C379.839 274.803 376.533 252.07 388.835 242.132C400.707 232.545 404.634 231.969 411.736 232.815C422.164 234.058 425.188 247.766 425.188 247.766L421.063 250.287C421.063 250.287 417.042 229.812 400.039 239.923C388.76 246.63 387.454 251.969 385.864 257.289C383.992 263.558 384.82 272.438 384.82 272.438Z" fill="#4E5666"/>
<path d="M372.817 256.692L372.804 257.78C372.798 258.264 372.525 258.715 372.097 258.96L367.416 261.649C367.039 261.866 366.573 261.599 366.578 261.172L366.583 260.867L370.501 258.618C370.93 258.373 371.202 257.921 371.208 257.438L371.218 256.657L371.98 256.224C372.357 256.006 372.822 256.272 372.817 256.692Z" fill="#F68513"/>
<path d="M371.218 256.657L371.207 257.438C371.202 257.921 370.93 258.373 370.501 258.618L366.582 260.867L366.593 260.093C366.598 259.601 366.871 259.15 367.299 258.904L371.218 256.657Z" fill="#E5ECEE"/>
<path d="M235.262 327.16H240.446L237.854 263.859H232.67L235.262 327.16Z" fill="#476093"/>
<defs>
<linearGradient id="paint0_linear_7_608" x1="204.742" y1="377.258" x2="226.128" y2="339.72" gradientUnits="userSpaceOnUse">
<stop stop-color="#363B40"/>
<stop offset="0.161336" stop-color="#363B40"/>
<stop offset="0.163257" stop-color="#49515A"/>
<stop offset="0.559309" stop-color="#49515A"/>
<stop offset="0.56219" stop-color="#65747E"/>
<stop offset="0.872769" stop-color="#65747E"/>
<stop offset="0.873853" stop-color="#606E79"/>
<stop offset="1" stop-color="#606E79"/>
</linearGradient>
<linearGradient id="paint1_linear_7_608" x1="220.375" y1="378.918" x2="235.509" y2="352.352" gradientUnits="userSpaceOnUse">
<stop stop-color="#DBDAD8"/>
<stop offset="0.161336" stop-color="#DBDAD8"/>
<stop offset="0.163257" stop-color="#F3F3F3"/>
<stop offset="0.559309" stop-color="#F3F3F3"/>
<stop offset="0.56219" stop-color="#DBDAD8"/>
<stop offset="0.872769" stop-color="#DBDAD8"/>
<stop offset="0.873853" stop-color="#C3C2C1"/>
<stop offset="1" stop-color="#C3C2C1"/>
</linearGradient>
<linearGradient id="paint2_linear_7_608" x1="277.658" y1="274.9" x2="295.526" y2="245.596" gradientUnits="userSpaceOnUse">
<stop stop-color="#282E32"/>
<stop offset="0.161336" stop-color="#282E32"/>
<stop offset="0.163257" stop-color="#37414D"/>
<stop offset="0.559309" stop-color="#37414D"/>
<stop offset="0.56219" stop-color="#4F6271"/>
<stop offset="0.872769" stop-color="#4F6271"/>
<stop offset="0.873853" stop-color="#4B5C6C"/>
<stop offset="1" stop-color="#4B5C6C"/>
</linearGradient>
<linearGradient id="paint3_linear_7_608" x1="290.245" y1="276.716" x2="302.891" y2="255.977" gradientUnits="userSpaceOnUse">
<stop stop-color="#CCCCC9"/>
<stop offset="0.161336" stop-color="#CCCCC9"/>
<stop offset="0.163257" stop-color="#E5E5E4"/>
<stop offset="0.559309" stop-color="#E5E5E4"/>
<stop offset="0.56219" stop-color="#CCCCC9"/>
<stop offset="0.872769" stop-color="#CCCCC9"/>
<stop offset="0.873853" stop-color="#B5B5B4"/>
<stop offset="1" stop-color="#B5B5B4"/>
</linearGradient>
<linearGradient id="paint4_linear_7_608" x1="396.434" y1="211.437" x2="414.302" y2="182.132" gradientUnits="userSpaceOnUse">
<stop stop-color="#282E32"/>
<stop offset="0.161336" stop-color="#282E32"/>
<stop offset="0.163257" stop-color="#37414D"/>
<stop offset="0.559309" stop-color="#37414D"/>
<stop offset="0.56219" stop-color="#4F6271"/>
<stop offset="0.872769" stop-color="#4F6271"/>
<stop offset="0.873853" stop-color="#4B5C6C"/>
<stop offset="1" stop-color="#4B5C6C"/>
</linearGradient>
<linearGradient id="paint5_linear_7_608" x1="409.021" y1="213.251" x2="421.666" y2="192.513" gradientUnits="userSpaceOnUse">
<stop stop-color="#CCCCC9"/>
<stop offset="0.161336" stop-color="#CCCCC9"/>
<stop offset="0.163257" stop-color="#E5E5E4"/>
<stop offset="0.559309" stop-color="#E5E5E4"/>
<stop offset="0.56219" stop-color="#CCCCC9"/>
<stop offset="0.872769" stop-color="#CCCCC9"/>
<stop offset="0.873853" stop-color="#B5B5B4"/>
<stop offset="1" stop-color="#B5B5B4"/>
</linearGradient>
<linearGradient id="paint6_linear_7_608" x1="201.769" y1="197.113" x2="207.78" y2="186.561" gradientUnits="userSpaceOnUse">
<stop stop-color="#363B40"/>
<stop offset="0.161336" stop-color="#363B40"/>
<stop offset="0.163257" stop-color="#49515A"/>
<stop offset="0.559309" stop-color="#49515A"/>
<stop offset="0.56219" stop-color="#65747E"/>
<stop offset="0.872769" stop-color="#65747E"/>
<stop offset="0.873853" stop-color="#606E79"/>
<stop offset="1" stop-color="#606E79"/>
</linearGradient>
<linearGradient id="paint7_linear_7_608" x1="306.327" y1="94.8346" x2="312.515" y2="83.9739" gradientUnits="userSpaceOnUse">
<stop stop-color="#363B40"/>
<stop offset="0.161336" stop-color="#363B40"/>
<stop offset="0.163257" stop-color="#49515A"/>
<stop offset="0.559309" stop-color="#49515A"/>
<stop offset="0.56219" stop-color="#65747E"/>
<stop offset="0.872769" stop-color="#65747E"/>
<stop offset="0.873853" stop-color="#606E79"/>
<stop offset="1" stop-color="#606E79"/>
</linearGradient>
<linearGradient id="paint8_linear_7_608" x1="316.945" y1="100.741" x2="322.667" y2="90.6972" gradientUnits="userSpaceOnUse">
<stop stop-color="#6B6E71"/>
<stop offset="0.161336" stop-color="#6B6E71"/>
<stop offset="0.163257" stop-color="#84898B"/>
<stop offset="0.559309" stop-color="#84898B"/>
<stop offset="0.56219" stop-color="#A7ABAD"/>
<stop offset="0.872769" stop-color="#A7ABAD"/>
<stop offset="0.873853" stop-color="#A1A5A7"/>
<stop offset="1" stop-color="#A1A5A7"/>
</linearGradient>
<linearGradient id="paint9_linear_7_608" x1="214.134" y1="202.747" x2="218.66" y2="194.803" gradientUnits="userSpaceOnUse">
<stop stop-color="#6B6E71"/>
<stop offset="0.161336" stop-color="#6B6E71"/>
<stop offset="0.163257" stop-color="#84898B"/>
<stop offset="0.559309" stop-color="#84898B"/>
<stop offset="0.56219" stop-color="#A7ABAD"/>
<stop offset="0.872769" stop-color="#A7ABAD"/>
<stop offset="0.873853" stop-color="#A1A5A7"/>
<stop offset="1" stop-color="#A1A5A7"/>
</linearGradient>
<linearGradient id="paint10_linear_7_608" x1="220.342" y1="207.751" x2="226.354" y2="197.198" gradientUnits="userSpaceOnUse">
<stop stop-color="#363B40"/>
<stop offset="0.161336" stop-color="#363B40"/>
<stop offset="0.163257" stop-color="#49515A"/>
<stop offset="0.559309" stop-color="#49515A"/>
<stop offset="0.56219" stop-color="#65747E"/>
<stop offset="0.872769" stop-color="#65747E"/>
<stop offset="0.873853" stop-color="#606E79"/>
<stop offset="1" stop-color="#606E79"/>
</linearGradient>
<linearGradient id="paint11_linear_7_608" x1="324.617" y1="105.37" x2="330.804" y2="94.5084" gradientUnits="userSpaceOnUse">
<stop stop-color="#363B40"/>
<stop offset="0.161336" stop-color="#363B40"/>
<stop offset="0.163257" stop-color="#49515A"/>
<stop offset="0.559309" stop-color="#49515A"/>
<stop offset="0.56219" stop-color="#65747E"/>
<stop offset="0.872769" stop-color="#65747E"/>
<stop offset="0.873853" stop-color="#606E79"/>
<stop offset="1" stop-color="#606E79"/>
</linearGradient>
<linearGradient id="paint12_linear_7_608" x1="384.712" y1="274.627" x2="406.097" y2="237.089" gradientUnits="userSpaceOnUse">
<stop stop-color="#363B40"/>
<stop offset="0.161336" stop-color="#363B40"/>
<stop offset="0.163257" stop-color="#49515A"/>
<stop offset="0.559309" stop-color="#49515A"/>
<stop offset="0.56219" stop-color="#65747E"/>
<stop offset="0.872769" stop-color="#65747E"/>
<stop offset="0.873853" stop-color="#606E79"/>
<stop offset="1" stop-color="#606E79"/>
</linearGradient>
<linearGradient id="paint13_linear_7_608" x1="400.346" y1="276.287" x2="415.48" y2="249.721" gradientUnits="userSpaceOnUse">
<stop stop-color="#DBDAD8"/>
<stop offset="0.161336" stop-color="#DBDAD8"/>
<stop offset="0.163257" stop-color="#F3F3F3"/>
<stop offset="0.559309" stop-color="#F3F3F3"/>
<stop offset="0.56219" stop-color="#DBDAD8"/>
<stop offset="0.872769" stop-color="#DBDAD8"/>
<stop offset="0.873853" stop-color="#C3C2C1"/>
<stop offset="1" stop-color="#C3C2C1"/>
</linearGradient>
</defs>
</svg>
