<svg width="33" height="21" viewBox="0 0 33 21" fill="none" xmlns="http://www.w3.org/2000/svg">
<path d="M17.002 14.3671C17.002 11.8257 15.7932 9.94708 13.2958 9.24296C15.118 8.37519 16.0683 7.06046 16.0683 5.01549C16.0683 0.983295 13.0537 0 9.57577 0H0V20.2449H9.84394C13.5351 20.2449 17.002 18.4804 17.002 14.3671ZM4.46402 3.45597H8.65299C10.2634 3.45597 11.7129 3.90705 11.7129 5.76912C11.7129 7.48816 10.5852 8.17991 8.98992 8.17991H4.46402V3.45597ZM4.46264 16.8068V11.2316H9.32823C11.2934 11.2316 12.5367 12.0484 12.5367 14.1223C12.5367 16.1673 11.0528 16.8068 9.23609 16.8068H4.46264Z" fill="white"/>
<path d="M25.849 20.6286C29.3614 20.6286 31.636 19.0512 32.7307 15.6983H29.1661C28.7824 16.9498 27.2009 17.6113 25.9742 17.6113C23.6074 17.6113 22.3642 16.2292 22.3642 13.8803H32.9714C33.3069 9.17971 30.6885 5.17365 25.8476 5.17365C21.3658 5.17365 18.3237 8.53197 18.3237 12.9314C18.3237 17.4971 21.2062 20.6286 25.849 20.6286ZM25.7225 8.21567C27.751 8.21567 28.7714 9.40387 28.9419 11.3471H22.3697C22.5031 9.42037 23.7862 8.21567 25.7225 8.21567Z" fill="white"/>
<path d="M21.5458 1.06305H29.7807V3.05714H21.5458V1.06305Z" fill="white"/>
</svg>
