<svg width="52" height="36" viewBox="0 0 52 36" fill="none" xmlns="http://www.w3.org/2000/svg">
<path d="M27.6807 8.74369L27.6609 15.1949L20.4662 11.0435L20.486 4.59229L27.6807 8.74369Z" fill="#C04D00" stroke="#2D2D2D" stroke-width="0.66" stroke-miterlimit="10" stroke-linejoin="round"/>
<path d="M40.5458 9.72767C40.5161 8.89933 39.8332 8.10023 38.4576 7.32062C38.3686 7.2719 38.2696 7.21343 38.1805 7.1647C38.1508 7.14521 38.1212 7.13546 38.0816 7.11597C38.0222 7.08674 37.9529 7.04776 37.8935 7.01852C37.854 6.99903 37.8144 6.97954 37.7847 6.9698C37.7253 6.94056 37.6659 6.92107 37.6065 6.89183C37.567 6.87234 37.5274 6.85285 37.4878 6.84311C37.4284 6.82362 37.3789 6.79438 37.3196 6.77489C37.3097 6.76515 37.2899 6.76515 37.28 6.7554C37.2602 6.74566 37.2404 6.74566 37.2206 6.73591C37.1315 6.70668 37.0524 6.6677 36.9633 6.63846C36.9336 6.62872 36.894 6.61897 36.8643 6.60923C36.7456 6.57024 36.6367 6.53126 36.5179 6.50203C36.4784 6.49228 36.4487 6.48254 36.4091 6.47279C36.3497 6.4533 36.2903 6.44356 36.231 6.42407C36.1914 6.41432 36.1518 6.40458 36.1122 6.39483C36.0528 6.38509 36.0033 6.3656 35.944 6.35585H35.9341C35.845 6.33636 35.7559 6.31687 35.6669 6.30713C35.6471 6.30713 35.6174 6.29738 35.5976 6.29738C35.5382 6.28764 35.4788 6.27789 35.4195 6.26815C35.4096 6.26815 35.3997 6.26815 35.3898 6.26815C35.3601 6.26815 35.3304 6.2584 35.3007 6.2584C35.2413 6.24865 35.172 6.23891 35.1127 6.23891C35.083 6.23891 35.0434 6.22917 35.0137 6.22917C34.984 6.22917 34.9543 6.21942 34.9345 6.21942C34.9048 6.21942 34.8653 6.21942 34.8356 6.20967C34.8059 6.20967 34.7663 6.20968 34.7366 6.19993C34.6673 6.19993 34.5981 6.19019 34.5288 6.19019C34.509 6.19019 34.4793 6.19019 34.4595 6.19019C34.4496 6.19019 34.4496 6.19019 34.4397 6.19019C34.3506 6.19019 34.2616 6.19019 34.1725 6.19019C34.1527 6.19019 34.1428 6.19019 34.123 6.19019C34.0537 6.19019 33.9845 6.19019 33.9053 6.19019C33.8855 6.19019 33.8756 6.19019 33.8558 6.19019C33.747 6.19019 33.648 6.19993 33.5391 6.20967C33.4996 6.20967 33.4699 6.21942 33.4402 6.21942C33.3709 6.22916 33.3016 6.22917 33.2323 6.23891H33.2225C33.2126 6.23891 33.1928 6.23891 33.1829 6.23891C33.074 6.24866 32.975 6.2584 32.8662 6.27789C32.8266 6.27789 32.7969 6.28764 32.7573 6.29738C32.6683 6.30713 32.5792 6.32662 32.4901 6.33636C32.4703 6.33636 32.4406 6.34611 32.4209 6.34611C32.411 6.34611 32.3912 6.35585 32.3813 6.35585C32.3219 6.3656 32.2625 6.37534 32.2031 6.39483C32.1635 6.40458 32.124 6.41432 32.0745 6.42407C32.0151 6.43381 31.9458 6.4533 31.8864 6.46305C31.8469 6.47279 31.8073 6.48254 31.7776 6.49229C31.7083 6.51178 31.639 6.53126 31.5599 6.55075C31.5302 6.5605 31.5104 6.5605 31.4807 6.57025C31.3817 6.59948 31.2828 6.62872 31.1937 6.65795H31.1838C31.0354 6.70668 30.8968 6.7554 30.7583 6.80413C30.7385 6.81387 30.7187 6.81387 30.6989 6.82362C30.5603 6.87235 30.4218 6.93081 30.2931 6.98929C30.2634 6.99903 30.2436 7.00878 30.214 7.01852C30.0754 7.07699 29.9468 7.14521 29.8181 7.20368C29.7983 7.21342 29.7785 7.22317 29.7587 7.23291C29.6202 7.30113 29.4816 7.37909 29.353 7.45705C29.3035 7.48629 29.2639 7.51552 29.2144 7.53501C29.2045 7.54476 29.1847 7.55451 29.1748 7.56425C29.0957 7.61298 29.0165 7.6617 28.9373 7.71043C28.9175 7.72017 28.8977 7.72992 28.8779 7.74941C28.7889 7.80788 28.6998 7.87609 28.6107 7.93457C28.591 7.95406 28.5712 7.9638 28.5415 7.98329C28.4722 8.03202 28.4128 8.08074 28.3534 8.12947C28.3238 8.14896 28.304 8.16845 28.2743 8.18794C28.2149 8.23667 28.1456 8.29514 28.0862 8.34386C28.0763 8.35361 28.0566 8.36335 28.0467 8.3731L28.0368 8.38284C27.9972 8.42182 27.9576 8.4608 27.918 8.49978C27.8982 8.51927 27.8784 8.53876 27.8586 8.55825C27.7992 8.61672 27.7399 8.6752 27.6904 8.73367L27.6706 15.1849C27.7201 15.1265 27.7794 15.068 27.8388 15.0095C27.8586 14.99 27.8784 14.9706 27.8982 14.9511C27.9378 14.9121 27.9774 14.8731 28.017 14.8341C28.0368 14.8244 28.0467 14.8049 28.0664 14.7951C28.1258 14.7464 28.1852 14.6879 28.2545 14.6392C28.2743 14.6197 28.304 14.6002 28.3336 14.5808C28.393 14.532 28.4623 14.4833 28.5217 14.4346C28.5415 14.4151 28.5613 14.4053 28.591 14.3858C28.68 14.3274 28.7691 14.2592 28.8582 14.2007C28.878 14.1909 28.8977 14.1812 28.9175 14.1617C28.9967 14.113 29.0759 14.0643 29.155 14.0155C29.2144 13.9766 29.2738 13.9473 29.3332 13.9083C29.4717 13.8304 29.6004 13.7622 29.7389 13.6842C29.7587 13.6745 29.7785 13.6647 29.7983 13.655C29.927 13.5867 30.0655 13.5283 30.1942 13.4698C30.2239 13.4601 30.2436 13.4503 30.2733 13.4406C30.4119 13.3821 30.5405 13.3236 30.6791 13.2749C30.6989 13.2652 30.7187 13.2554 30.7385 13.2554C30.877 13.2067 31.0255 13.1482 31.164 13.1092C31.1739 13.1092 31.1739 13.1092 31.1838 13.0995C31.2828 13.0703 31.3817 13.041 31.4708 13.0118C31.5005 13.002 31.5203 13.002 31.55 12.9923C31.6192 12.9728 31.6885 12.9533 31.7677 12.9338C31.8073 12.9241 31.837 12.9143 31.8766 12.9046C31.9359 12.8948 32.0052 12.8754 32.0646 12.8656C32.1042 12.8559 32.1437 12.8461 32.1932 12.8364C32.2526 12.8266 32.312 12.8169 32.3714 12.7974C32.411 12.7876 32.4406 12.7876 32.4802 12.7779C32.5693 12.7584 32.6584 12.7487 32.7474 12.7389C32.787 12.7292 32.8167 12.7292 32.8563 12.7194C32.9553 12.7097 33.0641 12.6902 33.173 12.6804C33.1928 12.6804 33.2027 12.6804 33.2225 12.6707C33.2917 12.661 33.361 12.661 33.4303 12.6512C33.4699 12.6512 33.4996 12.6415 33.5292 12.6415C33.6282 12.6317 33.7371 12.6317 33.8459 12.622C33.935 12.622 34.0241 12.6122 34.1131 12.6122C34.1329 12.6122 34.1428 12.6122 34.1626 12.6122C34.2616 12.6122 34.3506 12.6122 34.4496 12.6122C34.4694 12.6122 34.4991 12.6122 34.5189 12.6122C34.5882 12.6122 34.6574 12.622 34.7267 12.622C34.7564 12.622 34.796 12.622 34.8257 12.6317C34.885 12.6317 34.9444 12.6415 35.0038 12.6415C35.0335 12.6415 35.0731 12.6512 35.1028 12.6512C35.1621 12.661 35.2314 12.661 35.2908 12.6707C35.3205 12.6707 35.3502 12.6804 35.3799 12.6804C35.4491 12.6902 35.5184 12.6999 35.5877 12.7097C35.6075 12.7097 35.6372 12.7194 35.657 12.7194C35.746 12.7389 35.845 12.7487 35.9341 12.7682C35.9934 12.7779 36.0429 12.7974 36.1023 12.8071C36.1419 12.8169 36.1815 12.8266 36.2211 12.8364C36.2804 12.8461 36.3398 12.8656 36.3992 12.8851C36.4388 12.8948 36.4784 12.9046 36.5081 12.9143C36.6268 12.9436 36.7357 12.9825 36.8544 13.0215C36.8841 13.0313 36.9237 13.041 36.9534 13.0508C37.0425 13.08 37.1315 13.1092 37.2107 13.1482C37.2404 13.158 37.28 13.1775 37.3097 13.1872C37.369 13.2067 37.4185 13.2359 37.4779 13.2554C37.5175 13.2749 37.5571 13.2846 37.5967 13.3041C37.656 13.3334 37.7154 13.3529 37.7748 13.3821C37.8144 13.4016 37.854 13.4211 37.8836 13.4308C37.943 13.4601 38.0123 13.4893 38.0717 13.5283C38.1014 13.5478 38.1311 13.5575 38.1706 13.577C38.2696 13.6257 38.3587 13.6745 38.4477 13.7329C39.8233 14.5125 40.5161 15.3116 40.5359 16.14C40.5359 16.1497 40.5359 16.1692 40.5359 16.179L40.5557 9.72767C40.5458 9.74716 40.5458 9.73742 40.5458 9.72767Z" fill="#C04D00" stroke="#2D2D2D" stroke-width="0.66" stroke-miterlimit="10" stroke-linecap="round" stroke-linejoin="round"/>
<path d="M50.9963 10.7123C50.9963 10.7513 50.9963 10.7903 50.9864 10.8293C50.9864 10.8585 50.9864 10.8878 50.9765 10.9267C50.9765 10.9657 50.9666 11.0047 50.9666 11.0437C50.9666 11.0729 50.9567 11.1021 50.9567 11.1314C50.9567 11.1704 50.9468 11.2093 50.9369 11.2483C50.9369 11.2776 50.927 11.3068 50.927 11.336C50.9171 11.375 50.9171 11.414 50.9072 11.4627C50.8973 11.492 50.8973 11.5212 50.8874 11.5407C50.8775 11.5699 50.8775 11.6089 50.8676 11.6381C50.8577 11.6674 50.8577 11.7063 50.8478 11.7356C50.8379 11.7648 50.828 11.8038 50.8181 11.833C50.8082 11.8623 50.7984 11.9012 50.7885 11.9305C50.7786 11.9597 50.7687 11.989 50.7588 12.0279C50.7489 12.0572 50.739 12.0961 50.7291 12.1254C50.7192 12.1546 50.7093 12.1839 50.6994 12.2228C50.6895 12.2521 50.6796 12.2911 50.6598 12.3203C50.6499 12.3495 50.6301 12.3885 50.6202 12.4177C50.6103 12.447 50.5905 12.4762 50.5806 12.5152C50.5707 12.5444 50.5509 12.5834 50.541 12.6126C50.5312 12.6419 50.5114 12.6711 50.5015 12.7003C50.4817 12.7296 50.4718 12.7588 50.452 12.7978C50.4322 12.827 50.4223 12.8563 50.4025 12.8855C50.3827 12.9147 50.3728 12.944 50.353 12.9732C50.3332 13.0024 50.3233 13.0317 50.3035 13.0609C50.2738 13.1096 50.2442 13.1681 50.2145 13.2168C50.2046 13.2266 50.2046 13.2363 50.1947 13.2558C50.1551 13.3143 50.1155 13.3825 50.0759 13.441C50.066 13.4605 50.0462 13.48 50.0363 13.4994C50.0066 13.5384 49.977 13.5872 49.9473 13.6261C49.9275 13.6456 49.9077 13.6749 49.8978 13.6943C49.8681 13.7333 49.8384 13.7723 49.8087 13.8113C49.7889 13.8308 49.779 13.8503 49.7592 13.8698C49.7197 13.9185 49.6801 13.9672 49.6306 14.0257C49.6108 14.0452 49.591 14.0647 49.5712 14.0939C49.5217 14.1426 49.4821 14.2011 49.4327 14.2498C49.4129 14.2693 49.403 14.2791 49.3832 14.2985C49.3238 14.3668 49.2545 14.435 49.1852 14.4934C49.1754 14.5032 49.1556 14.5227 49.1358 14.5324C49.0863 14.5812 49.0269 14.6396 48.9675 14.6884C48.9378 14.7078 48.918 14.7371 48.8884 14.7566C48.8488 14.7858 48.8191 14.8248 48.7795 14.854C48.7498 14.8833 48.7201 14.9027 48.6904 14.932C48.6508 14.9612 48.6113 15.0002 48.5717 15.0294C48.542 15.0587 48.5123 15.0782 48.4826 15.1074C48.443 15.1366 48.4034 15.1756 48.3639 15.2048C48.3342 15.2243 48.3045 15.2536 48.2748 15.2731C48.2352 15.3023 48.1857 15.3413 48.1461 15.3705C48.1164 15.39 48.0868 15.4192 48.0571 15.4387C48.0076 15.468 47.9581 15.5069 47.9185 15.5362C47.8888 15.5557 47.8591 15.5752 47.8295 15.5946C47.7701 15.6336 47.7206 15.6726 47.6612 15.7116C47.6414 15.7311 47.6117 15.7408 47.5919 15.7603C47.5128 15.809 47.4237 15.8675 47.3445 15.9162C47.3247 15.926 47.3049 15.9357 47.2951 15.9455C47.2258 15.9845 47.1565 16.0332 47.0872 16.0722C47.0081 16.1209 46.9289 16.1696 46.8497 16.2086C46.7211 16.2866 46.5924 16.3548 46.4638 16.423C46.4143 16.4425 46.3747 16.4717 46.3252 16.4912C46.2361 16.5399 46.1471 16.5789 46.0679 16.6276C46.0184 16.6569 45.959 16.6764 45.8997 16.7056C45.8205 16.7446 45.7413 16.7836 45.6622 16.8225C45.6028 16.8518 45.5434 16.881 45.484 16.9005C45.4049 16.9395 45.3257 16.9687 45.2465 17.0077C45.1871 17.0369 45.1179 17.0564 45.0585 17.0857C44.9793 17.1149 44.9001 17.1539 44.821 17.1831C44.7517 17.2123 44.6923 17.2318 44.623 17.2611C44.5439 17.2903 44.4647 17.3195 44.3855 17.3488C44.3163 17.378 44.247 17.3975 44.1876 17.4267C44.1084 17.456 44.0293 17.4852 43.9501 17.5144C43.8808 17.5339 43.8115 17.5632 43.7423 17.5827C43.6631 17.6119 43.5839 17.6314 43.5048 17.6606C43.4652 17.6704 43.4355 17.6801 43.3959 17.6899C43.2376 17.7386 43.0891 17.7873 42.9308 17.8263C42.8813 17.8458 42.8219 17.8555 42.7724 17.875C42.6042 17.9237 42.436 17.9627 42.2677 18.0017C42.238 18.0114 42.2182 18.0114 42.1885 18.0212C42.0005 18.0699 41.8026 18.1089 41.6047 18.1576C41.5552 18.1674 41.4958 18.1771 41.4463 18.1869C41.288 18.2161 41.1395 18.2453 40.9812 18.2746C40.9218 18.2843 40.8624 18.294 40.8031 18.3038C40.7338 18.3135 40.6645 18.3233 40.5952 18.3428C40.5062 18.3525 40.4171 18.372 40.328 18.3818C40.2588 18.3915 40.1796 18.4012 40.1103 18.411C40.0212 18.4207 39.9322 18.4402 39.8431 18.45C39.7738 18.4597 39.6947 18.4695 39.6254 18.4792C39.5363 18.489 39.4473 18.4987 39.3582 18.5084C39.279 18.5182 39.2097 18.5279 39.1306 18.5279C39.0316 18.5377 38.9326 18.5474 38.8337 18.5572C38.7743 18.5669 38.7149 18.5669 38.6654 18.5767C38.5467 18.5864 38.4279 18.5961 38.3191 18.6059C38.2696 18.6059 38.23 18.6156 38.1805 18.6156C38.0222 18.6254 37.8539 18.6351 37.6956 18.6449C37.6659 18.6449 37.6362 18.6449 37.6065 18.6449C37.468 18.6546 37.3393 18.6546 37.2008 18.6644C37.1414 18.6644 37.0919 18.6644 37.0326 18.6644C36.9237 18.6644 36.8049 18.6741 36.6961 18.6741C36.6367 18.6741 36.5674 18.6741 36.508 18.6741C36.3992 18.6741 36.2804 18.6741 36.1716 18.6741C36.1122 18.6741 36.0528 18.6741 35.9934 18.6741C35.8648 18.6741 35.7361 18.6741 35.5976 18.6644C35.558 18.6644 35.5184 18.6644 35.4689 18.6644C35.2908 18.6644 35.1127 18.6546 34.9345 18.6449C34.9048 18.6449 34.8752 18.6449 34.8455 18.6449C34.697 18.6351 34.5486 18.6351 34.4001 18.6254C34.3408 18.6254 34.2715 18.6156 34.2121 18.6156C34.0933 18.6059 33.9746 18.6059 33.8558 18.5961C33.7866 18.5864 33.7074 18.5864 33.6381 18.5767C33.5293 18.5669 33.4204 18.5572 33.3115 18.5474C33.2126 18.5377 33.1136 18.5279 33.0146 18.5182C32.9157 18.5084 32.8167 18.4987 32.7178 18.489C32.6188 18.4792 32.5198 18.4695 32.4209 18.4597C32.3219 18.45 32.2229 18.4402 32.1141 18.4305C32.0151 18.4207 31.9161 18.411 31.8073 18.3915C31.7083 18.3818 31.5995 18.3623 31.5005 18.3525C31.4015 18.3428 31.2927 18.3233 31.1937 18.3135C31.0552 18.2941 30.9067 18.2746 30.7682 18.2551L21.2083 16.8713C21.05 16.8518 20.8916 16.8323 20.7432 16.8128C20.7135 16.8128 20.6838 16.803 20.6442 16.803C20.4958 16.7836 20.3473 16.7738 20.2088 16.7641C20.1989 16.7641 20.189 16.7641 20.1791 16.7641C20.1593 16.7641 20.1494 16.7641 20.1296 16.7641C19.9713 16.7543 19.8228 16.7446 19.6744 16.7348C19.6645 16.7348 19.6645 16.7348 19.6546 16.7348C19.5061 16.7251 19.3577 16.7251 19.2093 16.7153C19.1895 16.7153 19.1796 16.7153 19.1598 16.7153C19.1499 16.7153 19.14 16.7153 19.1301 16.7153C19.0113 16.7153 18.8926 16.7153 18.7738 16.7153C18.754 16.7153 18.7342 16.7153 18.7144 16.7153C18.6155 16.7153 18.5165 16.7153 18.4175 16.7251C18.3978 16.7251 18.3879 16.7251 18.3681 16.7251C18.3582 16.7251 18.3483 16.7251 18.3384 16.7251C18.2295 16.7251 18.1306 16.7348 18.0316 16.7446C18.0217 16.7446 18.0217 16.7446 18.0118 16.7446C17.9128 16.7543 17.8238 16.7543 17.7347 16.7641C17.7248 16.7641 17.705 16.7641 17.6951 16.7641C17.6753 16.7641 17.6654 16.7641 17.6456 16.7738C17.5665 16.7836 17.4873 16.7933 17.4081 16.803C17.3883 16.803 17.3685 16.803 17.3487 16.8128C17.2597 16.8225 17.1607 16.842 17.0716 16.8518C17.0617 16.8518 17.0618 16.8518 17.0519 16.8518C17.0024 16.8615 16.943 16.8713 16.8935 16.881L16.8737 23.3323C16.9331 23.3225 16.9925 23.3128 17.0519 23.303C17.1409 23.2836 17.23 23.2738 17.329 23.2641C17.3487 23.2641 17.3685 23.2641 17.3883 23.2543C17.4675 23.2446 17.5467 23.2348 17.6258 23.2251C17.6555 23.2251 17.6753 23.2153 17.705 23.2153C17.7941 23.2056 17.893 23.1958 17.9821 23.1958C17.992 23.1958 17.992 23.1958 18.0019 23.1958C18.1009 23.1861 18.2097 23.1861 18.3087 23.1764C18.3384 23.1764 18.3681 23.1764 18.3978 23.1764C18.4967 23.1764 18.5957 23.1764 18.6946 23.1666C18.7144 23.1666 18.7342 23.1666 18.754 23.1666C18.8728 23.1666 18.9915 23.1666 19.1103 23.1666C19.14 23.1666 19.1598 23.1666 19.1895 23.1666C19.3379 23.1666 19.4765 23.1764 19.6348 23.1861C19.6447 23.1861 19.6447 23.1861 19.6546 23.1861C19.803 23.1959 19.9515 23.2056 20.1098 23.2153C20.1296 23.2153 20.1593 23.2153 20.1791 23.2251C20.3176 23.2348 20.4661 23.2543 20.6145 23.2641C20.6442 23.2641 20.6739 23.2738 20.7135 23.2738C20.8718 23.2933 21.0203 23.303 21.1786 23.3323L30.7385 24.7161C30.8177 24.7258 30.8968 24.7356 30.976 24.7453C31.0354 24.7551 31.1046 24.7648 31.164 24.7746C31.263 24.7843 31.3718 24.8038 31.4708 24.8135C31.5698 24.8233 31.6786 24.8428 31.7776 24.8525C31.8766 24.8623 31.9755 24.8818 32.0844 24.8915C32.1833 24.9012 32.2823 24.911 32.3912 24.9207C32.4901 24.9305 32.5891 24.9402 32.6881 24.95C32.787 24.9597 32.886 24.9695 32.9849 24.9792C33.0839 24.989 33.1829 24.9987 33.2818 25.0084C33.3214 25.0084 33.361 25.0182 33.4006 25.0182C33.4699 25.0279 33.5391 25.0279 33.6183 25.0377C33.6876 25.0474 33.7668 25.0474 33.836 25.0572C33.9548 25.0669 34.0735 25.0767 34.1923 25.0767C34.2616 25.0767 34.321 25.0864 34.3902 25.0864C34.5387 25.0962 34.6871 25.1059 34.8356 25.1059C34.8653 25.1059 34.8949 25.1059 34.9345 25.1059C35.1028 25.1156 35.271 25.1156 35.4392 25.1254C35.4491 25.1254 35.459 25.1254 35.4689 25.1254C35.5085 25.1254 35.558 25.1254 35.5976 25.1254C35.7262 25.1254 35.8549 25.1254 35.9934 25.1351C36.0528 25.1351 36.1122 25.1351 36.1716 25.1351C36.2804 25.1351 36.3992 25.1351 36.508 25.1351C36.5674 25.1351 36.6367 25.1351 36.6961 25.1351C36.8049 25.1351 36.9237 25.1351 37.0326 25.1254C37.0919 25.1254 37.1414 25.1254 37.2008 25.1254C37.2206 25.1254 37.2404 25.1254 37.2701 25.1254C37.3888 25.1254 37.4977 25.1156 37.6065 25.1156C37.6362 25.1156 37.6659 25.1156 37.6956 25.1156C37.8638 25.1059 38.0222 25.0962 38.1805 25.0864C38.23 25.0864 38.2696 25.0767 38.3191 25.0767C38.4378 25.0669 38.5566 25.0572 38.6654 25.0474C38.7248 25.0377 38.7842 25.0377 38.8436 25.0279C38.903 25.0182 38.9623 25.0182 39.0217 25.0084C39.0613 25.0084 39.1009 24.9987 39.1405 24.9987C39.2196 24.989 39.2889 24.9792 39.3681 24.9792C39.4572 24.9695 39.5462 24.9597 39.6353 24.95C39.7046 24.9402 39.7837 24.9305 39.853 24.9207C39.9421 24.911 40.0311 24.9013 40.1202 24.8818C40.1895 24.872 40.2687 24.8623 40.3379 24.8525C40.427 24.8428 40.5161 24.8233 40.6051 24.8135C40.6744 24.8038 40.7437 24.7941 40.813 24.7746C40.8327 24.7746 40.8624 24.7648 40.8822 24.7648C40.9119 24.7551 40.9515 24.7551 40.9812 24.7453C41.1395 24.7161 41.2979 24.6869 41.4463 24.6576C41.4958 24.6479 41.5552 24.6381 41.6047 24.6284C41.8026 24.5894 41.9906 24.5407 42.1885 24.492C42.2182 24.4822 42.238 24.4822 42.2677 24.4725C42.436 24.4335 42.6042 24.3848 42.7724 24.3458C42.8219 24.3263 42.8813 24.3165 42.9308 24.2971C43.0891 24.2483 43.2376 24.2093 43.3959 24.1606C43.4256 24.1509 43.4454 24.1411 43.4751 24.1411C43.485 24.1411 43.4949 24.1314 43.5048 24.1314C43.5839 24.1021 43.6631 24.0827 43.7423 24.0534C43.8115 24.0339 43.8808 24.0047 43.9501 23.9852C44.0293 23.956 44.1084 23.9267 44.1876 23.8975C44.2569 23.878 44.3261 23.8488 44.3855 23.8293C44.4647 23.8 44.5439 23.7708 44.623 23.7416C44.6923 23.7123 44.7517 23.6929 44.821 23.6636C44.9001 23.6344 44.9793 23.5954 45.0585 23.5662C45.1179 23.5369 45.1871 23.5174 45.2465 23.4882C45.3257 23.4492 45.4049 23.42 45.484 23.381C45.5434 23.3518 45.6028 23.3323 45.6622 23.303C45.7413 23.2641 45.8205 23.2251 45.9096 23.1861C45.959 23.1569 46.0184 23.1374 46.0679 23.1081C46.157 23.0594 46.246 23.0204 46.3351 22.9717C46.3747 22.9522 46.4242 22.923 46.4638 22.9035C46.5924 22.8353 46.7211 22.7573 46.8497 22.6891C46.9289 22.6501 46.9982 22.6014 47.0773 22.5527L47.0872 22.5429C47.1565 22.5039 47.2258 22.465 47.2951 22.4162C47.3148 22.4065 47.3346 22.3967 47.3445 22.387C47.4336 22.3383 47.5128 22.2798 47.5919 22.2311C47.6117 22.2116 47.6414 22.2018 47.6612 22.1824C47.7206 22.1434 47.78 22.1044 47.8295 22.0654C47.8591 22.0459 47.8888 22.0264 47.9185 22.0069C47.968 21.9777 48.0175 21.9387 48.0571 21.9095C48.0868 21.89 48.1164 21.8608 48.1461 21.8413C48.1857 21.812 48.2352 21.7731 48.2748 21.7438C48.3045 21.7243 48.3342 21.6951 48.3639 21.6756C48.4034 21.6464 48.443 21.6074 48.4826 21.5782C48.5123 21.5489 48.542 21.5294 48.5717 21.5002C48.6113 21.471 48.6508 21.4417 48.6904 21.4027C48.7201 21.3735 48.7498 21.354 48.7795 21.3248C48.8191 21.2956 48.8488 21.2566 48.8884 21.2273C48.9082 21.2176 48.918 21.1981 48.9378 21.1884C48.9477 21.1786 48.9576 21.1689 48.9675 21.1591C49.0269 21.1104 49.0764 21.0519 49.1358 21.0032C49.1556 20.9934 49.1655 20.974 49.1852 20.9642C49.2545 20.896 49.3139 20.8278 49.3832 20.7693C49.403 20.7498 49.4129 20.7401 49.4327 20.7206C49.4821 20.6719 49.5316 20.6134 49.5712 20.5647C49.591 20.5452 49.6108 20.5159 49.6306 20.4965C49.6702 20.4477 49.7197 20.399 49.7592 20.3405C49.7691 20.3308 49.779 20.3113 49.7889 20.3015C49.7889 20.2918 49.7988 20.2918 49.7988 20.2821C49.8285 20.2431 49.8582 20.2041 49.8879 20.1651C49.9077 20.1456 49.9275 20.1164 49.9374 20.0969C49.9671 20.0579 49.9967 20.0092 50.0264 19.9702C50.0363 19.9507 50.0561 19.9312 50.066 19.9117C50.1056 19.8533 50.1452 19.7851 50.1848 19.7266C50.1947 19.7168 50.1947 19.7071 50.2046 19.6876C50.2343 19.6389 50.264 19.5804 50.2936 19.5317C50.2936 19.5317 50.2936 19.5219 50.3035 19.5219C50.3233 19.4927 50.3332 19.4635 50.353 19.444C50.3728 19.4147 50.3827 19.3855 50.4025 19.3563C50.4223 19.327 50.4322 19.2978 50.452 19.2686C50.4718 19.2393 50.4817 19.2101 50.5015 19.1711C50.5114 19.1419 50.5312 19.1126 50.541 19.0834C50.5509 19.0542 50.5707 19.0249 50.5806 18.986C50.5905 18.9567 50.6103 18.9275 50.6202 18.8885C50.6301 18.8593 50.6499 18.83 50.6598 18.7911V18.7813C50.6697 18.7521 50.6796 18.7228 50.6895 18.6936C50.6994 18.6644 50.7093 18.6351 50.7192 18.5961C50.7291 18.5669 50.739 18.5279 50.7489 18.4987C50.7588 18.4695 50.7687 18.4402 50.7786 18.4012C50.7885 18.372 50.7984 18.333 50.8083 18.3038C50.8181 18.2746 50.828 18.2453 50.8379 18.2063C50.8478 18.1771 50.8577 18.1381 50.8577 18.1089C50.8676 18.0797 50.8775 18.0504 50.8775 18.0114V18.0017C50.8775 17.9822 50.8874 17.953 50.8874 17.9335C50.8973 17.8945 50.9072 17.8555 50.9072 17.8068C50.9072 17.7776 50.9171 17.7483 50.9171 17.7191C50.927 17.6801 50.927 17.6411 50.9369 17.6021C50.9369 17.5729 50.9468 17.5437 50.9468 17.5144C50.9468 17.4755 50.9567 17.4365 50.9567 17.3975C50.9567 17.3683 50.9567 17.339 50.9666 17.3C50.9666 17.2611 50.9666 17.2221 50.9765 17.1831C50.9765 17.1734 50.9765 17.1636 50.9765 17.1539C50.9765 17.1051 50.9765 17.0662 50.9765 17.0174L50.9963 10.5662C50.9963 10.5954 50.9963 10.6539 50.9963 10.7123Z" fill="#C04D00" stroke="#2D2D2D" stroke-width="0.66" stroke-miterlimit="10" stroke-linecap="round" stroke-linejoin="round"/>
<path d="M25.1569 28.8961L25.1371 35.3474L1 21.6165L1.01979 15.1653L25.1569 28.8961Z" fill="#C04D00" stroke="#2D2D2D" stroke-width="0.66" stroke-miterlimit="10" stroke-linejoin="round"/>
<path d="M31.5797 25.2124L31.5599 31.6636L25.1372 35.3473L25.157 28.896L31.5797 25.2124Z" fill="#C04D00" stroke="#2D2D2D" stroke-width="0.66" stroke-miterlimit="10" stroke-linejoin="round"/>
<path d="M45.4147 3.55889C48.9773 5.58589 50.828 7.77856 50.9863 10.1466C51.1545 12.505 49.7691 14.532 46.8595 16.1984C42.7723 18.5372 37.4085 19.2194 30.7582 18.2546L21.1984 16.8708C19.4368 16.6467 18.0018 16.6467 16.9034 16.8708L31.5895 25.2224L25.1668 28.8964L1.01974 15.1654C4.13709 13.382 7.39298 12.1639 10.8171 11.4915C14.2214 10.8191 18.1008 10.8191 22.4156 11.472L30.6197 12.6901C32.6484 12.9922 34.2813 13.0799 35.5282 12.963C36.7851 12.8363 37.9231 12.4855 38.9623 11.891C40.0311 11.2771 40.5655 10.5559 40.5457 9.72759C40.516 8.89925 39.8331 8.10015 38.4576 7.32053C37.0226 6.50194 35.4887 6.13162 33.836 6.19009C32.1932 6.25831 30.6889 6.67735 29.3331 7.45697C28.6503 7.84677 28.0961 8.27556 27.6805 8.74333L20.4858 4.59188C20.8025 4.19233 21.5744 3.62711 22.8115 2.92546C25.8001 1.22005 29.3925 0.372217 33.6084 0.411197C37.8242 0.430688 41.753 1.48317 45.4147 3.55889Z" fill="#E4620A" stroke="#2D2D2D" stroke-width="0.66" stroke-miterlimit="10" stroke-linecap="round" stroke-linejoin="round"/>
</svg>
