<svg width="52" height="36" viewBox="0 0 52 36" fill="none" xmlns="http://www.w3.org/2000/svg">
<path d="M21.4078 4.12292L21.3881 10.6373L34.7666 18.2471L34.7863 11.7327L21.4078 4.12292Z" fill="#C04D00" stroke="#2D2D2D" stroke-width="0.66" stroke-miterlimit="10" stroke-linejoin="round"/>
<path d="M31.0354 15.9689L31.0157 22.4834L44.9948 23.4916L45.0145 16.9868L31.0354 15.9689Z" fill="#C04D00" stroke="#2D2D2D" stroke-width="0.66" stroke-miterlimit="10" stroke-linejoin="round"/>
<path d="M51 13.5553L50.9803 20.0695L44.9949 23.4915L45.0146 16.9869L51 13.5553Z" fill="#C04D00" stroke="#2D2D2D" stroke-width="0.66" stroke-miterlimit="10" stroke-linejoin="round"/>
<path d="M11.2777 25.1493C11.2875 25.1105 11.2875 25.0814 11.2974 25.0426C11.3072 25.0135 11.3072 24.9845 11.317 24.9457C11.3269 24.9069 11.3367 24.8778 11.3466 24.8391C11.3564 24.81 11.3663 24.7809 11.3761 24.7421C11.386 24.7033 11.3958 24.6742 11.4155 24.6355C11.4253 24.6064 11.4352 24.5773 11.4549 24.5482C11.4647 24.5095 11.4844 24.4804 11.5041 24.4416C11.5139 24.4125 11.5336 24.3834 11.5435 24.3543C11.5632 24.3156 11.5829 24.2865 11.6025 24.2477C11.6222 24.2186 11.6321 24.1895 11.6518 24.1605C11.6813 24.1217 11.701 24.0732 11.7305 24.0344C11.7502 24.0054 11.7601 23.986 11.7797 23.9569C11.8093 23.9084 11.8487 23.8696 11.8782 23.8212C11.8979 23.8018 11.9077 23.7727 11.9274 23.7533C11.9373 23.7436 11.9471 23.7242 11.957 23.7145C11.9963 23.6758 12.0259 23.6273 12.0652 23.5885C12.0751 23.5691 12.0948 23.5594 12.1046 23.54C12.1538 23.4916 12.2031 23.4334 12.2523 23.3849C12.3015 23.3365 12.3507 23.288 12.4098 23.2395C12.4492 23.2007 12.4886 23.1717 12.5279 23.1329C12.5575 23.1038 12.587 23.0844 12.6165 23.0553C12.6559 23.0166 12.7051 22.9875 12.7544 22.9487C12.7839 22.9293 12.8134 22.9002 12.843 22.8808C12.8922 22.8421 12.9513 22.8033 13.0103 22.7645C13.0399 22.7451 13.0596 22.7257 13.0891 22.7063C13.1679 22.6482 13.2565 22.59 13.3451 22.5415L13.3647 16.0271C13.2761 16.0853 13.1875 16.1434 13.1088 16.1919C13.0792 16.2113 13.0596 16.2307 13.03 16.2501C12.971 16.2888 12.9217 16.3276 12.8725 16.3664C12.843 16.3858 12.8134 16.4149 12.7839 16.4343C12.7347 16.473 12.6953 16.5021 12.6461 16.5409C12.6165 16.57 12.587 16.5894 12.5575 16.6184C12.5181 16.6572 12.4787 16.6863 12.4393 16.7251C12.4295 16.7348 12.4197 16.7445 12.4098 16.7445C12.3704 16.7832 12.3212 16.822 12.2818 16.8608C12.2326 16.9093 12.1834 16.9674 12.1342 17.0159C12.1243 17.0353 12.1046 17.045 12.0948 17.0644C12.0554 17.1031 12.016 17.1516 11.9865 17.1904C11.9766 17.2001 11.9668 17.2195 11.957 17.2292C11.957 17.2389 11.9471 17.2389 11.9471 17.2486C11.9373 17.2679 11.9274 17.2776 11.9077 17.297C11.8782 17.3455 11.8388 17.3843 11.8093 17.4327C11.7896 17.4618 11.7797 17.4812 11.7601 17.5103C11.7305 17.5491 11.7108 17.5975 11.6813 17.6363C11.6715 17.646 11.6616 17.6654 11.6616 17.6751C11.6518 17.6945 11.6419 17.7042 11.6419 17.7236C11.6222 17.7623 11.6025 17.7914 11.5829 17.8302C11.573 17.8593 11.5533 17.8884 11.5435 17.9175C11.5238 17.9562 11.5139 17.9853 11.4943 18.0241C11.4844 18.0435 11.4746 18.0629 11.4746 18.0726C11.4746 18.0823 11.4647 18.1016 11.4647 18.1113C11.4549 18.1501 11.445 18.1792 11.4253 18.218C11.4155 18.2471 11.4056 18.2761 11.3958 18.3149C11.386 18.3537 11.3761 18.3828 11.3663 18.4215C11.3663 18.4409 11.3564 18.4603 11.3466 18.4797C11.3466 18.4894 11.3466 18.4991 11.3367 18.5088C11.3269 18.5476 11.3269 18.5767 11.317 18.6154C11.317 18.6445 11.3072 18.6736 11.3072 18.7124C11.3072 18.7511 11.2974 18.7802 11.2974 18.819C11.2974 18.8384 11.2974 18.8675 11.2875 18.8869C11.2875 18.9063 11.2875 18.9256 11.2875 18.945L11.2678 25.4595C11.2678 25.4207 11.2678 25.3722 11.2777 25.3335C11.2777 25.2947 11.2777 25.2656 11.2875 25.2268C11.2678 25.2074 11.2777 25.1783 11.2777 25.1493Z" fill="#C04D00" stroke="#2D2D2D" stroke-width="0.66" stroke-miterlimit="10" stroke-linecap="round" stroke-linejoin="round"/>
<path d="M24.5083 19.7692C24.5083 19.6625 24.4985 19.5462 24.4788 19.4396C24.2917 18.4992 23.5731 17.6655 22.313 16.9579C22.2047 16.8997 22.0866 16.8319 21.9685 16.7737C21.9389 16.7543 21.8995 16.7446 21.87 16.7252C21.7814 16.6864 21.6928 16.638 21.6042 16.5992C21.5747 16.5798 21.5353 16.5701 21.5058 16.5507C21.3876 16.5023 21.2695 16.4441 21.1415 16.3956H21.1317C21.1218 16.3956 21.112 16.3859 21.112 16.3859C20.984 16.3375 20.856 16.289 20.7281 16.2502C20.7084 16.2405 20.6985 16.2405 20.6788 16.2308C20.5509 16.1823 20.413 16.1436 20.2752 16.1048C20.2555 16.0951 20.226 16.0951 20.2063 16.0854C20.1768 16.0757 20.1571 16.066 20.1276 16.066C20.0685 16.0466 19.9996 16.0369 19.9405 16.0175C19.8618 15.9982 19.7928 15.9788 19.7141 15.9594C19.6255 15.94 19.5467 15.9206 19.4581 15.9012C19.3794 15.8818 19.3006 15.8624 19.2219 15.8527C19.2022 15.8527 19.1923 15.8431 19.1727 15.8431C19.0348 15.814 18.897 15.7849 18.7592 15.7655L18.7395 22.2799C18.897 22.309 19.0545 22.3381 19.2022 22.3672C19.2809 22.3866 19.3597 22.4059 19.4384 22.4156C19.527 22.435 19.6058 22.4544 19.6944 22.4738C19.7732 22.4932 19.8519 22.5126 19.9307 22.532C20.0193 22.5514 20.1079 22.5804 20.1965 22.5998C20.226 22.6095 20.2457 22.6095 20.2752 22.6192C20.413 22.658 20.5509 22.6968 20.6788 22.7452C20.6985 22.7549 20.7084 22.7549 20.7281 22.7646C20.856 22.8131 20.9939 22.8519 21.112 22.9003C21.1218 22.9003 21.1317 22.91 21.1317 22.91C21.2597 22.9585 21.3876 23.007 21.5058 23.0651C21.5353 23.0845 21.5747 23.0942 21.6042 23.1136C21.6928 23.1524 21.7814 23.2009 21.87 23.2396C21.8995 23.259 21.9389 23.2687 21.9685 23.2881C22.0866 23.3463 22.1949 23.4044 22.313 23.4723C23.5632 24.18 24.2819 25.0136 24.4788 25.954C24.4985 26.0606 24.5083 26.1769 24.5083 26.2836V19.7692Z" fill="#C04D00" stroke="#2D2D2D" stroke-width="0.66" stroke-miterlimit="10" stroke-linecap="round" stroke-linejoin="round"/>
<path d="M34.4612 21.3103C34.4612 21.3685 34.4514 21.4363 34.4514 21.4945C34.4514 21.5139 34.4514 21.5333 34.4415 21.5527C34.4415 21.5914 34.4317 21.6302 34.4317 21.6787C34.4317 21.7078 34.4218 21.7272 34.4218 21.7563C34.412 21.795 34.412 21.8338 34.4022 21.8629C34.4022 21.892 34.3923 21.9114 34.3923 21.9404C34.3825 21.9792 34.3825 22.0083 34.3726 22.0471C34.3628 22.0762 34.3628 22.1052 34.3529 22.1343C34.3431 22.1634 34.3431 22.1925 34.3332 22.2313C34.3234 22.2603 34.3136 22.2894 34.3136 22.3185C34.3037 22.3476 34.2939 22.3767 34.284 22.4154C34.2742 22.4445 34.2643 22.4736 34.2545 22.5027C34.2446 22.5318 34.2348 22.5609 34.225 22.5899C34.2151 22.619 34.2053 22.6481 34.1954 22.6772C34.1856 22.7063 34.1757 22.7353 34.1659 22.7644C34.156 22.7935 34.1364 22.8226 34.1265 22.8614C34.1167 22.8905 34.1068 22.9195 34.0871 22.9486C34.0773 22.9777 34.0576 23.0068 34.0478 23.0456C34.0379 23.0746 34.0182 23.1037 34.0084 23.1328C33.9887 23.1619 33.9788 23.191 33.9592 23.2297C33.9493 23.2588 33.9296 23.2879 33.9198 23.317C33.9001 23.3461 33.8903 23.3752 33.8706 23.4139C33.8509 23.443 33.841 23.4721 33.8213 23.4915C33.782 23.5496 33.7524 23.6175 33.713 23.6757C33.713 23.6757 33.713 23.6854 33.7032 23.6854C33.6638 23.7435 33.6343 23.8017 33.5949 23.8502C33.5851 23.8696 33.5654 23.8889 33.5555 23.9083C33.526 23.9471 33.4965 23.9859 33.4669 24.0247C33.4472 24.044 33.4276 24.0731 33.4177 24.0925C33.3882 24.1313 33.3685 24.1604 33.339 24.1991C33.3193 24.2185 33.3094 24.2379 33.2897 24.2573C33.2504 24.3058 33.2011 24.3639 33.1618 24.4124C33.1421 24.4318 33.1322 24.4512 33.1125 24.4706C33.0535 24.5384 32.9944 24.6063 32.9353 24.6645C32.9255 24.6742 32.9255 24.6742 32.9156 24.6838C32.8566 24.742 32.7975 24.8002 32.7385 24.868C32.7188 24.8874 32.6991 24.9068 32.6794 24.9262C32.6302 24.9747 32.5711 25.0231 32.5219 25.0716C32.5022 25.091 32.4825 25.1104 32.4628 25.1201C32.4136 25.1589 32.3644 25.2073 32.3151 25.2461C32.2954 25.2558 32.2856 25.2752 32.2659 25.2849C32.197 25.343 32.1281 25.4012 32.0592 25.4497C32.0395 25.4594 32.0198 25.4788 32.01 25.4885C31.9607 25.5272 31.9017 25.5757 31.8525 25.6145C31.8229 25.6339 31.8032 25.6533 31.7737 25.6726C31.7245 25.7114 31.6752 25.7405 31.626 25.7793C31.5965 25.7987 31.567 25.8181 31.5374 25.8471C31.4882 25.8762 31.439 25.915 31.3898 25.9441C31.3602 25.9635 31.3307 25.9829 31.2913 26.0119C31.2421 26.0507 31.1929 26.0798 31.1437 26.1186C31.1141 26.138 31.0846 26.1573 31.055 26.1767C30.996 26.2155 30.9369 26.2543 30.8779 26.2834C30.8483 26.3028 30.8286 26.3125 30.7991 26.3318C30.7105 26.3803 30.6317 26.4385 30.5431 26.4869C30.4644 26.5354 30.3856 26.5839 30.297 26.6324C30.1297 26.7293 29.9623 26.8165 29.795 26.9038C29.7556 26.9232 29.7064 26.9523 29.667 26.9716C29.4996 27.0589 29.3421 27.1364 29.1748 27.214C29.1649 27.214 29.1649 27.2237 29.1551 27.2237C28.9779 27.3012 28.8105 27.3788 28.6235 27.4564C28.5743 27.4757 28.5349 27.4951 28.4857 27.5145C28.3183 27.5824 28.1509 27.6502 27.9737 27.7181C27.9639 27.7278 27.9442 27.7278 27.9344 27.7375C27.7473 27.8053 27.5701 27.8732 27.3831 27.9314C27.3339 27.9507 27.2846 27.9604 27.2354 27.9798C27.1074 28.0186 26.9795 28.0574 26.8515 28.0962C26.753 28.1252 26.6644 28.1543 26.566 28.1834C26.4479 28.2222 26.3297 28.2513 26.2017 28.2803C26.1033 28.3094 26.0147 28.3288 25.9163 28.3579C25.7883 28.387 25.6701 28.4161 25.5422 28.4451C25.4437 28.4645 25.3551 28.4936 25.2567 28.513C25.1287 28.5421 24.9909 28.5712 24.8531 28.5906C24.7645 28.6099 24.666 28.6293 24.5774 28.6487C24.3805 28.6875 24.1738 28.7166 23.9671 28.7457C23.9178 28.7554 23.8785 28.7554 23.8292 28.765C23.6225 28.7941 23.4158 28.8232 23.209 28.8523C23.1992 28.8523 23.1795 28.8523 23.1697 28.862C22.9432 28.8911 22.7267 28.9105 22.5002 28.9298C22.4609 28.9298 22.4215 28.9395 22.3821 28.9395C22.1655 28.9589 21.9391 28.9783 21.7225 28.988C21.6832 28.988 21.6438 28.988 21.6044 28.9977C21.378 29.0074 21.1417 29.0171 20.9054 29.0268C20.8858 29.0268 20.8661 29.0268 20.8464 29.0268C20.6003 29.0365 20.3542 29.0365 20.0982 29.0365C20.0884 29.0365 20.0785 29.0365 20.0588 29.0365C19.8029 29.0365 19.5371 29.0365 19.2713 29.0268C19.2122 29.0268 19.1531 29.0268 19.0941 29.0171C18.8676 29.0074 18.6412 28.9977 18.4246 28.988C18.405 28.988 18.3951 28.988 18.3754 28.988C18.149 28.9783 17.9324 28.9589 17.706 28.9395C17.6863 28.9395 17.6765 28.9395 17.6568 28.9395C17.4205 28.9202 17.1941 28.9008 16.9578 28.8717C16.9283 28.8717 16.9086 28.862 16.8791 28.862C16.6526 28.8329 16.4361 28.8135 16.2096 28.7747C16.1703 28.765 16.1309 28.765 16.0817 28.7554C16.0128 28.7457 15.9537 28.736 15.8848 28.7263C15.8159 28.7166 15.747 28.7069 15.6879 28.6972C15.619 28.6875 15.5599 28.6778 15.491 28.6681C15.4221 28.6584 15.363 28.6487 15.2941 28.639C15.2252 28.6293 15.1661 28.6196 15.0972 28.6002C15.0283 28.5906 14.9693 28.5809 14.9003 28.5615C14.8314 28.5518 14.7724 28.5324 14.7035 28.5227C14.6444 28.513 14.5755 28.4936 14.5164 28.4839C14.4278 28.4645 14.3294 28.4451 14.2408 28.4258C14.1915 28.4161 14.1423 28.4064 14.0931 28.3967C13.975 28.3676 13.8568 28.3385 13.7387 28.3191C13.719 28.3094 13.6895 28.3094 13.6698 28.2997C13.532 28.2707 13.3941 28.2319 13.2465 28.1931C13.2071 28.1834 13.1677 28.1737 13.1283 28.164C13.0299 28.1349 12.9315 28.1155 12.833 28.0865C12.7936 28.0768 12.7543 28.0671 12.7149 28.0574C12.5672 28.0186 12.4195 27.9701 12.2719 27.9314C12.2423 27.9217 12.203 27.912 12.1734 27.9023C12.0061 27.8538 11.8387 27.7956 11.6714 27.7375C11.632 27.7278 11.5926 27.7084 11.5631 27.6987C11.4154 27.6502 11.2677 27.6018 11.1201 27.5436C11.0905 27.5339 11.061 27.5242 11.0315 27.5145C10.8641 27.4563 10.6968 27.3885 10.5294 27.3303C10.4802 27.3109 10.4408 27.2916 10.3916 27.2722C10.303 27.2334 10.2144 27.2043 10.1159 27.1655C10.0667 27.1461 10.0175 27.1267 9.95843 27.1074C9.86983 27.0686 9.77139 27.0298 9.68279 26.991C9.63357 26.9717 9.59419 26.9523 9.54497 26.9329C9.42683 26.8844 9.29886 26.8262 9.18072 26.7681C9.17088 26.7584 9.15119 26.7584 9.14135 26.7487C9.00352 26.6905 8.8657 26.6227 8.72788 26.5548C8.6885 26.5354 8.64913 26.516 8.5999 26.4966C8.50146 26.4482 8.41286 26.3997 8.31441 26.3609C8.26519 26.3318 8.21597 26.3125 8.16675 26.2834C8.07815 26.2349 7.98955 26.1961 7.90095 26.1477C7.85173 26.1186 7.8025 26.0992 7.75328 26.0701C7.66468 26.0216 7.56624 25.9732 7.47763 25.9247C7.43826 25.9053 7.38904 25.8762 7.34966 25.8568C7.21184 25.7793 7.08386 25.7114 6.94604 25.6339C3.35282 23.5884 1.38393 21.3491 1.06891 18.9062C1.05907 18.8383 1.04922 18.7705 1.04922 18.6929C1.02953 18.4894 1.01969 18.2761 1.01969 18.0725L1 24.5869C1 24.8583 1.01969 25.1298 1.05907 25.4109C1.38393 27.8441 3.34297 30.0931 6.93619 32.1386C7.07401 32.2161 7.20199 32.284 7.33981 32.3615C7.37919 32.3809 7.42842 32.41 7.46779 32.4294C7.55639 32.4779 7.65484 32.5263 7.74344 32.5748C7.79266 32.6039 7.84188 32.6233 7.8911 32.6524C7.9797 32.7008 8.0683 32.7396 8.1569 32.7881C8.20613 32.8172 8.25535 32.8365 8.30457 32.8656C8.40301 32.9141 8.49161 32.9626 8.59006 33.0013C8.62944 33.0207 8.66881 33.0401 8.71803 33.0595C8.85586 33.1274 8.99368 33.1855 9.1315 33.2534C9.14135 33.2631 9.16103 33.2631 9.17088 33.2728C9.28901 33.3309 9.41699 33.3794 9.53512 33.4376C9.58435 33.457 9.62372 33.4764 9.67295 33.4957C9.76155 33.5345 9.85999 33.5733 9.94859 33.6121C9.99781 33.6315 10.047 33.6508 10.1061 33.6702C10.1947 33.709 10.2833 33.7478 10.3817 33.7769C10.4113 33.7866 10.4408 33.806 10.4703 33.8156C10.49 33.8253 10.4999 33.8253 10.5196 33.835C10.6869 33.9029 10.8543 33.9611 11.0216 34.0192C11.0512 34.0289 11.0807 34.0386 11.1102 34.0483C11.2579 34.0968 11.4056 34.1549 11.5532 34.2034C11.5926 34.2131 11.632 34.2325 11.6615 34.2422C11.8289 34.3004 11.9962 34.3488 12.1636 34.407C12.1931 34.4167 12.2325 34.4264 12.262 34.4361C12.4097 34.4845 12.5574 34.5233 12.705 34.5621C12.7247 34.5718 12.7543 34.5718 12.7739 34.5815C12.7936 34.5815 12.8035 34.5912 12.8232 34.5912C12.9216 34.6203 13.0201 34.6493 13.1185 34.6687C13.1579 34.6784 13.1973 34.6881 13.2366 34.6978C13.3744 34.7366 13.5123 34.7657 13.6599 34.8044C13.6796 34.8141 13.7092 34.8141 13.7288 34.8238C13.847 34.8529 13.9651 34.882 14.0832 34.9014C14.1325 34.9111 14.1817 34.9208 14.2309 34.9305C14.3195 34.9499 14.418 34.9692 14.5066 34.9886C14.5263 34.9886 14.5459 34.9983 14.5656 34.9983C14.605 35.008 14.6542 35.0177 14.6936 35.0274C14.7625 35.0371 14.8216 35.0565 14.8905 35.0662C14.9594 35.0759 15.0185 35.0953 15.0874 35.105C15.1563 35.1146 15.2154 35.1243 15.2843 35.1437C15.3532 35.1534 15.4122 35.1631 15.4812 35.1728C15.5501 35.1825 15.6091 35.1922 15.678 35.2019C15.747 35.2116 15.8159 35.2213 15.8749 35.231C15.9438 35.2407 16.0029 35.2504 16.0718 35.2601C16.0915 35.2601 16.121 35.2698 16.1407 35.2698C16.1604 35.2698 16.1801 35.2698 16.1998 35.2795C16.4262 35.3085 16.6428 35.3376 16.8692 35.3667C16.8988 35.3667 16.9184 35.3764 16.948 35.3764C17.1744 35.4055 17.4107 35.4249 17.6469 35.4442H17.6568C17.6666 35.4442 17.6765 35.4442 17.6962 35.4442C17.9226 35.4636 18.1392 35.4733 18.3656 35.4927C18.3853 35.4927 18.3951 35.4927 18.4148 35.4927C18.6412 35.5024 18.8578 35.5121 19.0842 35.5218C19.1039 35.5218 19.1236 35.5218 19.1433 35.5218C19.1827 35.5218 19.222 35.5218 19.2614 35.5218C19.5272 35.5315 19.793 35.5315 20.049 35.5315C20.0588 35.5315 20.0687 35.5315 20.0884 35.5315C20.3443 35.5315 20.5904 35.5218 20.8365 35.5218C20.8562 35.5218 20.8759 35.5218 20.8956 35.5218C20.9054 35.5218 20.9251 35.5218 20.935 35.5218C21.1516 35.5121 21.378 35.5024 21.5946 35.4927C21.6339 35.4927 21.6733 35.4927 21.7127 35.483C21.9391 35.4733 22.1557 35.4539 22.3723 35.4346C22.4116 35.4346 22.451 35.4249 22.4904 35.4249C22.5495 35.4152 22.6184 35.4152 22.6774 35.4055C22.8448 35.3861 23.0023 35.3764 23.1598 35.357C23.1697 35.357 23.1894 35.357 23.1992 35.3473C23.4059 35.3182 23.6127 35.2988 23.8194 35.2601C23.8686 35.2504 23.908 35.2504 23.9572 35.2407C24.1443 35.2116 24.3313 35.1825 24.5183 35.1534C24.538 35.1534 24.5479 35.1437 24.5676 35.1437C24.6562 35.1243 24.7546 35.105 24.8432 35.0856C24.981 35.0565 25.109 35.0371 25.2468 35.008C25.3453 34.9886 25.4339 34.9692 25.5323 34.9402C25.6603 34.9111 25.7883 34.882 25.9064 34.8529C26.0049 34.8335 26.0935 34.8044 26.1919 34.7754C26.31 34.7463 26.4282 34.7075 26.5561 34.6784C26.6546 34.6493 26.7432 34.6203 26.8416 34.5912C26.9105 34.5718 26.9893 34.5524 27.0582 34.5233C27.1173 34.5039 27.1665 34.4845 27.2256 34.4651C27.2748 34.4458 27.324 34.4361 27.3732 34.4167C27.5603 34.3585 27.7473 34.2907 27.9245 34.2228C27.9344 34.2131 27.9541 34.2131 27.9639 34.2034C28.1313 34.1355 28.3085 34.0677 28.4758 33.9998C28.525 33.9804 28.5644 33.9611 28.6136 33.9417C28.7908 33.8641 28.968 33.7866 29.1452 33.709C29.1551 33.709 29.1551 33.6993 29.1649 33.6993C29.3323 33.6218 29.4996 33.5442 29.6571 33.457C29.6965 33.4376 29.7457 33.4085 29.7851 33.3891C29.9525 33.3019 30.1198 33.2146 30.2872 33.1177C30.3659 33.0692 30.4545 33.0207 30.5333 32.9723C30.6219 32.9238 30.7105 32.8656 30.7892 32.8172C30.8188 32.7978 30.8385 32.7881 30.868 32.7687C30.9271 32.7299 30.9861 32.6911 31.0452 32.6621C31.0747 32.6427 31.1043 32.6233 31.1338 32.6039C31.183 32.5748 31.2322 32.536 31.2815 32.4973C31.311 32.4779 31.3405 32.4585 31.3799 32.4294C31.4291 32.4003 31.4784 32.3615 31.5276 32.3325C31.5571 32.3131 31.5867 32.2937 31.6162 32.2646C31.6654 32.2258 31.7146 32.1967 31.7638 32.158C31.7934 32.1386 31.8131 32.1192 31.8426 32.0998C31.9017 32.061 31.9509 32.0126 32.0001 31.9738C32.0198 31.9641 32.0395 31.9447 32.0493 31.935C32.1183 31.8768 32.1872 31.8187 32.2561 31.7702C32.2758 31.7605 32.2856 31.7411 32.3053 31.7314C32.3545 31.6926 32.4037 31.6442 32.453 31.6054C32.4628 31.5957 32.4628 31.5957 32.4727 31.586C32.4825 31.5763 32.4923 31.5666 32.512 31.5472C32.5612 31.4988 32.6203 31.4503 32.6695 31.4018C32.6892 31.3824 32.7089 31.3631 32.7286 31.3437C32.7877 31.2855 32.8467 31.2273 32.9058 31.1692C32.9156 31.1595 32.9156 31.1595 32.9255 31.1498C32.9846 31.0819 33.0436 31.0141 33.1027 30.9559C33.1224 30.9365 33.1322 30.9171 33.1519 30.8977C33.1913 30.8493 33.2405 30.8008 33.2799 30.7426C33.2897 30.7329 33.2996 30.7232 33.3094 30.7039C33.3193 30.6942 33.3193 30.6845 33.3291 30.6748C33.3587 30.636 33.3882 30.6069 33.4079 30.5681C33.4276 30.5488 33.4473 30.5197 33.4571 30.5003C33.4866 30.4615 33.5162 30.4227 33.5457 30.384C33.5555 30.3646 33.5752 30.3452 33.5851 30.3258C33.6244 30.2676 33.6638 30.2095 33.6934 30.161C33.6934 30.161 33.6934 30.1513 33.7032 30.1513C33.7426 30.0931 33.782 30.035 33.8115 29.9671V29.9574C33.8213 29.9283 33.841 29.9089 33.8509 29.8799C33.8706 29.8508 33.8804 29.8217 33.9001 29.7829C33.9099 29.7538 33.9296 29.7248 33.9395 29.6957C33.9592 29.6666 33.969 29.6375 33.9887 29.5987C33.9985 29.5697 34.0182 29.5406 34.0281 29.5115C34.0379 29.4824 34.0576 29.4533 34.0675 29.4146C34.0773 29.3855 34.0871 29.3564 34.1068 29.3273C34.1167 29.2982 34.1364 29.2691 34.1462 29.2304C34.1462 29.2304 34.1462 29.2207 34.156 29.2207C34.1659 29.1916 34.1757 29.1722 34.1856 29.1431C34.1954 29.114 34.2053 29.085 34.2151 29.0559C34.225 29.0268 34.2348 28.9977 34.2446 28.9686C34.2545 28.9395 34.2643 28.9105 34.2742 28.8814C34.284 28.8523 34.2939 28.8232 34.3037 28.7844C34.3136 28.7554 34.3234 28.7263 34.3234 28.6972C34.3332 28.6681 34.3332 28.639 34.3431 28.6002C34.3529 28.5712 34.3529 28.5421 34.3628 28.513V28.5033C34.3726 28.4742 34.3726 28.4451 34.3825 28.4161C34.3825 28.387 34.3923 28.3676 34.3923 28.3385C34.4022 28.2997 34.4022 28.261 34.412 28.2319C34.412 28.2028 34.4218 28.1834 34.4218 28.1543C34.4317 28.1155 34.4317 28.0768 34.4317 28.0283C34.4317 28.0089 34.4317 27.9895 34.4415 27.9701C34.4514 27.912 34.4514 27.8441 34.4514 27.7859C34.4514 27.7666 34.4514 27.7472 34.4514 27.7278C34.4514 27.6793 34.4514 27.6212 34.4514 27.5727L34.4711 21.0583C34.4612 21.1746 34.4612 21.2425 34.4612 21.3103Z" fill="#C04D00" stroke="#2D2D2D" stroke-width="0.66" stroke-miterlimit="10" stroke-linecap="round" stroke-linejoin="round"/>
<path d="M51.0001 13.5551L45.0146 16.9771L31.0355 15.9689C33.4081 17.5103 34.55 19.2843 34.4614 21.3103C34.3827 23.3267 32.9847 25.1104 30.2972 26.6421C27.3537 28.3288 23.6719 29.1237 19.2911 29.0365C14.8808 28.9396 10.7856 27.8054 6.96591 25.6339C3.3727 23.5884 1.40381 21.3491 1.08879 18.9062C0.763921 16.4536 1.88619 14.35 4.47527 12.5663L13.355 16.0561C11.9767 16.9189 11.2876 17.8883 11.2778 18.9547C11.2778 20.0307 12.0161 20.9904 13.4928 21.8338C14.9399 22.6578 16.5249 23.0746 18.2476 23.0843C19.9606 23.094 21.4471 22.7547 22.6481 22.0665C24.0558 21.2619 24.6662 20.3797 24.4792 19.4394C24.2921 18.499 23.5735 17.6654 22.3134 16.9577C21.3289 16.3954 20.1279 15.998 18.7202 15.7459L20.4429 10.9183L34.7764 11.7326L21.4077 4.12274L27.8853 0.409912L51.0001 13.5551Z" fill="#E4620A" stroke="#2D2D2D" stroke-width="0.66" stroke-miterlimit="10" stroke-linecap="round" stroke-linejoin="round"/>
</svg>
