<svg width="52" height="33" viewBox="0 0 52 33" fill="none" xmlns="http://www.w3.org/2000/svg">
<path d="M34.2327 6.6803L34.2144 13.4759L14.8294 14.972L14.8477 8.17642L34.2327 6.6803Z" fill="#C04D00" stroke="#2D2D2D" stroke-width="0.66" stroke-miterlimit="10" stroke-linejoin="round"/>
<path d="M16.4952 16.8287L16.4769 23.6243L1 14.8278L1.01831 8.03223L16.4952 16.8287Z" fill="#C04D00" stroke="#2D2D2D" stroke-width="0.66" stroke-miterlimit="10" stroke-linejoin="round"/>
<path d="M50.991 6.39197L50.9727 13.1875L31.3956 24.3903L31.4139 17.5947L50.991 6.39197Z" fill="#C04D00" stroke="#2D2D2D" stroke-width="0.66" stroke-miterlimit="10" stroke-linejoin="round"/>
<path d="M30.0132 24.5166L29.9949 31.312L24.6316 28.2658L24.6499 21.4703L30.0132 24.5166Z" fill="#C04D00" stroke="#2D2D2D" stroke-width="0.66" stroke-miterlimit="10" stroke-linejoin="round"/>
<path d="M36.7772 20.6411L36.7589 27.4366L29.9952 31.312L30.0135 24.5165L36.7772 20.6411Z" fill="#C04D00" stroke="#2D2D2D" stroke-width="0.66" stroke-miterlimit="10" stroke-linejoin="round"/>
<path d="M17.7309 25.4268L17.7126 32.2223L9.55774 27.5899L9.57604 20.7854L17.7309 25.4268Z" fill="#C04D00" stroke="#2D2D2D" stroke-width="0.66" stroke-miterlimit="10" stroke-linejoin="round"/>
<path d="M24.65 21.4703L24.6317 28.2658L17.7124 32.2223L17.7307 25.4268L24.65 21.4703Z" fill="#C04D00" stroke="#2D2D2D" stroke-width="0.66" stroke-miterlimit="10" stroke-linejoin="round"/>
<path d="M31.4136 17.5948L36.777 20.6411L30.0041 24.5166L24.6408 21.4703L17.7215 25.4269L9.57583 20.7853L16.4951 16.8287L1.01826 8.03232L9.21888 3.34571L41.2983 0.876221L50.9999 6.39201L31.4136 17.5948ZM23.2588 12.9533L34.2326 6.68041L14.8477 8.17653L23.2588 12.9533Z" fill="#E4620A" stroke="#2D2D2D" stroke-width="0.66" stroke-miterlimit="10" stroke-linecap="round" stroke-linejoin="round"/>
</svg>
