<svg width="52" height="36" viewBox="0 0 52 36" fill="none" xmlns="http://www.w3.org/2000/svg">
<path d="M30.8405 7.80493L30.8215 14.4595L23.3994 17.2167L23.4183 10.5621L30.8405 7.80493Z" fill="#C04D00" stroke="#2D2D2D" stroke-width="0.66" stroke-miterlimit="10" stroke-linejoin="round"/>
<path d="M15.4839 12.9733C14.9523 12.3938 14.3829 11.7956 13.7944 11.1507C13.187 10.5058 12.646 9.90768 12.1429 9.35624C11.9626 9.15062 11.8107 8.98238 11.6873 8.84219C11.488 8.61787 11.3836 8.48702 11.3836 8.45898L11.3646 15.1136C11.3646 15.1603 11.6304 15.4594 12.1144 16.0109C12.627 16.5623 13.168 17.1605 13.7659 17.8054C14.3449 18.4503 14.9239 19.0484 15.4554 19.6279L16.1672 20.4878L16.1862 13.8332L15.4839 12.9733Z" fill="#C04D00" stroke="#2D2D2D" stroke-width="0.66" stroke-miterlimit="10" stroke-linecap="round" stroke-linejoin="round"/>
<path d="M44.3751 15.5063L44.3561 22.1515L30.8216 14.4595L30.8406 7.80493L44.3751 15.5063Z" fill="#C04D00" stroke="#2D2D2D" stroke-width="0.66" stroke-miterlimit="10" stroke-linejoin="round"/>
<path d="M51.0001 11.7117L50.9811 18.3662L44.3561 22.1515L44.3751 15.5063L51.0001 11.7117Z" fill="#C04D00" stroke="#2D2D2D" stroke-width="0.66" stroke-miterlimit="10" stroke-linejoin="round"/>
<path d="M11.2504 24.1421C11.2599 24.0954 11.2599 24.0486 11.2694 24.0113C11.2788 23.9832 11.2788 23.9552 11.2883 23.9271C11.2978 23.8898 11.3073 23.843 11.3168 23.8056C11.3263 23.7776 11.3263 23.7496 11.3358 23.7215C11.3453 23.6748 11.3643 23.6374 11.3738 23.6C11.3833 23.572 11.3927 23.5533 11.4022 23.5253C11.4212 23.4692 11.4402 23.4224 11.4687 23.3664C11.4782 23.357 11.4782 23.3383 11.4877 23.329C11.5161 23.2636 11.5541 23.1981 11.5826 23.1421C11.5921 23.1327 11.6016 23.114 11.6016 23.1047C11.63 23.0486 11.668 23.0019 11.6965 22.9458C11.7155 22.9271 11.7249 22.8991 11.7439 22.8804C11.7724 22.843 11.8009 22.7962 11.8388 22.7589C11.8768 22.7121 11.9053 22.6747 11.9432 22.628L11.9527 22.6187C12.0002 22.5719 12.0382 22.5159 12.0951 22.4691C12.1046 22.4598 12.1236 22.4411 12.1331 22.4317C12.171 22.3944 12.2185 22.3476 12.266 22.3102C12.2754 22.3009 12.2849 22.2915 12.2944 22.2822C12.3324 22.2542 12.3609 22.2168 12.3988 22.1887C12.4273 22.17 12.4558 22.142 12.4748 22.1233C12.5127 22.0953 12.5507 22.0579 12.5887 22.0299C12.6171 22.0112 12.6456 21.9831 12.6741 21.9644C12.7215 21.927 12.769 21.899 12.8165 21.8616C12.8449 21.8429 12.8639 21.8242 12.8924 21.8055C12.9588 21.7588 13.0348 21.7121 13.1107 21.6653C13.1107 21.6653 13.1202 21.6653 13.1202 21.656L13.1392 15.0015C13.0632 15.0482 12.9873 15.1043 12.9114 15.151C12.8829 15.1697 12.8639 15.1884 12.8354 15.2071C12.788 15.2445 12.7405 15.2725 12.6931 15.3099C12.6646 15.3286 12.6361 15.3566 12.6171 15.3753C12.5792 15.4034 12.5412 15.4407 12.5032 15.4688C12.4748 15.4875 12.4463 15.5155 12.4273 15.5342C12.3988 15.5622 12.3609 15.5903 12.3324 15.6183L12.3229 15.6277C12.3134 15.637 12.3039 15.6464 12.2944 15.6557C12.247 15.6931 12.209 15.7398 12.1615 15.7772C12.1521 15.7865 12.1331 15.8052 12.1236 15.8146C12.0761 15.8613 12.0287 15.9174 11.9812 15.9641L11.9717 15.9735C11.9432 16.0109 11.9148 16.0389 11.8863 16.0763C11.8768 16.0856 11.8768 16.095 11.8673 16.1043C11.8388 16.1417 11.8009 16.1884 11.7724 16.2258C11.7534 16.2445 11.7439 16.2726 11.7249 16.2912C11.687 16.3473 11.6585 16.3941 11.63 16.4501C11.6205 16.4595 11.611 16.4688 11.611 16.4875C11.5731 16.5529 11.5446 16.609 11.5161 16.6744C11.5066 16.6838 11.5066 16.7025 11.4972 16.7118C11.4782 16.7586 11.4497 16.8146 11.4307 16.8614V16.8707C11.4212 16.8894 11.4212 16.9081 11.4117 16.9361C11.3927 16.9735 11.3833 17.0203 11.3738 17.067C11.3643 17.095 11.3548 17.1231 11.3548 17.1511C11.3453 17.1885 11.3358 17.2352 11.3263 17.2726C11.3263 17.282 11.3263 17.2913 11.3168 17.2913C11.3168 17.31 11.3073 17.3287 11.3073 17.3474C11.2978 17.3941 11.2883 17.4408 11.2883 17.4782C11.2883 17.5063 11.2788 17.5343 11.2788 17.5623C11.2788 17.6091 11.2694 17.6465 11.2694 17.6932C11.2694 17.7119 11.2694 17.7212 11.2694 17.7399C11.2694 17.768 11.2694 17.8053 11.2694 17.8334L11.2504 24.4879C11.2504 24.4412 11.2504 24.3945 11.2504 24.3477C11.2504 24.301 11.2599 24.2636 11.2599 24.2169C11.2409 24.1982 11.2409 24.1701 11.2504 24.1421Z" fill="#C04D00" stroke="#2D2D2D" stroke-width="0.66" stroke-miterlimit="10" stroke-linecap="round" stroke-linejoin="round"/>
<path d="M25.2787 18.3102C25.2787 18.2074 25.2692 18.1045 25.2597 18.0111C25.1079 16.9643 24.3106 16.0484 22.9059 15.2446C22.792 15.1792 22.6686 15.1138 22.5547 15.0577C22.5168 15.039 22.4788 15.0203 22.4313 15.0016C22.3554 14.9643 22.27 14.9175 22.1941 14.8801C22.1466 14.8614 22.0991 14.8334 22.0517 14.8147C21.9758 14.7773 21.9093 14.7493 21.8334 14.7119C21.7764 14.6932 21.729 14.6652 21.672 14.6465C21.6151 14.6278 21.5581 14.5998 21.5107 14.5811C21.4917 14.5717 21.4727 14.5624 21.4443 14.553C21.4158 14.5437 21.3968 14.5343 21.3683 14.525C21.2544 14.4783 21.1405 14.4409 21.0171 14.4035C20.9032 14.3661 20.7799 14.3287 20.6565 14.2913C20.628 14.282 20.609 14.2726 20.5805 14.2726C20.5616 14.2633 20.5331 14.2633 20.5141 14.2539C20.4572 14.2353 20.4097 14.2259 20.3528 14.2072C20.2863 14.1885 20.2294 14.1698 20.1629 14.1605C20.087 14.1418 20.0206 14.1231 19.9446 14.1138C19.8782 14.0951 19.8212 14.0857 19.7548 14.0764C19.7453 14.0764 19.7263 14.067 19.7168 14.067C19.6219 14.0483 19.5365 14.0296 19.4416 14.0203C19.4131 14.011 19.3846 14.0109 19.3657 14.0016C19.2423 13.9829 19.1094 13.9642 18.986 13.9455C18.9765 13.9455 18.967 13.9455 18.967 13.9455C18.9386 13.9455 18.9006 13.9362 18.8721 13.9362C18.7677 13.9268 18.6728 13.9081 18.5684 13.8988C18.5209 13.8894 18.4735 13.8895 18.426 13.8895C18.3786 13.8801 18.3216 13.8801 18.2742 13.8708C18.2362 13.8708 18.1982 13.8614 18.1603 13.8614C18.1033 13.8614 18.0559 13.8521 17.9989 13.8521C17.9135 13.8427 17.8186 13.8427 17.7237 13.8427C17.6762 13.8427 17.6193 13.8427 17.5718 13.8334C17.5528 13.8334 17.5244 13.8334 17.5054 13.8334C17.4389 13.8334 17.363 13.8334 17.2966 13.8334C17.2396 13.8334 17.1827 13.8334 17.1257 13.8334C17.0213 13.8334 16.9264 13.8334 16.822 13.8334C16.7746 13.8334 16.7271 13.8334 16.6796 13.8334C16.6701 13.8334 16.6607 13.8334 16.6607 13.8334C16.5183 13.8427 16.3759 13.8427 16.2241 13.8521L16.2051 20.5065C16.3569 20.4972 16.5088 20.4878 16.6607 20.4878C16.7081 20.4878 16.7651 20.4878 16.8125 20.4878C16.9169 20.4878 17.0118 20.4878 17.1067 20.4878C17.1637 20.4878 17.2206 20.4878 17.2776 20.4878C17.3725 20.4878 17.4579 20.4878 17.5528 20.4878C17.6003 20.4878 17.6572 20.4878 17.7047 20.4972C17.7996 20.4972 17.885 20.5065 17.9799 20.5065C18.0369 20.5065 18.0843 20.5158 18.1413 20.5158C18.2267 20.5252 18.3216 20.5345 18.407 20.5345C18.4545 20.5345 18.502 20.5439 18.5494 20.5439C18.6538 20.5532 18.7487 20.5626 18.8531 20.5813C18.8911 20.5813 18.9196 20.5906 18.9575 20.5906C19.0904 20.6093 19.2233 20.628 19.3562 20.656C19.3846 20.6654 19.4131 20.6654 19.4416 20.6747C19.546 20.6934 19.6504 20.7121 19.7548 20.7308C19.8212 20.7402 19.8782 20.7588 19.9446 20.7682C20.0206 20.7869 20.0965 20.8056 20.1629 20.8149C20.2294 20.8336 20.2863 20.843 20.3528 20.8617C20.4287 20.8803 20.5046 20.899 20.5805 20.9271C20.609 20.9364 20.628 20.9458 20.6565 20.9458C20.7799 20.9832 20.8938 21.0205 21.0171 21.0579C21.131 21.0953 21.2544 21.142 21.3683 21.1794C21.3968 21.1888 21.4158 21.1981 21.4443 21.2075C21.5202 21.2355 21.5961 21.2635 21.672 21.3009C21.729 21.3196 21.7764 21.3477 21.8334 21.3663C21.9093 21.3944 21.9853 21.4318 22.0517 21.4692C22.0991 21.4878 22.1466 21.5159 22.1941 21.5346C22.27 21.572 22.3554 21.6093 22.4313 21.6561C22.4693 21.6748 22.5073 21.6935 22.5547 21.7122C22.6686 21.7776 22.792 21.8337 22.9059 21.8991C24.3106 22.7028 25.1079 23.6188 25.2597 24.6655C25.2692 24.7123 25.2692 24.7683 25.2787 24.8151C25.2787 24.8618 25.2882 24.9179 25.2882 24.9646L25.2787 18.3102Z" fill="#C04D00" stroke="#2D2D2D" stroke-width="0.66" stroke-miterlimit="10" stroke-linecap="round" stroke-linejoin="round"/>
<path d="M36.1082 19.4503C36.1082 19.4783 36.1082 19.5063 36.1082 19.5344C36.1082 19.5717 36.0987 19.6091 36.0987 19.6465C36.0987 19.6746 36.0987 19.7026 36.0892 19.7306C36.0892 19.768 36.0797 19.8054 36.0797 19.8428C36.0797 19.8708 36.0702 19.8989 36.0702 19.9176C36.0607 19.9549 36.0607 20.0017 36.0512 20.0391C36.0512 20.0578 36.0417 20.0858 36.0417 20.1045C36.0322 20.1512 36.0228 20.2073 36.0133 20.254C36.0133 20.2634 36.0038 20.2821 36.0038 20.2914C35.9848 20.3568 35.9753 20.4129 35.9563 20.4783C35.9468 20.497 35.9468 20.5157 35.9373 20.5251C35.9278 20.5718 35.9089 20.6185 35.8899 20.6653C35.8804 20.6933 35.8709 20.712 35.8614 20.7307C35.8519 20.7681 35.8329 20.8054 35.8139 20.8428C35.8045 20.8709 35.795 20.8989 35.776 20.927C35.757 20.9643 35.7475 21.0017 35.7285 21.0298C35.719 21.0578 35.7 21.0858 35.6906 21.1139C35.6716 21.1513 35.6621 21.1793 35.6431 21.2167C35.6336 21.2447 35.6146 21.2728 35.6051 21.3008C35.5862 21.3382 35.5672 21.3662 35.5482 21.4036C35.5292 21.4316 35.5197 21.4597 35.5007 21.4877C35.4818 21.5158 35.4628 21.5531 35.4438 21.5812C35.4248 21.6186 35.4058 21.656 35.3773 21.6933C35.3584 21.7214 35.3394 21.7588 35.3204 21.7868C35.3014 21.8242 35.2729 21.8616 35.254 21.8896C35.235 21.9176 35.216 21.9457 35.1875 21.9831C35.159 22.0205 35.1401 22.0578 35.1116 22.0859C35.0926 22.1139 35.0641 22.142 35.0452 22.1793C35.0167 22.2167 34.9882 22.2541 34.9597 22.2822C34.9408 22.3102 34.9123 22.3382 34.8933 22.3663C34.8269 22.441 34.7699 22.5158 34.7035 22.5999L34.694 22.6093C34.6275 22.684 34.5611 22.7495 34.4947 22.8242C34.4757 22.8429 34.4472 22.871 34.4282 22.8897C34.3713 22.9457 34.3143 23.0018 34.2574 23.0579C34.2384 23.0766 34.2194 23.0953 34.1909 23.1233C34.115 23.1981 34.0296 23.2729 33.9537 23.3476C33.9347 23.3663 33.9252 23.3757 33.9062 23.3944C33.8398 23.4504 33.7828 23.5065 33.7164 23.5626C33.6879 23.5906 33.6594 23.6093 33.631 23.6374C33.574 23.6841 33.5171 23.7308 33.4601 23.7775C33.4316 23.8056 33.4032 23.8243 33.3652 23.8523C33.3083 23.899 33.2418 23.9458 33.1849 23.9925C33.1564 24.0112 33.1279 24.0392 33.0994 24.0579C33.014 24.1234 32.9191 24.1888 32.8337 24.2542L32.8242 24.2635C32.7293 24.329 32.6344 24.4037 32.53 24.4692C32.5015 24.4879 32.4635 24.5159 32.4351 24.5346C32.3686 24.5813 32.2927 24.628 32.2262 24.6748C32.1883 24.7028 32.1503 24.7215 32.1124 24.7496C32.0459 24.7963 31.97 24.843 31.8941 24.8897C31.8561 24.9084 31.8181 24.9365 31.7802 24.9552C31.6947 25.0112 31.6093 25.058 31.5239 25.1141C31.4954 25.1327 31.4764 25.1421 31.448 25.1608C31.3436 25.2262 31.2392 25.2823 31.1253 25.3477C31.0019 25.4225 30.869 25.4879 30.7456 25.5627C30.7076 25.5814 30.6792 25.6001 30.6412 25.6187C30.5273 25.6748 30.4229 25.7309 30.309 25.787C30.29 25.7963 30.2616 25.8057 30.2426 25.8244C30.1097 25.8898 29.9768 25.9552 29.8439 26.0113C29.8155 26.03 29.7775 26.0393 29.7395 26.058C29.6351 26.1048 29.5212 26.1608 29.4168 26.2076C29.3884 26.2263 29.3504 26.2356 29.3219 26.2543C29.189 26.3104 29.0467 26.3664 28.9138 26.4225C28.8853 26.4319 28.8569 26.4412 28.8379 26.4506C28.724 26.4973 28.6101 26.544 28.4867 26.5814C28.4487 26.6001 28.4108 26.6094 28.3728 26.6281C28.2304 26.6842 28.0881 26.7309 27.9457 26.7777C27.9362 26.7777 27.9267 26.787 27.9267 26.787C27.7938 26.8338 27.6515 26.8805 27.5186 26.9272C27.4806 26.9366 27.4521 26.9459 27.4142 26.9553C27.2244 27.0207 27.025 27.0768 26.8257 27.1328C26.7972 27.1422 26.7688 27.1515 26.7403 27.1609C26.541 27.2169 26.3417 27.273 26.1329 27.3198C26.1044 27.3291 26.0759 27.3291 26.0474 27.3384C25.8386 27.3852 25.6298 27.4319 25.421 27.4786C25.3925 27.488 25.3641 27.488 25.3356 27.4973C25.1268 27.5441 24.9085 27.5814 24.6902 27.6188C24.6522 27.6282 24.6143 27.6282 24.5763 27.6375C24.4719 27.6562 24.3675 27.6749 24.2631 27.6936C24.2156 27.703 24.1682 27.7123 24.1112 27.7123C24.0068 27.731 23.8929 27.7403 23.779 27.759C23.7411 27.7684 23.6936 27.7684 23.6556 27.7777C23.5038 27.7964 23.3614 27.8151 23.2096 27.8338C23.1811 27.8338 23.1526 27.8431 23.1241 27.8431C23.0007 27.8618 22.8774 27.8712 22.7445 27.8805C22.6875 27.8899 22.6306 27.8899 22.5831 27.8992C22.4977 27.9086 22.4123 27.9179 22.3269 27.9179C22.2699 27.9273 22.213 27.9273 22.1465 27.9366C22.0611 27.946 21.9757 27.946 21.8808 27.9553C21.8238 27.9553 21.7669 27.9646 21.7099 27.9646C21.615 27.974 21.5201 27.974 21.4347 27.9833C21.3777 27.9833 21.3303 27.9927 21.2733 27.9927C21.1594 28.002 21.055 28.002 20.9411 28.002C20.9032 28.002 20.8747 28.002 20.8367 28.002C20.6469 28.0114 20.4666 28.0114 20.2768 28.0114C20.2293 28.0114 20.1818 28.0114 20.1439 28.0114C19.954 28.0114 19.7642 28.0114 19.5649 28.0114C19.413 28.0114 19.2517 28.0114 19.0998 28.002C19.0144 28.002 18.9195 27.9927 18.8341 27.9927C18.7866 27.9927 18.7487 27.9927 18.7012 27.9927C18.5683 27.9833 18.4354 27.9833 18.3026 27.974C18.2931 27.974 18.2931 27.974 18.2836 27.974C18.1507 27.9646 18.0273 27.9553 17.8944 27.946C17.847 27.946 17.809 27.9366 17.7616 27.9366C17.6761 27.9273 17.5812 27.9273 17.4958 27.9179C17.4389 27.9179 17.3914 27.9086 17.3345 27.9086C17.2585 27.8992 17.1731 27.8899 17.0972 27.8899C17.0402 27.8805 16.9833 27.8805 16.9263 27.8712C16.8504 27.8618 16.7745 27.8525 16.6985 27.8431C16.6416 27.8338 16.5847 27.8338 16.5277 27.8245C16.4518 27.8151 16.3758 27.8058 16.2999 27.7964C16.243 27.7871 16.186 27.7777 16.1291 27.7777C16.0531 27.7684 15.9867 27.759 15.9108 27.7497C15.8443 27.7403 15.7874 27.731 15.7209 27.7216C15.6545 27.7123 15.5786 27.703 15.5121 27.6843C15.4457 27.6749 15.3888 27.6656 15.3223 27.6562C15.2559 27.6469 15.1799 27.6282 15.1135 27.6188C15.0471 27.6095 14.9901 27.6001 14.9237 27.5815C14.8572 27.5721 14.7813 27.5534 14.7149 27.5441C14.6484 27.5347 14.5915 27.516 14.525 27.5067C14.4681 27.4973 14.4017 27.4786 14.3447 27.4693C14.2593 27.4506 14.1739 27.4319 14.0884 27.4132C14.0315 27.4039 13.9651 27.3852 13.9081 27.3758C13.8227 27.3571 13.7373 27.3385 13.6613 27.3198C13.6044 27.3011 13.538 27.2917 13.481 27.273C13.3956 27.2543 13.3102 27.2356 13.2247 27.2076C13.1678 27.1889 13.1108 27.1796 13.0539 27.1609C12.9685 27.1422 12.8831 27.1141 12.7881 27.0861C12.7407 27.0674 12.6837 27.0581 12.6363 27.0394C12.4654 26.9926 12.2946 26.9366 12.1238 26.8898C12.0858 26.8805 12.0478 26.8618 12.0099 26.8524C11.8675 26.8057 11.7251 26.759 11.5828 26.7123C11.5448 26.7029 11.5068 26.6842 11.4689 26.6749C11.298 26.6188 11.1272 26.5627 10.9658 26.4973C10.9279 26.4879 10.8994 26.4693 10.8614 26.4599C10.7191 26.4038 10.5767 26.3571 10.4343 26.301C10.3963 26.2823 10.3489 26.273 10.3109 26.2543C10.216 26.2169 10.1116 26.1795 10.0167 26.1421C9.97873 26.1234 9.93128 26.1047 9.89331 26.0954C9.75094 26.0393 9.61806 25.9833 9.47569 25.9178C9.45671 25.9085 9.43773 25.8991 9.42824 25.8991C9.30485 25.8431 9.18147 25.7963 9.06757 25.7402C9.02012 25.7216 8.97266 25.6935 8.9252 25.6748C8.83029 25.6374 8.74487 25.5907 8.64996 25.544C8.59301 25.5159 8.54555 25.4972 8.4886 25.4692C8.40318 25.4318 8.31776 25.3851 8.23234 25.3477C8.17539 25.3197 8.12794 25.2916 8.07099 25.2636C7.98557 25.2169 7.90015 25.1795 7.81472 25.1327C7.76727 25.1047 7.71032 25.0767 7.66286 25.0486C7.56795 25.0019 7.48253 24.9552 7.38762 24.8991C7.34016 24.8711 7.3022 24.8524 7.25474 24.8243C7.12186 24.7496 6.98898 24.6748 6.85611 24.6C3.35383 22.6093 1.4366 20.3662 1.09491 17.8614C1.07593 17.7025 1.05695 17.5343 1.03796 17.3754C1.01898 17.2165 1.01898 17.0576 1.01898 16.9081L1 23.5626C1 23.871 1.01898 24.1888 1.06644 24.5159C1.40812 27.0207 3.32536 29.2638 6.82763 31.2545C6.96051 31.3293 7.09339 31.4041 7.22627 31.4788C7.27372 31.5069 7.31169 31.5256 7.35915 31.5536C7.45406 31.6003 7.53948 31.647 7.63439 31.7031C7.68185 31.7312 7.7388 31.7592 7.78625 31.7872C7.87167 31.834 7.95709 31.8714 8.04251 31.9181C8.09946 31.9461 8.14692 31.9742 8.20387 32.0022C8.28929 32.0396 8.37471 32.0863 8.46013 32.1237C8.51708 32.1517 8.56453 32.1704 8.62148 32.1985C8.71639 32.2452 8.80182 32.2826 8.89673 32.3293C8.94418 32.348 8.99164 32.3761 9.0391 32.3947C9.16248 32.4508 9.27638 32.4976 9.39977 32.5536C9.41875 32.563 9.43773 32.5723 9.45671 32.5817C9.59908 32.6378 9.73196 32.7032 9.87433 32.7592C9.92179 32.7779 9.95975 32.7966 10.0072 32.8153C10.1021 32.8527 10.197 32.8901 10.3014 32.9275C10.3204 32.9368 10.3394 32.9368 10.3489 32.9462C10.3774 32.9555 10.3963 32.9649 10.4248 32.9742C10.5672 33.0303 10.7096 33.077 10.8519 33.1331C10.8899 33.1424 10.9184 33.1611 10.9563 33.1705C11.1272 33.2266 11.2885 33.292 11.4594 33.3481C11.4973 33.3574 11.5353 33.3761 11.5733 33.3854C11.7156 33.4322 11.858 33.4789 12.0004 33.5256C12.0383 33.535 12.0763 33.5537 12.1143 33.563C12.2851 33.6191 12.456 33.6658 12.6268 33.7126C12.6363 33.7126 12.6458 33.7219 12.6553 33.7219C12.6932 33.7313 12.7407 33.7406 12.7787 33.7593C12.8641 33.7873 12.9495 33.806 13.0349 33.8341C13.0919 33.8528 13.1488 33.8621 13.2058 33.8808C13.2912 33.8995 13.3766 33.9275 13.4525 33.9462C13.5095 33.9649 13.5759 33.9743 13.6329 33.9929C13.7183 34.0116 13.8037 34.0303 13.8796 34.049C13.9366 34.0584 14.003 34.0771 14.06 34.0864C14.1454 34.1051 14.2308 34.1238 14.3162 34.1425C14.3542 34.1518 14.3922 34.1612 14.4301 34.1705C14.4491 34.1705 14.4776 34.1799 14.4966 34.1799C14.563 34.1892 14.62 34.2079 14.6864 34.2173C14.7528 34.2266 14.8288 34.2453 14.8952 34.2546C14.9616 34.264 15.0186 34.2733 15.085 34.292C15.1515 34.3014 15.2274 34.3201 15.2938 34.3294C15.3603 34.3388 15.4172 34.3481 15.4837 34.3575C15.5501 34.3668 15.626 34.3761 15.6925 34.3948C15.7589 34.4042 15.8159 34.4135 15.8823 34.4229C15.9203 34.4322 15.9582 34.4322 15.9962 34.4416C16.0342 34.4509 16.0626 34.4509 16.1006 34.4509C16.1575 34.4603 16.2145 34.4696 16.2714 34.4696C16.3474 34.479 16.4233 34.4883 16.4992 34.4976C16.5562 34.507 16.6131 34.507 16.6701 34.5163C16.746 34.5257 16.8219 34.535 16.8979 34.5444C16.9548 34.5537 17.0118 34.5537 17.0687 34.5631C17.1446 34.5724 17.2301 34.5818 17.306 34.5818C17.3629 34.5818 17.4104 34.5911 17.4673 34.5911C17.4768 34.5911 17.4958 34.5911 17.5053 34.5911C17.5812 34.6005 17.6572 34.6005 17.7331 34.6098C17.7805 34.6098 17.8185 34.6191 17.866 34.6191C17.9988 34.6285 18.1222 34.6378 18.2551 34.6472C18.2646 34.6472 18.2646 34.6472 18.2741 34.6472C18.407 34.6565 18.5398 34.6565 18.6727 34.6659C18.7202 34.6659 18.7582 34.6659 18.8056 34.6659C18.8815 34.6659 18.9575 34.6752 19.0334 34.6752C19.0429 34.6752 19.0524 34.6752 19.0714 34.6752C19.2232 34.6752 19.3846 34.6846 19.5364 34.6846C19.7263 34.6846 19.9256 34.6846 20.1154 34.6846C20.1629 34.6846 20.2103 34.6846 20.2483 34.6846C20.4381 34.6846 20.6279 34.6752 20.8083 34.6752H20.8178C20.8462 34.6752 20.8842 34.6752 20.9127 34.6752C21.0266 34.6752 21.1405 34.6659 21.2449 34.6659C21.3018 34.6659 21.3493 34.6565 21.4062 34.6565C21.5011 34.6472 21.596 34.6472 21.6815 34.6378C21.7384 34.6378 21.7954 34.6285 21.8523 34.6285C21.9377 34.6191 22.0326 34.6191 22.1181 34.6098C22.175 34.6098 22.232 34.6005 22.2889 34.5911C22.3743 34.5818 22.4597 34.5724 22.5452 34.5724C22.5831 34.5724 22.6116 34.5631 22.6496 34.5631C22.6686 34.5631 22.6875 34.5631 22.7065 34.5537C22.8299 34.5444 22.9628 34.5257 23.0862 34.5163C23.1146 34.5163 23.1431 34.507 23.1716 34.507C23.3234 34.4883 23.4753 34.4696 23.6177 34.4509C23.6556 34.4416 23.7031 34.4416 23.7411 34.4322C23.855 34.4135 23.9594 34.4042 24.0733 34.3855C24.1207 34.3761 24.1682 34.3668 24.2156 34.3668C24.32 34.3481 24.4244 34.3294 24.5288 34.3107C24.5573 34.3014 24.5858 34.3014 24.6143 34.292C24.6237 34.292 24.6332 34.292 24.6427 34.2827C24.861 34.2453 25.0698 34.1986 25.2881 34.1612C25.3166 34.1518 25.3451 34.1518 25.3736 34.1425C25.5824 34.0958 25.7912 34.049 26 34.0023C26.0285 33.993 26.0569 33.993 26.0854 33.9836C26.2847 33.9369 26.4935 33.8808 26.6928 33.8247C26.7213 33.8154 26.7498 33.806 26.7783 33.7967C26.9776 33.7406 27.1769 33.6845 27.3667 33.6191C27.3857 33.6098 27.3952 33.6098 27.4142 33.6098C27.4332 33.6004 27.4521 33.6004 27.4711 33.5911C27.6135 33.5443 27.7464 33.4976 27.8792 33.4509C27.8887 33.4509 27.8982 33.4415 27.8982 33.4415C28.0406 33.3948 28.183 33.3387 28.3253 33.292C28.3633 33.2733 28.4013 33.2639 28.4392 33.2453C28.5531 33.1985 28.6765 33.1518 28.7904 33.1144C28.8189 33.1051 28.8474 33.0957 28.8663 33.0864C28.9992 33.0303 29.1416 32.9742 29.2745 32.9181C29.3029 32.8994 29.3409 32.8901 29.3694 32.8714C29.4833 32.8247 29.5877 32.7779 29.6921 32.7219C29.73 32.7032 29.7585 32.6938 29.7965 32.6751C29.9294 32.6097 30.0622 32.5536 30.1951 32.4882C30.2141 32.4789 30.2426 32.4695 30.2616 32.4508C30.3755 32.3947 30.4799 32.3387 30.5938 32.2826C30.6317 32.2639 30.6602 32.2452 30.6982 32.2265C30.831 32.1611 30.9544 32.0863 31.0778 32.0116C31.1822 31.9461 31.2961 31.89 31.4005 31.8246L31.41 31.8153C31.429 31.8059 31.448 31.7872 31.4669 31.7779C31.5524 31.7218 31.6378 31.6751 31.7232 31.619C31.7612 31.6003 31.7991 31.5723 31.8371 31.5536C31.913 31.5069 31.9795 31.4601 32.0554 31.4134C32.0934 31.3854 32.1313 31.3667 32.1693 31.3386C32.2452 31.2919 32.3117 31.2452 32.3781 31.1984C32.4066 31.1797 32.4445 31.1517 32.473 31.133C32.5679 31.0676 32.6723 30.9928 32.7673 30.9274L32.7767 30.918C32.8717 30.8526 32.9571 30.7872 33.0425 30.7218C33.071 30.7031 33.0994 30.675 33.1279 30.6564C33.1944 30.6096 33.2513 30.5629 33.3083 30.5162C33.3367 30.4881 33.3747 30.4694 33.4032 30.4414C33.4601 30.3947 33.5171 30.3479 33.574 30.3012C33.6025 30.2732 33.631 30.2545 33.6594 30.2264C33.7259 30.1704 33.7923 30.1143 33.8493 30.0582C33.8587 30.0489 33.8777 30.0302 33.8872 30.0208C33.8872 30.0208 33.8872 30.0208 33.8967 30.0115C33.9821 29.9367 34.0581 29.8619 34.134 29.7872C34.153 29.7685 34.172 29.7498 34.2004 29.7217C34.2574 29.6657 34.3143 29.6096 34.3713 29.5535C34.3903 29.5348 34.4187 29.5068 34.4377 29.4881C34.5042 29.4133 34.5706 29.3479 34.637 29.2731L34.6465 29.2638C34.713 29.189 34.7794 29.1142 34.8363 29.0301C34.8458 29.0208 34.8458 29.0114 34.8553 29.0021C34.8743 28.9834 34.8838 28.9647 34.9028 28.946C34.9313 28.9086 34.9597 28.8712 34.9882 28.8338C35.0072 28.8058 35.0357 28.7778 35.0546 28.7404C35.0831 28.703 35.1021 28.6656 35.1306 28.6282C35.1496 28.6002 35.1685 28.5722 35.1875 28.5348C35.216 28.4974 35.235 28.46 35.254 28.4226C35.2729 28.3946 35.2919 28.3665 35.3109 28.3291C35.3299 28.2918 35.3584 28.2544 35.3773 28.217C35.3868 28.1983 35.3963 28.1796 35.4058 28.1703C35.4153 28.1516 35.4248 28.1422 35.4343 28.1235C35.4533 28.0955 35.4628 28.0675 35.4818 28.0394C35.5007 28.002 35.5197 27.974 35.5387 27.9366C35.5577 27.9086 35.5672 27.8805 35.5767 27.8525C35.5956 27.8151 35.6146 27.7871 35.6241 27.7497C35.6336 27.7216 35.6526 27.6936 35.6621 27.6656C35.6811 27.6282 35.6906 27.5908 35.7095 27.5628C35.719 27.5347 35.7285 27.5067 35.7475 27.4786C35.7475 27.4693 35.757 27.4599 35.757 27.4506C35.7665 27.4226 35.776 27.3945 35.7855 27.3665C35.795 27.3478 35.8045 27.3198 35.8139 27.3011C35.8329 27.2543 35.8424 27.2076 35.8614 27.1609C35.8709 27.1422 35.8709 27.1235 35.8804 27.1141C35.8994 27.0487 35.9183 26.9926 35.9278 26.9272C35.9278 26.9179 35.9373 26.8992 35.9373 26.8898C35.9468 26.8431 35.9563 26.7964 35.9658 26.759C35.9658 26.7496 35.9658 26.7496 35.9658 26.7403C35.9658 26.7216 35.9753 26.6936 35.9753 26.6749C35.9848 26.6375 35.9943 26.5908 35.9943 26.5534C35.9943 26.5253 36.0038 26.5066 36.0038 26.4786C36.0133 26.4412 36.0133 26.4038 36.0133 26.3664C36.0133 26.3384 36.0228 26.3104 36.0228 26.2917C36.0228 26.2543 36.0322 26.2169 36.0322 26.1795C36.0322 26.1515 36.0322 26.1234 36.0322 26.0954C36.0322 26.0767 36.0322 26.058 36.0322 26.0487C36.0322 26.0113 36.0322 25.9739 36.0322 25.9365L36.0512 19.282C36.1177 19.3381 36.1082 19.3942 36.1082 19.4503Z" fill="#C04D00" stroke="#2D2D2D" stroke-width="0.66" stroke-miterlimit="10" stroke-linecap="round" stroke-linejoin="round"/>
<path d="M50.9999 11.7116L44.375 15.4969L30.8405 7.80489L23.4088 10.5621C25.9335 10.6555 28.3632 11.3752 30.7171 12.7117C34.1434 14.6651 35.9373 16.7587 36.0986 19.0205C36.2315 21.2729 34.58 23.3852 31.1347 25.3573C27.9646 27.1704 24.1207 28.0677 19.5743 28.0396C15.028 28.0116 10.7854 26.8807 6.84656 24.6376C3.34428 22.6468 1.42705 20.4037 1.08536 17.8989C0.724693 15.3941 1.78771 13.3192 4.26493 11.6743L13.1298 15.0015C11.8579 15.8053 11.2315 16.7493 11.241 17.8428C11.2505 18.927 12.0193 19.9177 13.5664 20.7963C14.9426 21.5813 16.5371 21.9926 18.331 22.0393C20.1248 22.0861 21.7478 21.7029 23.1905 20.8804C24.7281 20.0018 25.4115 19.0392 25.2501 18.0017C25.0983 16.9549 24.301 16.039 22.8963 15.2352C20.979 14.151 18.7581 13.6744 16.2049 13.8239L15.4931 12.9641C14.9616 12.3846 14.3921 11.7864 13.8037 11.1415C13.1962 10.4966 12.6552 9.89846 12.1522 9.34703C11.6491 8.78625 11.3834 8.49652 11.4024 8.44978L31.9794 0.879272L50.9999 11.7116Z" fill="#E4620A" stroke="#2D2D2D" stroke-width="0.66" stroke-miterlimit="10" stroke-linecap="round" stroke-linejoin="round"/>
</svg>
