<svg width="52" height="33" viewBox="0 0 52 33" fill="none" xmlns="http://www.w3.org/2000/svg">
<path d="M42.5481 12.6357C41.3485 11.1538 39.9963 9.99399 38.5023 9.14565C38.3496 9.05974 38.197 8.97383 38.0443 8.88792C38.0007 8.86644 37.968 8.84497 37.9244 8.82349C37.7717 8.74832 37.6299 8.67315 37.4772 8.59798C37.4663 8.59798 37.4554 8.58724 37.4554 8.58724C37.3028 8.51207 37.1392 8.4369 36.9865 8.36173C36.9429 8.34025 36.9102 8.31878 36.8666 8.30804C36.7248 8.24361 36.5721 8.17918 36.4304 8.11475C36.4195 8.10401 36.3976 8.10401 36.3867 8.09327C36.2232 8.02884 36.0705 7.95367 35.9069 7.88924C35.8633 7.86776 35.8197 7.85702 35.787 7.83554C35.7324 7.81407 35.6888 7.79259 35.6343 7.78185C35.5689 7.76037 35.5034 7.72816 35.438 7.70668C35.3726 7.6852 35.3071 7.65299 35.2417 7.63151C35.1218 7.58856 35.0127 7.5456 34.8928 7.51339C34.8382 7.49191 34.7728 7.47043 34.7183 7.44895C34.5547 7.39526 34.3911 7.34157 34.2275 7.28788C34.2166 7.28788 34.1948 7.27714 34.1839 7.27714C34.0203 7.22344 33.8568 7.18049 33.6823 7.1268C33.6714 7.1268 33.6496 7.11606 33.6387 7.11606C33.606 7.10532 33.5841 7.10532 33.5514 7.09458C33.4097 7.05163 33.257 7.01941 33.1152 6.97646C33.0716 6.96572 33.0389 6.95498 32.9953 6.94425C32.8317 6.90129 32.6572 6.85834 32.4827 6.82612C32.45 6.81538 32.4173 6.81538 32.3846 6.80464C32.2974 6.78317 32.221 6.77243 32.1338 6.75095C32.0902 6.74021 32.0574 6.74021 32.0138 6.72947C31.883 6.69726 31.7412 6.67578 31.5994 6.6543C31.5231 6.64356 31.4359 6.62209 31.3595 6.61135C31.2068 6.58987 31.0542 6.55766 30.9015 6.53618C30.847 6.52544 30.7925 6.5147 30.7488 6.5147C30.7379 6.5147 30.727 6.5147 30.7161 6.5147C30.5744 6.49323 30.4435 6.48249 30.3017 6.46101C30.2363 6.45027 30.16 6.43953 30.0945 6.43953C29.8873 6.41806 29.6801 6.39658 29.462 6.3751C29.4511 6.3751 29.4511 6.3751 29.4402 6.3751C29.2657 6.36436 29.0913 6.35363 28.9277 6.34289C28.9059 6.34289 28.8732 6.34289 28.8514 6.33215C28.6551 6.32141 28.4479 6.31067 28.2516 6.31067C28.2516 6.31067 28.2516 6.31067 28.2407 6.31067C28.1643 6.31067 28.088 6.31067 28.0008 6.31067C27.8808 6.31067 27.75 6.31067 27.63 6.31067C27.5428 6.31067 27.4555 6.31067 27.3683 6.31067C27.2592 6.31067 27.1393 6.31067 27.0302 6.32141H27.0193C26.8121 6.33215 26.594 6.34289 26.3868 6.35363C26.3323 6.35363 26.2778 6.36436 26.2232 6.36436C26.0706 6.3751 25.907 6.38584 25.7543 6.40732C25.7434 6.40732 25.7325 6.40732 25.7216 6.40732C25.558 6.41806 25.4054 6.43953 25.2418 6.46101C25.1982 6.46101 25.1655 6.47175 25.1218 6.47175C24.9692 6.49322 24.8056 6.5147 24.6529 6.53618C24.6311 6.53618 24.5984 6.54692 24.5766 6.54692C24.4348 6.5684 24.293 6.58987 24.1404 6.62209C24.1186 6.62209 24.0968 6.63283 24.0749 6.63283C23.9332 6.6543 23.7914 6.68652 23.6497 6.71874C23.5733 6.72947 23.5079 6.75095 23.4315 6.76169C23.2353 6.80464 23.0499 6.8476 22.8536 6.89055C22.8318 6.89055 22.81 6.90129 22.7991 6.90129C22.5919 6.95498 22.3738 7.00867 22.1666 7.07311C22.1011 7.09458 22.0357 7.11606 21.9594 7.13754C21.8176 7.18049 21.6758 7.22345 21.5341 7.2664C21.5123 7.27714 21.4905 7.27714 21.4686 7.28788C21.316 7.33083 21.1742 7.38452 21.0215 7.43822C20.9997 7.44895 20.967 7.45969 20.9452 7.47043C20.7925 7.52413 20.6399 7.57782 20.4872 7.63151C20.4436 7.65299 20.389 7.66373 20.3454 7.6852C20.1709 7.74964 19.9965 7.81407 19.822 7.88924L19.8002 14.472C19.9747 14.3968 20.1491 14.3324 20.3236 14.2679C20.3672 14.2465 20.4218 14.2357 20.4654 14.2142C20.618 14.1605 20.7707 14.1069 20.9125 14.0532C20.9452 14.0424 20.967 14.0317 20.9997 14.0209C21.1633 13.9673 21.3378 13.9136 21.5014 13.8599C21.6431 13.8169 21.7849 13.774 21.9376 13.731C22.003 13.7095 22.0684 13.688 22.1338 13.6773C22.341 13.6236 22.5591 13.5592 22.7663 13.5055C22.7882 13.5055 22.7991 13.4948 22.8209 13.4948C23.0172 13.4518 23.2025 13.3981 23.3988 13.3659C23.4752 13.3552 23.5406 13.3337 23.6169 13.3229C23.7587 13.2907 23.9005 13.2692 24.0422 13.237C24.2058 13.2048 24.3803 13.1833 24.5439 13.1511C24.5766 13.1511 24.5984 13.1404 24.6311 13.1404C24.7838 13.1189 24.9474 13.0974 25.1 13.0759C25.1436 13.0759 25.1764 13.0652 25.22 13.0652C25.3945 13.0437 25.5689 13.0223 25.7325 13.0115C25.8852 13.0008 26.0488 12.99 26.2014 12.9686C26.256 12.9686 26.3105 12.9578 26.365 12.9578C26.5722 12.9471 26.7903 12.9363 26.9975 12.9256C27.1175 12.9256 27.2265 12.9256 27.3465 12.9149C27.4337 12.9149 27.5209 12.9149 27.6082 12.9149C27.7281 12.9149 27.8481 12.9149 27.968 12.9149C28.0553 12.9149 28.1316 12.9149 28.208 12.9149C28.4043 12.9149 28.6114 12.9256 28.8077 12.9363C28.8405 12.9363 28.8732 12.9364 28.9059 12.9471C29.0804 12.9578 29.2548 12.9686 29.4293 12.9793C29.6365 13.0008 29.8546 13.0223 30.0618 13.0437C30.1272 13.0545 30.2036 13.0652 30.269 13.0652C30.4108 13.0867 30.5525 13.0974 30.6834 13.1189C30.7488 13.1296 30.8143 13.1404 30.8797 13.1511C31.0324 13.1726 31.185 13.1941 31.3486 13.2263C31.4249 13.237 31.5122 13.2585 31.5885 13.2692C31.7303 13.2907 31.8612 13.3229 32.0029 13.3444C32.1229 13.3659 32.2428 13.3981 32.3737 13.4196C32.4064 13.4303 32.4391 13.4303 32.4718 13.4411C32.6463 13.4733 32.8099 13.5162 32.9844 13.5592C33.028 13.5699 33.0607 13.5807 33.1043 13.5914C33.2461 13.6236 33.3988 13.6666 33.5405 13.7095C33.5732 13.7203 33.5951 13.7203 33.6278 13.731C33.8132 13.7847 33.9876 13.8384 34.173 13.8921C34.1839 13.8921 34.1948 13.9028 34.2166 13.9028C34.3802 13.9565 34.5438 14.0102 34.7074 14.0639C34.7619 14.0854 34.8273 14.1069 34.8819 14.1283C35.0018 14.1713 35.1109 14.2142 35.2308 14.2465C35.2962 14.2679 35.3617 14.3001 35.4271 14.3216C35.5471 14.3646 35.6561 14.4075 35.7761 14.4505C35.8197 14.472 35.8524 14.4827 35.896 14.5042C36.0596 14.5686 36.2123 14.633 36.3758 14.7082C36.3867 14.7189 36.4086 14.7189 36.4195 14.7297C36.5612 14.7941 36.7139 14.8585 36.8557 14.923C36.8993 14.9445 36.932 14.9552 36.9756 14.9767C37.1283 15.0518 37.2919 15.127 37.4445 15.2022C37.4554 15.2022 37.4663 15.2129 37.4663 15.2129C37.619 15.2881 37.7608 15.3633 37.9135 15.4384C37.9571 15.4599 37.9898 15.4814 38.0334 15.5029C38.1861 15.5888 38.3387 15.6747 38.4914 15.7606C39.3311 16.2438 40.1272 16.813 40.8796 17.4895C41.0432 17.6398 41.2068 17.7902 41.3704 17.9512C41.4467 18.0264 41.5339 18.1123 41.6103 18.1982C41.9265 18.5311 42.2428 18.8748 42.5372 19.2506L42.5481 12.6357Z" fill="#C04D00" stroke="#2D2D2D" stroke-width="0.66" stroke-miterlimit="10" stroke-linecap="round" stroke-linejoin="round"/>
<path d="M50.9999 10.1874L50.9781 16.7808L42.5266 19.2184L42.5484 12.6357L50.9999 10.1874Z" fill="#C04D00" stroke="#2D2D2D" stroke-width="0.66" stroke-miterlimit="10" stroke-linejoin="round"/>
<path d="M24.8601 15.7821C24.8601 15.7069 24.8601 15.6425 24.8492 15.5673C24.7402 14.5042 23.9659 13.57 22.5373 12.7538C22.4392 12.7001 22.341 12.6464 22.2429 12.5928C22.2102 12.5713 22.1775 12.5605 22.1447 12.5391C22.0793 12.5068 22.0139 12.4746 21.9484 12.4424C21.9048 12.4209 21.8721 12.4102 21.8285 12.3887C21.7631 12.3565 21.7085 12.335 21.6431 12.3028C21.5995 12.2813 21.5559 12.2706 21.5231 12.2491C21.4577 12.2276 21.4032 12.1954 21.3378 12.174C21.3159 12.1632 21.2941 12.1525 21.2723 12.1417C21.2614 12.131 21.2396 12.131 21.2287 12.131C21.0978 12.0773 20.967 12.0344 20.8361 11.9914C20.8252 11.9914 20.8034 11.9807 20.7925 11.9807C20.6725 11.9377 20.5526 11.9055 20.4326 11.8733C20.4108 11.8733 20.3999 11.8625 20.3781 11.8518C20.3563 11.8518 20.3454 11.8411 20.3236 11.8411C20.2472 11.8196 20.1709 11.7981 20.1055 11.7874C20.0619 11.7766 20.0291 11.7659 19.9855 11.7551C19.8874 11.7337 19.7892 11.7122 19.6911 11.6907C19.6802 11.6907 19.6584 11.68 19.6475 11.68C19.6475 11.68 19.6475 11.68 19.6366 11.68C19.5275 11.6585 19.4185 11.637 19.3094 11.6155C19.2876 11.6155 19.2767 11.6048 19.2549 11.6048C19.1676 11.5941 19.0695 11.5726 18.9823 11.5619H18.9714C18.9277 11.5511 18.8841 11.5511 18.8405 11.5404C18.7751 11.5296 18.7205 11.5296 18.6551 11.5189C18.6006 11.5082 18.557 11.5082 18.5024 11.5082C18.437 11.4974 18.3825 11.4974 18.317 11.4867H18.3061C18.2407 11.4759 18.1753 11.4759 18.1098 11.4759C18.0771 11.4759 18.0335 11.4652 18.0008 11.4652C17.8917 11.4545 17.7827 11.4545 17.6736 11.4545C17.6518 11.4545 17.63 11.4545 17.6082 11.4545C17.5646 11.4545 17.5101 11.4545 17.4664 11.4545C17.4119 11.4545 17.3574 11.4545 17.3029 11.4545C17.2483 11.4545 17.1938 11.4545 17.1284 11.4545C17.0739 11.4545 17.0193 11.4545 16.9648 11.4545C16.9539 11.4545 16.943 11.4545 16.9321 11.4545C16.8885 11.4545 16.8339 11.4545 16.7903 11.4652C16.7358 11.4652 16.6813 11.4652 16.6268 11.4759C16.5722 11.4759 16.5177 11.4867 16.4632 11.4867C16.4087 11.4867 16.3541 11.4974 16.2996 11.4974C16.2887 11.4974 16.2778 11.4974 16.2778 11.4974C16.2451 11.4974 16.2233 11.5082 16.1905 11.5082C16.1142 11.5189 16.027 11.5296 15.9506 11.5404C15.907 11.5511 15.8634 11.5511 15.8198 11.5619C15.7434 11.5726 15.678 11.5833 15.6017 11.5941C15.5799 11.5941 15.5581 11.6048 15.5362 11.6048C15.5035 11.6048 15.4817 11.6155 15.449 11.6263C15.4054 11.637 15.3618 11.6478 15.3181 11.6478C15.2636 11.6585 15.2091 11.6692 15.1546 11.68C15.1109 11.6907 15.0673 11.7015 15.0237 11.7122C14.9692 11.7229 14.9146 11.7444 14.8601 11.7551C14.8165 11.7659 14.7729 11.7766 14.7402 11.7874C14.6856 11.7981 14.6311 11.8196 14.5657 11.8411C14.5221 11.8518 14.4894 11.8625 14.4457 11.8733C14.4348 11.8733 14.4239 11.884 14.413 11.884C14.3912 11.8947 14.3803 11.8947 14.3585 11.9055C14.2494 11.9377 14.1513 11.9807 14.0422 12.0129C14.0095 12.0236 13.9768 12.0344 13.9441 12.0451C13.8241 12.088 13.7042 12.1417 13.5842 12.1954C13.5733 12.2062 13.5515 12.2062 13.5406 12.2169C13.4316 12.2599 13.3334 12.3136 13.2244 12.3672C13.1916 12.378 13.1589 12.3995 13.1262 12.4102C13.0063 12.4746 12.8972 12.5283 12.7773 12.5928C12.7445 12.6142 12.7009 12.6357 12.6682 12.6572C12.6464 12.6679 12.6355 12.6787 12.6137 12.6894C12.5701 12.7216 12.5155 12.7431 12.4719 12.7753C12.4392 12.7968 12.4065 12.8183 12.3738 12.8397C12.3301 12.872 12.2865 12.9042 12.2429 12.9364C12.2102 12.9579 12.1884 12.9793 12.1557 13.0008C12.112 13.033 12.0684 13.0653 12.0248 13.0975C12.003 13.1189 11.9812 13.1297 11.9594 13.1512C11.9048 13.1941 11.8503 13.2371 11.8067 13.28C11.7958 13.2908 11.7849 13.2908 11.7849 13.3015L11.774 13.3122C11.7304 13.3552 11.6867 13.3982 11.6431 13.4411C11.6322 13.4518 11.6213 13.4626 11.6104 13.4733C11.5668 13.5163 11.5232 13.5592 11.4904 13.6129L11.4795 13.6237C11.4577 13.6559 11.4359 13.6774 11.4141 13.7096C11.4032 13.7203 11.4032 13.731 11.3923 13.7418C11.3705 13.774 11.3487 13.8062 11.3269 13.8384C11.3051 13.8599 11.2942 13.8921 11.2723 13.9136C11.2505 13.9458 11.2287 13.978 11.2178 14.0102C11.2069 14.0317 11.196 14.0425 11.1851 14.0639C11.1851 14.0747 11.1742 14.0747 11.1742 14.0854C11.1633 14.1069 11.1415 14.1391 11.1306 14.1606C11.1197 14.1928 11.0979 14.2143 11.087 14.2465C11.0761 14.268 11.0651 14.3002 11.0542 14.3217C11.0433 14.3431 11.0324 14.3646 11.0324 14.3861C11.0324 14.3968 11.0324 14.4076 11.0215 14.4076C11.0106 14.4291 10.9997 14.4613 10.9997 14.4827C10.9888 14.515 10.9779 14.5364 10.967 14.5687C10.9561 14.5901 10.9561 14.6223 10.9452 14.6438C10.9452 14.6653 10.9343 14.6868 10.9343 14.6975C10.9343 14.7083 10.9343 14.719 10.9343 14.7297C10.9234 14.762 10.9234 14.7942 10.9234 14.8156C10.9234 14.8479 10.9125 14.8693 10.9125 14.9016C10.9125 14.9338 10.9125 14.966 10.9016 14.9982C10.9016 15.0197 10.9016 15.0412 10.9016 15.0519C10.9016 15.0734 10.9016 15.0948 10.9016 15.1056L10.8798 21.6883C10.8798 21.6454 10.8798 21.6132 10.8798 21.5702C10.8798 21.538 10.8798 21.5058 10.8907 21.4736C10.8907 21.4414 10.9016 21.4199 10.9016 21.3877C10.9016 21.3554 10.9125 21.3232 10.9125 21.3018C10.9234 21.2695 10.9234 21.2373 10.9343 21.2158C10.9452 21.1944 10.9452 21.1622 10.9561 21.1407C10.967 21.1085 10.9779 21.0762 10.9888 21.0548C10.9997 21.0333 11.0106 21.0011 11.0106 20.9796C11.0215 20.9474 11.0324 20.9259 11.0433 20.8937C11.0542 20.8722 11.0651 20.84 11.0761 20.8185C11.087 20.7863 11.1088 20.7648 11.1197 20.7326C11.1306 20.7111 11.1415 20.6789 11.1633 20.6574C11.1742 20.636 11.196 20.6037 11.2069 20.5823C11.2287 20.55 11.2505 20.5178 11.2614 20.4856C11.2723 20.4641 11.2942 20.4319 11.316 20.4104C11.3378 20.3782 11.3596 20.346 11.3814 20.3138C11.4141 20.2816 11.4359 20.2386 11.4686 20.2064L11.4795 20.1957C11.5232 20.1527 11.5559 20.1098 11.5995 20.0561C11.6104 20.0453 11.6213 20.0346 11.6322 20.0239C11.6758 19.9809 11.7195 19.9379 11.7631 19.895L11.774 19.8843C11.7849 19.8735 11.7958 19.8628 11.8067 19.8628C11.8612 19.8198 11.9048 19.7769 11.9594 19.7339C11.9812 19.7124 12.003 19.7017 12.0248 19.6802C12.0684 19.648 12.112 19.6158 12.1557 19.5836C12.1884 19.5621 12.2102 19.5406 12.2429 19.5191C12.2865 19.4869 12.3301 19.4547 12.3738 19.4225C12.4065 19.401 12.4392 19.3795 12.4719 19.3581C12.5155 19.3258 12.5701 19.3044 12.6137 19.2722C12.6682 19.2399 12.7227 19.2077 12.7773 19.1755C12.8863 19.1111 13.0063 19.0466 13.1262 18.993C13.1589 18.9822 13.1916 18.9607 13.2244 18.95C13.3334 18.8963 13.4316 18.8533 13.5406 18.7997C13.5515 18.7889 13.5733 18.7889 13.5842 18.7782C13.7042 18.7245 13.8241 18.6815 13.9441 18.6278C13.9768 18.6171 14.0095 18.6064 14.0422 18.5956C14.1404 18.5527 14.2494 18.5205 14.3585 18.4882C14.3803 18.4775 14.413 18.4668 14.4348 18.4668C14.4784 18.456 14.5112 18.4453 14.5548 18.4345C14.6093 18.4131 14.6638 18.4023 14.7293 18.3809C14.7729 18.3701 14.8165 18.3594 14.8492 18.3486C14.9037 18.3379 14.9583 18.3164 15.0128 18.3057C15.0564 18.2949 15.1 18.2842 15.1437 18.2735C15.1982 18.2627 15.2527 18.252 15.3072 18.2413C15.3509 18.2305 15.3945 18.2198 15.4381 18.2198C15.4926 18.209 15.5362 18.1983 15.5908 18.1876C15.6671 18.1768 15.7325 18.1661 15.8089 18.1553C15.8525 18.1446 15.8961 18.1446 15.9397 18.1339C16.0161 18.1231 16.0924 18.1124 16.1796 18.1016C16.2233 18.1016 16.256 18.0909 16.2996 18.0909C16.3541 18.0909 16.4087 18.0802 16.4632 18.0802C16.5177 18.0802 16.5722 18.0694 16.6268 18.0694C16.6813 18.0694 16.7358 18.0587 16.7903 18.0587C16.8449 18.0587 16.8994 18.048 16.9539 18.048C17.0084 18.048 17.063 18.048 17.1175 18.048C17.172 18.048 17.2265 18.048 17.292 18.048C17.3465 18.048 17.401 18.048 17.4555 18.048C17.521 18.048 17.5864 18.048 17.6627 18.048C17.7718 18.048 17.8808 18.0587 17.9899 18.0587C18.0226 18.0587 18.0662 18.0587 18.0989 18.0694C18.1753 18.0694 18.2407 18.0802 18.317 18.0802C18.3716 18.0802 18.437 18.0909 18.4915 18.1016C18.5461 18.1016 18.5897 18.1124 18.6442 18.1124C18.7096 18.1231 18.7642 18.1231 18.8187 18.1339C18.8732 18.1446 18.9168 18.1446 18.9714 18.1553C19.0586 18.1661 19.1458 18.1876 19.244 18.1983C19.2658 18.1983 19.2876 18.209 19.3094 18.209C19.4185 18.2305 19.5275 18.252 19.6366 18.2735C19.6584 18.2735 19.6693 18.2842 19.6911 18.2842C19.7892 18.3057 19.8874 18.3272 19.9855 18.3486C20.0291 18.3594 20.0619 18.3701 20.1055 18.3809C20.1818 18.4023 20.2582 18.4238 20.3236 18.4345C20.3563 18.4453 20.3999 18.456 20.4326 18.4668C20.5526 18.499 20.6725 18.5419 20.7925 18.5741C20.8034 18.5741 20.8252 18.5849 20.8361 18.5849C20.967 18.6278 21.0978 18.6815 21.2287 18.7245C21.2614 18.7352 21.305 18.7567 21.3378 18.7674C21.4032 18.7889 21.4577 18.8211 21.5231 18.8426C21.5668 18.8641 21.6104 18.8748 21.6431 18.8963C21.7085 18.9285 21.7631 18.95 21.8285 18.9822C21.8721 19.0037 21.9048 19.0144 21.9484 19.0359C22.0139 19.0681 22.0793 19.1003 22.1447 19.1326C22.1775 19.154 22.2102 19.1648 22.2429 19.1862C22.341 19.2399 22.4392 19.2936 22.5373 19.3473C23.9768 20.1635 24.7402 21.0977 24.8492 22.1608C24.8601 22.236 24.8601 22.3112 24.8601 22.3756V15.7821Z" fill="#C04D00" stroke="#2D2D2D" stroke-width="0.66" stroke-miterlimit="10" stroke-linecap="round" stroke-linejoin="round"/>
<path d="M35.7436 16.6627C35.7436 16.6949 35.7436 16.7271 35.7436 16.7593C35.7436 16.7916 35.7436 16.8345 35.7327 16.8667C35.7327 16.8989 35.7218 16.9312 35.7218 16.9634C35.7218 16.9956 35.7109 17.0385 35.7109 17.0708C35.7109 17.103 35.7 17.1352 35.7 17.1674C35.7 17.1996 35.6891 17.2426 35.6782 17.2748C35.6673 17.307 35.6673 17.3392 35.6564 17.3714C35.6455 17.4036 35.6455 17.4466 35.6346 17.4788C35.6237 17.511 35.6236 17.5432 35.6127 17.5755C35.6018 17.6077 35.5909 17.6506 35.58 17.6828C35.5691 17.7151 35.5691 17.7473 35.5582 17.7688C35.5473 17.801 35.5364 17.8439 35.5255 17.8761C35.5146 17.9084 35.5037 17.9298 35.4928 17.962C35.4819 17.9943 35.471 18.0372 35.4492 18.0694C35.4383 18.1016 35.4274 18.1231 35.4165 18.1553C35.4056 18.1876 35.3837 18.2305 35.3728 18.2627C35.3619 18.2949 35.351 18.3272 35.3401 18.3594C35.3292 18.3916 35.3074 18.4345 35.2965 18.4668C35.2856 18.499 35.2747 18.5312 35.2529 18.5527C35.2311 18.5849 35.2202 18.6278 35.1984 18.66C35.1875 18.6923 35.1656 18.7245 35.1547 18.746C35.1329 18.7782 35.1111 18.8211 35.1002 18.8533C35.0893 18.8856 35.0675 18.907 35.0566 18.9393C35.0457 18.9607 35.0239 18.9822 35.013 19.0144C34.9912 19.0574 34.9584 19.1003 34.9366 19.1433C34.9148 19.1755 34.9039 19.197 34.8821 19.2292C34.8603 19.2721 34.8276 19.3151 34.8058 19.3473C34.784 19.3795 34.7622 19.401 34.7513 19.4332C34.7294 19.4762 34.6967 19.5084 34.664 19.5513C34.6422 19.5836 34.6204 19.605 34.5986 19.6373C34.5659 19.6695 34.5441 19.7124 34.5113 19.7446C34.4895 19.7661 34.4677 19.7983 34.4459 19.8198C34.4023 19.8735 34.3478 19.9379 34.3041 19.9916C34.2823 20.0131 34.2714 20.0346 34.2496 20.0561C34.1842 20.1312 34.1188 20.2064 34.0424 20.2816C34.0315 20.2923 34.0206 20.303 34.0097 20.3138C33.9443 20.3782 33.8897 20.4426 33.8243 20.5071C33.8025 20.5285 33.7807 20.55 33.7589 20.5715C33.7044 20.6252 33.6389 20.6789 33.5844 20.7433C33.5626 20.7648 33.5408 20.7863 33.519 20.8077C33.4645 20.8614 33.4099 20.9044 33.3554 20.9581C33.3336 20.9796 33.3118 20.9903 33.29 21.0118C33.2136 21.0762 33.1373 21.1406 33.0501 21.2051C33.0282 21.2158 33.0173 21.2373 32.9955 21.248C32.9301 21.3017 32.8647 21.3447 32.7992 21.3984C32.7665 21.4198 32.7338 21.4413 32.712 21.4628C32.6575 21.5058 32.6029 21.5487 32.5484 21.5917C32.5157 21.6131 32.483 21.6454 32.4394 21.6668C32.3848 21.7098 32.3303 21.742 32.2758 21.785C32.2431 21.8064 32.1995 21.8386 32.1667 21.8601C32.1122 21.9031 32.0468 21.9353 31.9923 21.9782C31.9596 21.9997 31.9159 22.0212 31.8832 22.0534C31.8178 22.0964 31.7523 22.1393 31.6869 22.1823C31.6542 22.2038 31.6215 22.2252 31.5888 22.2467C31.4906 22.3111 31.3925 22.3756 31.2834 22.4293C31.1853 22.483 31.0871 22.5366 30.989 22.6011C30.8036 22.7085 30.6182 22.8051 30.4328 22.9125C30.3783 22.9447 30.3238 22.9662 30.2802 22.9984C30.1275 23.0736 29.9639 23.1595 29.8113 23.2347C29.7676 23.2561 29.7349 23.2776 29.6913 23.2883C29.495 23.3743 29.3096 23.4709 29.1133 23.5461C29.0697 23.5675 29.0152 23.589 28.9716 23.6105C28.8189 23.6749 28.6553 23.7394 28.4917 23.8038C28.4372 23.8253 28.3827 23.8467 28.3282 23.8682C28.1319 23.9434 27.9247 24.0186 27.7175 24.0937C27.6957 24.1045 27.663 24.1152 27.6411 24.1152C27.4667 24.1689 27.2922 24.2333 27.1177 24.287C27.0196 24.3192 26.9105 24.3515 26.8124 24.3729C26.6815 24.4051 26.5506 24.4481 26.4307 24.4803C26.3216 24.5125 26.2235 24.534 26.1144 24.5662C25.9836 24.5984 25.8527 24.6307 25.7218 24.6629C25.6128 24.6843 25.5037 24.7166 25.4056 24.738C25.2747 24.7703 25.1439 24.7917 25.0021 24.8239C24.8931 24.8454 24.784 24.8669 24.675 24.8884C24.4678 24.9313 24.2606 24.9635 24.0534 24.9958C24.0425 24.9958 24.0425 24.9958 24.0316 24.9958C23.8026 25.028 23.5735 25.0602 23.3554 25.0924C23.3118 25.1031 23.2682 25.1032 23.2246 25.1139C22.9956 25.1461 22.7666 25.1676 22.5376 25.1891C22.5049 25.1891 22.4612 25.1998 22.4285 25.1998C22.1886 25.2213 21.9596 25.2428 21.7197 25.2535C21.687 25.2535 21.6543 25.2535 21.6324 25.2535C21.3925 25.2642 21.1417 25.275 20.8909 25.2857C20.8691 25.2857 20.8473 25.2857 20.8255 25.2857C20.5637 25.2964 20.302 25.2964 20.0403 25.2964C20.0294 25.2964 20.0185 25.2964 20.0076 25.2964C19.735 25.2964 19.4623 25.2964 19.1897 25.2857C19.0152 25.2857 18.8517 25.275 18.6772 25.2642C18.5572 25.2642 18.4373 25.2535 18.3173 25.2535C18.1537 25.2428 17.9902 25.232 17.8266 25.2213C17.7175 25.2105 17.5976 25.2105 17.4885 25.1998C17.2813 25.1783 17.0741 25.1568 16.8669 25.1354C16.8015 25.1246 16.7361 25.1246 16.6706 25.1139C16.398 25.0817 16.1254 25.0495 15.8637 25.0172C15.8528 25.0172 15.8528 25.0172 15.8418 25.0172C15.5692 24.985 15.3075 24.9421 15.0458 24.8884C14.7841 24.8454 14.5223 24.7917 14.2606 24.738C14.2497 24.738 14.2497 24.738 14.2388 24.738C13.9989 24.6844 13.759 24.6414 13.5191 24.577C13.4754 24.5662 13.4427 24.5555 13.3991 24.5447C13.1701 24.4911 12.9411 24.4374 12.723 24.3729C12.6794 24.3622 12.6358 24.3515 12.5921 24.3407C12.3958 24.287 12.1887 24.2333 11.9924 24.1689C11.9487 24.1582 11.8942 24.1367 11.8506 24.1259C11.6216 24.0508 11.3926 23.9863 11.1636 23.9004C11.109 23.879 11.0436 23.8575 10.9891 23.836C10.8146 23.7716 10.6401 23.7179 10.4656 23.6535C10.3893 23.632 10.3239 23.5998 10.2475 23.5783C10.0404 23.5031 9.82225 23.4172 9.61506 23.3313C9.59324 23.3206 9.57143 23.3098 9.54962 23.3098C9.33152 23.2239 9.12432 23.1273 8.91713 23.0306C8.89532 23.0199 8.8626 23.0091 8.82989 22.9984C8.61179 22.9018 8.40459 22.8051 8.18649 22.6977C8.14287 22.6763 8.11015 22.6548 8.06653 22.6333C7.85934 22.5259 7.65214 22.4293 7.44494 22.3111C7.41223 22.2897 7.37951 22.2789 7.33589 22.2574C7.11779 22.1393 6.89969 22.0212 6.69249 21.9031C4.79501 20.8292 3.37735 19.6695 2.42861 18.4238C1.47987 17.1781 1.01095 15.8466 1.02186 14.4398L1.00005 21.0225C0.989142 23.8467 2.87572 26.3381 6.67069 28.4965C6.88879 28.6146 7.09598 28.7328 7.31408 28.8509C7.3468 28.8724 7.37951 28.8831 7.41223 28.9046C7.61943 29.012 7.82662 29.1193 8.03382 29.2267C8.07744 29.2482 8.11015 29.2697 8.15377 29.2804C8.36097 29.3878 8.57907 29.4845 8.79717 29.5811C8.81898 29.5918 8.8517 29.6026 8.87351 29.6133C9.0807 29.71 9.29881 29.7959 9.51691 29.8925C9.53872 29.9033 9.56053 29.914 9.58234 29.914C9.73501 29.9784 9.88768 30.0429 10.0513 30.0965C10.1058 30.118 10.1603 30.1395 10.2148 30.161C10.2912 30.1932 10.3566 30.2147 10.4329 30.2361C10.6074 30.3006 10.7819 30.365 10.9564 30.4187C11.0109 30.4402 11.0763 30.4617 11.1309 30.4831C11.3599 30.5583 11.5889 30.6335 11.8179 30.7086C11.8615 30.7194 11.916 30.7409 11.9596 30.7516C12.0905 30.7946 12.2323 30.8375 12.3631 30.8697C12.4286 30.8912 12.494 30.9019 12.5594 30.9234C12.603 30.9342 12.6467 30.9449 12.6903 30.9556C12.9193 31.0201 13.1374 31.0738 13.3664 31.1274C13.41 31.1382 13.4427 31.1489 13.4864 31.1597C13.7154 31.2134 13.9553 31.267 14.1952 31.31H14.2061C14.217 31.31 14.217 31.31 14.2279 31.31C14.4896 31.3637 14.7513 31.4066 15.0131 31.4603C15.2748 31.5033 15.5474 31.5462 15.8091 31.5892C15.82 31.5892 15.82 31.5892 15.8309 31.5892H15.8418C16.1036 31.6214 16.3762 31.6644 16.6488 31.6858C16.7143 31.6966 16.7797 31.6966 16.8451 31.7073C17.0414 31.7288 17.2377 31.7503 17.4449 31.761C17.4558 31.761 17.4558 31.761 17.4667 31.761C17.5867 31.7718 17.6957 31.7718 17.8157 31.7825C17.9792 31.7932 18.1428 31.804 18.3064 31.8147C18.4264 31.8254 18.5572 31.8255 18.6772 31.8255C18.8189 31.8362 18.9716 31.8362 19.1134 31.8469C19.1352 31.8469 19.157 31.8469 19.1897 31.8469C19.4623 31.8577 19.735 31.8577 20.0076 31.8577C20.0185 31.8577 20.0294 31.8577 20.0403 31.8577C20.302 31.8577 20.5637 31.8469 20.8255 31.8469C20.8473 31.8469 20.8691 31.8469 20.8909 31.8469C20.9018 31.8469 20.9127 31.8469 20.9345 31.8469C21.1744 31.8362 21.4034 31.8254 21.6324 31.8147C21.6652 31.8147 21.6979 31.8147 21.7306 31.8147C21.9705 31.804 22.2104 31.7825 22.4394 31.761C22.4721 31.761 22.5158 31.7503 22.5485 31.7503C22.5812 31.7503 22.6248 31.7395 22.6575 31.7395C22.8538 31.7181 23.0501 31.6966 23.2355 31.6751C23.2791 31.6644 23.3227 31.6644 23.3664 31.6536C23.5954 31.6214 23.8244 31.5892 24.0425 31.557C24.0534 31.557 24.0534 31.557 24.0643 31.557C24.2169 31.5355 24.3805 31.5033 24.5332 31.4818C24.5877 31.4711 24.6313 31.4603 24.6859 31.4496C24.7949 31.4281 24.904 31.4066 25.013 31.3852C25.1439 31.3637 25.2856 31.3315 25.4165 31.2993C25.5256 31.2778 25.6346 31.2563 25.7328 31.2241C25.8636 31.1919 25.9945 31.1597 26.1253 31.1274C26.2344 31.106 26.3325 31.0738 26.4416 31.0415C26.5724 31.0093 26.7033 30.9664 26.8233 30.9342C26.9214 30.9019 27.0305 30.8697 27.1286 30.8482C27.1722 30.8375 27.2158 30.8268 27.2595 30.8053C27.3903 30.7623 27.5212 30.7194 27.652 30.6764C27.6739 30.6657 27.7066 30.655 27.7284 30.655C27.9356 30.5798 28.1319 30.5154 28.3391 30.4294C28.3936 30.408 28.4481 30.3865 28.5026 30.365C28.6662 30.3006 28.8189 30.2362 28.9825 30.1717C29.0261 30.1502 29.0806 30.1288 29.1242 30.1073C29.3205 30.0214 29.5168 29.9355 29.7022 29.8496C29.7458 29.8281 29.7785 29.8066 29.8222 29.7959C29.9748 29.7207 30.1384 29.6455 30.2911 29.5596C30.3456 29.5274 30.4001 29.5059 30.4437 29.4737C30.6291 29.3771 30.8145 29.2697 30.9999 29.1623C31.098 29.1086 31.1962 29.0549 31.2834 28.9905C31.3816 28.9261 31.4906 28.8724 31.5888 28.8079C31.6215 28.7865 31.6542 28.765 31.6869 28.7435C31.7523 28.7005 31.8178 28.6576 31.8832 28.6146C31.9159 28.5932 31.9596 28.5717 31.9923 28.5395C32.0468 28.4965 32.1122 28.4643 32.1667 28.4213C32.1995 28.3999 32.2431 28.3677 32.2758 28.3462C32.3303 28.3032 32.3848 28.271 32.4394 28.2281C32.4721 28.2066 32.5048 28.1744 32.5484 28.1529C32.6029 28.1099 32.6575 28.067 32.712 28.024C32.7447 28.0025 32.7774 27.9811 32.7992 27.9596C32.8647 27.9059 32.9301 27.8629 32.9955 27.8092C33.0173 27.7985 33.0282 27.777 33.0501 27.7663C33.1264 27.7019 33.2136 27.6374 33.29 27.573C33.3118 27.5515 33.3336 27.5408 33.3554 27.5193C33.4099 27.4764 33.4645 27.4227 33.519 27.3797C33.5299 27.369 33.5299 27.369 33.5408 27.3582C33.5517 27.3475 33.5735 27.326 33.5844 27.3153C33.6389 27.2616 33.7044 27.2079 33.7589 27.1542C33.7807 27.1327 33.8025 27.1112 33.8243 27.0898C33.8897 27.0253 33.9552 26.9609 34.0097 26.8965C34.0206 26.8857 34.0315 26.875 34.0424 26.8643C34.1078 26.7891 34.1842 26.7139 34.2496 26.6388C34.2714 26.6173 34.2823 26.5958 34.3041 26.5743C34.3478 26.5206 34.4023 26.4562 34.4459 26.4025C34.4568 26.3918 34.4677 26.381 34.4786 26.3596C34.4895 26.3488 34.5004 26.3381 34.5113 26.3273C34.5441 26.2951 34.5659 26.2522 34.5986 26.22C34.6204 26.1877 34.6422 26.1663 34.664 26.134C34.6967 26.0911 34.7185 26.0589 34.7513 26.0159C34.7731 25.9837 34.7949 25.9622 34.8058 25.93C34.8276 25.8871 34.8603 25.8548 34.8821 25.8119C34.9039 25.7797 34.9148 25.7582 34.9366 25.726C34.9694 25.683 34.9912 25.6401 35.013 25.5971C35.0239 25.5756 35.0348 25.5542 35.0457 25.5327V25.522C35.0566 25.4897 35.0784 25.4683 35.0893 25.436C35.1111 25.4038 35.1329 25.3609 35.1438 25.3287C35.1547 25.2964 35.1765 25.275 35.1875 25.2427C35.2093 25.2105 35.2202 25.1676 35.242 25.1354C35.2529 25.1031 35.2747 25.0709 35.2856 25.0495C35.2965 25.0172 35.3183 24.9743 35.3292 24.9421C35.3401 24.9099 35.351 24.8776 35.3619 24.8454C35.3728 24.8132 35.3837 24.7917 35.3946 24.7595C35.3946 24.7488 35.3946 24.7488 35.4056 24.738C35.4165 24.7058 35.4274 24.6843 35.4383 24.6521C35.4492 24.6199 35.4601 24.577 35.4819 24.5447C35.4928 24.5125 35.5037 24.4911 35.5146 24.4588C35.5255 24.4266 35.5364 24.3837 35.5473 24.3515C35.5582 24.3192 35.5582 24.287 35.5691 24.2655C35.58 24.2333 35.5909 24.1904 35.6018 24.1582C35.6127 24.1259 35.6128 24.0937 35.6237 24.0615C35.6237 24.04 35.6346 24.0186 35.6346 23.9971C35.6346 23.9863 35.6346 23.9649 35.6455 23.9541C35.6564 23.9219 35.6564 23.8897 35.6673 23.8575C35.6782 23.8253 35.6782 23.7823 35.6891 23.7501C35.6891 23.7179 35.7 23.6857 35.7 23.6535C35.7 23.6212 35.7109 23.5783 35.7109 23.5461C35.7109 23.5138 35.7218 23.4816 35.7218 23.4494C35.7218 23.4172 35.7327 23.3743 35.7327 23.342C35.7327 23.3098 35.7327 23.2776 35.7327 23.2454C35.7327 23.2239 35.7327 23.2132 35.7327 23.1917C35.7327 23.1595 35.7327 23.1165 35.7327 23.0843L35.7545 16.5016C35.7545 16.5553 35.7545 16.609 35.7436 16.6627Z" fill="#C04D00" stroke="#2D2D2D" stroke-width="0.66" stroke-miterlimit="10" stroke-linecap="round" stroke-linejoin="round"/>
<path d="M35.7548 16.5016C35.733 18.7674 34.1517 20.8077 31.0111 22.6118C27.7068 24.5017 23.7592 25.393 19.2009 25.2857C14.6425 25.189 10.4768 24.0615 6.70365 21.9245C2.77782 19.6909 0.891241 17.1029 1.04391 14.1498C1.18568 11.186 3.53027 8.41549 8.05587 5.82752C13.7483 2.57376 20.0296 0.920034 26.878 0.87708C33.7264 0.834126 39.975 2.40194 45.613 5.60201C48.5355 7.26648 50.3349 8.80208 51.0001 10.1981L42.5486 12.6465C41.3491 11.1645 39.9968 10.0048 38.5028 9.15645C35.733 7.58863 32.7232 6.65438 29.4516 6.38592C26.1801 6.11746 22.974 6.61143 19.8224 7.87857C21.4146 7.64232 23.2139 7.73897 25.1987 8.15777C27.1943 8.57657 29.1027 9.29605 30.8911 10.3162C34.1517 12.1632 35.7766 14.225 35.7548 16.5016ZM18.0667 19.4439C19.9097 19.5083 21.5236 19.1432 22.9195 18.3379C24.3044 17.5432 24.9587 16.6197 24.8606 15.5566C24.7515 14.4935 23.9773 13.5592 22.5487 12.7431C21.1092 11.927 19.4953 11.4974 17.6632 11.4437C15.8312 11.3793 14.1954 11.7659 12.7887 12.5713C11.4255 13.3552 10.793 14.2572 10.8912 15.3203C10.9675 16.3727 11.7309 17.307 13.1595 18.1231C14.588 18.9392 16.2238 19.3687 18.0667 19.4439Z" fill="#E4620A" stroke="#2D2D2D" stroke-width="0.66" stroke-miterlimit="10" stroke-linecap="round" stroke-linejoin="round"/>
</svg>
