<svg width="52" height="31" viewBox="0 0 52 31" fill="none" xmlns="http://www.w3.org/2000/svg">
<path d="M36.0702 12.3799L36.0598 18.5699L21.1095 10.0789L21.1302 3.87866L36.0702 12.3799Z" fill="#C04D00" stroke="#2D2D2D" stroke-width="0.66" stroke-miterlimit="10" stroke-linejoin="round"/>
<path d="M50.9998 13.8254L50.9791 20.0156L45.0962 23.3855L45.1169 17.1954L50.9998 13.8254Z" fill="#C04D00" stroke="#2D2D2D" stroke-width="0.66" stroke-miterlimit="10" stroke-linejoin="round"/>
<path d="M8.7233 24.3833L8.71296 30.5836L1 26.1955L1.02068 19.9952L8.7233 24.3833Z" fill="#C04D00" stroke="#2D2D2D" stroke-width="0.66" stroke-miterlimit="10" stroke-linejoin="round"/>
<path d="M45.1167 17.1952C44.8169 17.185 44.5171 17.1749 44.2172 17.1647C44.1138 17.1647 44.0208 17.1545 43.9174 17.1545C43.752 17.1545 43.5969 17.1443 43.4315 17.1443C43.4004 17.1443 43.3591 17.1443 43.3281 17.1443C43.1006 17.1341 42.8731 17.1341 42.6457 17.1341C42.532 17.1341 42.4286 17.1341 42.3148 17.1239C41.984 17.1239 41.6428 17.1138 41.3119 17.1138C41.2292 17.1138 41.1465 17.1138 41.0638 17.1138C41.0328 17.1138 41.0018 17.1138 40.9708 17.1138C40.9087 17.1138 40.857 17.1138 40.795 17.1138C40.7536 17.1138 40.7123 17.1138 40.6709 17.1138C40.6192 17.1138 40.5572 17.1138 40.5055 17.1138C40.4641 17.1138 40.4228 17.1138 40.3711 17.1138C40.3091 17.1138 40.2574 17.1138 40.1953 17.1239C40.185 17.1239 40.1746 17.1239 40.1643 17.1239C40.0816 17.1239 40.0092 17.1341 39.9265 17.1341C39.9162 17.1341 39.9058 17.1341 39.8955 17.1341C39.8128 17.1341 39.7197 17.1443 39.6267 17.1443C39.5957 17.1443 39.5646 17.1443 39.544 17.1443C39.4613 17.1443 39.3785 17.1545 39.2958 17.1545C39.2648 17.1545 39.2441 17.1545 39.2131 17.1545C39.1097 17.1545 38.996 17.1647 38.8823 17.1749C38.8616 17.1749 38.8409 17.1749 38.8202 17.1749C38.7272 17.1749 38.6238 17.185 38.5307 17.1952C38.4997 17.1952 38.4687 17.1952 38.4273 17.2054C38.3343 17.2156 38.2309 17.2156 38.1275 17.2258C38.1068 17.2258 38.0862 17.2258 38.0551 17.2258C37.9311 17.2359 37.807 17.2359 37.6829 17.2461C37.6519 17.2461 37.6209 17.2461 37.5899 17.2563C37.4865 17.2665 37.3934 17.2665 37.29 17.2767C37.2487 17.2767 37.2073 17.2869 37.166 17.2869C37.0522 17.297 36.9385 17.3072 36.8144 17.3072C36.7938 17.3072 36.7731 17.3072 36.7627 17.3072C36.6283 17.3174 36.4836 17.3276 36.3388 17.3378C36.2975 17.3378 36.2665 17.3479 36.2251 17.3479C36.1114 17.3581 36.008 17.3683 35.8943 17.3683C35.8529 17.3683 35.8116 17.3785 35.7702 17.3785C35.6255 17.3887 35.4704 17.3988 35.3153 17.409C34.9741 17.4294 34.6432 17.4599 34.302 17.4905C34.1883 17.5007 34.0746 17.5108 33.9712 17.521C33.7541 17.5414 33.537 17.5617 33.3198 17.5821C33.3095 17.5821 33.3095 17.5821 33.2992 17.5821C33.2681 17.5821 33.2475 17.5923 33.2164 17.5923C32.9373 17.6228 32.6685 17.6534 32.3893 17.6737C32.2963 17.6839 32.2032 17.6941 32.1102 17.7043C31.893 17.7246 31.6656 17.7552 31.4485 17.7857C31.3554 17.7959 31.2727 17.8061 31.1796 17.8163C30.8798 17.857 30.58 17.8876 30.2905 17.9283C30.2801 17.9283 30.2595 17.9283 30.2491 17.9385C29.97 17.9792 29.6908 18.0199 29.4013 18.0606C29.3083 18.0708 29.2256 18.0912 29.1325 18.1014C28.9154 18.1319 28.6983 18.1726 28.4811 18.2032C28.3984 18.2134 28.3054 18.2337 28.2227 18.2439C27.9332 18.2948 27.6333 18.3457 27.3438 18.3966C27.3232 18.3966 27.3128 18.4068 27.2922 18.4068C27.2198 18.417 27.1371 18.4373 27.0647 18.4475C26.982 18.4577 26.9096 18.4781 26.8269 18.4882C26.7442 18.5086 26.6511 18.5188 26.5684 18.5392C26.4857 18.5493 26.4133 18.5697 26.3306 18.5901C26.2479 18.6104 26.1549 18.6308 26.0618 18.641C25.9791 18.6613 25.8964 18.6715 25.824 18.6919C25.731 18.7122 25.6482 18.7326 25.5552 18.753C25.4725 18.7733 25.3898 18.7835 25.3071 18.8039C25.214 18.8242 25.1209 18.8446 25.0279 18.865C24.9452 18.8853 24.8625 18.9057 24.7798 18.9159C24.6867 18.9362 24.5937 18.9566 24.5006 18.977C24.4179 18.9973 24.3352 19.0177 24.2421 19.038C24.1491 19.0584 24.056 19.0788 23.963 19.1093C23.8803 19.1297 23.7872 19.15 23.7045 19.1704C23.6114 19.1908 23.5081 19.2213 23.415 19.2417C23.3219 19.262 23.2392 19.2824 23.1462 19.3028C23.0428 19.3231 22.9394 19.3537 22.836 19.3842C22.7533 19.4046 22.6706 19.4249 22.5775 19.4453C22.4741 19.4758 22.3604 19.4962 22.257 19.5267C22.1743 19.5471 22.0916 19.5675 22.0089 19.5878C21.8952 19.6184 21.7814 19.6489 21.6677 19.6795C21.585 19.6998 21.5023 19.7202 21.4196 19.7406C21.3058 19.7711 21.1921 19.8016 21.0784 19.8322C20.9957 19.8525 20.9129 19.8729 20.8302 19.9034C20.7165 19.934 20.5924 19.9645 20.4787 20.0053C20.396 20.0256 20.3133 20.0562 20.2306 20.0765C20.1065 20.1173 19.9824 20.1478 19.848 20.1885C19.7756 20.2089 19.6929 20.2293 19.6206 20.2598C19.4758 20.3005 19.3207 20.3514 19.1656 20.3922C19.1139 20.4125 19.0519 20.4227 19.0002 20.4431C18.7934 20.5042 18.5867 20.5652 18.3695 20.6365C18.1214 20.7078 17.8836 20.7892 17.6355 20.8605C17.5424 20.891 17.4494 20.9216 17.3563 20.9521C17.1702 21.0132 16.9944 21.0641 16.8187 21.1252C16.5912 21.1965 16.3637 21.2779 16.1466 21.3492C15.9709 21.4103 15.7848 21.4714 15.609 21.5325C15.3815 21.6139 15.1644 21.6852 14.937 21.7666C14.7612 21.8277 14.5854 21.8888 14.4097 21.9601C14.1822 22.0415 13.9651 22.123 13.748 22.2146C13.5825 22.2757 13.4068 22.347 13.2413 22.4081C13.0139 22.4997 12.7968 22.5811 12.5693 22.6728C12.4039 22.7339 12.2385 22.8051 12.0834 22.8662C11.8456 22.9579 11.6181 23.0597 11.3907 23.1615C11.2356 23.2226 11.0908 23.2837 10.9357 23.3549C10.6773 23.4669 10.4291 23.5789 10.1706 23.6909C10.0466 23.7418 9.9225 23.8029 9.79843 23.8538C9.42622 24.0269 9.05402 24.2 8.68181 24.3731L8.66113 30.5735C9.03334 30.4004 9.40555 30.2273 9.77776 30.0542C9.90182 29.9931 10.0259 29.9422 10.15 29.8913C10.3981 29.7793 10.6462 29.6673 10.9047 29.5554C11.0598 29.4943 11.2045 29.423 11.3596 29.3619C11.5871 29.2601 11.8146 29.1685 12.0524 29.0768C12.2178 29.0056 12.3832 28.9445 12.5383 28.8834C12.7657 28.7917 12.9829 28.7001 13.2103 28.6187C13.3758 28.5576 13.5515 28.4863 13.7169 28.4252C13.9341 28.3438 14.1615 28.2623 14.3786 28.1707C14.5544 28.1096 14.7302 28.0485 14.9059 27.9772C15.1231 27.8958 15.3505 27.8143 15.578 27.7431C15.7537 27.682 15.9295 27.6209 16.1156 27.5598C16.3431 27.4885 16.5602 27.4071 16.7876 27.3358C16.9634 27.2747 17.1495 27.2136 17.3253 27.1627C17.6665 27.0507 17.9973 26.9489 18.3385 26.8471C18.5453 26.786 18.7624 26.7148 18.9692 26.6537C19.0209 26.6333 19.0829 26.6231 19.1346 26.6028C19.2897 26.562 19.4345 26.5111 19.5895 26.4704C19.6723 26.45 19.7446 26.4297 19.817 26.3991C19.9411 26.3584 20.0755 26.3279 20.1995 26.2871C20.2926 26.2566 20.3753 26.2362 20.4684 26.2159C20.5821 26.1853 20.6855 26.1548 20.7992 26.1242C20.8923 26.0937 20.9853 26.0733 21.0784 26.0428C21.1818 26.0123 21.2851 25.9817 21.3885 25.9613C21.4816 25.941 21.5643 25.9104 21.647 25.8901C21.7504 25.8595 21.8641 25.829 21.9675 25.8086C22.0502 25.7883 22.1433 25.7679 22.226 25.7374C22.3294 25.7068 22.4328 25.6864 22.5362 25.6559C22.6292 25.6355 22.7119 25.6152 22.805 25.5846C22.9084 25.5643 23.0014 25.5337 23.1048 25.5134C23.1979 25.493 23.2806 25.4726 23.3736 25.4523C23.4667 25.4319 23.5701 25.4014 23.6631 25.381C23.7458 25.3606 23.8389 25.3403 23.9216 25.3199C24.0147 25.2996 24.1077 25.2792 24.2008 25.2486C24.2835 25.2283 24.3765 25.2079 24.4592 25.1876C24.5523 25.1672 24.6453 25.1468 24.7384 25.1265C24.8211 25.1061 24.9142 25.0857 24.9969 25.0654C25.0899 25.045 25.1726 25.0247 25.2657 25.0043C25.3484 24.9839 25.4311 24.9636 25.5138 24.9534C25.6069 24.933 25.6896 24.9127 25.7826 24.8923C25.8654 24.8719 25.9481 24.8618 26.0204 24.8414C26.1135 24.821 26.1962 24.8007 26.2893 24.7905C26.372 24.7701 26.4444 24.7599 26.5271 24.7396C26.6098 24.7192 26.7028 24.709 26.7855 24.6887C26.8683 24.6785 26.9406 24.6581 27.0233 24.648C27.1164 24.6276 27.2094 24.6174 27.3025 24.597C27.592 24.5461 27.8815 24.4952 28.1813 24.4443C28.264 24.4341 28.3571 24.4138 28.4398 24.4036C28.6569 24.3731 28.874 24.3323 29.0912 24.3018C29.1842 24.2916 29.2669 24.2712 29.36 24.2611C29.6391 24.2203 29.9183 24.1796 30.1974 24.1389C30.2181 24.1389 30.2285 24.1389 30.2491 24.1287C30.549 24.088 30.8385 24.0473 31.1383 24.0167C31.2313 24.0065 31.3141 23.9963 31.4071 23.9862C31.6242 23.9556 31.8517 23.9353 32.0688 23.9047C32.1619 23.8945 32.2549 23.8843 32.348 23.8742C32.6271 23.8436 32.8959 23.8131 33.1751 23.7927C33.2061 23.7927 33.2268 23.7825 33.2578 23.7825C33.4853 23.7622 33.7231 23.7418 33.9505 23.7214C34.0539 23.7113 34.1573 23.7011 34.271 23.6909C34.6122 23.6604 34.9431 23.64 35.2843 23.6095C35.4393 23.5993 35.5841 23.5891 35.7392 23.5789C35.7805 23.5789 35.8219 23.5687 35.8633 23.5687C35.977 23.5585 36.0907 23.5484 36.1941 23.5484C36.2355 23.5484 36.2768 23.5382 36.3078 23.5382C36.4526 23.528 36.587 23.5178 36.7317 23.5076C36.7524 23.5076 36.7628 23.5076 36.7834 23.5076C36.9075 23.4975 37.0212 23.4873 37.135 23.4873C37.1763 23.4873 37.2073 23.4873 37.2487 23.4771C37.3521 23.4669 37.4555 23.4669 37.5589 23.4567C37.5899 23.4567 37.6209 23.4567 37.6519 23.4466C37.776 23.4364 37.9 23.4262 38.0241 23.4262C38.0551 23.4262 38.0758 23.4262 38.1068 23.4262C38.1999 23.416 38.2929 23.416 38.386 23.4058C38.417 23.4058 38.4584 23.4058 38.4894 23.3956C38.5824 23.3855 38.6755 23.3855 38.7685 23.3855C38.7892 23.3855 38.8099 23.3855 38.8306 23.3855C38.9443 23.3753 39.0477 23.3753 39.1511 23.3651C39.1821 23.3651 39.2131 23.3651 39.2338 23.3651C39.3165 23.3651 39.3889 23.3549 39.4716 23.3549C39.5026 23.3549 39.5336 23.3549 39.5646 23.3549C39.6577 23.3549 39.7404 23.3447 39.8231 23.3447C39.8335 23.3447 39.8438 23.3447 39.8541 23.3447C39.9472 23.3447 40.0402 23.3346 40.1229 23.3346C40.185 23.3346 40.2367 23.3346 40.2987 23.3244C40.3401 23.3244 40.3814 23.3244 40.4228 23.3244C40.4848 23.3244 40.5365 23.3244 40.5986 23.3244C40.6399 23.3244 40.6709 23.3244 40.7123 23.3244C40.7743 23.3244 40.826 23.3244 40.888 23.3244C40.9191 23.3244 40.9501 23.3244 40.9811 23.3244C41.0638 23.3244 41.1465 23.3244 41.2292 23.3244C41.5601 23.3244 41.9013 23.3244 42.2321 23.3346C42.3459 23.3346 42.4596 23.3346 42.563 23.3447C42.7904 23.3447 43.0179 23.3549 43.235 23.3549C43.4315 23.3549 43.6279 23.3651 43.8243 23.3753C43.9174 23.3753 44.0208 23.3855 44.1138 23.3855C44.4137 23.3956 44.7135 23.4058 45.0237 23.416L45.1167 17.1952Z" fill="#C04D00" stroke="#2D2D2D" stroke-width="0.66" stroke-miterlimit="10" stroke-linecap="round" stroke-linejoin="round"/>
<path d="M51 13.8254L45.1171 17.1953C43.835 17.1342 42.5736 17.1139 41.3123 17.1139C40.0612 17.1241 38.0658 17.2157 35.3363 17.4295C32.6068 17.6331 29.9496 17.9589 27.3752 18.4069C24.8008 18.865 21.8128 19.6083 18.4112 20.6468C15.0097 21.6852 11.7839 22.9273 8.7235 24.3934L1.01054 20.0053C3.35751 18.8752 5.7872 17.8673 8.29959 16.9815C10.8327 16.0958 13.2003 15.3933 15.4129 14.8638C17.6358 14.3446 19.7966 13.9068 21.9265 13.5301C24.0357 13.1534 25.9277 12.8989 27.6027 12.7665C29.2776 12.6342 30.7561 12.5222 32.0588 12.4407C33.3512 12.3593 34.3437 12.3491 35.0365 12.3796H36.06L21.1097 3.87833L27.2821 0.345459L51 13.8254Z" fill="#E4620A" stroke="#2D2D2D" stroke-width="0.66" stroke-miterlimit="10" stroke-linecap="round" stroke-linejoin="round"/>
</svg>
