<svg width="52" height="37" viewBox="0 0 52 37" fill="none" xmlns="http://www.w3.org/2000/svg">
<path d="M18.1286 14.3826L18.1524 7.2738C18.1524 8.16094 18.4961 9.02473 19.2074 9.87684L19.1837 16.9856C18.4724 16.1335 18.1168 15.2697 18.1286 14.3826Z" fill="#FFC500" stroke="black" stroke-width="0.011" stroke-linecap="round"/>
<path d="M19.1956 9.87684L19.1718 16.9856C18.4606 16.1335 18.1168 15.258 18.1168 14.3826L18.1405 7.2738C18.1405 8.16094 18.4962 9.02473 19.1956 9.87684Z" fill="#FFC500" stroke="#2D2D2D" stroke-width="0.66" stroke-miterlimit="10" stroke-linecap="round" stroke-linejoin="round"/>
<path d="M18.1286 14.3826L18.1524 7.2738C18.1524 8.16094 18.4961 9.02473 19.2074 9.87684L19.1837 16.9856C18.4724 16.1335 18.1168 15.2697 18.1286 14.3826Z" stroke="#2D2D2D" stroke-width="0.66" stroke-miterlimit="10" stroke-linecap="round" stroke-linejoin="round"/>
<path d="M39.6199 10.7056C39.6199 10.6589 39.6199 10.6005 39.6199 10.5539C39.5606 9.65505 38.8494 8.82629 37.4743 8.05588C37.3795 7.99752 37.2846 7.95083 37.1898 7.90414C37.1543 7.89247 37.1305 7.86912 37.095 7.85745C37.0239 7.82243 36.9646 7.78741 36.8935 7.7524C36.8579 7.74072 36.8223 7.71737 36.7868 7.7057C36.7275 7.67068 36.6564 7.64734 36.5971 7.61232C36.5616 7.60065 36.526 7.5773 36.4904 7.56563C36.4193 7.53061 36.3482 7.50726 36.2771 7.47225C36.2534 7.46057 36.2297 7.4489 36.2059 7.4489H36.1941C36.0755 7.40221 35.957 7.35552 35.8385 7.3205C35.8148 7.30883 35.7792 7.29716 35.7555 7.29716C35.6488 7.26214 35.5421 7.22712 35.4236 7.1921C35.4117 7.1921 35.3999 7.18043 35.388 7.18043H35.3762C35.2813 7.15708 35.1747 7.12207 35.0798 7.09872C35.068 7.09872 35.0443 7.08705 35.0206 7.08705C34.9376 7.0637 34.8546 7.05203 34.7716 7.02868C34.7598 7.02868 34.7598 7.02868 34.7479 7.02868C34.7123 7.01701 34.6649 7.01701 34.6294 7.00534C34.582 6.99366 34.5345 6.99367 34.499 6.98199C34.4516 6.97032 34.4041 6.97032 34.3567 6.95865C34.3093 6.94697 34.2619 6.94698 34.2263 6.9353C34.2145 6.9353 34.2145 6.9353 34.2026 6.9353C34.1552 6.92363 34.0959 6.92363 34.0485 6.91196C34.013 6.91196 33.9893 6.90028 33.9537 6.90028C33.8707 6.88861 33.7877 6.87694 33.6929 6.87694C33.6811 6.87694 33.6811 6.87694 33.6692 6.87694C33.5744 6.86527 33.4795 6.86527 33.3966 6.85359C33.361 6.85359 33.3373 6.85359 33.3017 6.85359C33.2425 6.85359 33.1832 6.85359 33.1358 6.84192C33.1239 6.84192 33.1121 6.84192 33.1002 6.84192C33.0054 6.84192 32.8987 6.84192 32.8039 6.84192C32.7683 6.84192 32.7446 6.84192 32.709 6.84192C32.6498 6.84192 32.5786 6.84192 32.5194 6.84192C32.5075 6.84192 32.5075 6.84192 32.4957 6.84192C32.472 6.84192 32.4482 6.84192 32.4245 6.84192C32.3534 6.84192 32.2941 6.84192 32.223 6.85359C32.1875 6.85359 32.1519 6.85359 32.1163 6.86527C32.0571 6.86527 31.9978 6.87694 31.9385 6.87694C31.9148 6.87694 31.903 6.87694 31.8793 6.87694C31.8556 6.87694 31.8437 6.87694 31.8318 6.88861C31.7607 6.90028 31.6896 6.90028 31.6185 6.91196C31.5829 6.91196 31.5592 6.92363 31.5236 6.92363C31.4288 6.9353 31.334 6.94697 31.2391 6.97032C31.0969 6.99367 30.9547 7.02868 30.8124 7.0637C30.8006 7.0637 30.7887 7.0637 30.7887 7.07537C30.6583 7.11039 30.5279 7.14541 30.3975 7.18043C30.3857 7.18043 30.3738 7.18043 30.362 7.1921C30.3501 7.1921 30.3501 7.1921 30.3382 7.20377C30.2553 7.22712 30.1604 7.26214 30.0775 7.29716C30.0656 7.29716 30.0538 7.30883 30.0419 7.30883C29.9708 7.33217 29.8997 7.36719 29.8285 7.39054C29.8048 7.40221 29.7811 7.41388 29.7574 7.42556C29.6981 7.4489 29.6389 7.47225 29.5915 7.50727C29.5677 7.51894 29.544 7.53061 29.5203 7.54228C29.4492 7.5773 29.3662 7.62399 29.2951 7.65901C29.2595 7.68236 29.2358 7.69403 29.2003 7.71737C29.1884 7.72905 29.1647 7.74072 29.1529 7.7524C29.1173 7.77574 29.0699 7.79908 29.0343 7.82243C29.0106 7.84577 28.975 7.85745 28.9513 7.88079C28.9158 7.90414 28.8802 7.92748 28.8446 7.95083C28.8209 7.97418 28.7854 7.98585 28.7617 8.00919C28.7261 8.03254 28.6906 8.05589 28.655 8.0909C28.6313 8.11425 28.6076 8.12592 28.5839 8.14927C28.5483 8.17261 28.5246 8.20763 28.489 8.23097C28.4772 8.24265 28.4535 8.25432 28.4416 8.27767L28.4298 8.28934C28.3705 8.33603 28.3231 8.3944 28.2638 8.45276C28.252 8.46443 28.2401 8.4761 28.2401 8.48778C28.2045 8.53447 28.1571 8.58116 28.1216 8.61618C28.1097 8.62785 28.1097 8.62785 28.0979 8.63952C28.086 8.65119 28.0741 8.66287 28.0741 8.67454C28.0504 8.69789 28.0267 8.7329 28.0149 8.75625C28.003 8.77959 27.9793 8.80294 27.9675 8.82629C27.9438 8.84963 27.9319 8.88465 27.9082 8.908C27.8963 8.91967 27.8963 8.93134 27.8845 8.94301C27.8726 8.95469 27.8726 8.96636 27.8726 8.97803C27.8608 9.00138 27.8489 9.02472 27.8371 9.04807C27.8252 9.07141 27.8134 9.09476 27.8015 9.1181C27.7897 9.14145 27.7778 9.1648 27.7659 9.19982C27.7659 9.21149 27.7541 9.22316 27.7422 9.24651C27.7422 9.25818 27.7304 9.26985 27.7304 9.28152C27.7185 9.30487 27.7067 9.32821 27.7067 9.36323C27.6948 9.38658 27.6948 9.40993 27.683 9.44494C27.6711 9.46829 27.6711 9.5033 27.6593 9.52665C27.6593 9.53832 27.6474 9.56167 27.6474 9.57334C27.6474 9.58501 27.6474 9.59669 27.6474 9.60836C27.6356 9.64338 27.6356 9.6784 27.6356 9.71342C27.6356 9.73676 27.6237 9.76011 27.6237 9.78345C27.6237 9.81847 27.6237 9.86516 27.6118 9.90018C27.6118 9.91185 27.6118 9.9352 27.6118 9.94687C27.6118 9.95854 27.6118 9.97022 27.6118 9.97022C27.6118 9.98189 27.6118 9.99356 27.6118 9.99356L27.5881 17.1023C27.5881 17.0906 27.5881 17.0789 27.5881 17.0789C27.5881 17.0556 27.5881 17.0322 27.5881 16.9972C27.5881 16.9622 27.5881 16.9155 27.6 16.8805C27.6 16.8571 27.6 16.8338 27.6118 16.8104C27.6118 16.7754 27.6237 16.7404 27.6237 16.7054C27.6237 16.682 27.6356 16.6587 27.6356 16.6237C27.6474 16.6003 27.6474 16.5653 27.6593 16.542C27.6711 16.5186 27.6711 16.4953 27.683 16.4603C27.6948 16.4369 27.6948 16.4136 27.7067 16.3786C27.7185 16.3552 27.7304 16.3319 27.7304 16.2968C27.7422 16.2735 27.7541 16.2502 27.7659 16.2151C27.7778 16.1918 27.7897 16.1684 27.8015 16.1451C27.8134 16.1218 27.8252 16.0984 27.8371 16.0751C27.8489 16.0517 27.8608 16.0284 27.8726 16.005C27.8845 15.9817 27.9082 15.9467 27.9319 15.9233C27.9438 15.9 27.9675 15.8766 27.9793 15.8533C28.003 15.8299 28.0149 15.7949 28.0386 15.7716C28.0504 15.7482 28.0741 15.7366 28.086 15.7132C28.1216 15.6665 28.1571 15.6198 28.2045 15.5848C28.2164 15.5731 28.2282 15.5615 28.2282 15.5498C28.2757 15.4914 28.3349 15.4447 28.3942 15.3864C28.4179 15.363 28.4298 15.3514 28.4535 15.328C28.489 15.3047 28.5127 15.2696 28.5483 15.2463C28.572 15.2229 28.5957 15.2113 28.6194 15.1879C28.655 15.1646 28.6905 15.1412 28.7261 15.1062C28.7498 15.0829 28.7735 15.0712 28.8091 15.0479C28.8446 15.0245 28.8802 15.0012 28.9158 14.9778C28.9395 14.9545 28.975 14.9428 28.9988 14.9195C29.0343 14.8961 29.0699 14.8728 29.1173 14.8494C29.1647 14.8261 29.2121 14.7911 29.2595 14.7677C29.3307 14.721 29.4136 14.686 29.4848 14.651C29.5085 14.6393 29.5322 14.6276 29.5559 14.616C29.6152 14.5926 29.6744 14.5576 29.7218 14.5343C29.7455 14.5226 29.7693 14.5109 29.793 14.4992C29.8641 14.4642 29.9352 14.4409 30.0063 14.4175C30.0182 14.4175 30.03 14.4059 30.0419 14.4059C30.1249 14.3708 30.2079 14.3475 30.3027 14.3125C30.3145 14.3125 30.3382 14.3008 30.3501 14.3008C30.4805 14.2658 30.6109 14.2191 30.7413 14.1957C30.7531 14.1957 30.765 14.1957 30.765 14.1841C30.9072 14.1491 31.0495 14.1257 31.1917 14.0907C31.2866 14.079 31.3814 14.0557 31.4762 14.044C31.4999 14.044 31.5355 14.0323 31.5711 14.0323C31.6422 14.0207 31.7133 14.0207 31.7844 14.009C31.82 14.009 31.8555 13.9973 31.8911 13.9973C31.9504 13.9973 32.0096 13.9856 32.0689 13.9856C32.1045 13.9856 32.14 13.9856 32.1756 13.974C32.2467 13.974 32.306 13.9623 32.3771 13.9623C32.4127 13.9623 32.4364 13.9623 32.472 13.9623C32.5312 13.9623 32.6023 13.9623 32.6616 13.9623C32.6972 13.9623 32.7209 13.9623 32.7564 13.9623C32.8513 13.9623 32.958 13.9623 33.0528 13.9623C33.1239 13.9623 33.195 13.9623 33.2662 13.974C33.3017 13.974 33.3254 13.974 33.361 13.974C33.4558 13.974 33.5507 13.9856 33.6455 13.9973C33.6573 13.9973 33.6573 13.9973 33.6692 13.9973C33.7522 14.009 33.8352 14.009 33.9181 14.0207C33.9537 14.0207 33.9774 14.0323 34.013 14.0323C34.0722 14.044 34.1315 14.044 34.1908 14.0557C34.2382 14.0674 34.2856 14.0673 34.3212 14.079C34.3686 14.0907 34.416 14.0907 34.4634 14.1024C34.5108 14.114 34.5582 14.114 34.5938 14.1257C34.6412 14.1374 34.6886 14.1491 34.7361 14.1491C34.819 14.1607 34.902 14.1841 34.985 14.2074C34.9968 14.2074 35.0205 14.2191 35.0324 14.2191C35.1272 14.2424 35.2339 14.2658 35.3287 14.3008C35.3406 14.3008 35.3643 14.3125 35.3762 14.3125C35.4829 14.3475 35.6014 14.3825 35.7081 14.4175C35.7318 14.4292 35.7673 14.4409 35.7911 14.4409C35.9096 14.4759 36.0281 14.5226 36.1467 14.5693C36.1704 14.581 36.2059 14.5926 36.2297 14.6043C36.3008 14.6276 36.3719 14.6627 36.443 14.6977C36.4786 14.7094 36.5141 14.7327 36.5497 14.7444C36.609 14.7677 36.6801 14.8027 36.7394 14.8377C36.7749 14.8494 36.8105 14.8728 36.8461 14.8844C36.9172 14.9195 36.9764 14.9545 37.0476 14.9895C37.0831 15.0012 37.1068 15.0245 37.1424 15.0362C37.2372 15.0829 37.3321 15.1412 37.4269 15.1879C38.7901 15.97 39.5132 16.7988 39.5725 17.6859C39.5725 17.7443 39.5725 17.791 39.5725 17.8376L39.6199 10.7056Z" fill="#C04D00" stroke="#2D2D2D" stroke-width="0.66" stroke-miterlimit="10" stroke-linecap="round" stroke-linejoin="round"/>
<path d="M26.2368 18.8882C26.2368 17.861 25.407 16.8805 23.7119 15.9116C23.5934 15.8416 23.4867 15.7832 23.3682 15.7249C23.3326 15.7015 23.297 15.6899 23.2615 15.6665C23.1785 15.6315 23.1074 15.5848 23.0244 15.5498C22.977 15.5264 22.9414 15.5031 22.894 15.4914C22.8229 15.4564 22.7399 15.4214 22.6688 15.3864C22.6214 15.363 22.5858 15.3513 22.5384 15.328C22.4554 15.293 22.3724 15.258 22.3013 15.2346C22.2776 15.2229 22.242 15.2113 22.2183 15.1996C22.2065 15.1996 22.2065 15.1996 22.1946 15.1879C22.0524 15.1296 21.922 15.0829 21.7797 15.0362C21.7442 15.0245 21.7205 15.0128 21.6849 15.0012C21.5664 14.9661 21.4478 14.9311 21.3293 14.8961C21.3056 14.8844 21.2937 14.8844 21.27 14.8728C21.2582 14.8728 21.2463 14.8611 21.2345 14.8611C21.1633 14.8377 21.0922 14.8261 21.0211 14.8027C20.9737 14.791 20.9381 14.7794 20.8907 14.7677C20.8077 14.7444 20.7247 14.7327 20.6536 14.7093C20.6181 14.6977 20.5944 14.6977 20.5588 14.686H20.5469C20.5114 14.6743 20.4758 14.6743 20.4403 14.6626C20.3691 14.651 20.298 14.6393 20.2269 14.6276C20.1795 14.616 20.1439 14.616 20.0965 14.6043C20.0491 14.5926 19.9898 14.5926 19.9424 14.5809C19.9305 14.5809 19.9187 14.5809 19.9068 14.5809C19.8713 14.5809 19.8357 14.5693 19.8001 14.5693C19.729 14.5576 19.6697 14.5576 19.5986 14.5459C19.5631 14.5459 19.5156 14.5342 19.4801 14.5342C19.4445 14.5342 19.409 14.5226 19.3734 14.5226C19.3378 14.5226 19.3141 14.5226 19.2786 14.5109C19.243 14.5109 19.1956 14.5109 19.16 14.4992C19.0889 14.4992 19.0296 14.4875 18.9585 14.4875C18.923 14.4875 18.8755 14.4875 18.84 14.4875C18.8281 14.4875 18.8044 14.4875 18.7926 14.4875C18.7096 14.4875 18.6266 14.4875 18.5436 14.4875C18.4014 14.4875 18.271 14.4875 18.1406 14.4992C18.1287 14.4992 18.105 14.4992 18.0932 14.4992C18.0695 14.4992 18.0458 14.4992 18.0221 14.4992C17.9391 14.4992 17.868 14.5109 17.785 14.5109C17.7376 14.5109 17.702 14.5109 17.6546 14.5226C17.5716 14.5226 17.4886 14.5342 17.4057 14.5459C17.3819 14.5459 17.3582 14.5459 17.3227 14.5576C17.3108 14.5576 17.3108 14.5576 17.299 14.5576C17.1804 14.5693 17.05 14.5809 16.9315 14.6043C16.9078 14.6043 16.8722 14.616 16.8485 14.616C16.7537 14.6276 16.6589 14.6393 16.5759 14.6626C16.5522 14.6626 16.5403 14.6626 16.5166 14.6743C16.4929 14.6743 16.4692 14.686 16.4455 14.686C16.3981 14.6977 16.3506 14.6977 16.3032 14.7093C16.2558 14.721 16.2084 14.7327 16.161 14.7444C16.1136 14.756 16.0662 14.7677 16.0306 14.7794C15.9832 14.791 15.9358 14.8027 15.8883 14.8144C15.8409 14.8261 15.8054 14.8377 15.758 14.8494C15.7105 14.8611 15.6631 14.8728 15.6276 14.8844C15.5801 14.8961 15.5446 14.9078 15.4972 14.9194C15.4735 14.9311 15.4616 14.9311 15.4379 14.9428C15.426 14.9428 15.4023 14.9545 15.3905 14.9545C15.3075 14.9778 15.2127 15.0128 15.1297 15.0478C15.106 15.0595 15.0823 15.0595 15.0586 15.0712C14.9519 15.1062 14.8571 15.1529 14.7504 15.1879C14.7267 15.1996 14.703 15.2113 14.6793 15.2229C14.5963 15.258 14.5251 15.293 14.454 15.328C14.4303 15.3397 14.3948 15.3513 14.371 15.363C14.2762 15.4097 14.1814 15.4564 14.0866 15.5148C14.0628 15.5264 14.0273 15.5498 14.0036 15.5615C13.9799 15.5731 13.968 15.5848 13.9443 15.5965C13.9087 15.6198 13.8732 15.6432 13.8495 15.6548C13.8139 15.6782 13.7902 15.6899 13.7546 15.7132C13.7191 15.7365 13.6954 15.7599 13.6598 15.7832C13.6361 15.8066 13.6005 15.8299 13.5768 15.8416C13.5531 15.8649 13.5176 15.8883 13.4939 15.9116C13.4702 15.935 13.4464 15.9583 13.4109 15.97C13.3872 15.9934 13.3516 16.0167 13.3279 16.04C13.3161 16.0517 13.3042 16.0634 13.2923 16.0751C13.2805 16.0867 13.2686 16.0984 13.2686 16.0984C13.2331 16.1334 13.1857 16.1684 13.1501 16.2151C13.1382 16.2268 13.1145 16.2502 13.1027 16.2618C13.0553 16.3202 13.0078 16.3669 12.9604 16.4252L12.9486 16.4369C12.913 16.4836 12.8775 16.5303 12.8419 16.577C12.83 16.6003 12.8182 16.612 12.8063 16.6354C12.7826 16.6704 12.7589 16.7054 12.7471 16.7404C12.7471 16.7404 12.7471 16.7521 12.7352 16.7521C12.7234 16.7754 12.7115 16.7871 12.6996 16.8104C12.6878 16.8338 12.6641 16.8688 12.6522 16.8922C12.6404 16.9155 12.6285 16.9389 12.6167 16.9622C12.6048 16.9855 12.593 17.0206 12.5811 17.0439C12.5811 17.0556 12.5811 17.0556 12.5693 17.0673C12.5574 17.0906 12.5574 17.1023 12.5455 17.1256C12.5337 17.1606 12.5218 17.184 12.51 17.219C12.4981 17.2423 12.4981 17.2657 12.4863 17.3007C12.4744 17.3357 12.4744 17.3591 12.4626 17.3941C12.4626 17.4058 12.4626 17.4174 12.4507 17.4174C12.4507 17.4291 12.4507 17.4525 12.4389 17.4641C12.427 17.4991 12.427 17.5342 12.4152 17.5809C12.4152 17.6042 12.4033 17.6276 12.4033 17.6626C12.4033 17.6976 12.3914 17.7443 12.3914 17.7793C12.3914 17.791 12.3914 17.8143 12.3914 17.826C12.3914 17.8493 12.3914 17.8727 12.3914 17.896L12.3677 25.0048C12.3677 24.9698 12.3677 24.9348 12.3677 24.8881C12.3677 24.8531 12.3677 24.8064 12.3796 24.7713C12.3796 24.748 12.3796 24.7247 12.3914 24.6896C12.3914 24.6546 12.4033 24.6196 12.4152 24.5729C12.4152 24.5496 12.427 24.5262 12.427 24.5029C12.4389 24.4679 12.4389 24.4445 12.4507 24.4095C12.4626 24.3861 12.4626 24.3628 12.4744 24.3278C12.4863 24.2928 12.4981 24.2694 12.51 24.2344C12.5218 24.2111 12.5218 24.1877 12.5337 24.1644C12.5455 24.141 12.5574 24.106 12.5693 24.0826C12.5811 24.0593 12.593 24.036 12.6048 24.0126C12.6167 23.9893 12.6285 23.9542 12.6522 23.9309C12.6641 23.9076 12.6759 23.8842 12.6878 23.8609C12.7115 23.8258 12.7352 23.7908 12.7471 23.7558C12.7589 23.7325 12.7708 23.7208 12.7826 23.6974C12.8182 23.6507 12.8537 23.6041 12.8893 23.5574L12.9012 23.5457C12.9486 23.4873 12.996 23.4406 13.0434 23.3823C13.0553 23.3706 13.079 23.3473 13.0908 23.3356C13.1264 23.3006 13.1619 23.2655 13.2094 23.2189C13.2331 23.1955 13.2568 23.1838 13.2686 23.1605C13.2923 23.1371 13.316 23.1138 13.3516 23.0905C13.3753 23.0671 13.399 23.0438 13.4346 23.0321C13.4583 23.0087 13.4939 22.9854 13.5176 22.9621C13.5413 22.9387 13.5768 22.9154 13.6005 22.9037C13.6361 22.8803 13.6598 22.857 13.6954 22.8453C13.7309 22.822 13.7546 22.8103 13.7902 22.787C13.8258 22.7636 13.8613 22.7403 13.885 22.7286C13.9325 22.7052 13.9799 22.6702 14.0273 22.6469C14.1221 22.6002 14.2169 22.5418 14.3118 22.4951C14.3355 22.4835 14.371 22.4718 14.3948 22.4601C14.4659 22.4251 14.5489 22.3901 14.62 22.3551C14.6437 22.3434 14.6674 22.3317 14.6911 22.32C14.7859 22.2734 14.8926 22.2383 14.9993 22.2033C15.023 22.1916 15.0467 22.1916 15.0704 22.18C15.1534 22.1449 15.2364 22.1216 15.3312 22.0866C15.3668 22.0749 15.4023 22.0632 15.4379 22.0516C15.4853 22.0399 15.5209 22.0282 15.5683 22.0166C15.6157 22.0049 15.6631 21.9932 15.7105 21.9815C15.758 21.9699 15.7935 21.9582 15.8409 21.9465C15.8883 21.9348 15.9358 21.9232 15.9832 21.9115C16.0306 21.8998 16.078 21.8881 16.1136 21.8765C16.161 21.8648 16.2084 21.8531 16.2558 21.8415C16.3032 21.8298 16.3507 21.8181 16.3981 21.8181C16.4455 21.8064 16.481 21.8064 16.5285 21.7948C16.6233 21.7831 16.7181 21.7597 16.8011 21.7481C16.8248 21.7481 16.8604 21.7364 16.8841 21.7364C17.0026 21.7247 17.1212 21.7014 17.2515 21.6897C17.2871 21.6897 17.3227 21.678 17.3582 21.678C17.4412 21.6664 17.5242 21.6664 17.6072 21.6547C17.6546 21.6547 17.6901 21.6547 17.7376 21.643C17.8205 21.643 17.8917 21.6313 17.9746 21.6313C18.0221 21.6313 18.0576 21.6313 18.105 21.6313C18.2354 21.6313 18.3777 21.6197 18.5081 21.6197C18.6029 21.6197 18.7096 21.6197 18.8044 21.6197C18.84 21.6197 18.8755 21.6197 18.9229 21.6197C18.9941 21.6197 19.0533 21.6313 19.1245 21.6313C19.16 21.6313 19.2074 21.6313 19.243 21.643C19.3023 21.643 19.3734 21.6547 19.4327 21.6547C19.4682 21.6547 19.5156 21.6664 19.5512 21.6664C19.6223 21.678 19.6816 21.678 19.7527 21.6897C19.7883 21.6897 19.8238 21.7014 19.8594 21.7014C19.9305 21.7131 19.9898 21.7247 20.0491 21.7364C20.0965 21.7481 20.132 21.7481 20.1795 21.7597C20.2506 21.7714 20.3217 21.7831 20.3928 21.7948C20.4284 21.8064 20.464 21.8064 20.4995 21.8181C20.5351 21.8298 20.5706 21.8298 20.5944 21.8415C20.6773 21.8531 20.7603 21.8765 20.8314 21.8998C20.8788 21.9115 20.9144 21.9232 20.9618 21.9348C21.0329 21.9582 21.1041 21.9699 21.1752 21.9932C21.2108 22.0049 21.2463 22.0166 21.27 22.0166C21.3886 22.0516 21.5071 22.0866 21.6256 22.1216C21.6612 22.1333 21.6849 22.1449 21.7205 22.1566C21.8627 22.2033 21.9931 22.25 22.1354 22.3084C22.1709 22.32 22.2065 22.3434 22.242 22.3551C22.325 22.3901 22.408 22.4251 22.4791 22.4484C22.5265 22.4718 22.5621 22.4835 22.6095 22.5068C22.6806 22.5418 22.7636 22.5768 22.8347 22.6119C22.8822 22.6352 22.9177 22.6469 22.9651 22.6702C23.0481 22.7052 23.1192 22.7519 23.2022 22.787C23.2378 22.8103 23.2733 22.822 23.3089 22.8453C23.4274 22.9037 23.5341 22.9737 23.6527 23.0321C24.3995 23.4523 24.9684 23.8842 25.3833 24.3161C25.9168 24.8764 26.1775 25.4367 26.1775 26.0087L26.2368 18.8882Z" fill="#C04D00" stroke="#2D2D2D" stroke-width="0.66" stroke-miterlimit="10" stroke-linecap="round" stroke-linejoin="round"/>
<path d="M26.2369 18.9467L26.2133 26.0555C26.2133 26.0439 26.2133 26.0205 26.2133 26.0088L26.2369 18.9C26.2369 18.9117 26.2369 18.9234 26.2369 18.9467Z" fill="#FFC500" stroke="black" stroke-width="0.011" stroke-linecap="round"/>
<path d="M26.2369 18.9467L26.2133 26.0555C26.2133 26.0439 26.2133 26.0205 26.2133 26.0088L26.2369 18.9C26.2369 18.9117 26.2369 18.9234 26.2369 18.9467Z" fill="#FFC500" stroke="#2D2D2D" stroke-width="0.66" stroke-miterlimit="10" stroke-linecap="round" stroke-linejoin="round"/>
<path d="M26.2369 18.9467L26.2133 26.0555C26.2133 26.0439 26.2133 26.0205 26.2133 26.0088L26.2369 18.9C26.2369 18.9117 26.2369 18.9234 26.2369 18.9467Z" stroke="#2D2D2D" stroke-width="0.66" stroke-miterlimit="10" stroke-linecap="round" stroke-linejoin="round"/>
<path d="M50.9763 12.188C50.9763 12.223 50.9763 12.258 50.9763 12.2931C50.9763 12.3164 50.9763 12.3514 50.9763 12.3748C50.9763 12.4098 50.9644 12.4448 50.9644 12.4798C50.9644 12.5032 50.9644 12.5382 50.9526 12.5615C50.9526 12.5966 50.9407 12.6316 50.9407 12.6666C50.9407 12.6899 50.9289 12.7133 50.9289 12.7483C50.917 12.7833 50.917 12.83 50.9052 12.865C50.9052 12.8884 50.8933 12.9117 50.8933 12.9351C50.8815 12.9701 50.8815 12.9934 50.8696 13.0285C50.8578 13.0518 50.8578 13.0868 50.8459 13.1102C50.834 13.1452 50.834 13.1685 50.8222 13.2035C50.8103 13.2269 50.8103 13.2619 50.7985 13.2853C50.7866 13.3203 50.7748 13.3436 50.7748 13.3786C50.7629 13.402 50.7629 13.437 50.7511 13.4604C50.7392 13.4954 50.7274 13.5187 50.7155 13.5537C50.7036 13.5771 50.6918 13.6121 50.6799 13.6354C50.6681 13.6705 50.6562 13.6938 50.6444 13.7288C50.6325 13.7522 50.6207 13.7872 50.6088 13.8105C50.597 13.8456 50.5851 13.8689 50.5733 13.9039C50.5614 13.9273 50.5495 13.9623 50.5377 13.9856C50.5258 14.0207 50.514 14.044 50.4903 14.079C50.4784 14.1024 50.4666 14.1257 50.4547 14.1607C50.4429 14.1958 50.4192 14.2191 50.4073 14.2541C50.3955 14.2775 50.3836 14.3008 50.3599 14.3358C50.3243 14.3942 50.2888 14.4526 50.2532 14.5109C50.2414 14.5226 50.2295 14.5343 50.2295 14.5576C50.2058 14.6043 50.1702 14.6393 50.1465 14.686C50.1347 14.7094 50.1228 14.7327 50.0991 14.7444C50.0754 14.7794 50.0517 14.8144 50.028 14.8494C50.0161 14.8728 49.9924 14.8961 49.9806 14.9195C49.9569 14.9545 49.9331 14.9895 49.9094 15.0129C49.8976 15.0362 49.8739 15.0479 49.862 15.0712C49.8265 15.1179 49.7909 15.1646 49.7553 15.1996C49.7435 15.223 49.7198 15.2346 49.7079 15.258C49.6605 15.3047 49.6249 15.3514 49.5775 15.3981C49.5657 15.4097 49.5538 15.4214 49.542 15.4331C49.4827 15.4914 49.4234 15.5498 49.3642 15.6082C49.3523 15.6198 49.3286 15.6432 49.3167 15.6549C49.2693 15.7016 49.2219 15.7483 49.1745 15.7833C49.1508 15.8066 49.1271 15.83 49.1034 15.8416C49.0678 15.865 49.0323 15.9 49.0085 15.9233C48.9848 15.9467 48.9611 15.97 48.9256 15.9934C48.89 16.0167 48.8544 16.0517 48.8189 16.0751C48.7952 16.0984 48.7596 16.1218 48.7359 16.1451C48.7003 16.1685 48.6648 16.2035 48.6292 16.2268C48.6055 16.2502 48.57 16.2735 48.5462 16.2969C48.5107 16.3319 48.4633 16.3552 48.4277 16.3903C48.404 16.4136 48.3684 16.4253 48.3447 16.4486C48.2973 16.4836 48.2618 16.507 48.2143 16.542C48.1906 16.5654 48.1669 16.577 48.1432 16.6004C48.0839 16.6354 48.0247 16.6821 47.9773 16.7171C47.9654 16.7288 47.9535 16.7405 47.9298 16.7521C47.8587 16.7988 47.7876 16.8455 47.7046 16.8922C47.6809 16.9039 47.6572 16.9155 47.6453 16.9272C47.5861 16.9622 47.5387 16.9973 47.4794 17.0323C47.4083 17.079 47.3371 17.114 47.266 17.1607C47.1712 17.2074 47.0882 17.2657 46.9934 17.3124C46.9578 17.3241 46.9341 17.3474 46.8986 17.3591C46.8393 17.3941 46.7682 17.4292 46.7089 17.4525C46.6733 17.4758 46.6259 17.4875 46.5904 17.5109C46.5311 17.5342 46.4718 17.5692 46.4125 17.5926C46.3651 17.6159 46.3296 17.6276 46.2822 17.6509C46.2229 17.6743 46.1636 17.6976 46.1043 17.7327C46.0569 17.756 46.0095 17.7677 45.9621 17.791C45.9028 17.8144 45.8436 17.8377 45.7843 17.8611C45.7369 17.8844 45.6895 17.8961 45.642 17.9194C45.5828 17.9428 45.5235 17.9661 45.4524 17.9895C45.405 18.0128 45.3575 18.0245 45.2983 18.0478C45.239 18.0712 45.1679 18.0945 45.1086 18.1179C45.0612 18.1295 45.0019 18.1529 44.9545 18.1646C44.9071 18.1762 44.8597 18.1996 44.8123 18.2112C44.67 18.2579 44.5278 18.3046 44.3737 18.3396C44.35 18.3396 44.3381 18.3513 44.3144 18.3513C44.1484 18.398 43.9825 18.4447 43.8047 18.4797C43.7573 18.4914 43.7217 18.5031 43.6743 18.5147C43.5202 18.5498 43.3661 18.5848 43.212 18.6198C43.1883 18.6198 43.1646 18.6315 43.1409 18.6315C42.9631 18.6665 42.7852 18.7015 42.5956 18.7365C42.5482 18.7482 42.5008 18.7599 42.4415 18.7599C42.3229 18.7832 42.1926 18.8066 42.074 18.8182C42.0266 18.8299 41.9673 18.8299 41.9199 18.8416C41.7421 18.8649 41.5762 18.8883 41.3865 18.9116C41.1968 18.935 41.0072 18.9583 40.8294 18.97C40.7701 18.97 40.7227 18.9817 40.6634 18.9817C40.5212 18.9933 40.3789 19.005 40.2485 19.0167C40.2011 19.0167 40.1537 19.0283 40.1063 19.0283C39.9285 19.04 39.7388 19.0517 39.561 19.0517C39.5254 19.0517 39.478 19.0517 39.4425 19.0517C39.3121 19.0517 39.1935 19.0634 39.0631 19.0634C39.0039 19.0634 38.9446 19.0634 38.8853 19.0634C38.7786 19.0634 38.672 19.0634 38.5534 19.0634C38.4941 19.0634 38.423 19.0634 38.3638 19.0634C38.2689 19.0634 38.1622 19.0517 38.0674 19.0517C38.0081 19.0517 37.937 19.0517 37.8777 19.04C37.7711 19.0283 37.6762 19.0284 37.5695 19.0167C37.5103 19.0167 37.4629 19.005 37.4036 19.005C37.2613 18.9933 37.1309 18.9817 36.9887 18.97C36.965 18.97 36.9413 18.97 36.9176 18.9583C36.7635 18.935 36.5975 18.9233 36.4434 18.8999C36.4079 18.8999 36.3604 18.8883 36.3249 18.8766C36.1945 18.8533 36.0641 18.8416 35.9456 18.8182C35.8863 18.8066 35.827 18.7949 35.7796 18.7832C35.6611 18.7599 35.5544 18.7365 35.4358 18.7249C35.3766 18.7132 35.3173 18.7015 35.2699 18.6898C35.1632 18.6665 35.0447 18.6431 34.938 18.6198C34.8906 18.6081 34.8313 18.5965 34.7839 18.5848C34.6298 18.5498 34.4638 18.5031 34.3097 18.468L34.286 25.5769C34.4401 25.6236 34.6061 25.6586 34.7602 25.6936C34.8076 25.7053 34.8669 25.7169 34.9143 25.7286C35.021 25.752 35.1276 25.7753 35.2462 25.7987C35.2699 25.7987 35.2936 25.8103 35.3173 25.8103C35.3529 25.822 35.3884 25.822 35.424 25.8337C35.5307 25.857 35.6492 25.8804 35.7677 25.892C35.827 25.9037 35.8863 25.9154 35.9337 25.9271C36.0641 25.9504 36.1826 25.9621 36.313 25.9854C36.3486 25.9854 36.3723 25.9971 36.4079 25.9971C36.4197 25.9971 36.4197 25.9971 36.4316 25.9971C36.5857 26.0204 36.7516 26.0438 36.9057 26.0555C36.9294 26.0555 36.9531 26.0555 36.9768 26.0671C37.1072 26.0788 37.2495 26.0905 37.3799 26.1022C37.3917 26.1022 37.4036 26.1022 37.4154 26.1022C37.4629 26.1022 37.4984 26.1022 37.5458 26.1138C37.6525 26.1255 37.7473 26.1255 37.854 26.1372C37.9133 26.1372 37.9844 26.1488 38.0437 26.1488C38.1385 26.1488 38.2452 26.1605 38.34 26.1605C38.3756 26.1605 38.3993 26.1605 38.4349 26.1605C38.4704 26.1605 38.4941 26.1605 38.5297 26.1605C38.6364 26.1605 38.7431 26.1605 38.8616 26.1605C38.9209 26.1605 38.9801 26.1605 39.0394 26.1605C39.1698 26.1605 39.2884 26.1605 39.4187 26.1488C39.4543 26.1488 39.4899 26.1488 39.5254 26.1488C39.5373 26.1488 39.5373 26.1488 39.5491 26.1488C39.727 26.1372 39.9166 26.1372 40.0944 26.1255C40.1418 26.1255 40.1893 26.1138 40.2367 26.1138C40.3789 26.1022 40.5212 26.0905 40.6516 26.0788C40.6871 26.0788 40.7108 26.0788 40.7464 26.0671C40.7701 26.0671 40.7938 26.0671 40.8175 26.0555C41.0072 26.0321 41.1968 26.0204 41.3746 25.9971C41.5524 25.9738 41.7303 25.9504 41.9081 25.9271C41.9555 25.9154 42.0147 25.9154 42.0622 25.9037C42.1926 25.8804 42.3111 25.8687 42.4296 25.8454C42.4652 25.8454 42.4889 25.8337 42.5245 25.8337C42.5482 25.8337 42.56 25.822 42.5837 25.822C42.7734 25.787 42.9512 25.752 43.129 25.7169C43.1527 25.7169 43.1764 25.7053 43.2001 25.7053C43.3542 25.6703 43.5083 25.6352 43.6624 25.6002C43.7099 25.5885 43.7454 25.5769 43.7928 25.5652C43.9588 25.5185 44.1366 25.4835 44.3026 25.4368C44.3263 25.4368 44.3381 25.4251 44.3618 25.4251C44.5041 25.3784 44.6582 25.3434 44.8004 25.2967C44.8241 25.285 44.8478 25.285 44.8715 25.2734C44.8952 25.2617 44.919 25.25 44.9545 25.25C45.0019 25.2384 45.0612 25.215 45.1086 25.2033C45.1679 25.18 45.239 25.1566 45.2983 25.1333C45.3457 25.1216 45.3931 25.0983 45.4524 25.0749C45.5116 25.0516 45.5709 25.0282 45.642 25.0049C45.6895 24.9816 45.7369 24.9699 45.7843 24.9465C45.8436 24.9232 45.9028 24.8998 45.9621 24.8765C46.0095 24.8532 46.0569 24.8415 46.1043 24.8181C46.1636 24.7948 46.2229 24.7714 46.2822 24.7364C46.3296 24.7131 46.3651 24.7014 46.4125 24.6781C46.4718 24.6547 46.5311 24.6197 46.5904 24.5963C46.6259 24.573 46.6733 24.5613 46.7089 24.538C46.78 24.503 46.8393 24.4679 46.8986 24.4446C46.9341 24.4329 46.9578 24.4096 46.9934 24.3979C47.0882 24.3512 47.183 24.2928 47.266 24.2462C47.3371 24.2111 47.3964 24.1644 47.4675 24.1294C47.4675 24.1294 47.4794 24.1294 47.4794 24.1178C47.5387 24.0827 47.5979 24.0477 47.6453 24.0127C47.6691 24.001 47.6928 23.9894 47.7046 23.9777C47.7757 23.931 47.8587 23.8843 47.9298 23.8376C47.9417 23.8259 47.9654 23.8143 47.9773 23.8026C48.0365 23.7676 48.0958 23.7209 48.1432 23.6859C48.1669 23.6625 48.1906 23.6508 48.2143 23.6275C48.2618 23.5925 48.2973 23.5691 48.3447 23.5341C48.3684 23.5108 48.404 23.4991 48.4277 23.4757C48.4633 23.4407 48.5107 23.4174 48.5462 23.3824C48.57 23.359 48.6055 23.3357 48.6292 23.3123C48.6648 23.289 48.7003 23.254 48.7359 23.2306C48.7596 23.2073 48.7952 23.1839 48.8189 23.1606C48.8544 23.1372 48.89 23.1022 48.9256 23.0789C48.9493 23.0555 48.973 23.0322 49.0085 23.0088C49.0441 22.9855 49.0797 22.9505 49.1034 22.9271C49.1152 22.9154 49.1271 22.9038 49.1389 22.8921C49.1508 22.8804 49.1626 22.8688 49.1745 22.8688C49.2219 22.8221 49.2693 22.7754 49.3167 22.7403C49.3286 22.7287 49.3523 22.7053 49.3642 22.6937C49.4234 22.6353 49.4827 22.5769 49.542 22.5186C49.5538 22.5069 49.5657 22.4952 49.5775 22.4835C49.6249 22.4369 49.6605 22.3902 49.7079 22.3435C49.7198 22.3201 49.7435 22.3084 49.7553 22.2851C49.7909 22.2384 49.8265 22.1917 49.862 22.1567C49.8739 22.145 49.8857 22.1334 49.8976 22.1217C49.8976 22.11 49.9094 22.11 49.9094 22.0983C49.9331 22.0633 49.9569 22.0283 49.9806 22.0049C49.9924 21.9816 50.0161 21.9583 50.028 21.9349C50.0517 21.8999 50.0754 21.8649 50.0991 21.8299C50.111 21.8065 50.1347 21.7832 50.1465 21.7715C50.1702 21.7248 50.2058 21.6898 50.2295 21.6431C50.2414 21.6314 50.2532 21.6197 50.2532 21.5964C50.2888 21.538 50.3243 21.4797 50.3599 21.4213C50.3717 21.398 50.3836 21.3746 50.4073 21.3396C50.4192 21.3162 50.4429 21.2812 50.4547 21.2579C50.4666 21.2345 50.4784 21.1995 50.5021 21.1762C50.514 21.1528 50.5258 21.1178 50.5496 21.0945C50.5614 21.0711 50.5733 21.0361 50.5851 21.0127C50.597 20.9894 50.6088 20.9544 50.6207 20.931C50.6325 20.9077 50.6444 20.8727 50.6562 20.8493C50.6681 20.8143 50.6799 20.791 50.6918 20.7559C50.7037 20.7326 50.7155 20.7093 50.7155 20.6742C50.7274 20.6392 50.7392 20.6159 50.7511 20.5808C50.7629 20.5575 50.7748 20.5225 50.7748 20.4991C50.7866 20.4641 50.7985 20.4408 50.7985 20.4058C50.8103 20.3707 50.8103 20.3474 50.8222 20.3124C50.834 20.289 50.834 20.254 50.8459 20.2307C50.8578 20.1956 50.8578 20.1723 50.8696 20.1373C50.8815 20.1139 50.8815 20.0789 50.8933 20.0556C50.8933 20.0556 50.8933 20.0556 50.8933 20.0439C50.8933 20.0206 50.9052 19.9972 50.9052 19.9855C50.917 19.9505 50.917 19.9038 50.9289 19.8688C50.9289 19.8455 50.9407 19.8221 50.9407 19.7871C50.9407 19.7521 50.9526 19.7171 50.9526 19.682C50.9526 19.6587 50.9526 19.6237 50.9644 19.6003C50.9644 19.5653 50.9763 19.5303 50.9763 19.4953C50.9763 19.4719 50.9763 19.4369 50.9763 19.4136C50.9763 19.3785 50.9763 19.3435 50.9763 19.3085C50.9763 19.2968 50.9763 19.2852 50.9763 19.2735C50.9763 19.2268 50.9763 19.1918 50.9763 19.1451L51 12.0363C50.9881 12.0829 50.9763 12.1296 50.9763 12.188Z" fill="#C04D00" stroke="#2D2D2D" stroke-width="0.66" stroke-miterlimit="10" stroke-linecap="round" stroke-linejoin="round"/>
<path d="M35.483 21.573L35.4712 28.6818C35.4712 29.1254 35.4001 29.5573 35.2578 30.0009L35.2815 22.892C35.4119 22.4485 35.483 22.0049 35.483 21.573Z" fill="#FFC500" stroke="black" stroke-width="0.011" stroke-linecap="round"/>
<path d="M35.4828 21.573L35.4709 28.6817C35.4709 28.7167 35.4709 28.7517 35.4709 28.7867L35.4947 21.6781C35.4828 21.643 35.4828 21.608 35.4828 21.573Z" fill="#FFC500" stroke="#2D2D2D" stroke-width="0.66" stroke-miterlimit="10" stroke-linecap="round" stroke-linejoin="round"/>
<path d="M35.4829 21.6781L35.4592 28.7868C35.4474 29.0319 35.4236 29.2654 35.3762 29.5105L35.3999 22.4018C35.4474 22.1684 35.4829 21.9232 35.4829 21.6781Z" fill="#FFC500" stroke="#2D2D2D" stroke-width="0.66" stroke-miterlimit="10" stroke-linecap="round" stroke-linejoin="round"/>
<path d="M35.3999 22.4135L35.3762 29.5223C35.3406 29.6857 35.3051 29.8491 35.2458 30.0009L35.2695 22.892C35.3288 22.7286 35.3643 22.5652 35.3999 22.4135Z" fill="#FFC500" stroke="#2D2D2D" stroke-width="0.66" stroke-miterlimit="10" stroke-linecap="round" stroke-linejoin="round"/>
<path d="M35.483 21.573L35.4712 28.6818C35.4712 29.1254 35.4001 29.5573 35.2578 30.0009L35.2815 22.892C35.4119 22.4485 35.483 22.0049 35.483 21.573Z" stroke="#2D2D2D" stroke-width="0.66" stroke-miterlimit="10" stroke-linecap="round" stroke-linejoin="round"/>
<path d="M35.2699 22.892C34.7957 24.3977 33.6459 25.6701 31.8204 26.7089C28.7739 28.4482 25.0636 29.1486 20.654 28.7867C16.2443 28.4482 12.0481 27.1292 8.0533 24.8646C4.05854 22.6001 1.75888 20.2072 1.16618 17.7092C0.54978 15.2113 1.77073 13.0985 4.81718 11.3476C6.64268 10.3087 8.84751 9.64334 11.5028 9.36319C14.1225 9.08305 16.6948 9.25814 19.2078 9.86512C18.1291 8.55777 17.8802 7.2154 18.4492 5.84968C18.9945 4.48397 20.0376 3.36338 21.543 2.51127C24.4591 0.84206 28.0745 0.141693 32.3657 0.410167C36.6449 0.690314 40.6752 1.89261 44.4566 4.0404C48.238 6.1882 50.3599 8.48773 50.8815 10.939C51.3912 13.3903 50.1821 15.4681 47.266 17.1373C45.7606 18.0011 43.8047 18.5847 41.3983 18.8999C38.9801 19.215 36.6094 19.0749 34.3215 18.468C35.424 19.9154 35.744 21.3978 35.2699 22.892ZM20.0613 22.3783C21.8631 22.4017 23.3448 22.0982 24.4947 21.4445C25.6682 20.7675 26.2609 19.9271 26.2372 18.8999C26.2372 17.8727 25.4074 16.8921 23.7123 15.9233C22.0646 14.9895 20.3339 14.5109 18.5321 14.5109C16.7541 14.5109 15.2605 14.8494 14.0869 15.5148C12.9371 16.1684 12.3918 17.0089 12.4511 18.0477C12.5104 19.0866 13.3283 20.0438 14.9167 20.9426C16.5288 21.8647 18.2477 22.3433 20.0613 22.3783ZM33.0769 6.8302C31.5359 6.79518 30.2438 7.06366 29.2481 7.63562C28.1338 8.27763 27.5767 9.02468 27.5648 9.92348C27.553 10.8106 28.2405 11.6744 29.6393 12.5148C31.1091 13.3086 32.6264 13.7055 34.1556 13.7055C35.7085 13.7055 37.0479 13.3786 38.1978 12.725C39.1935 12.153 39.6677 11.4176 39.6084 10.5421C39.5491 9.64334 38.8379 8.81457 37.4628 8.04417C36.0996 7.26209 34.6416 6.86522 33.0769 6.8302Z" fill="#E4620A" stroke="#2D2D2D" stroke-width="0.66" stroke-miterlimit="10" stroke-linecap="round" stroke-linejoin="round"/>
<path d="M35.2697 22.8921C35.2341 22.9854 35.2104 23.0788 35.1748 23.1722C35.1393 23.2539 35.1156 23.3356 35.08 23.4173C35.0681 23.4407 35.0563 23.464 35.0563 23.4874C35.0207 23.5574 34.997 23.6158 34.9615 23.6858C34.9496 23.6975 34.9496 23.7208 34.9377 23.7325C34.9022 23.8142 34.8548 23.8842 34.8074 23.9659C34.7955 23.9893 34.7836 24.001 34.7718 24.0243C34.7362 24.0827 34.7007 24.141 34.6651 24.1994C34.6533 24.2227 34.6414 24.2461 34.6177 24.2694C34.5703 24.3395 34.511 24.4212 34.4636 24.4912C34.4043 24.5613 34.3569 24.6313 34.2976 24.713C34.2739 24.7363 34.2502 24.7714 34.2265 24.7947C34.1909 24.8414 34.1435 24.8881 34.0961 24.9348C34.0724 24.9581 34.0487 24.9931 34.025 25.0165C33.9776 25.0632 33.942 25.1099 33.8946 25.1566C33.8709 25.1799 33.8472 25.2149 33.8116 25.2383C33.7642 25.285 33.7049 25.3433 33.6457 25.39C33.622 25.4134 33.5983 25.425 33.5864 25.4484C33.5153 25.5184 33.4442 25.5768 33.3612 25.6468C33.3375 25.6585 33.3256 25.6818 33.3019 25.6935C33.2308 25.7519 33.1715 25.8102 33.1004 25.8569C33.0885 25.8686 33.0767 25.8803 33.053 25.8919C32.97 25.9503 32.887 26.0203 32.804 26.0787C32.7803 26.0904 32.7685 26.1137 32.7448 26.1254C32.6736 26.1838 32.5907 26.2305 32.5195 26.2888C32.5077 26.3005 32.484 26.3122 32.4721 26.3238C32.3773 26.3822 32.2825 26.4406 32.1876 26.4989C32.1639 26.5106 32.1402 26.5223 32.1165 26.5456C32.0217 26.604 31.9269 26.6623 31.8202 26.7207C31.6542 26.8141 31.4764 26.9075 31.2986 27.0009C31.263 27.0242 31.2275 27.0359 31.1919 27.0592C31.026 27.1409 30.8481 27.2343 30.6703 27.316C30.6348 27.3277 30.6111 27.3394 30.5755 27.3627C30.4096 27.4327 30.2436 27.5145 30.0776 27.5728C30.0539 27.5845 30.0302 27.5962 30.0065 27.6078C29.8287 27.6779 29.639 27.7479 29.4612 27.8179C29.4257 27.8296 29.3783 27.8413 29.3427 27.8646C29.153 27.9347 28.9752 27.993 28.7856 28.0514C28.75 28.0631 28.7026 28.0747 28.667 28.0864C28.5011 28.1331 28.347 28.1798 28.181 28.2265C28.1099 28.2498 28.0388 28.2615 27.9676 28.2849C27.8254 28.3199 27.695 28.3549 27.5528 28.3899C27.4816 28.4133 27.3987 28.4249 27.3275 28.4366C27.1853 28.4716 27.043 28.495 26.9008 28.53C26.8297 28.5417 26.7585 28.5533 26.6874 28.5767C26.4978 28.6117 26.2962 28.6467 26.0947 28.6701C26.0592 28.6701 26.0236 28.6817 25.988 28.6817C25.7747 28.7167 25.5732 28.7401 25.3598 28.7634C25.3242 28.7634 25.3005 28.7751 25.265 28.7751C25.1109 28.7868 24.9568 28.8101 24.7908 28.8218C24.6841 28.8335 24.5774 28.8451 24.4707 28.8451C24.3404 28.8568 24.1981 28.8568 24.0677 28.8685C23.961 28.8685 23.8543 28.8802 23.7358 28.8802C23.5936 28.8802 23.4395 28.8918 23.2972 28.8918C23.1905 28.8918 23.0957 28.8918 22.989 28.8918C22.823 28.8918 22.6689 28.8918 22.503 28.8918C22.4082 28.8918 22.3252 28.8918 22.2304 28.8918C22.0525 28.8918 21.8866 28.8802 21.7088 28.8685C21.6258 28.8685 21.531 28.8685 21.448 28.8568C21.1872 28.8451 20.9146 28.8218 20.6538 28.7985C20.5115 28.7868 20.3574 28.7751 20.2152 28.7634C20.0611 28.7518 19.907 28.7401 19.7529 28.7167C19.6225 28.7051 19.504 28.6817 19.3736 28.6701C19.2195 28.6467 19.0772 28.635 18.9231 28.6117C18.6979 28.5767 18.4727 28.5533 18.2474 28.5066C18.2119 28.495 18.1645 28.495 18.1289 28.4833C17.8918 28.4483 17.6547 28.4016 17.4177 28.3549C17.3821 28.3432 17.3465 28.3432 17.311 28.3315C17.0858 28.2849 16.8487 28.2382 16.6235 28.1915C16.5997 28.1915 16.576 28.1798 16.5523 28.1798C16.3153 28.1331 16.0782 28.0747 15.8529 28.0164C15.7937 28.0047 15.7463 27.993 15.687 27.9697C15.4499 27.9113 15.2128 27.853 14.9876 27.7829C14.9639 27.7829 14.9521 27.7713 14.9283 27.7596C14.7031 27.6895 14.4779 27.6312 14.2527 27.5611C14.1697 27.5378 14.0867 27.5028 14.0037 27.4794C13.8378 27.4327 13.6718 27.3744 13.5177 27.316C13.4229 27.281 13.3281 27.246 13.2332 27.2226C13.0791 27.1643 12.925 27.1176 12.7828 27.0592C12.688 27.0242 12.5931 26.9892 12.4864 26.9542C12.3086 26.8841 12.1308 26.8258 11.9649 26.7557C11.9175 26.7324 11.87 26.7207 11.8226 26.6974C11.5974 26.604 11.3722 26.5106 11.1469 26.4172C11.0995 26.3939 11.0403 26.3705 10.9928 26.3472C10.8032 26.2655 10.6254 26.1838 10.4357 26.1021C10.3764 26.0787 10.3172 26.0437 10.2698 26.0203C10.0445 25.9153 9.81931 25.8102 9.59409 25.6935C9.55852 25.6702 9.52296 25.6585 9.4874 25.6351C9.29774 25.5418 9.10807 25.4367 8.90656 25.3317C8.84729 25.2966 8.78802 25.2733 8.72875 25.2383C8.50352 25.1215 8.2783 24.9931 8.06493 24.8647C4.07016 22.6002 1.7705 20.2073 1.17781 17.7094C1.09483 17.3942 1.04741 17.079 1.03556 16.7755C1.02371 16.6705 1.02371 16.5771 1.02371 16.472L1 23.5807C1 23.9776 1.04741 24.3978 1.1541 24.8181C1.75865 27.3277 4.05831 29.7089 8.04122 31.9734C8.26645 32.1018 8.49167 32.2186 8.70504 32.347C8.76431 32.382 8.82358 32.417 8.88285 32.4404C9.07251 32.5454 9.26218 32.6388 9.46369 32.7438C9.49925 32.7672 9.53481 32.7789 9.57038 32.8022C9.7956 32.9189 10.0208 33.024 10.2461 33.129C10.3053 33.1524 10.3646 33.1874 10.412 33.2107C10.5898 33.2925 10.7795 33.3742 10.9691 33.4559C11.0166 33.4792 11.0758 33.5026 11.1232 33.5259C11.3485 33.6193 11.5737 33.7244 11.7989 33.8061C11.8463 33.8294 11.8937 33.8411 11.9412 33.8644C12.0478 33.9111 12.1545 33.9578 12.2731 33.9928C12.3323 34.0162 12.4035 34.0395 12.4746 34.0629C12.5694 34.0979 12.6642 34.1329 12.7709 34.1679C12.925 34.2263 13.0791 34.273 13.2214 34.3313C13.3162 34.3664 13.411 34.4014 13.5059 34.4247C13.6718 34.4831 13.8378 34.5298 13.9919 34.5881C14.0749 34.6115 14.1578 34.6465 14.2408 34.6698C14.466 34.7399 14.6913 34.8099 14.9165 34.8683C14.9402 34.88 14.9639 34.88 14.9758 34.8916C14.9758 34.8916 14.9758 34.8916 14.9876 34.8916C15.2247 34.9617 15.4499 35.02 15.687 35.0784C15.7463 35.0901 15.7937 35.1017 15.8529 35.1251C16.09 35.1834 16.3271 35.2418 16.5523 35.2885C16.576 35.2885 16.5997 35.3002 16.6235 35.3002C16.7657 35.3352 16.8961 35.3585 17.0383 35.3936C17.1213 35.4169 17.2161 35.4286 17.311 35.4402C17.3465 35.4519 17.3821 35.4519 17.4177 35.4636C17.6547 35.5103 17.8918 35.5453 18.1289 35.592C18.1645 35.6037 18.2119 35.6037 18.2474 35.6153C18.449 35.6504 18.6386 35.6737 18.8401 35.7087C18.8638 35.7087 18.8876 35.7204 18.9231 35.7204C19.0772 35.7437 19.2195 35.7554 19.3736 35.7788C19.504 35.7904 19.6225 35.8138 19.7529 35.8254C19.907 35.8371 20.0611 35.8605 20.2152 35.8721C20.3219 35.8838 20.4286 35.8955 20.5352 35.9072C20.5708 35.9072 20.6064 35.9188 20.6538 35.9188C20.9264 35.9422 21.1872 35.9538 21.448 35.9772C21.531 35.9772 21.6258 35.9889 21.7088 35.9889C21.8747 36.0005 22.0288 36.0005 22.1948 36.0122C22.2066 36.0122 22.2185 36.0122 22.2422 36.0122C22.337 36.0122 22.42 36.0122 22.5148 36.0122C22.6808 36.0122 22.8349 36.0122 23.0009 36.0122C23.1075 36.0122 23.2024 36.0122 23.2972 36.0122C23.4157 36.0122 23.5224 36.0122 23.641 36.0005C23.6765 36.0005 23.7121 36.0005 23.7477 36.0005C23.8543 36.0005 23.961 35.9889 24.0677 35.9889C24.21 35.9772 24.3403 35.9772 24.4826 35.9655C24.5893 35.9538 24.696 35.9538 24.8027 35.9422C24.8856 35.9305 24.9686 35.9305 25.0516 35.9188C25.1227 35.9072 25.1938 35.9072 25.265 35.8955C25.3005 35.8955 25.3242 35.8838 25.3598 35.8838C25.5732 35.8605 25.7865 35.8371 25.988 35.8021C26.0236 35.8021 26.0592 35.7904 26.0947 35.7904C26.2607 35.7671 26.4266 35.7437 26.5926 35.7087C26.6282 35.7087 26.6519 35.697 26.6874 35.697C26.7585 35.6854 26.8297 35.6737 26.9008 35.6504C27.043 35.627 27.1853 35.592 27.3275 35.557C27.3987 35.5453 27.4816 35.522 27.5528 35.5103C27.695 35.4753 27.8254 35.4402 27.9676 35.4052C28.0388 35.3819 28.1099 35.3702 28.181 35.3469C28.347 35.3002 28.5129 35.2535 28.667 35.2068C28.7026 35.1951 28.75 35.1834 28.7856 35.1718C28.7974 35.1718 28.7974 35.1718 28.8093 35.1601C28.9871 35.1017 29.1767 35.0434 29.3546 34.9733C29.3901 34.9617 29.4375 34.95 29.4731 34.9266C29.6628 34.8566 29.8406 34.7866 30.0184 34.7165C30.0421 34.7049 30.0658 34.6932 30.0895 34.6815C30.2554 34.6115 30.4214 34.5414 30.5874 34.4597C30.6229 34.4481 30.6466 34.4364 30.6822 34.413C30.86 34.3313 31.026 34.2496 31.2038 34.1562C31.2393 34.1329 31.2749 34.1212 31.3105 34.0979C31.4883 34.0045 31.6542 33.9111 31.832 33.8177C31.8913 33.7827 31.9506 33.7477 32.0217 33.7127C32.0572 33.6893 32.0928 33.666 32.1284 33.6426C32.1521 33.631 32.1758 33.6193 32.1995 33.5959C32.2943 33.5376 32.3892 33.4792 32.484 33.4209C32.4958 33.4092 32.5195 33.3975 32.5314 33.3858C32.6144 33.3391 32.6855 33.2808 32.7566 33.2224C32.7803 33.2108 32.7922 33.1874 32.8159 33.1757C32.8989 33.1174 32.9819 33.0473 33.0648 32.989C33.0767 32.9773 33.0885 32.9656 33.1122 32.9539C33.1834 32.8956 33.2545 32.8489 33.3138 32.7905C33.3375 32.7789 33.3493 32.7555 33.373 32.7438C33.4442 32.6855 33.5153 32.6271 33.5864 32.5571L33.5983 32.5454C33.622 32.5221 33.6457 32.5104 33.6575 32.487C33.7168 32.4403 33.7642 32.382 33.8235 32.3353C33.8472 32.3119 33.8709 32.2769 33.9065 32.2536C33.9539 32.2069 34.0013 32.1602 34.0368 32.1135C34.0606 32.0902 34.0843 32.0552 34.108 32.0318C34.1554 31.9851 34.1909 31.9384 34.2265 31.8917C34.2502 31.8684 34.2739 31.8334 34.2976 31.81C34.3095 31.7983 34.3213 31.7867 34.3332 31.775C34.3806 31.7166 34.428 31.6583 34.4754 31.5999C34.5347 31.5299 34.5821 31.4482 34.6295 31.3781C34.6414 31.3548 34.6533 31.3314 34.677 31.3081C34.7125 31.2497 34.7481 31.1914 34.7836 31.133C34.7955 31.1097 34.8074 31.098 34.8192 31.0746C34.8192 31.063 34.8311 31.0513 34.8311 31.0513C34.8666 30.9813 34.9022 30.9112 34.9377 30.8412C34.9496 30.8295 34.9496 30.8062 34.9615 30.7945C34.997 30.7245 35.0207 30.6661 35.0563 30.5961C35.0681 30.5727 35.08 30.5494 35.08 30.526C35.1156 30.4443 35.1511 30.3626 35.1748 30.2926C35.2104 30.1992 35.2459 30.1058 35.2697 30.0124V22.8921Z" fill="#C04D00" stroke="#2D2D2D" stroke-width="0.66" stroke-miterlimit="10" stroke-linecap="round" stroke-linejoin="round"/>
</svg>
