<svg width="52" height="33" viewBox="0 0 52 33" fill="none" xmlns="http://www.w3.org/2000/svg">
<path d="M40.6555 10.3018C40.6555 10.2565 40.6555 10.2111 40.6555 10.1658C40.6095 9.13428 39.8613 8.21611 38.4454 7.41129C38.3533 7.35461 38.2612 7.30927 38.1576 7.2526C38.1231 7.24126 38.0886 7.21859 38.0655 7.20726C37.9965 7.17325 37.9389 7.13924 37.8698 7.10524C37.8353 7.08257 37.7893 7.07123 37.7547 7.04856C37.6972 7.02589 37.6396 6.99188 37.5706 6.96921C37.5245 6.94654 37.49 6.9352 37.4439 6.91253C37.3864 6.88986 37.3288 6.86719 37.2713 6.84452C37.2482 6.83318 37.2367 6.83319 37.2137 6.82185C37.2022 6.81052 37.1792 6.81051 37.1562 6.79918C37.041 6.75384 36.9259 6.71983 36.8108 6.67449C36.7993 6.67449 36.7878 6.66315 36.7648 6.66315C36.6382 6.61781 36.5115 6.58381 36.3849 6.5498C36.3734 6.5498 36.3619 6.53846 36.3389 6.53846C36.3159 6.52713 36.2928 6.52713 36.2583 6.51579C36.1892 6.49312 36.1317 6.48179 36.0626 6.45911C36.0166 6.44778 35.9705 6.43645 35.9245 6.42511C35.8554 6.41377 35.7863 6.3911 35.7173 6.37977C35.6827 6.36843 35.6597 6.36843 35.6367 6.3571C35.6252 6.3571 35.6022 6.34576 35.5907 6.34576C35.5331 6.33442 35.4871 6.32309 35.4295 6.31176C35.3835 6.30042 35.3259 6.28908 35.2799 6.28908C35.2223 6.27775 35.1648 6.26641 35.1187 6.26641C35.0842 6.26641 35.0496 6.25508 35.0036 6.24374C34.9921 6.24374 34.9691 6.24374 34.9576 6.24374C34.9115 6.23241 34.854 6.23241 34.8079 6.22107C34.7504 6.20973 34.6928 6.20974 34.6468 6.1984C34.5892 6.1984 34.5432 6.18706 34.4856 6.18706C34.4511 6.18706 34.405 6.17573 34.3705 6.17573C34.359 6.17573 34.336 6.17573 34.3244 6.17573C34.2669 6.17573 34.2093 6.16439 34.1518 6.16439C34.0942 6.16439 34.0482 6.15306 33.9906 6.15306C33.9331 6.15306 33.8755 6.15306 33.818 6.14172C33.7834 6.14172 33.7374 6.14172 33.7029 6.14172C33.6683 6.14172 33.6338 6.14172 33.5993 6.14172C33.4957 6.14172 33.3921 6.14172 33.2885 6.14172C33.2539 6.14172 33.2194 6.14172 33.1849 6.14172C33.1388 6.14172 33.0813 6.14172 33.0352 6.14172C33.0237 6.14172 33.0007 6.14172 32.9892 6.14172C32.9201 6.14172 32.851 6.15306 32.7935 6.15306C32.7474 6.15306 32.7014 6.15306 32.6553 6.16439C32.5863 6.16439 32.5172 6.17573 32.4482 6.17573C32.4136 6.17573 32.3791 6.17573 32.3445 6.18706C32.333 6.18706 32.333 6.18706 32.3215 6.18706C32.2064 6.1984 32.0798 6.20973 31.9647 6.23241C31.9417 6.23241 31.9186 6.24374 31.8956 6.24374C31.8035 6.25508 31.7114 6.26641 31.6194 6.28908C31.6078 6.28908 31.5848 6.28908 31.5733 6.30042C31.5388 6.31175 31.5042 6.31176 31.4697 6.32309C31.4237 6.33443 31.3776 6.34576 31.3316 6.34576C31.274 6.3571 31.228 6.36843 31.1704 6.37977C31.1244 6.3911 31.0783 6.40244 31.0323 6.41377C30.9747 6.42511 30.9287 6.43644 30.8711 6.44778C30.8251 6.45911 30.779 6.47045 30.7445 6.48179C30.687 6.49312 30.6409 6.51579 30.5949 6.52713C30.5488 6.53846 30.5143 6.5498 30.4683 6.56113C30.4567 6.56113 30.4452 6.56113 30.4452 6.57247C30.4337 6.57247 30.4107 6.58381 30.3992 6.59514C30.2956 6.62915 30.192 6.66315 30.0999 6.69716C30.0654 6.7085 30.0423 6.71983 30.0078 6.73116C29.8927 6.77651 29.7776 6.82185 29.6625 6.86719C29.651 6.87853 29.6279 6.87853 29.6164 6.88986C29.5128 6.93521 29.4092 6.98055 29.3171 7.02589C29.2826 7.03722 29.2596 7.05989 29.2251 7.07123C29.11 7.12791 29.0063 7.18458 28.8912 7.2526C28.8567 7.27527 28.8222 7.29794 28.7761 7.32061C28.7531 7.33195 28.7416 7.34328 28.7186 7.35461C28.6725 7.38862 28.6265 7.41129 28.5804 7.4453C28.5459 7.46797 28.5114 7.49064 28.4768 7.51331C28.4308 7.54732 28.3848 7.56999 28.3502 7.604C28.3157 7.62667 28.2927 7.64934 28.2581 7.67201C28.2121 7.70602 28.1776 7.74002 28.1315 7.77403C28.1085 7.7967 28.074 7.81937 28.0509 7.8307C28.0049 7.86471 27.9588 7.91005 27.9243 7.94406C27.9128 7.95539 27.8898 7.96673 27.8783 7.9894C27.8783 7.9894 27.8783 7.9894 27.8668 8.00074C27.8552 8.01207 27.8552 8.01207 27.8437 8.02341C27.7977 8.06875 27.7632 8.10275 27.7171 8.1481C27.7056 8.15943 27.6941 8.17077 27.6826 8.1821C27.6365 8.22745 27.602 8.27279 27.556 8.31813C27.5445 8.32946 27.5444 8.32946 27.5329 8.3408C27.5099 8.36347 27.4984 8.38614 27.4754 8.40881C27.4639 8.42015 27.4639 8.43148 27.4524 8.44282C27.4293 8.47682 27.4063 8.51083 27.3833 8.5335C27.3603 8.55617 27.3488 8.57884 27.3257 8.61285C27.3027 8.64686 27.2797 8.68086 27.2682 8.71487C27.2567 8.73754 27.2452 8.74888 27.2337 8.76021C27.2337 8.77155 27.2221 8.78288 27.2221 8.78288C27.2106 8.80555 27.1876 8.83956 27.1761 8.86223C27.1646 8.8849 27.1416 8.91891 27.1301 8.94158C27.1185 8.96425 27.107 8.99826 27.0955 9.02093C27.084 9.0436 27.0725 9.05493 27.0725 9.0776C27.0725 9.08894 27.061 9.10028 27.061 9.10028C27.0495 9.12295 27.038 9.15695 27.038 9.17962C27.0265 9.21363 27.0149 9.2363 27.0149 9.27031C27.0034 9.29298 27.0034 9.32698 26.9919 9.34965C26.9919 9.37233 26.9804 9.38366 26.9804 9.40633C26.9804 9.41767 26.9804 9.429 26.9804 9.44034C26.9689 9.47435 26.9689 9.50835 26.9689 9.53102C26.9689 9.56503 26.9574 9.5877 26.9574 9.6217C26.9574 9.65571 26.9574 9.68972 26.9459 9.71239C26.9459 9.73506 26.9459 9.7464 26.9459 9.76907C26.9459 9.79174 26.9459 9.80307 26.9459 9.82574L26.9229 16.5137C26.9229 16.4683 26.9229 16.4343 26.9229 16.4003C26.9229 16.3663 26.9229 16.3323 26.9344 16.3096C26.9344 16.2756 26.9459 16.2529 26.9459 16.2189C26.9459 16.1849 26.9574 16.1509 26.9574 16.1283C26.9574 16.0942 26.9689 16.0716 26.9804 16.0376C26.9919 16.0149 26.9919 15.9809 27.0034 15.9582C27.0149 15.9242 27.0265 15.9015 27.0265 15.8675C27.038 15.8449 27.0495 15.8109 27.0495 15.7882C27.061 15.7542 27.0725 15.7315 27.084 15.6975C27.0955 15.6748 27.107 15.6408 27.1185 15.6182C27.1301 15.5842 27.1416 15.5615 27.1646 15.5275C27.1761 15.5048 27.1876 15.4708 27.2106 15.4481C27.2221 15.4255 27.2452 15.3914 27.2567 15.3688C27.2797 15.3348 27.2912 15.3008 27.3142 15.2668C27.3257 15.2441 27.3488 15.2214 27.3718 15.1874C27.3948 15.1534 27.4178 15.1194 27.4409 15.0967C27.4639 15.0627 27.4984 15.0287 27.5214 14.9947C27.5329 14.9834 27.5329 14.9834 27.5444 14.972C27.579 14.9267 27.625 14.8814 27.6711 14.836C27.6826 14.8247 27.6941 14.8133 27.7056 14.802C27.7401 14.7567 27.7862 14.7227 27.8322 14.6773C27.8437 14.666 27.8437 14.666 27.8552 14.6546C27.8783 14.6433 27.8898 14.6206 27.9128 14.6093C27.9588 14.5753 28.0049 14.53 28.0394 14.4959C28.0624 14.4733 28.0855 14.4506 28.12 14.4393C28.166 14.4053 28.2006 14.3713 28.2466 14.3373C28.2812 14.3146 28.3042 14.2919 28.3387 14.2692C28.3848 14.2352 28.4308 14.2126 28.4653 14.1786C28.4999 14.1559 28.5344 14.1332 28.5689 14.1105C28.615 14.0765 28.661 14.0539 28.7071 14.0199C28.7646 13.9859 28.8107 13.9518 28.8682 13.9178C28.9718 13.8612 29.0869 13.7932 29.202 13.7365C29.2366 13.7251 29.2596 13.7025 29.2941 13.6911C29.3977 13.6458 29.4898 13.5891 29.5934 13.5551C29.6049 13.5438 29.6279 13.5438 29.6395 13.5324C29.7546 13.4871 29.8697 13.4304 29.9848 13.3964C30.0193 13.3851 30.0423 13.3737 30.0769 13.3624C30.1805 13.3284 30.2726 13.2944 30.3762 13.2604C30.3992 13.249 30.4222 13.2377 30.4567 13.2377C30.5028 13.2264 30.5373 13.215 30.5834 13.2037C30.6294 13.1924 30.687 13.1697 30.733 13.1584C30.779 13.147 30.8251 13.1357 30.8596 13.1244C30.9057 13.113 30.9632 13.1017 31.0208 13.0904C31.0668 13.079 31.1129 13.0677 31.1589 13.0563C31.2165 13.045 31.2625 13.0337 31.3201 13.0223C31.3661 13.011 31.4122 12.9997 31.4582 12.9997C31.5042 12.9883 31.5618 12.977 31.6078 12.977C31.6999 12.9657 31.792 12.943 31.8841 12.9317C31.9071 12.9317 31.9301 12.9203 31.9532 12.9203C32.0683 12.909 32.1949 12.8863 32.31 12.875C32.3561 12.875 32.3906 12.8636 32.4366 12.8636C32.5057 12.8523 32.5748 12.8523 32.6438 12.8523C32.6899 12.8523 32.7359 12.8523 32.782 12.841C32.851 12.841 32.9086 12.8296 32.9777 12.8296C33.0467 12.8296 33.1158 12.8296 33.1733 12.8296C33.2079 12.8296 33.2424 12.8296 33.2769 12.8296C33.3805 12.8296 33.4841 12.8296 33.5877 12.8296C33.6568 12.8296 33.7374 12.8296 33.8065 12.841C33.864 12.841 33.9216 12.841 33.9791 12.8523C34.0367 12.8523 34.0942 12.8636 34.1403 12.8636C34.1978 12.8636 34.2554 12.875 34.3129 12.875C34.3705 12.875 34.428 12.8863 34.4856 12.8863C34.5432 12.8863 34.5892 12.8977 34.6468 12.8977C34.7043 12.909 34.7619 12.909 34.8079 12.9203C34.854 12.9317 34.9115 12.9317 34.9576 12.943C35.0151 12.9543 35.0612 12.9543 35.1187 12.9657C35.1763 12.977 35.2338 12.977 35.2799 12.9883C35.3259 12.9997 35.3835 13.011 35.4295 13.011C35.4871 13.0223 35.5331 13.0337 35.5907 13.045C35.6367 13.0563 35.6828 13.0677 35.7288 13.0677C35.7979 13.079 35.8669 13.1017 35.936 13.113C35.982 13.1244 36.0281 13.1357 36.0741 13.147C36.1432 13.1584 36.2007 13.181 36.2698 13.2037C36.3043 13.215 36.3504 13.2264 36.3849 13.2377C36.5115 13.2717 36.6382 13.3171 36.7648 13.3511C36.7763 13.3511 36.7878 13.3624 36.8108 13.3624C36.9259 13.3964 37.041 13.4418 37.1562 13.4871C37.1907 13.4984 37.2252 13.5098 37.2713 13.5324C37.3288 13.5551 37.3864 13.5778 37.4439 13.6004C37.49 13.6231 37.5245 13.6345 37.5706 13.6571C37.6281 13.6798 37.6857 13.7138 37.7547 13.7365C37.7893 13.7591 37.8353 13.7705 37.8698 13.7932C37.9389 13.8272 37.9965 13.8612 38.0655 13.8952C38.1001 13.9065 38.1346 13.9292 38.1576 13.9405C38.2497 13.9859 38.3533 14.0425 38.4454 14.0992C39.8613 14.904 40.6095 15.8222 40.6555 16.8537C40.6555 16.8991 40.6555 16.9444 40.6555 16.9897V10.3018Z" fill="#C04D00" stroke="#2D2D2D" stroke-width="0.66" stroke-miterlimit="10" stroke-linecap="round" stroke-linejoin="round"/>
<path d="M50.9923 11.1294L50.9694 17.8172C50.9694 17.8738 50.9694 17.9305 50.9694 17.9872L50.9923 11.2994C50.9923 11.2314 50.9923 11.1861 50.9923 11.1294Z" fill="#00406F" stroke="black" stroke-width="0.011" stroke-linecap="round"/>
<path d="M50.9924 11.2881L50.9694 17.9756C50.9694 18.0776 50.9579 18.191 50.9464 18.293L50.9694 11.6055C50.9809 11.5034 50.9924 11.4014 50.9924 11.2881Z" fill="#004273" stroke="black" stroke-width="0.011" stroke-linecap="round"/>
<path d="M31.7229 18.0892C31.6769 18.0892 31.6423 18.1005 31.5963 18.1005C31.4812 18.1118 31.3661 18.1232 31.251 18.1232C31.2164 18.1232 31.1819 18.1232 31.1473 18.1345C31.0092 18.1459 30.8711 18.1459 30.733 18.1572C30.7099 18.1572 30.6754 18.1572 30.6524 18.1572C30.5488 18.1572 30.4337 18.1572 30.3301 18.1685C30.2955 18.1685 30.2495 18.1685 30.215 18.1685C30.0998 18.1685 29.9847 18.1685 29.8581 18.1685C29.8351 18.1685 29.8236 18.1685 29.8006 18.1685C29.6624 18.1685 29.5243 18.1572 29.3977 18.1572C29.3631 18.1572 29.3286 18.1572 29.2826 18.1459C29.179 18.1345 29.0639 18.1345 28.9603 18.1232C28.9257 18.1232 28.8912 18.1232 28.8567 18.1118C28.707 18.1005 28.5689 18.0892 28.4192 18.0665C28.3847 18.0665 28.3617 18.0552 28.3271 18.0552C28.2005 18.0438 28.0739 18.0212 27.9473 18.0098C27.9128 18.0098 27.8782 17.9985 27.8437 17.9985C27.671 17.9758 27.5099 17.9532 27.3372 17.9191C27.3027 17.9191 27.2681 17.9078 27.2336 17.8965C27.0609 17.8625 26.8883 17.8398 26.7156 17.7945C26.612 17.7718 26.4969 17.7491 26.3933 17.7264C26.1746 17.6811 25.9674 17.6244 25.7487 17.5678C25.6796 17.5451 25.6105 17.5338 25.553 17.5111C25.4034 17.4657 25.2537 17.4317 25.1041 17.3864C25.058 17.3751 25.012 17.3524 24.9544 17.3411C24.7587 17.2844 24.563 17.2277 24.3789 17.1597C24.3674 17.1597 24.3443 17.1484 24.3328 17.1484C24.1602 17.0917 23.976 17.0237 23.8033 16.967C23.7573 16.9443 23.7112 16.933 23.6652 16.9103C23.5386 16.865 23.4119 16.8083 23.2968 16.763C23.2163 16.7289 23.1242 16.6949 23.0436 16.6609C22.9285 16.6156 22.8134 16.5589 22.6868 16.5022C22.6062 16.4682 22.5371 16.4342 22.4565 16.4002C22.3299 16.3436 22.2033 16.2755 22.0767 16.2189C22.0191 16.1849 21.95 16.1622 21.8925 16.1282C21.7083 16.0375 21.5241 15.9355 21.34 15.8335C18.1284 14.0085 16.4478 11.8888 16.3212 9.4744C16.3212 9.37239 16.3096 9.2817 16.3096 9.17969L16.2866 15.8675C16.2866 15.9695 16.2866 16.0602 16.2981 16.1622C16.4248 18.5766 18.1054 20.6963 21.3169 22.5212C21.5011 22.6233 21.6738 22.7253 21.8695 22.816C21.927 22.85 21.9961 22.8726 22.0536 22.9066C22.1803 22.9747 22.3069 23.0313 22.4335 23.088C22.5141 23.122 22.5832 23.156 22.6637 23.19C22.7788 23.2467 22.8939 23.2921 23.0206 23.3487C23.1011 23.3827 23.1932 23.4167 23.2738 23.4507C23.3544 23.4847 23.435 23.5188 23.5271 23.5528C23.5616 23.5641 23.6076 23.5868 23.6422 23.5981C23.6882 23.6208 23.7343 23.6321 23.7803 23.6548C23.953 23.7228 24.1256 23.7795 24.3098 23.8361C24.3213 23.8361 24.3443 23.8475 24.3558 23.8475C24.5515 23.9155 24.7357 23.9722 24.9314 24.0288C24.9774 24.0402 25.0235 24.0628 25.081 24.0742C25.1386 24.0855 25.1962 24.1082 25.2422 24.1195C25.3343 24.1422 25.4379 24.1762 25.53 24.1989C25.599 24.2215 25.6566 24.2329 25.7257 24.2555C25.9329 24.3122 26.1516 24.3576 26.3703 24.4142C26.4739 24.4369 26.5775 24.4596 26.6811 24.4822H26.6926C26.8653 24.5163 27.0379 24.5503 27.2106 24.5843C27.2451 24.5956 27.2796 24.5956 27.3142 24.6069C27.4868 24.6409 27.648 24.6636 27.8207 24.6863C27.8322 24.6863 27.8437 24.6863 27.8552 24.6863C27.8782 24.6863 27.9012 24.6863 27.9243 24.6976C28.0509 24.7203 28.1775 24.7316 28.3041 24.743C28.3387 24.743 28.3617 24.7543 28.3962 24.7543C28.5459 24.7656 28.684 24.7883 28.8336 24.7996C28.8451 24.7996 28.8567 24.7996 28.8682 24.7996C28.8912 24.7996 28.9142 24.7996 28.9372 24.7996C29.0408 24.811 29.1559 24.811 29.2595 24.8223C29.2941 24.8223 29.3286 24.8223 29.3747 24.8336C29.5128 24.845 29.6509 24.845 29.7775 24.845H29.7891C29.8006 24.845 29.8121 24.845 29.8351 24.845C29.9502 24.845 30.0653 24.845 30.1919 24.845C30.2265 24.845 30.2725 24.845 30.307 24.845C30.4106 24.845 30.5258 24.845 30.6294 24.8336C30.6524 24.8336 30.6639 24.8336 30.6869 24.8336C30.6984 24.8336 30.6984 24.8336 30.7099 24.8336C30.8481 24.8336 30.9862 24.8223 31.1243 24.811C31.1589 24.811 31.1934 24.811 31.2164 24.7996C31.3315 24.7883 31.4466 24.777 31.5618 24.777C31.5848 24.777 31.5963 24.777 31.6193 24.777C31.6423 24.777 31.6653 24.777 31.6884 24.7656L31.7229 18.0892Z" fill="#C04D00" stroke="#2D2D2D" stroke-width="0.66" stroke-miterlimit="10" stroke-linecap="round" stroke-linejoin="round"/>
<path d="M50.9233 18.6219C50.9348 18.5199 50.9463 18.4065 50.9578 18.3045L50.9808 11.6168C50.9693 11.7188 50.9578 11.8322 50.9463 11.9342C50.9463 11.9682 50.9348 12.0022 50.9348 12.0362C50.9233 12.1156 50.9118 12.1836 50.9003 12.2629C50.8887 12.3083 50.8772 12.3536 50.8772 12.3989C50.8657 12.4329 50.8657 12.467 50.8542 12.501C50.8427 12.5576 50.8312 12.6143 50.8082 12.671C50.7967 12.705 50.7967 12.739 50.7851 12.773C50.7621 12.8297 50.7506 12.8977 50.7276 12.9544C50.7161 12.977 50.7161 12.9997 50.7046 13.0337C50.67 13.1244 50.647 13.2037 50.6125 13.2944C50.601 13.3171 50.5895 13.3397 50.5779 13.3738C50.5549 13.4418 50.5319 13.4984 50.4974 13.5664C50.4859 13.6005 50.4628 13.6345 50.4513 13.6685C50.4283 13.7251 50.4053 13.7818 50.3707 13.8385C50.3477 13.8725 50.3362 13.9178 50.3132 13.9518C50.2902 14.0085 50.2556 14.0539 50.2326 14.1105C50.2096 14.1445 50.1866 14.1899 50.1635 14.2239C50.1405 14.2692 50.106 14.3259 50.083 14.3712C50.0484 14.4279 50.0139 14.4846 49.9794 14.5413C49.9564 14.5866 49.9333 14.6206 49.9103 14.6659C49.8758 14.7226 49.8297 14.7906 49.7952 14.8473C49.7722 14.8813 49.7492 14.9153 49.7261 14.9607C49.6801 15.0287 49.6225 15.0967 49.5765 15.1647C49.5535 15.1874 49.542 15.2214 49.5189 15.244C49.4499 15.3347 49.3693 15.4367 49.3002 15.5274C49.2312 15.6068 49.1736 15.6861 49.1045 15.7768C49.0815 15.7995 49.07 15.8221 49.047 15.8448C48.9894 15.9128 48.9319 15.9695 48.8743 16.0375C48.8513 16.0602 48.8398 16.0828 48.8168 16.0942C48.7477 16.1735 48.6671 16.2529 48.5865 16.3322C48.575 16.3435 48.552 16.3662 48.5405 16.3775C48.4714 16.4455 48.4139 16.5136 48.3448 16.5816C48.3218 16.6042 48.2988 16.6269 48.2757 16.6496C48.2067 16.7176 48.1261 16.7969 48.057 16.8649C48.0455 16.8763 48.034 16.8876 48.0225 16.899C47.9304 16.9783 47.8498 17.0576 47.7578 17.1483C47.7347 17.171 47.7117 17.1937 47.6887 17.205C47.6081 17.273 47.539 17.341 47.4585 17.409C47.4354 17.4204 47.4239 17.443 47.4009 17.4544C47.3088 17.5337 47.2167 17.6131 47.1131 17.6924C47.0901 17.7151 47.0671 17.7264 47.0441 17.7491C46.9635 17.8171 46.8829 17.8851 46.7908 17.9531C46.7678 17.9758 46.7448 17.9871 46.7218 18.0098C46.6182 18.0891 46.5146 18.1685 46.411 18.2478C46.3879 18.2592 46.3649 18.2818 46.3534 18.2932C46.2613 18.3612 46.1692 18.4292 46.0771 18.4972C46.0541 18.5199 46.0196 18.5425 45.9966 18.5539C45.8815 18.6332 45.7779 18.7126 45.6627 18.7919C45.6512 18.8032 45.6282 18.8146 45.6167 18.8259C45.5131 18.8939 45.4095 18.9619 45.3059 19.0413C45.2714 19.0639 45.2483 19.0866 45.2138 19.098C45.0987 19.1773 44.9721 19.2566 44.8455 19.336C44.8339 19.336 44.834 19.3473 44.8224 19.3473C44.7073 19.4267 44.5922 19.4947 44.4656 19.574C44.4311 19.5967 44.3965 19.6194 44.362 19.642C44.2354 19.7214 44.1203 19.8007 43.9936 19.8687C43.9821 19.8687 43.9821 19.8801 43.9706 19.8801C43.844 19.9594 43.7289 20.0274 43.6023 20.1068C43.4181 20.2088 43.2454 20.3221 43.0612 20.4241C42.8886 20.5262 42.7159 20.6168 42.5433 20.7189C42.4857 20.7529 42.4281 20.7869 42.3706 20.8095C42.2555 20.8776 42.1404 20.9342 42.0253 21.0022C41.9562 21.0362 41.8871 21.0702 41.8181 21.1156C41.7145 21.1723 41.5994 21.2289 41.4958 21.2856C41.4267 21.3196 41.3576 21.365 41.277 21.399C41.1734 21.4556 41.0699 21.501 40.9663 21.5577C40.8972 21.5917 40.8166 21.6257 40.7475 21.671C40.6439 21.7277 40.5403 21.773 40.4367 21.8184C40.3677 21.8524 40.2871 21.8864 40.218 21.9204C40.1144 21.9657 40.0108 22.0224 39.8957 22.0677C39.8267 22.1017 39.7576 22.1357 39.6885 22.1697C39.5734 22.2264 39.4583 22.2718 39.3432 22.3284C39.2856 22.3511 39.2166 22.3851 39.159 22.4078C39.0094 22.4758 38.8597 22.5325 38.7101 22.6005C38.6871 22.6118 38.6525 22.6231 38.6295 22.6345C38.4568 22.7138 38.2727 22.7818 38.1 22.8612C38.0424 22.8839 37.9964 22.9065 37.9388 22.9292C37.8122 22.9745 37.6856 23.0312 37.5705 23.0765C37.5014 23.0992 37.4324 23.1332 37.3633 23.1559C37.2482 23.2012 37.1446 23.2352 37.0295 23.2806C36.9604 23.3032 36.8798 23.3373 36.8108 23.3599C36.7072 23.3939 36.6036 23.4393 36.4885 23.4733C36.4194 23.4959 36.3388 23.53 36.2698 23.5526C36.1662 23.5866 36.0626 23.6206 35.959 23.666C35.8899 23.6886 35.8093 23.7226 35.7402 23.7453C35.6366 23.7793 35.5215 23.8133 35.4179 23.8473C35.3489 23.87 35.2683 23.8927 35.1992 23.9153C35.1071 23.9494 35.0151 23.972 34.9115 24.006C34.8194 24.04 34.7158 24.0627 34.6237 24.0967C34.5316 24.1194 34.4395 24.1534 34.3474 24.1761C34.2553 24.2101 34.1517 24.2327 34.0596 24.2554C33.9676 24.2781 33.8755 24.3121 33.7834 24.3347C33.6913 24.3574 33.5877 24.3914 33.4956 24.4141C33.4035 24.4368 33.3114 24.4594 33.2193 24.4821C33.1157 24.5048 33.0236 24.5274 32.92 24.5614C32.828 24.5841 32.7359 24.6068 32.6323 24.6295C32.5402 24.6521 32.4366 24.6748 32.333 24.6975C32.2409 24.7201 32.1488 24.7428 32.0452 24.7655C31.9416 24.7881 31.8495 24.8108 31.7459 24.8335C31.6538 24.8562 31.5617 24.8788 31.4581 24.8902C31.3545 24.9128 31.2625 24.9355 31.1589 24.9468C31.0668 24.9695 30.9632 24.9808 30.8711 25.0035C30.7675 25.0262 30.6754 25.0375 30.5718 25.0602C30.4912 25.0715 30.4106 25.0942 30.3186 25.1055C30.1804 25.1282 30.0423 25.1509 29.9042 25.1735C29.8236 25.1849 29.743 25.1962 29.6624 25.2075C29.5128 25.2302 29.3747 25.2529 29.225 25.2756C29.1559 25.2869 29.0869 25.2982 29.0063 25.3096C28.8106 25.3322 28.6264 25.3549 28.4308 25.3776C28.4077 25.3776 28.3847 25.3889 28.3617 25.3889C28.143 25.4116 27.9358 25.4342 27.7171 25.4569C27.6135 25.4682 27.5214 25.4796 27.4178 25.4796C27.3257 25.4909 27.2336 25.5023 27.13 25.5023C27.0264 25.5136 26.9343 25.5136 26.8307 25.5249C26.7386 25.5363 26.6465 25.5363 26.5429 25.5476C26.4393 25.5589 26.3473 25.5589 26.2437 25.5703C26.1516 25.5703 26.0595 25.5816 25.9559 25.5816C25.8523 25.5816 25.7487 25.5929 25.6566 25.5929C25.5645 25.5929 25.4724 25.6043 25.3688 25.6043C25.1846 25.6156 25.0005 25.6156 24.8163 25.6156C24.5746 25.6156 24.3443 25.6269 24.1026 25.6269C24.0335 25.6269 23.9645 25.6269 23.8954 25.6269C23.7227 25.6269 23.5386 25.6269 23.3659 25.6156C23.2853 25.6156 23.2163 25.6156 23.1357 25.6156C23.0666 25.6156 23.0091 25.6156 22.94 25.6043C22.8249 25.6043 22.7098 25.5929 22.5947 25.5929C22.5256 25.5929 22.4565 25.5816 22.399 25.5816C22.2839 25.5703 22.1572 25.5703 22.0421 25.5589C21.9846 25.5589 21.927 25.5476 21.858 25.5476C21.7083 25.5363 21.5472 25.5249 21.3975 25.5136C21.3745 25.5136 21.3515 25.5136 21.3169 25.5136C21.1328 25.5022 20.9601 25.4796 20.7874 25.4682C20.7299 25.4682 20.6838 25.4569 20.6263 25.4569C20.4997 25.4456 20.373 25.4342 20.2464 25.4116C20.1774 25.4002 20.1198 25.4002 20.0507 25.3889C19.9356 25.3776 19.8205 25.3662 19.7054 25.3436C19.6363 25.3322 19.5673 25.3209 19.4982 25.3209C19.3946 25.3096 19.2795 25.2869 19.1759 25.2756C19.0953 25.2642 19.0263 25.2529 18.9457 25.2415C18.8306 25.2302 18.727 25.2075 18.6119 25.1849C18.5428 25.1735 18.4737 25.1622 18.3931 25.1509C18.278 25.1282 18.1514 25.1055 18.0363 25.0829C17.9788 25.0715 17.9097 25.0602 17.8521 25.0489C17.691 25.0148 17.5298 24.9922 17.3802 24.9582C17.3572 24.9582 17.3341 24.9468 17.3226 24.9468C17.2881 24.9355 17.2536 24.9355 17.219 24.9242C17.0579 24.8902 16.9082 24.8562 16.7471 24.8221C16.678 24.8108 16.6089 24.7881 16.5399 24.7768C16.4133 24.7541 16.2981 24.7201 16.1715 24.6861C16.0909 24.6635 16.0104 24.6521 15.9413 24.6295C15.8262 24.6068 15.7111 24.5728 15.6075 24.5388C15.5269 24.5161 15.4463 24.4934 15.3657 24.4708C15.2621 24.4368 15.147 24.4141 15.0434 24.3801C14.9859 24.3687 14.9283 24.3461 14.8708 24.3347C14.6866 24.2781 14.4909 24.2214 14.3067 24.1647C14.2492 24.142 14.1801 24.1307 14.1226 24.108C13.8923 24.04 13.6621 23.9607 13.4319 23.8813C13.4089 23.87 13.3743 23.8587 13.3513 23.8587C13.1441 23.7907 12.9369 23.7226 12.7297 23.6433C12.6607 23.6206 12.6031 23.598 12.534 23.5753C12.3383 23.5073 12.1312 23.4279 11.9355 23.3486C11.9009 23.3373 11.8664 23.3259 11.8319 23.3146C11.6362 23.2352 11.4405 23.1559 11.2448 23.0765C11.2103 23.0652 11.1757 23.0425 11.1297 23.0312C10.9685 22.9632 10.8189 22.8952 10.6577 22.8385C10.5887 22.8045 10.5196 22.7818 10.4505 22.7478C10.3239 22.6912 10.1973 22.6345 10.0707 22.5778C9.9901 22.5438 9.92104 22.5098 9.84046 22.4758C9.72535 22.4191 9.61024 22.3624 9.48362 22.3171C9.40304 22.2831 9.32246 22.2378 9.2534 22.2037C9.13829 22.1471 9.02318 22.0904 8.90807 22.0337C8.82749 21.9997 8.75842 21.9544 8.67785 21.9204C8.56274 21.8637 8.44763 21.7957 8.321 21.739C8.25194 21.705 8.17136 21.6597 8.10229 21.6257C7.97567 21.5577 7.84905 21.4896 7.72243 21.4216C7.66488 21.3876 7.59581 21.3536 7.53826 21.3196C7.35408 21.2176 7.15839 21.1156 6.97422 21.0022C6.19147 20.5602 5.47778 20.1068 4.83317 19.6647C4.67201 19.5514 4.52237 19.438 4.36121 19.336C4.06193 19.1093 3.77415 18.8939 3.5094 18.6672C2.31225 17.6697 1.48346 16.6609 1.02302 15.6748L1 22.3624C1.81728 24.1307 3.80869 25.9103 6.95119 27.7012C7.13537 27.8033 7.33106 27.9166 7.51523 28.0186C7.57279 28.0526 7.64185 28.0866 7.69941 28.1206C7.82603 28.1887 7.95265 28.2567 8.07928 28.3247C8.14834 28.3587 8.22892 28.404 8.29798 28.438C8.41309 28.4947 8.5282 28.5627 8.65483 28.6194C8.7354 28.6534 8.80447 28.6987 8.88505 28.7327C9.00016 28.7894 9.11527 28.8461 9.23038 28.9028C9.31095 28.9368 9.39153 28.9821 9.4606 29.0161C9.57571 29.0728 9.69081 29.1295 9.81744 29.1748C9.89801 29.2088 9.96708 29.2428 10.0477 29.2768C10.1743 29.3335 10.3009 29.3902 10.4275 29.4468C10.4966 29.4809 10.5657 29.5035 10.6347 29.5375C10.7959 29.6055 10.9455 29.6735 11.1067 29.7302C11.1412 29.7416 11.1757 29.7642 11.2218 29.7756C11.4175 29.8549 11.6132 29.9343 11.8088 30.0136C11.8204 30.0136 11.8204 30.0249 11.8319 30.0249C11.8549 30.0363 11.8779 30.0476 11.9124 30.0476C12.1081 30.1269 12.3153 30.195 12.511 30.2743C12.5801 30.297 12.6376 30.3196 12.7067 30.3423C12.9139 30.4217 13.1211 30.4897 13.3283 30.5577C13.3513 30.569 13.3859 30.5803 13.4089 30.5803C13.6391 30.6597 13.8693 30.7277 14.0995 30.807C14.1571 30.8297 14.2262 30.8411 14.2837 30.8637C14.4679 30.9204 14.6636 30.9771 14.8478 31.0338C14.8823 31.0451 14.9168 31.0564 14.9629 31.0678C14.9859 31.0791 15.0089 31.0791 15.0204 31.0791C15.124 31.1131 15.2391 31.1358 15.3427 31.1698C15.4233 31.1924 15.5039 31.2151 15.5845 31.2378C15.6996 31.2718 15.8147 31.2945 15.9183 31.3285C15.9989 31.3511 16.0794 31.3625 16.1485 31.3851C16.2751 31.4191 16.3902 31.4418 16.5168 31.4758C16.5859 31.4871 16.655 31.5098 16.724 31.5212C16.8852 31.5552 17.0348 31.5892 17.196 31.6232C17.2305 31.6345 17.2651 31.6345 17.2996 31.6458C17.3226 31.6458 17.3456 31.6572 17.3572 31.6572C17.5183 31.6912 17.6795 31.7252 17.8291 31.7479C17.8867 31.7592 17.9557 31.7705 18.0133 31.7819C18.1284 31.8045 18.255 31.8272 18.3701 31.8499C18.4392 31.8612 18.5083 31.8725 18.5888 31.8839C18.7039 31.9065 18.8075 31.9179 18.9227 31.9406C19.0032 31.9519 19.0723 31.9632 19.1529 31.9746C19.2219 31.9859 19.2795 31.9972 19.3486 32.0086C19.3946 32.0199 19.4406 32.0199 19.4752 32.0312C19.5442 32.0426 19.6133 32.0539 19.6824 32.0539C19.7975 32.0652 19.9126 32.0879 20.0277 32.0992C20.0968 32.1106 20.1543 32.1106 20.2234 32.1219C20.35 32.1332 20.4766 32.1446 20.6033 32.1673C20.6608 32.1673 20.7069 32.1786 20.7644 32.1786C20.9371 32.1899 21.1097 32.2126 21.2939 32.2239H21.3054C21.3285 32.2239 21.3515 32.2239 21.386 32.2239C21.5357 32.2353 21.6968 32.2466 21.8464 32.2579C21.904 32.2579 21.9616 32.2693 22.0306 32.2693C22.1457 32.2806 22.2724 32.2806 22.3875 32.2919C22.4565 32.2919 22.5256 32.3033 22.5832 32.3033C22.6983 32.3033 22.8134 32.3146 22.9285 32.3146C22.9976 32.3146 23.0551 32.3146 23.1242 32.3259C23.1587 32.3259 23.1932 32.3259 23.2278 32.3259C23.2738 32.3259 23.3199 32.3259 23.3544 32.3259C23.5271 32.3259 23.7112 32.3373 23.8839 32.3373C23.953 32.3373 24.022 32.3373 24.0911 32.3373C24.3328 32.3373 24.563 32.3373 24.8048 32.3259C24.9774 32.3259 25.1386 32.3146 25.3113 32.3146C25.3228 32.3146 25.3343 32.3146 25.3573 32.3146C25.4494 32.3146 25.553 32.3033 25.6451 32.3033C25.7487 32.3033 25.8408 32.2919 25.9444 32.2919C26.0365 32.2919 26.1401 32.2806 26.2321 32.2806C26.3357 32.2693 26.4278 32.2693 26.5314 32.2579C26.6235 32.2466 26.7156 32.2466 26.8192 32.2353C26.9228 32.2239 27.0149 32.2239 27.1185 32.2126C27.2106 32.2013 27.3027 32.2013 27.4063 32.1899C27.4868 32.1786 27.5674 32.1786 27.6595 32.1673C27.671 32.1673 27.694 32.1673 27.7056 32.1673C27.9243 32.1446 28.143 32.1219 28.3502 32.0992C28.3732 32.0992 28.3962 32.0879 28.4192 32.0879C28.6149 32.0652 28.7991 32.0426 28.9948 32.0199C29.0639 32.0086 29.1329 31.9972 29.2135 31.9859C29.3631 31.9632 29.5013 31.9406 29.6509 31.9179C29.7315 31.9065 29.8121 31.8952 29.8927 31.8839C30.0308 31.8612 30.1689 31.8385 30.307 31.8159C30.3531 31.8045 30.3991 31.8045 30.4452 31.7932C30.4797 31.7819 30.5142 31.7819 30.5488 31.7705C30.6524 31.7479 30.7445 31.7365 30.8481 31.7139C30.9402 31.6912 31.0438 31.6798 31.1358 31.6572C31.2394 31.6345 31.3315 31.6232 31.4351 31.6005C31.5272 31.5778 31.6193 31.5665 31.7229 31.5438C31.8265 31.5212 31.9186 31.4985 32.0222 31.4758C32.1143 31.4531 32.2064 31.4305 32.31 31.4078C32.4136 31.3851 32.5056 31.3625 32.6092 31.3398C32.7013 31.3171 32.7934 31.2945 32.8855 31.2718C32.9891 31.2491 33.0812 31.2264 33.1848 31.1924C33.2769 31.1698 33.369 31.1471 33.4611 31.1244C33.5647 31.1018 33.6567 31.0678 33.7603 31.0451C33.8524 31.0224 33.9445 30.9884 34.0366 30.9657C34.1402 30.9431 34.2323 30.9091 34.3359 30.8751C34.428 30.8524 34.5201 30.8184 34.6122 30.7957C34.7043 30.7617 34.8079 30.739 34.8999 30.705C34.969 30.6824 35.0381 30.6597 35.1071 30.6484C35.1302 30.637 35.1647 30.6257 35.1877 30.6257C35.2568 30.603 35.3374 30.5803 35.4064 30.5577C35.51 30.5237 35.6251 30.4897 35.7287 30.4557C35.7978 30.433 35.8784 30.4103 35.9474 30.3763C36.051 30.3423 36.1546 30.3083 36.2582 30.263C36.3273 30.2403 36.4079 30.2063 36.477 30.1836C36.5806 30.1496 36.6842 30.1043 36.7993 30.0703C36.8683 30.0476 36.9489 30.0136 37.018 29.9909C37.1331 29.9456 37.2367 29.9116 37.3518 29.8662C37.4209 29.8436 37.4899 29.8096 37.559 29.7869C37.6856 29.7416 37.8122 29.6849 37.9273 29.6395C37.9849 29.6169 38.0309 29.5942 38.0885 29.5715C38.2612 29.5035 38.4453 29.4242 38.618 29.3448C38.641 29.3335 38.6756 29.3222 38.6986 29.3108C38.8482 29.2428 38.9979 29.1861 39.1475 29.1181C39.2051 29.0955 39.2741 29.0614 39.3317 29.0388C39.4468 28.9821 39.5619 28.9368 39.677 28.8801C39.7461 28.8461 39.8151 28.8121 39.8842 28.7781C39.9878 28.7327 40.0914 28.6761 40.2065 28.6307C40.2756 28.5967 40.3562 28.5627 40.4252 28.5287C40.5288 28.4834 40.6324 28.4267 40.736 28.3813C40.8051 28.3473 40.8857 28.3133 40.9547 28.268C41.0583 28.2113 41.1619 28.166 41.2655 28.1093C41.3346 28.0753 41.4037 28.0413 41.4842 27.996C41.5878 27.9393 41.703 27.8826 41.8066 27.8259C41.8756 27.7919 41.9447 27.7579 42.0138 27.7126C42.1289 27.6446 42.244 27.5879 42.3706 27.5199C42.4281 27.4859 42.4857 27.4632 42.5433 27.4292C42.7159 27.3272 42.8886 27.2365 43.0612 27.1345C43.2454 27.0325 43.4296 26.9191 43.6023 26.8171C43.6253 26.8058 43.6368 26.7944 43.6598 26.7831C43.7634 26.7151 43.867 26.6584 43.9706 26.5904C43.9821 26.5904 43.9821 26.5791 43.9936 26.5791C44.1203 26.4997 44.2469 26.4317 44.362 26.3524C44.3965 26.3297 44.4311 26.307 44.4656 26.2844C44.5807 26.205 44.7073 26.137 44.8224 26.0577C44.834 26.0463 44.8455 26.0463 44.8455 26.035C44.9721 25.9556 45.0872 25.8763 45.2138 25.797C45.2483 25.7743 45.2714 25.7516 45.3059 25.729C45.4095 25.6609 45.5131 25.5929 45.6052 25.5249C45.6282 25.5136 45.6397 25.5022 45.6627 25.4909C45.7779 25.4116 45.893 25.3322 45.9966 25.2529C46.0196 25.2302 46.0541 25.2075 46.0771 25.1962C46.1692 25.1282 46.2613 25.0602 46.3534 24.9922C46.3764 24.9808 46.3994 24.9582 46.411 24.9468C46.5146 24.8675 46.6182 24.7881 46.7218 24.7088C46.7448 24.6861 46.7678 24.6748 46.7908 24.6521C46.8714 24.5841 46.952 24.5161 47.0441 24.4481C47.0671 24.4254 47.0901 24.4141 47.1131 24.3914C47.2052 24.3121 47.3088 24.2327 47.4009 24.1534C47.4239 24.142 47.4354 24.1194 47.4585 24.108C47.539 24.04 47.6196 23.972 47.6887 23.904C47.7117 23.8813 47.7347 23.8587 47.7578 23.8473C47.7693 23.836 47.7923 23.8247 47.8038 23.802C47.8729 23.734 47.9534 23.666 48.0225 23.598C48.034 23.5866 48.0455 23.5753 48.057 23.564C48.1376 23.4959 48.2067 23.4166 48.2873 23.3486C48.3103 23.3259 48.3333 23.3032 48.3563 23.2806C48.4254 23.2126 48.4945 23.1446 48.552 23.0765C48.5635 23.0652 48.5865 23.0425 48.5981 23.0312C48.6786 22.9519 48.7477 22.8725 48.8283 22.7818C48.8513 22.7592 48.8628 22.7365 48.8858 22.7252C48.9434 22.6572 49.0009 22.6005 49.0585 22.5325C49.0815 22.5098 49.093 22.4871 49.1161 22.4645C49.1851 22.3851 49.2542 22.3058 49.3117 22.2264C49.3923 22.1357 49.4614 22.0337 49.5304 21.943C49.5535 21.9204 49.565 21.8864 49.588 21.8637C49.634 21.7957 49.6916 21.7277 49.7376 21.6597C49.7607 21.6257 49.7837 21.5917 49.8067 21.5463C49.8412 21.4896 49.8873 21.4216 49.9218 21.365C49.9448 21.3196 49.9679 21.2856 49.9909 21.2403C50.0254 21.1836 50.06 21.1269 50.0945 21.0702C50.106 21.0589 50.106 21.0476 50.1175 21.0249C50.1405 20.9909 50.152 20.9569 50.1751 20.9229C50.1981 20.8889 50.2211 20.8435 50.2441 20.8095C50.2672 20.7529 50.3017 20.7075 50.3247 20.6508C50.3477 20.6168 50.3592 20.5715 50.3823 20.5375C50.4053 20.4808 50.4283 20.4241 50.4628 20.3675C50.4743 20.3335 50.4974 20.2995 50.5089 20.2655C50.5319 20.1975 50.5664 20.1408 50.5895 20.0728C50.601 20.0501 50.6125 20.0274 50.624 19.9934C50.624 19.9934 50.624 19.9934 50.624 19.9821C50.6585 19.9027 50.6815 19.8121 50.7161 19.7327C50.7276 19.71 50.7276 19.6874 50.7391 19.6534C50.7621 19.5967 50.7736 19.5287 50.7967 19.472C50.8082 19.438 50.8197 19.404 50.8197 19.37C50.8312 19.3133 50.8542 19.2566 50.8657 19.2C50.8772 19.166 50.8772 19.132 50.8887 19.098C50.9003 19.0753 50.9003 19.0413 50.9118 19.0186C50.9118 18.9959 50.9233 18.9846 50.9233 18.9619C50.9348 18.8826 50.9463 18.8146 50.9578 18.7352C50.9118 18.6899 50.9118 18.6559 50.9233 18.6219Z" fill="#C04D00" stroke="#2D2D2D" stroke-width="0.66" stroke-miterlimit="10" stroke-linecap="round" stroke-linejoin="round"/>
<path d="M50.9808 11.6168C50.7506 14.5866 48.1146 17.5224 43.0612 20.4015C37.2136 23.7454 31.1473 25.4797 24.8508 25.6044C18.5658 25.7291 12.6146 24.1988 6.99721 21.0023C3.85471 19.2227 1.8633 17.4317 1.04602 15.6634L9.1728 12.977C9.99008 14.4392 11.475 15.7881 13.6506 17.0123C16.3902 18.5766 19.337 19.4947 22.5141 19.7781C25.7026 20.0728 28.753 19.4947 31.7229 18.0778C30.0653 18.2479 28.2926 18.1345 26.4278 17.7264C24.5515 17.307 22.8709 16.6836 21.3745 15.8335C18.1629 14.0085 16.4823 11.8888 16.3557 9.4744C16.2291 7.06 17.783 4.92898 21.0061 3.08134C24.3673 1.15435 28.3271 0.247534 32.874 0.360886C37.4208 0.474239 41.6224 1.61909 45.444 3.79545C49.3693 6.03983 51.211 8.63559 50.9808 11.6168ZM33.9675 13.9631C35.7863 13.9971 37.3748 13.6344 38.7101 12.8636C40.0569 12.0928 40.7015 11.1974 40.6439 10.1658C40.5979 9.13434 39.8497 8.21619 38.4338 7.41139C37.0064 6.59525 35.4064 6.18719 33.5877 6.15318C31.7804 6.13051 30.2034 6.49324 28.8681 7.26403C27.5214 8.03483 26.8883 8.93031 26.9343 9.96181C27.0034 10.9933 27.7286 11.9115 29.1559 12.7163C30.5372 13.5097 32.1603 13.9291 33.9675 13.9631Z" fill="#E4620A" stroke="#2D2D2D" stroke-width="0.66" stroke-miterlimit="10" stroke-linecap="round" stroke-linejoin="round"/>
</svg>
