<svg width="175" height="63" viewBox="0 0 175 63" fill="none" xmlns="http://www.w3.org/2000/svg">
<path d="M39.708 39.022H35.968L35.396 37.46C35.3667 37.3573 35.3007 37.306 35.198 37.306H28.554C28.466 37.306 28.4 37.3573 28.356 37.46L27.806 39.022H24.066L29.61 23.6H34.164L39.708 39.022ZM29.786 33.5C29.7567 33.5733 29.764 33.6393 29.808 33.698C29.852 33.7567 29.9107 33.786 29.984 33.786H33.79C33.9807 33.786 34.0467 33.6907 33.988 33.5L32.096 28.22C32.052 28.1173 31.9787 28.066 31.876 28.066C31.7733 28.066 31.7073 28.1173 31.678 28.22L29.786 33.5ZM53.0859 31.234C53.4672 31.6593 53.7532 32.136 53.9439 32.664C54.1492 33.192 54.2519 33.742 54.2519 34.314C54.2519 34.9593 54.1272 35.568 53.8779 36.14C53.6432 36.6973 53.3132 37.1887 52.8879 37.614C52.4626 38.0393 51.9639 38.3767 51.3919 38.626C50.8346 38.8607 50.2332 38.978 49.5879 38.978H41.3379V23.622H49.5879C50.2479 23.622 50.8639 23.7467 51.4359 23.996C52.0079 24.2307 52.5066 24.5753 52.9319 25.03C53.3132 25.4553 53.6066 25.9467 53.8119 26.504C54.0319 27.0613 54.1419 27.6553 54.1419 28.286C54.1419 29.4153 53.7899 30.398 53.0859 31.234ZM44.8359 29.342C44.8359 29.474 44.9092 29.54 45.0559 29.54H49.4559C49.7639 29.54 50.0352 29.4227 50.2699 29.188C50.5046 28.9387 50.6219 28.6453 50.6219 28.308C50.6366 27.9707 50.5266 27.692 50.2919 27.472C50.0572 27.2373 49.7786 27.12 49.4559 27.12H45.0559C44.9092 27.12 44.8359 27.186 44.8359 27.318V29.342ZM44.8359 35.282C44.8359 35.414 44.9092 35.48 45.0559 35.48H49.5659C49.8886 35.48 50.1672 35.37 50.4019 35.15C50.6366 34.9153 50.7539 34.6293 50.7539 34.292C50.7392 33.9547 50.6146 33.6687 50.3799 33.434C50.1599 33.1847 49.8959 33.06 49.5879 33.06H45.0559C44.9092 33.06 44.8359 33.126 44.8359 33.258V35.282ZM70.4937 23.6V27.12H65.6097C65.5071 27.12 65.4557 27.1713 65.4557 27.274V39.022H61.9357V27.274C61.9357 27.1713 61.8844 27.12 61.7817 27.12H56.8757V23.6H70.4937ZM84.5832 25.888C85.0085 26.6507 85.2579 27.472 85.3312 28.352C85.4045 29.2173 85.4412 30.134 85.4412 31.102V32.598H85.4192C85.3899 33.258 85.3165 33.896 85.1992 34.512C85.0965 35.128 84.8912 35.7147 84.5832 36.272C84.0405 37.2253 83.2632 37.9147 82.2512 38.34C81.3419 38.7653 80.1392 38.978 78.6432 38.978C77.1765 38.978 75.9739 38.7653 75.0352 38.34C74.0379 37.9 73.2679 37.2107 72.7252 36.272C72.2999 35.5093 72.0505 34.688 71.9772 33.808C71.9039 32.928 71.8672 32.0113 71.8672 31.058V29.562H71.8892C71.9185 28.902 71.9845 28.264 72.0872 27.648C72.1899 27.032 72.4025 26.4453 72.7252 25.888C73.2679 24.9493 74.0379 24.26 75.0352 23.82C75.9739 23.3947 77.1765 23.182 78.6432 23.182C80.1392 23.182 81.3419 23.3947 82.2512 23.82C83.2632 24.2453 84.0405 24.9347 84.5832 25.888ZM81.8772 31.102C81.8772 30.398 81.8625 29.738 81.8332 29.122C81.8039 28.4913 81.6865 28 81.4812 27.648C81.4519 27.5893 81.3932 27.516 81.3052 27.428C81.2319 27.3253 81.0925 27.23 80.8872 27.142C80.6819 27.0393 80.4032 26.9513 80.0512 26.878C79.6992 26.8047 79.2299 26.768 78.6432 26.768C78.0712 26.768 77.6019 26.8047 77.2352 26.878C76.8832 26.9513 76.6045 27.0393 76.3992 27.142C76.2085 27.23 76.0692 27.3253 75.9812 27.428C75.9079 27.516 75.8565 27.5893 75.8272 27.648C75.6219 28 75.5045 28.4767 75.4752 29.078C75.4459 29.6793 75.4312 30.3247 75.4312 31.014V31.058C75.4312 31.762 75.4459 32.4293 75.4752 33.06C75.5045 33.676 75.6219 34.16 75.8272 34.512C75.8565 34.556 75.9079 34.6293 75.9812 34.732C76.0692 34.8347 76.2085 34.9373 76.3992 35.04C76.6045 35.128 76.8832 35.2087 77.2352 35.282C77.6019 35.3553 78.0712 35.392 78.6432 35.392C79.2299 35.392 79.6992 35.3553 80.0512 35.282C80.4032 35.2087 80.6819 35.128 80.8872 35.04C81.0925 34.9373 81.2319 34.8347 81.3052 34.732C81.3932 34.6293 81.4519 34.556 81.4812 34.512C81.6865 34.16 81.8039 33.6833 81.8332 33.082C81.8625 32.4807 81.8772 31.828 81.8772 31.124V31.102ZM99.1453 23.666V27.164H91.0273V39H87.5293V23.666H99.1453ZM108.973 23.644C109.897 23.644 110.762 23.82 111.569 24.172C112.39 24.524 113.101 25.0007 113.703 25.602C114.319 26.2033 114.803 26.9147 115.155 27.736C115.507 28.5427 115.683 29.408 115.683 30.332C115.683 31.1533 115.521 31.96 115.199 32.752C114.876 33.544 114.429 34.2553 113.857 34.886C113.211 35.59 112.471 36.1253 111.635 36.492C110.799 36.8587 109.911 37.042 108.973 37.042H105.057V39.022H101.559V23.644H108.973ZM108.951 33.522C109.391 33.522 109.801 33.4413 110.183 33.28C110.579 33.1187 110.923 32.8987 111.217 32.62C111.51 32.3267 111.737 31.9893 111.899 31.608C112.075 31.212 112.163 30.794 112.163 30.354C112.163 29.914 112.075 29.5033 111.899 29.122C111.737 28.726 111.51 28.3813 111.217 28.088C110.938 27.7947 110.601 27.5673 110.205 27.406C109.823 27.23 109.413 27.142 108.973 27.142H105.299C105.137 27.142 105.057 27.2227 105.057 27.384V33.302C105.057 33.4487 105.137 33.522 105.299 33.522H108.951ZM129.341 23.688L128.923 24.854C128.923 24.8687 128.857 25.0593 128.725 25.426C128.593 25.778 128.424 26.24 128.219 26.812C128.028 27.384 127.808 28.0293 127.559 28.748C127.309 29.452 127.053 30.156 126.789 30.86C126.539 31.5493 126.297 32.2093 126.063 32.84C125.843 33.456 125.659 33.962 125.513 34.358C125.117 35.37 124.655 36.184 124.127 36.8C123.613 37.416 123.056 37.8853 122.455 38.208C121.853 38.5307 121.223 38.7433 120.563 38.846C119.903 38.9487 119.235 39 118.561 39H117.681V35.48H118.561C119.323 35.48 119.961 35.3627 120.475 35.128L116.383 23.688H120.101L122.851 31.388L125.623 23.688H129.341ZM141.96 31.212C142.341 31.6373 142.627 32.114 142.818 32.642C143.023 33.17 143.126 33.72 143.126 34.292C143.126 34.9373 143.001 35.546 142.752 36.118C142.517 36.69 142.187 37.1887 141.762 37.614C141.337 38.0393 140.838 38.3767 140.266 38.626C139.694 38.8607 139.085 38.978 138.44 38.978H131.422V35.458H138.44C138.777 35.458 139.056 35.348 139.276 35.128C139.496 34.8933 139.606 34.6147 139.606 34.292C139.606 33.9547 139.489 33.6613 139.254 33.412C139.034 33.1627 138.763 33.038 138.44 33.038H132.654V29.518H138.33C138.638 29.518 138.909 29.3933 139.144 29.144C139.379 28.8947 139.496 28.6013 139.496 28.264C139.496 27.9267 139.379 27.648 139.144 27.428C138.924 27.208 138.653 27.098 138.33 27.098H131.422V23.622H138.44C139.085 23.622 139.687 23.7467 140.244 23.996C140.801 24.2453 141.285 24.5827 141.696 25.008C142.107 25.4187 142.429 25.91 142.664 26.482C142.899 27.0393 143.016 27.6333 143.016 28.264C143.016 29.364 142.664 30.3467 141.96 31.212ZM145.344 39V35.48H149.128V39H145.344Z" fill="#ED5F00"/>
<path fill-rule="evenodd" clip-rule="evenodd" d="M4 4H152V0H4H0V4V40H4V4ZM23 59V63H171H175V59L175 23H171V59H23Z" fill="#ED5F00"/>
</svg>
