<svg width="617" height="581" viewBox="0 0 617 581" fill="none" xmlns="http://www.w3.org/2000/svg">
<path d="M178.889 553.379C187.034 568.438 205.924 574.19 221.08 566.227L589.339 372.754C604.495 364.791 610.179 346.128 602.033 331.069L437.893 27.6108C429.748 12.5517 410.858 6.79912 395.702 14.7619L27.4431 208.236C12.2867 216.199 6.60316 234.862 14.7486 249.921L178.889 553.379Z" fill="#4F4F4F"/>
<rect x="555.312" y="303.17" width="15.6675" height="68.8531" transform="rotate(58.773 555.312 303.17)" fill="#F2C94C"/>
<rect x="449.508" y="358.484" width="15.6675" height="68.8531" transform="rotate(58.773 449.508 358.484)" fill="#F2C94C"/>
<rect x="343.704" y="413.799" width="15.6675" height="68.8531" transform="rotate(58.773 343.704 413.799)" fill="#F2C94C"/>
<rect x="237.9" y="469.114" width="15.6675" height="68.8531" transform="rotate(58.773 237.9 469.114)" fill="#F2C94C"/>
<rect x="431.278" y="62.8969" width="15.6675" height="68.8531" transform="rotate(58.773 431.278 62.8969)" fill="#F2C94C"/>
<rect x="325.441" y="118.229" width="15.6675" height="68.8531" transform="rotate(58.773 325.441 118.229)" fill="#F2C94C"/>
<rect x="219.603" y="173.561" width="15.6675" height="68.8531" transform="rotate(58.773 219.603 173.561)" fill="#F2C94C"/>
<rect x="113.972" y="228.785" width="15.6675" height="68.8531" transform="rotate(58.773 113.972 228.785)" fill="#F2C94C"/>
<path d="M365.99 235.378L347.15 224.636L346.529 221.688L359.535 219.753L366.953 228.694L365.99 235.378Z" fill="#181616"/>
<path d="M343.663 225.065C354.828 218.726 363.796 223.873 363.796 236.496C363.796 249.142 354.828 264.547 343.663 270.814C332.615 277.152 323.582 272.054 323.582 259.4C323.582 246.754 332.615 231.421 343.663 225.065Z" fill="#2E2D2D"/>
<path d="M325.386 214.605C330.816 211.523 335.711 211.187 339.304 213.109H339.341L357.778 223.613C354.161 221.624 349.206 221.951 343.664 225.064C332.616 231.421 323.583 246.754 323.583 259.4C323.583 265.438 325.676 269.796 329.033 271.969L310.76 261.55C307.361 259.35 305.266 255.028 305.266 248.971C305.266 236.33 314.268 220.934 325.386 214.605Z" fill="#414042"/>
<path d="M342.843 224.594C348.278 221.49 353.224 221.181 356.824 223.062L357.778 223.613C354.16 221.624 349.205 221.951 343.664 225.065C332.616 231.421 323.583 246.754 323.583 259.4C323.583 265.438 325.675 269.797 329.032 271.969L328.279 271.485C328.279 271.485 322.8 268.381 322.8 258.934C322.8 246.311 331.752 230.883 342.843 224.594Z" fill="#4F5052"/>
<path d="M336.881 221.208C342.309 218.117 347.238 217.799 350.829 219.689L351.814 220.258C348.141 218.243 343.192 218.556 337.711 221.665C326.597 228.008 317.578 243.332 317.578 256.009C317.578 262.07 319.679 266.392 323.1 268.547H323.019L322.27 268.126C322.27 268.126 316.794 264.995 316.794 255.521C316.794 242.88 325.796 227.546 336.881 221.208Z" fill="#272626"/>
<path d="M330.732 217.677C336.117 214.564 341.01 214.246 344.64 216.141L345.605 216.692C342.022 214.721 337.036 214.994 331.526 218.157C320.429 224.491 311.463 239.819 311.463 252.487C311.463 258.579 313.512 262.857 316.894 265.043L316.096 264.546C316.096 264.546 310.581 261.455 310.581 251.994C310.581 239.353 319.59 223.958 330.732 217.677Z" fill="#272626"/>
<path d="M322.002 253.791L320.428 249.271L324.111 245.835L323.215 241.002L327.732 238.386L327.267 233.302L332.5 231.748L333.028 226.928L338.363 226.188L339.627 222.699L346.15 222.027L348.219 220.182C348.219 220.182 352.936 221.373 354.253 221.826C354.748 222.027 355.227 222.193 355.651 222.457L356.433 222.807C355.821 222.515 355.105 222.22 354.357 222.049C353.223 221.696 348.82 220.509 348.82 220.509L346.726 222.399L340.246 223.062L339.008 226.556L333.656 227.308L333.199 232.039L328.012 233.571L328.397 238.682L323.882 241.257L324.857 246.015L321.126 249.428L322.669 254.046L319.994 258.078L322.491 261.961L321.256 264.649L324.625 268.049L325.089 269.751L324.502 269.357L324.267 268.089L320.72 264.546L321.901 261.863L319.298 258.078L322.002 253.791Z" fill="#2E2D2D"/>
<path d="M315.537 250.087L313.969 245.58L317.66 242.154L316.773 237.32L321.281 234.682L320.797 229.598L326.03 228.057L326.555 223.228L331.907 222.516L333.173 218.995L339.715 218.274L341.717 216.482C341.717 216.482 346.517 217.678 347.814 218.157C348.278 218.274 348.738 218.524 349.206 218.726L350.027 219.187C349.332 218.825 348.61 218.524 347.938 218.354C346.808 218.005 342.376 216.845 342.376 216.845L340.247 218.704L333.815 219.376L332.579 222.807L327.188 223.644L326.807 228.334L321.547 229.862L321.965 235.058L317.426 237.553L318.392 242.328L314.679 245.724L316.17 250.288L313.526 254.396L316.085 258.289L314.828 260.981L318.181 264.358L318.669 266.011L318.013 265.702L317.814 264.43L314.267 260.878L315.472 258.163L312.827 254.369L315.537 250.087Z" fill="#2E2D2D"/>
<path d="M309.157 246.46L307.568 241.945L311.291 238.514L310.342 233.658L314.882 231.038L314.412 226.007L319.666 224.439L320.193 219.633L325.504 218.867L326.738 215.386L333.275 214.697L335.323 212.82C335.323 212.82 340.141 214.056 341.422 214.495C341.947 214.697 342.375 214.844 342.806 215.104V215.073L343.612 215.57C342.964 215.185 342.271 214.907 341.553 214.697C340.368 214.392 335.997 213.183 335.997 213.183L333.814 215.033L327.427 215.727L326.229 219.189L320.796 219.978L320.372 224.735L315.167 226.272L315.536 231.387L311.057 233.958L311.99 238.662L308.271 242.097L309.816 246.707L307.148 250.77L309.666 254.64L308.411 257.31L311.791 260.723L312.289 262.376L311.658 262.031L311.394 260.754L307.87 257.22L309.041 254.532L306.45 250.77L309.157 246.46Z" fill="#2E2D2D"/>
<path d="M343.664 231.713C351.58 227.247 357.95 230.871 357.95 239.821C357.95 248.816 351.58 259.732 343.664 264.216C335.827 268.655 329.449 265.045 329.449 256.063C329.449 247.131 335.827 236.215 343.664 231.713Z" fill="#1E1D1C"/>
<path d="M343.664 233.77C350.569 229.864 356.146 233.031 356.146 240.874C356.146 248.691 350.569 258.214 343.664 262.156C336.791 266.071 331.279 262.86 331.279 255.047C331.279 247.24 336.791 237.69 343.664 233.77Z" fill="#8D8D8D"/>
<path d="M348.094 245.438C348.094 248.237 346.096 251.579 343.663 252.968C341.255 254.37 339.302 253.254 339.302 250.477C339.302 247.695 341.255 244.322 343.663 242.916C346.096 241.567 348.094 242.705 348.094 245.438Z" fill="#686A6C"/>
<path d="M344.848 247.31C344.848 248.004 344.317 248.936 343.663 249.272C343.026 249.666 342.519 249.379 342.519 248.649C342.519 247.897 343.026 247.015 343.663 246.661C344.317 246.311 344.848 246.594 344.848 247.31Z" fill="#4F5052"/>
<path d="M342.096 245.8L342.336 245.894C342.667 246.042 342.667 246.66 342.336 247.193C342.022 247.721 341.483 248.004 341.181 247.86L340.965 247.574C341.256 247.574 341.628 247.283 341.891 246.835L342.096 245.8Z" fill="#484849"/>
<path d="M342.096 245.802L341.891 246.837C341.628 247.285 341.256 247.576 340.965 247.576L341.181 246.546C341.423 246.107 341.802 245.802 342.096 245.802Z" fill="#272626"/>
<path d="M342.125 250.255L342.377 250.291C342.732 250.519 342.732 251.097 342.377 251.657C342.022 252.199 341.517 252.49 341.233 252.261L341.01 251.997C341.313 251.997 341.658 251.701 341.948 251.28L342.125 250.255Z" fill="#484849"/>
<path d="M342.125 250.253L341.947 251.279C341.658 251.7 341.313 251.995 341.01 251.995L341.233 250.965C341.423 250.522 341.809 250.266 342.125 250.253Z" fill="#272626"/>
<path d="M346.03 247.982L346.274 248.004C346.618 248.237 346.618 248.815 346.274 249.379C345.968 249.917 345.437 250.212 345.12 250.006L344.932 249.72C345.228 249.72 345.604 249.429 345.835 249.003L346.03 247.982Z" fill="#484849"/>
<path d="M346.03 247.984L345.834 249.005C345.604 249.43 345.228 249.722 344.932 249.722L345.12 248.691C345.379 248.275 345.742 247.997 346.03 247.984Z" fill="#272626"/>
<path d="M346.029 243.553L346.23 243.58C346.561 243.754 346.561 244.413 346.23 244.932C345.927 245.438 345.437 245.774 345.098 245.582L344.902 245.304C345.201 245.304 345.559 245.017 345.794 244.574L346.029 243.553Z" fill="#484849"/>
<path d="M346.029 243.551L345.794 244.572C345.559 245.015 345.201 245.302 344.902 245.302L345.098 244.272C345.306 243.833 345.742 243.551 346.029 243.551Z" fill="#272626"/>
<path d="M346.727 232.456C347.216 232.317 347.662 232.25 348.034 232.183C347.687 234.768 345.927 237.608 343.664 238.835C342.072 239.762 340.729 239.588 339.923 238.548C340.668 238.768 341.607 238.66 342.6 238.074C344.5 236.972 346.098 234.768 346.727 232.456Z" fill="#4F5052"/>
<path d="M346.726 232.458C346.097 234.769 344.499 236.973 342.6 238.075C341.607 238.662 340.667 238.769 339.922 238.55C339.628 238.227 339.431 237.69 339.341 237.188C340.729 235.799 342.125 234.648 343.664 233.77C344.728 233.156 345.794 232.735 346.726 232.458Z" fill="#272626"/>
<path d="M338.419 258.214H338.537C340.142 258.863 340.596 261.125 339.715 263.652C337.42 264.104 335.418 263.589 333.946 262.299C335.237 263.034 336.828 263.217 338.629 262.922C339.303 260.982 339.181 259.208 338.419 258.214Z" fill="#4F5052"/>
<path d="M338.629 262.92C336.827 263.216 335.237 263.032 333.946 262.298L332.995 261.285C334.589 259.046 336.748 257.715 338.418 258.208C339.18 259.207 339.303 260.981 338.629 262.92Z" fill="#272626"/>
<path d="M334.457 244.816C335.914 245.269 336.588 247.087 335.997 249.564C335.286 252.261 333.327 254.796 331.279 255.656V255.047V254.263C332.896 253.094 334.316 250.998 334.868 248.771C335.324 247.087 335.116 245.672 334.457 244.816Z" fill="#4F5052"/>
<path d="M334.457 244.815C335.116 245.67 335.324 247.086 334.868 248.77C334.316 250.997 332.896 253.093 331.279 254.262C331.398 251.158 332.406 247.834 333.946 244.743L334.457 244.815Z" fill="#272626"/>
<path d="M354.356 249.222C352.822 252.967 350.435 256.532 347.575 259.206C347.321 258.79 347.238 258.337 347.149 257.773C349.527 255.372 351.538 252.344 353 249.141C353.461 249.016 353.932 249.083 354.356 249.222Z" fill="#4F5052"/>
<path d="M353 249.141C351.539 252.344 349.527 255.372 347.149 257.773C346.972 256.245 347.538 254.252 348.737 252.438C349.987 250.579 351.579 249.396 353 249.141Z" fill="#272626"/>
<path d="M355.038 240.093C355.038 237.396 354.416 235.268 353.249 233.803L353.451 233.57C355.106 235.058 356.147 237.526 356.147 240.872V241.472C354.357 242.767 352.644 242.812 351.753 241.625C352.644 241.893 353.827 241.611 355.038 240.747V240.093Z" fill="#4F5052"/>
<path d="M355.037 240.093V240.747C353.826 241.611 352.643 241.894 351.751 241.625L351.276 240.823C350.62 238.924 351.521 235.958 353.248 233.804C354.415 235.268 355.037 237.396 355.037 240.093Z" fill="#272626"/>
<path d="M361.443 219.779L342.539 209.069H342.534C338.207 206.027 331.926 206.144 325.042 210.068C312.871 216.997 302.586 233.679 301.612 248.04C301.573 248.555 301.751 248.913 302.036 249.07L321.915 260.394L324.577 249.72L330.619 237.056L340.285 226.005L350.75 220.182L361.443 219.779Z" fill="#BBBCBD"/>
<path d="M367.01 235.287C366.268 235.722 365.652 235.431 365.582 234.606C364.738 222.96 355.696 218.615 345.006 224.693C334.32 230.794 325.282 245.438 324.427 258.052C324.361 258.979 323.677 260.054 322.898 260.417C322.111 260.802 321.522 260.354 321.579 259.409C322.549 245.057 332.845 228.366 345.006 221.459C357.177 214.516 367.467 219.47 368.438 232.721C368.501 233.581 367.912 234.7 367.137 235.225L367.01 235.287Z" fill="#8F9295"/>
<path d="M399.852 188.446L488.188 258.455L496.25 253.859V234.203L407.91 183.868L399.852 188.446Z" fill="#181616"/>
<path d="M399.852 208.133L488.188 258.455V238.781L399.852 188.446V208.133Z" fill="#2C2B2D"/>
<path d="M201.418 333.063L269.837 372.079L285.604 356.244L469.492 250.314L480.115 234.636L411.697 195.615L201.406 315.427L201.418 333.063Z" fill="#4C4C54"/>
<path d="M269.837 372.079L480.115 252.285V234.636L269.823 354.448L269.837 372.079Z" fill="#100F0D"/>
<path d="M456.45 286.887L437.61 276.15L436.993 273.198L449.999 271.267L457.412 280.208L456.45 286.887Z" fill="#181616"/>
<path d="M434.124 276.58C445.291 270.242 454.257 275.397 454.257 288.016C454.257 300.657 445.291 316.057 434.124 322.333C423.081 328.667 414.045 323.57 414.045 310.92C414.045 298.265 423.081 282.936 434.124 276.58Z" fill="#2E2D2D"/>
<path d="M415.847 266.113C421.279 263.036 426.17 262.704 429.768 264.626H429.8L448.234 275.13C444.62 273.146 439.667 273.468 434.124 276.582C423.081 282.938 414.046 298.267 414.046 310.921C414.046 316.955 416.139 321.314 419.49 323.486L401.218 313.062C397.816 310.867 395.731 306.545 395.731 300.493C395.731 287.847 404.731 272.447 415.847 266.113Z" fill="#414042"/>
<path d="M433.303 276.111C438.741 273.007 443.685 272.698 447.29 274.575L448.234 275.13C444.62 273.146 439.667 273.468 434.124 276.582C423.082 282.938 414.046 298.267 414.046 310.921C414.046 316.955 416.139 321.314 419.491 323.486L418.742 323.002C418.742 323.002 413.261 319.898 413.261 310.446C413.261 297.828 422.213 282.4 433.303 276.111Z" fill="#4F5052"/>
<path d="M427.341 272.719C432.771 269.629 437.706 269.311 441.292 271.205L442.278 271.774C438.605 269.759 433.652 270.077 428.169 273.181C417.055 279.528 408.036 294.848 408.036 307.525C408.036 313.586 410.139 317.908 413.56 320.067H413.475L412.734 319.646C412.734 319.646 407.256 316.511 407.256 307.046C407.256 294.396 416.256 279.062 427.341 272.719Z" fill="#272626"/>
<path d="M421.19 269.19C426.576 266.086 431.468 265.759 435.1 267.654L436.067 268.205C432.485 266.238 427.496 266.511 421.987 269.674C410.889 276.012 401.921 291.345 401.921 304.004C401.921 310.096 403.975 314.374 407.353 316.56L406.556 316.059C406.556 316.059 401.04 312.968 401.04 303.516C401.04 290.871 410.048 275.479 421.19 269.19Z" fill="#272626"/>
<path d="M412.462 305.307L410.889 300.796L414.572 297.356L413.677 292.522L418.195 289.902L417.727 284.822L422.96 283.259L423.485 278.439L428.828 277.7L430.091 274.21L436.612 273.543L438.682 271.697C438.682 271.697 443.394 272.893 444.72 273.341C445.21 273.543 445.691 273.713 446.113 273.973L446.89 274.322C446.281 274.036 445.564 273.731 444.815 273.565C443.685 273.216 439.276 272.02 439.276 272.02L437.188 273.91L430.706 274.573L429.468 278.072L424.12 278.829L423.659 283.559L418.473 285.087L418.86 290.202L414.345 292.773L415.321 297.531L411.586 300.948L413.132 305.562L410.456 309.594L412.957 313.482L411.719 316.17L415.085 319.57L415.551 321.272L414.966 320.873L414.73 319.61L411.18 316.058L412.364 313.379L409.758 309.594L412.462 305.307Z" fill="#2E2D2D"/>
<path d="M405.998 301.602L404.427 297.092L408.121 293.66L407.236 288.84L411.744 286.198L411.256 281.118L416.489 279.572L417.016 274.739L422.371 274.036L423.633 270.511L430.178 269.794L432.176 268.002C432.176 268.002 436.979 269.189 438.273 269.673C438.741 269.794 439.199 270.04 439.667 270.242L440.489 270.708C439.794 270.345 439.068 270.04 438.396 269.874C437.265 269.525 432.839 268.36 432.839 268.36L430.706 270.215L424.278 270.891L423.04 274.323L417.649 275.16L417.271 279.855L412.003 281.382L412.43 286.574L407.885 289.069L408.853 293.844L405.138 297.244L406.629 301.804L403.987 305.912L406.545 309.804L405.289 312.497L408.64 315.87L409.128 317.531L408.472 317.213L408.277 315.946L404.73 312.394L405.933 309.683L403.29 305.885L405.998 301.602Z" fill="#2E2D2D"/>
<path d="M399.62 297.974L398.027 293.463L401.751 290.027L400.802 285.171L405.342 282.56L404.877 277.52L410.127 275.953L410.653 271.151L415.963 270.376L417.201 266.9L423.739 266.21L425.783 264.333C425.783 264.333 430.602 265.56 431.881 266.008C432.408 266.21 432.839 266.358 433.27 266.626V266.586L434.074 267.083C433.429 266.703 432.73 266.416 432.017 266.21C430.83 265.91 426.461 264.691 426.461 264.691L424.278 266.55L417.885 267.236L416.688 270.707L411.256 271.491L410.838 276.248L405.631 277.785L405.998 282.9L401.515 285.472L402.45 290.179L398.735 293.611L400.279 298.225L397.608 302.283L400.127 306.149L398.873 308.823L402.251 312.232L402.751 313.889L402.12 313.549L401.856 312.268L398.33 308.733L399.504 306.05L396.91 302.283L399.62 297.974Z" fill="#2E2D2D"/>
<path d="M434.125 283.227C442.042 278.765 448.416 282.384 448.416 291.343C448.416 300.334 442.042 311.246 434.125 315.734C426.291 320.173 419.909 316.558 419.909 307.577C419.909 298.64 426.291 287.728 434.125 283.227Z" fill="#1E1D1C"/>
<path d="M434.123 285.285C441.023 281.383 446.607 284.55 446.607 292.394C446.607 300.206 441.023 309.729 434.123 313.671C427.249 317.591 421.736 314.375 421.736 306.562C421.736 298.755 427.249 289.204 434.123 285.285Z" fill="#8D8D8D"/>
<path d="M438.554 296.953C438.554 299.743 436.557 303.094 434.123 304.487C431.717 305.885 429.767 304.769 429.767 301.992C429.767 299.21 431.717 295.837 434.123 294.44C436.557 293.082 438.554 294.211 438.554 296.953Z" fill="#686A6C"/>
<path d="M435.308 298.814C435.308 299.517 434.777 300.454 434.124 300.794C433.488 301.179 432.979 300.892 432.979 300.162C432.979 299.41 433.488 298.532 434.124 298.174C434.777 297.825 435.308 298.102 435.308 298.814Z" fill="#4F5052"/>
<path d="M432.563 297.314L432.799 297.412C433.126 297.551 433.126 298.174 432.799 298.711C432.486 299.235 431.945 299.517 431.641 299.378L431.423 299.083C431.718 299.083 432.091 298.801 432.349 298.348L432.563 297.314Z" fill="#484849"/>
<path d="M432.563 297.317L432.349 298.351C432.091 298.803 431.718 299.086 431.423 299.086L431.641 298.065C431.882 297.621 432.263 297.317 432.563 297.317Z" fill="#272626"/>
<path d="M432.585 301.772L432.839 301.804C433.194 302.037 433.194 302.614 432.839 303.165C432.485 303.712 431.977 304.003 431.691 303.774L431.469 303.514C431.773 303.514 432.122 303.219 432.408 302.798L432.585 301.772Z" fill="#484849"/>
<path d="M432.585 301.773L432.408 302.798C432.122 303.219 431.773 303.515 431.469 303.515L431.691 302.485C431.882 302.042 432.272 301.786 432.585 301.773Z" fill="#272626"/>
<path d="M436.489 299.501L436.734 299.519C437.075 299.743 437.075 300.334 436.734 300.894C436.43 301.436 435.904 301.723 435.577 301.521L435.395 301.234C435.695 301.234 436.067 300.948 436.294 300.522L436.489 299.501Z" fill="#484849"/>
<path d="M436.489 299.501L436.294 300.523C436.067 300.948 435.695 301.235 435.395 301.235L435.577 300.205C435.84 299.788 436.203 299.515 436.489 299.501Z" fill="#272626"/>
<path d="M436.49 295.069L436.689 295.096C437.021 295.266 437.021 295.925 436.689 296.449C436.39 296.95 435.904 297.286 435.559 297.089L435.364 296.816C435.663 296.816 436.017 296.534 436.258 296.091L436.49 295.069Z" fill="#484849"/>
<path d="M436.49 295.072L436.258 296.093C436.017 296.536 435.663 296.818 435.364 296.818L435.559 295.788C435.768 295.354 436.204 295.072 436.49 295.072Z" fill="#272626"/>
<path d="M437.188 283.972C437.673 283.833 438.123 283.766 438.49 283.698C438.145 286.288 436.389 289.119 434.123 290.355C432.53 291.282 431.186 291.099 430.386 290.059C431.123 290.288 432.067 290.18 433.061 289.589C434.959 288.483 436.557 286.288 437.188 283.972Z" fill="#4F5052"/>
<path d="M437.188 283.969C436.557 286.285 434.959 288.48 433.061 289.587C432.067 290.178 431.122 290.285 430.386 290.057C430.09 289.739 429.892 289.201 429.799 288.695C431.186 287.311 432.584 286.155 434.123 285.282C435.19 284.677 436.257 284.247 437.188 283.969Z" fill="#272626"/>
<path d="M428.88 309.727H428.997C430.602 310.381 431.056 312.638 430.179 315.165C427.882 315.617 425.883 315.106 424.406 313.812C425.695 314.547 427.287 314.735 429.093 314.435C429.769 312.495 429.641 310.721 428.88 309.727Z" fill="#4F5052"/>
<path d="M429.092 314.435C427.287 314.735 425.695 314.547 424.406 313.812L423.453 312.795C425.044 310.56 427.207 309.23 428.879 309.718C429.64 310.721 429.768 312.495 429.092 314.435Z" fill="#272626"/>
<path d="M424.919 296.335C426.373 296.783 427.052 298.606 426.46 301.079C425.749 303.776 423.789 306.307 421.736 307.167V306.562V305.778C423.357 304.609 424.773 302.513 425.33 300.286C425.783 298.606 425.579 297.186 424.919 296.335Z" fill="#4F5052"/>
<path d="M424.919 296.333C425.579 297.184 425.783 298.604 425.33 300.284C424.773 302.51 423.357 304.606 421.736 305.776C421.856 302.671 422.869 299.352 424.405 296.257L424.919 296.333Z" fill="#272626"/>
<path d="M444.814 300.734C443.284 304.488 440.896 308.049 438.036 310.723C437.778 310.307 437.705 309.859 437.61 309.294C439.988 306.884 442.004 303.865 443.457 300.658C443.92 300.532 444.397 300.604 444.814 300.734Z" fill="#4F5052"/>
<path d="M443.457 300.656C442.004 303.863 439.989 306.882 437.61 309.292C437.433 307.76 437.996 305.772 439.199 303.953C440.452 302.089 442.041 300.907 443.457 300.656Z" fill="#272626"/>
<path d="M445.5 291.606C445.5 288.914 444.873 286.777 443.711 285.317L443.911 285.084C445.563 286.571 446.608 289.035 446.608 292.39V292.991C444.814 294.281 443.107 294.321 442.213 293.143C443.107 293.407 444.288 293.12 445.5 292.26V291.606Z" fill="#4F5052"/>
<path d="M445.5 291.608V292.262C444.288 293.122 443.108 293.409 442.213 293.144L441.741 292.342C441.083 290.439 441.982 287.478 443.711 285.319C444.874 286.779 445.5 288.916 445.5 291.608Z" fill="#272626"/>
<path d="M451.906 271.288L433.003 260.582H432.994C428.669 257.545 422.39 257.657 415.504 261.581C403.337 268.515 393.048 285.196 392.071 299.553C392.032 300.068 392.211 300.431 392.5 300.592L412.378 311.907L415.037 301.233L421.083 288.569L430.744 277.519L441.215 271.695L451.906 271.288Z" fill="#BBBCBD"/>
<path d="M457.472 286.801C456.727 287.231 456.11 286.944 456.046 286.12C455.197 274.469 446.158 270.128 435.463 276.211C424.781 282.308 415.741 296.951 414.89 309.565C414.82 310.497 414.136 311.572 413.362 311.935C412.573 312.311 411.98 311.863 412.041 310.923C413.008 296.566 423.302 279.88 435.463 272.973C447.638 266.025 457.926 270.984 458.902 284.23C458.965 285.103 458.375 286.218 457.594 286.738L457.472 286.801Z" fill="#8F9295"/>
<path d="M189.572 308.246L185.35 305.827L185.346 285.056L189.304 284.527L189.57 287.47L192.296 299.225L189.572 308.246Z" fill="#F47415"/>
<path d="M189.568 287.468L195.003 282.76L400.133 166.232L407.903 163.092L407.909 183.863L189.57 308.24L189.568 287.468Z" fill="#2C2B2D"/>
<path d="M185.346 285.053L403.672 160.677L407.905 163.091L189.57 287.468L185.346 285.053Z" fill="#F7911C"/>
<path d="M189.555 297.15L189.572 308.245L277.908 358.572L283.547 351.391L277.894 347.476L210.933 302.167L189.555 297.15Z" fill="#F47415"/>
<path d="M277.894 347.476L293.681 342.204L480.951 234.755L496.25 223.086L407.91 172.755L189.557 297.149L277.894 347.476Z" fill="#4C4C54"/>
<path d="M277.909 358.572L496.251 234.204V223.086L277.895 347.476L277.909 358.572Z" fill="#B7541E"/>
<path d="M227.026 252.905L216.881 258.688L196.688 247.185L206.833 241.402L227.026 252.905Z" fill="#F7911C"/>
<path d="M216.881 304.575L196.688 293.076V247.184L216.881 258.687V304.575Z" fill="#F47415"/>
<path d="M232.121 295.898L216.881 304.575V258.687L227.026 252.904L232.121 295.898Z" fill="#B7541E"/>
<path d="M219.546 272.549L262.237 296.868L275.828 289.127L233.138 264.808L219.546 272.549Z" fill="#F7911C"/>
<path d="M219.546 306.098L262.237 330.422V296.866L219.546 272.547V306.098Z" fill="#F47415"/>
<path d="M262.237 330.422L275.828 322.672V289.126L262.237 296.866V330.422Z" fill="#B7541E"/>
<path d="M236.485 248.091H236.482C234.69 246.966 232.158 247.069 229.354 248.664C223.919 251.759 219.514 259.294 219.514 265.484C219.514 268.45 220.523 270.56 222.167 271.63L225.967 273.803L226.778 272.168C227.604 271.953 228.461 271.599 229.354 271.093C234.788 267.997 239.196 260.472 239.196 254.272C239.196 253.135 239.044 252.113 238.764 251.231L239.938 250.053L236.485 248.091Z" fill="#EF2C47"/>
<path d="M232.896 250.687C227.464 253.777 223.057 261.307 223.057 267.502C223.057 273.697 227.464 276.201 232.896 273.106C238.335 270.006 242.741 262.481 242.741 256.29C242.741 250.095 238.335 247.587 232.896 250.687Z" fill="#9A2120"/>
<path d="M239.722 252.967H239.718C238.272 252.062 236.229 252.143 233.964 253.433C229.579 255.937 226.025 262.007 226.025 267.001C226.025 269.398 226.837 271.1 228.169 271.964L228.167 271.969L257.763 288.816L258.419 287.486C259.082 287.315 259.777 287.029 260.495 286.621C264.884 284.126 268.436 278.047 268.436 273.048C268.436 272.13 268.316 271.306 268.089 270.598L269.034 269.64L239.722 252.967Z" fill="#2C2B2D"/>
<path d="M263.357 270.16C258.97 272.651 255.415 278.729 255.415 283.724C255.415 288.727 258.97 290.748 263.357 288.253C267.739 285.753 271.297 279.679 271.297 274.68C271.297 269.681 267.739 267.656 263.357 270.16Z" fill="#2C2B2D"/>
<path d="M267.636 265.791H267.632C265.838 264.667 263.31 264.765 260.502 266.369C255.065 269.46 250.66 276.994 250.66 283.185C250.66 286.15 251.672 288.265 253.316 289.331L253.315 289.335L257.115 291.503L257.93 289.864C258.748 289.653 259.61 289.299 260.502 288.793C265.937 285.693 270.347 278.163 270.347 271.973C270.347 270.826 270.193 269.809 269.913 268.931L271.087 267.753L267.636 265.791Z" fill="#EF2C47"/>
<path d="M264.048 268.386C258.611 271.486 254.201 279.012 254.201 285.211C254.201 291.397 258.611 293.91 264.048 290.815C269.48 287.715 273.888 280.185 273.888 273.995C273.888 267.799 269.48 265.291 264.048 268.386Z" fill="#9A2120"/>
<path d="M265.949 274.76C266.274 275.208 266.462 275.844 266.462 276.641C266.462 279.042 264.761 281.945 262.663 283.141C261.966 283.535 261.312 283.696 260.755 283.642C261.407 284.561 262.638 284.731 264.046 283.934C266.147 282.738 267.852 279.83 267.852 277.434C267.852 275.826 267.086 274.858 265.949 274.76Z" fill="#EF2C47"/>
<path d="M264.046 275.265C261.946 276.461 260.245 279.373 260.245 281.765C260.245 282.558 260.431 283.194 260.754 283.642C261.311 283.696 261.965 283.535 262.662 283.14C264.761 281.944 266.461 279.042 266.461 276.641C266.461 275.843 266.273 275.207 265.949 274.759C265.392 274.706 264.739 274.871 264.046 275.265Z" fill="#E41D26"/>
<path d="M295.179 291.732L285.029 297.511L264.839 286.012L274.99 280.234L295.179 291.732Z" fill="#F7911C"/>
<path d="M285.029 343.401L264.839 331.902V286.014L285.029 297.513V343.401Z" fill="#F47415"/>
<path d="M300.272 334.724L285.029 343.401V297.513L295.179 291.735L300.272 334.724Z" fill="#B7541E"/>
<path d="M282.132 360.987L277.908 358.572L277.905 337.801L281.866 337.268L282.129 340.215L284.862 351.965L282.132 360.987Z" fill="#F47415"/>
<path d="M282.129 340.215L287.571 335.503L492.696 218.978L500.463 215.834L500.472 236.61L282.132 360.987L282.129 340.215Z" fill="#B7541E"/>
<path d="M277.903 337.801L496.236 213.424L500.463 215.834L282.129 340.215L277.903 337.801Z" fill="#F7911C"/>
<path d="M283.346 180.491L283.391 256.342L287.391 254.062L287.35 178.202L283.346 180.491Z" fill="#17202E"/>
<path d="M325.773 307.6L273.421 277.682C273.724 276.432 273.889 275.186 273.889 273.995C273.889 270.806 272.72 268.593 270.846 267.621L267.636 265.793H267.633C267.462 265.686 267.283 265.591 267.099 265.506L283.39 256.229V256.341L287.391 254.061V253.954L412.668 182.641L478.859 220.47L325.773 307.6Z" fill="#353438"/>
<path d="M261.059 270.617L259.593 269.78L267.099 265.506C267.283 265.591 267.463 265.685 267.633 265.793H267.637L270.846 267.621C270.137 267.253 269.328 267.061 268.441 267.061C267.12 267.061 265.627 267.486 264.049 268.387C263.006 268.982 262.002 269.735 261.059 270.617Z" fill="#B22232"/>
<path d="M273.421 277.681L261.059 270.617C262.002 269.734 263.006 268.982 264.049 268.386C265.627 267.486 267.12 267.06 268.441 267.06C269.328 267.06 270.137 267.253 270.846 267.62C272.721 268.592 273.889 270.805 273.889 273.994C273.889 275.186 273.724 276.431 273.421 277.681Z" fill="#69191A"/>
<path d="M283.389 256.342V256.23L287.39 253.955V254.062L283.389 256.342Z" fill="#151921"/>
<path d="M313.641 198.869L308.671 196.034L307.968 195.962L307.32 196.28L308.006 196.365L311.355 199.962C311.909 200.567 312.29 201.338 312.338 201.642V203.752L312.052 204.388V204.406L314.358 203.277H314.377L314.624 202.664V200.558C314.624 199.936 314.188 199.174 313.641 198.869Z" fill="#2C2B2D"/>
<path d="M308.006 196.366C307.659 195.963 307.017 196.29 307.017 196.931V199.04C307.017 199.641 307.347 200.062 308.006 200.725L311.356 204.326C311.91 204.64 312.339 204.376 312.339 203.753V201.643C312.339 201.173 311.959 200.559 311.356 199.963L308.006 196.366Z" fill="#4C4C54"/>
<path d="M313.252 201.749C312.904 201.969 312.604 202.434 312.604 202.86L312.817 203.276L315.564 204.839L316.477 203.276L313.745 201.709L313.252 201.749Z" fill="#181616"/>
<path d="M315.982 203.308C315.636 203.509 315.357 204.015 315.357 204.423L315.982 204.79C316.343 204.575 316.632 204.096 316.632 203.679L315.982 203.308Z" fill="#717374"/>
<path d="M316.496 201.63L314.913 202.521L314.398 203.385V205.504L314.547 205.831L315.124 206.171L315.008 205.853V203.73L315.503 202.862L317.096 201.97L317.401 201.903L316.855 201.59L316.496 201.63Z" fill="#4C4C54"/>
<path d="M317.09 201.969L315.503 202.86L314.99 203.729V205.847L315.503 206.138L317.09 205.238L317.597 204.356V202.224L317.09 201.969Z" fill="#2C2B2D"/>
<path d="M352.626 250.464V263.562L365.41 270.85L367.295 264.091L365.41 257.725L352.626 250.464Z" fill="#181616"/>
<path d="M446.108 197.198V210.31L458.883 217.589L460.772 210.829L458.883 204.477L446.108 197.198Z" fill="#181616"/>
<path d="M444.983 211.133C438.06 215.079 432.426 224.692 432.426 232.612C432.426 240.54 438.06 243.73 444.983 239.77C451.942 235.823 457.581 226.201 457.581 218.286C457.581 210.367 451.942 207.168 444.983 211.133Z" fill="#2C2B2D"/>
<path d="M433.52 204.576C426.589 208.531 420.955 218.144 420.955 226.082C420.955 229.876 422.249 232.604 424.361 233.957L435.836 240.492V240.479C433.706 239.113 432.426 236.407 432.426 232.613C432.426 224.693 438.06 215.08 444.983 211.134C448.429 209.163 451.543 208.961 453.817 210.216L442.25 203.617C439.989 202.43 436.902 202.641 433.52 204.576Z" fill="#414042"/>
<path d="M444.479 210.825C437.533 214.78 431.904 224.389 431.904 232.313C431.904 238.248 435.327 240.192 435.327 240.192L435.835 240.492V240.479C433.706 239.113 432.426 236.407 432.426 232.613C432.426 224.693 438.06 215.08 444.983 211.134C448.429 209.163 451.543 208.961 453.817 210.216L453.209 209.866C450.957 208.657 447.879 208.89 444.479 210.825Z" fill="#4F5052"/>
<path d="M440.739 208.7C433.793 212.646 428.137 222.273 428.137 230.206C428.137 236.114 431.573 238.063 431.573 238.063L432.077 238.363C429.962 236.974 428.665 234.291 428.665 230.493C428.665 222.577 434.301 212.951 441.243 208.991C444.688 207.029 447.807 206.832 450.063 208.1L449.469 207.741C447.194 206.536 444.121 206.756 440.739 208.7Z" fill="#272626"/>
<path d="M436.857 206.49C429.912 210.45 424.28 220.063 424.28 227.973C424.28 233.922 427.709 235.857 427.709 235.857L428.206 236.148L428.218 236.135C426.095 234.782 424.794 232.077 424.794 228.269C424.794 220.354 430.445 210.741 437.374 206.795C440.816 204.841 443.93 204.622 446.209 205.872L445.596 205.54C443.321 204.34 440.248 204.564 436.857 206.49Z" fill="#272626"/>
<path d="M451.62 209.092C450.785 208.805 447.821 208.03 447.821 208.03L446.536 209.181L442.432 209.647L441.665 211.824L438.31 212.29L437.979 215.305L434.71 216.272L435.01 219.457L432.159 221.101L432.74 224.129L430.432 226.293L431.401 229.111L429.728 231.78L431.355 234.154L430.611 235.857L432.826 238.052L432.962 238.849L433.357 239.068L433.067 238.038L430.958 235.897L431.741 234.208L430.166 231.798L431.832 229.245L430.873 226.392L433.198 224.237L432.608 221.249L435.423 219.677L435.169 216.434L438.442 215.475L438.696 212.528L442.083 212.044L442.85 209.867L446.881 209.446L448.216 208.272C448.216 208.272 450.958 208.993 451.693 209.195C452.138 209.329 452.574 209.504 452.996 209.728L452.483 209.473L451.62 209.092Z" fill="#2C2B2D"/>
<path d="M447.59 206.771C446.768 206.489 443.767 205.736 443.767 205.736L442.487 206.896L438.392 207.326L437.62 209.503L434.261 209.987L433.952 212.993L430.67 213.974L430.973 217.145L428.121 218.776L428.701 221.808L426.375 223.954L427.364 226.807L425.681 229.482L427.318 231.842L426.575 233.544L428.797 235.744L428.93 236.55L429.327 236.765L429.01 235.717L426.929 233.594L427.692 231.905L426.114 229.491L427.788 226.928L426.83 224.066L429.146 221.916L428.568 218.95L431.383 217.356L431.119 214.126L434.401 213.167L434.656 210.233L438.047 209.727L438.805 207.564L442.841 207.12L444.176 205.969C444.176 205.969 446.927 206.672 447.658 206.896C448.102 207.031 448.529 207.205 448.947 207.434L448.448 207.156L447.59 206.771Z" fill="#2C2B2D"/>
<path d="M443.566 204.49C442.758 204.217 439.771 203.446 439.771 203.446L438.491 204.611L434.396 205.036L433.62 207.218L430.248 207.697L429.952 210.712L426.67 211.684L426.968 214.855L424.116 216.495L424.692 219.523L422.382 221.686L423.366 224.513L421.678 227.183L423.309 229.548L422.566 231.25L424.774 233.454L424.925 234.256L425.308 234.475L425.006 233.44L422.914 231.313L423.687 229.615L422.12 227.205L423.776 224.652L422.832 221.78L425.134 219.626L424.545 216.66L427.381 215.079L427.115 211.854L430.413 210.877L430.653 207.957L434.028 207.433L434.795 205.269L438.818 204.839L440.171 203.679C440.171 203.679 442.908 204.405 443.648 204.62C444.111 204.727 444.538 204.929 444.951 205.148L444.442 204.866L443.566 204.49Z" fill="#2C2B2D"/>
<path d="M444.982 215.291C440.07 218.087 436.084 224.918 436.084 230.531C436.084 236.148 440.07 238.419 444.982 235.619C449.926 232.815 453.921 225.979 453.921 220.353C453.921 214.758 449.926 212.474 444.982 215.291Z" fill="#181616"/>
<path d="M444.984 216.572C440.694 219.031 437.203 224.984 437.203 229.893C437.203 234.781 440.694 236.783 444.984 234.319C449.305 231.887 452.778 225.92 452.778 221.006C452.778 216.106 449.305 214.126 444.984 216.572Z" fill="#8D8D8D"/>
<path d="M444.983 222.31C443.467 223.166 442.241 225.294 442.241 227.018C442.241 228.747 443.467 229.464 444.983 228.59C446.508 227.717 447.752 225.603 447.752 223.9C447.752 222.149 446.508 221.437 444.983 222.31Z" fill="#686A6C"/>
<path d="M444.983 224.627C444.588 224.855 444.274 225.411 444.274 225.863C444.274 226.32 444.588 226.508 444.983 226.293C445.414 226.046 445.727 225.487 445.727 225.021C445.727 224.578 445.414 224.389 444.983 224.627Z" fill="#4F5052"/>
<path d="M443.998 224.105L443.866 224.764L443.285 225.194L443.417 225.377L444.139 224.965V224.141L443.998 224.105Z" fill="#484849"/>
<path d="M443.417 224.558L443.285 225.194L443.866 224.764L443.998 224.105L443.417 224.558Z" fill="#272626"/>
<path d="M444.029 226.888L443.906 227.546L443.312 227.971L443.452 228.16L444.165 227.765V226.928L444.029 226.888Z" fill="#484849"/>
<path d="M443.452 227.341L443.312 227.973L443.906 227.547L444.029 226.889L443.452 227.341Z" fill="#272626"/>
<path d="M446.486 225.468L446.35 226.104L445.769 226.548L445.9 226.736L446.618 226.319V225.504L446.486 225.468Z" fill="#484849"/>
<path d="M445.9 225.922L445.769 226.549L446.35 226.105L446.486 225.469L445.9 225.922Z" fill="#272626"/>
<path d="M446.45 222.673L446.314 223.327L445.746 223.783L445.878 223.954L446.6 223.537V222.718L446.45 222.673Z" fill="#484849"/>
<path d="M445.878 223.12L445.746 223.783L446.313 223.326L446.45 222.672L445.878 223.12Z" fill="#272626"/>
<path d="M444.307 219.256C443.681 219.628 443.09 219.709 442.632 219.565C443.109 220.201 443.98 220.313 444.983 219.736C446.35 218.952 447.503 217.192 447.734 215.584L446.895 215.75C446.5 217.174 445.506 218.585 444.307 219.256Z" fill="#4F5052"/>
<path d="M442.263 218.698L442.631 219.563C443.089 219.706 443.679 219.625 444.306 219.254C445.504 218.582 446.499 217.171 446.894 215.747C446.312 215.922 445.659 216.181 444.982 216.571C444.034 217.108 443.107 217.829 442.263 218.698Z" fill="#272626"/>
<path d="M441.769 231.886L441.697 231.873C442.164 232.487 442.232 233.593 441.828 234.793C440.707 235.004 439.704 234.883 438.886 234.435C439.808 235.232 441.061 235.545 442.514 235.277C443.059 233.691 442.777 232.263 441.769 231.886Z" fill="#4F5052"/>
<path d="M438.31 233.818L438.886 234.436C439.704 234.884 440.707 235.005 441.828 234.795C442.232 233.595 442.164 232.488 441.696 231.875C440.666 231.561 439.281 232.385 438.31 233.818Z" fill="#272626"/>
<path d="M439.227 223.48C439.627 224.027 439.758 224.905 439.482 225.962C439.137 227.342 438.242 228.663 437.244 229.402L437.203 229.895L437.221 230.276C438.492 229.707 439.745 228.148 440.172 226.428C440.553 224.918 440.122 223.736 439.227 223.48Z" fill="#4F5052"/>
<path d="M438.904 223.415C437.905 225.377 437.306 227.451 437.242 229.4C438.241 228.661 439.135 227.339 439.48 225.96C439.757 224.902 439.626 224.024 439.226 223.478L438.904 223.415Z" fill="#272626"/>
<path d="M450.807 226.202C449.926 228.195 448.66 230.095 447.162 231.609L447.425 232.5C449.209 230.82 450.721 228.589 451.67 226.224L450.807 226.202Z" fill="#4F5052"/>
<path d="M448.152 228.253C447.407 229.381 447.062 230.649 447.162 231.608C448.66 230.094 449.927 228.194 450.808 226.201C449.927 226.353 448.924 227.079 448.152 228.253Z" fill="#272626"/>
<path d="M450.976 216.57C451.693 217.516 452.106 218.855 452.106 220.535L452.097 220.911C451.348 221.466 450.59 221.65 450.027 221.467C450.59 222.219 451.684 222.192 452.778 221.413V221.005C452.778 218.904 452.156 217.354 451.094 216.44L450.976 216.57Z" fill="#4F5052"/>
<path d="M449.744 220.987L450.026 221.467C450.589 221.65 451.347 221.467 452.096 220.911L452.105 220.535C452.105 218.855 451.692 217.516 450.975 216.571C449.881 217.946 449.345 219.782 449.744 220.987Z" fill="#272626"/>
<path d="M382.933 146.115L337.83 171.805L311.615 204.066L266.904 237.747L264.784 251.526V260.059L273.256 257.968L408.062 181.158L416.536 173.592V150.245L389.762 159.531L382.933 146.115Z" fill="#BBBCBD"/>
<path d="M404.878 180.23L420.15 171.544V163.011L406.591 170.738L404.878 180.23Z" fill="#2C2B2D"/>
<path d="M265.3 248.111L269.799 245.539L270.701 238.475L266.419 240.916L265.3 248.111Z" fill="#D2C884"/>
<path d="M389.761 159.529L447.162 192.224L473.933 182.934L416.535 150.243L389.761 159.529Z" fill="white"/>
<path d="M351.563 264.336C344.632 268.309 338.998 277.922 338.998 285.842C338.998 293.743 344.632 296.969 351.563 292.991C358.514 289.058 364.146 279.418 364.146 271.507C364.146 263.592 358.514 260.398 351.563 264.336Z" fill="#2C2B2D"/>
<path d="M340.098 257.801C333.157 261.756 327.523 271.383 327.523 279.284C327.523 283.087 328.823 285.806 330.953 287.186L342.389 293.708V293.695C340.296 292.329 338.998 289.627 338.998 285.842C338.998 277.923 344.632 268.31 351.563 264.336C355.007 262.388 358.133 262.191 360.397 263.445L348.833 256.851C346.569 255.646 343.478 255.866 340.098 257.801Z" fill="#414042"/>
<path d="M351.052 264.041C344.105 268.001 338.466 277.613 338.466 285.547C338.466 291.464 341.903 293.417 341.903 293.417L342.389 293.708V293.695C340.296 292.328 338.998 289.627 338.998 285.842C338.998 277.923 344.632 268.31 351.562 264.336C355.006 262.388 358.132 262.191 360.397 263.445L359.782 263.082C357.523 261.882 354.447 262.115 351.052 264.041Z" fill="#4F5052"/>
<path d="M347.315 261.933C340.363 265.875 334.717 275.506 334.717 283.412C334.717 289.356 338.147 291.278 338.147 291.278L338.655 291.569C336.536 290.216 335.233 287.515 335.233 283.726C335.233 275.81 340.87 266.184 347.813 262.22C351.259 260.285 354.376 260.078 356.639 261.328L356.036 260.97C353.773 259.765 350.696 259.98 347.315 261.933Z" fill="#272626"/>
<path d="M343.435 259.704C336.487 263.655 330.859 273.29 330.859 281.201C330.859 287.137 334.278 289.067 334.278 289.067L334.772 289.381L334.79 289.367C332.673 288.001 331.363 285.3 331.363 281.497C331.363 273.582 337.019 263.969 343.957 259.995C347.399 258.042 350.5 257.85 352.772 259.095L352.156 258.759C349.906 257.572 346.822 257.769 343.435 259.704Z" fill="#272626"/>
<path d="M358.195 262.307C357.372 262.016 354.387 261.264 354.387 261.264L353.102 262.406L349 262.872L348.23 265.031L344.886 265.515L344.565 268.529L341.282 269.501L341.58 272.668L338.739 274.303L339.303 277.336L336.998 279.509L337.989 282.331L336.31 285.009L337.92 287.366L337.182 289.068L339.399 291.276L339.546 292.082L339.931 292.297L339.644 291.249L337.528 289.13L338.31 287.428L336.746 285.036L338.39 282.474L337.445 279.607L339.766 277.444L339.175 274.474L341.981 272.892L341.747 269.654L345.013 268.695L345.272 265.739L348.659 265.259L349.418 263.082L353.451 262.666L354.784 261.497C354.784 261.497 357.542 262.218 358.265 262.424C358.714 262.563 359.154 262.733 359.569 262.957L359.073 262.684L358.195 262.307Z" fill="#2C2B2D"/>
<path d="M354.16 259.997C353.343 259.72 350.336 258.967 350.336 258.967L349.062 260.109L344.967 260.557L344.194 262.734L340.838 263.214L340.527 266.21L337.236 267.196L337.544 270.367L334.709 272.007L335.278 275.039L332.944 277.203L333.941 280.034L332.261 282.681L333.884 285.064L333.141 286.767L335.37 288.962L335.503 289.768L335.895 290.001L335.6 288.944L333.492 286.829L334.265 285.127L332.68 282.717L334.368 280.155L333.404 277.288L335.737 275.147L335.136 272.177L337.956 270.582L337.706 267.357L340.971 266.394L341.226 263.447L344.613 262.94L345.375 260.768L349.406 260.333L350.756 259.178C350.756 259.178 353.501 259.921 354.217 260.118C354.669 260.248 355.118 260.436 355.526 260.647L355.022 260.387L354.16 259.997Z" fill="#2C2B2D"/>
<path d="M350.135 257.726C349.33 257.453 346.344 256.673 346.344 256.673L345.059 257.816L340.966 258.268L340.191 260.459L336.843 260.924L336.518 263.939L333.239 264.929L333.535 268.078L330.687 269.727L331.265 272.746L328.957 274.909L329.951 277.74L328.247 280.419L329.877 282.78L329.139 284.482L331.352 286.672L331.501 287.501L331.891 287.707L331.595 286.663L329.483 284.549L330.258 282.851L328.69 280.433L330.364 277.879L329.401 275.012L331.718 272.858L331.125 269.892L333.948 268.311L333.704 265.086L336.981 264.109L337.229 261.171L340.611 260.656L341.366 258.479L345.406 258.062L346.74 256.906C346.74 256.906 349.492 257.637 350.21 257.852C350.678 257.968 351.111 258.138 351.531 258.38L351.029 258.098L350.135 257.726Z" fill="#2C2B2D"/>
<path d="M351.563 268.515C346.644 271.31 342.636 278.128 342.636 283.759C342.636 289.38 346.644 291.647 351.563 288.838C356.501 286.03 360.504 279.208 360.504 273.581C360.504 267.987 356.501 265.698 351.563 268.515Z" fill="#181616"/>
<path d="M351.563 269.793C347.272 272.239 343.781 278.201 343.781 283.124C343.781 288.002 347.272 290.009 351.563 287.536C355.874 285.113 359.369 279.133 359.369 274.237C359.369 269.327 355.874 267.338 351.563 269.793Z" fill="#8D8D8D"/>
<path d="M351.562 275.528C350.037 276.414 348.82 278.511 348.82 280.244C348.82 281.974 350.037 282.681 351.562 281.808C353.094 280.961 354.339 278.851 354.339 277.1C354.339 275.384 353.094 274.663 351.562 275.528Z" fill="#686A6C"/>
<path d="M351.562 277.85C351.173 278.074 350.844 278.638 350.844 279.09C350.844 279.547 351.173 279.726 351.562 279.507C351.973 279.265 352.314 278.728 352.314 278.266C352.314 277.801 351.973 277.613 351.562 277.85Z" fill="#4F5052"/>
<path d="M350.571 277.327L350.449 277.971L349.854 278.419L349.987 278.603L350.714 278.2V277.371L350.571 277.327Z" fill="#484849"/>
<path d="M349.987 277.788L349.854 278.419L350.448 277.971L350.571 277.326L349.987 277.788Z" fill="#272626"/>
<path d="M350.597 280.103L350.467 280.775L349.886 281.2L350.022 281.389L350.741 280.981V280.152L350.597 280.103Z" fill="#484849"/>
<path d="M350.022 280.57L349.886 281.202L350.467 280.776L350.597 280.104L350.022 280.57Z" fill="#272626"/>
<path d="M353.055 278.693L352.922 279.329L352.34 279.777L352.468 279.951L353.195 279.548V278.729L353.055 278.693Z" fill="#484849"/>
<path d="M352.468 279.132L352.34 279.777L352.922 279.33L353.055 278.694L352.468 279.132Z" fill="#272626"/>
<path d="M353.021 275.899L352.888 276.548L352.315 277L352.45 277.202L353.172 276.772V275.952L353.021 275.899Z" fill="#484849"/>
<path d="M352.45 276.345L352.315 276.999L352.888 276.546L353.021 275.897L352.45 276.345Z" fill="#272626"/>
<path d="M350.888 272.485C350.251 272.838 349.675 272.933 349.214 272.794C349.694 273.43 350.565 273.533 351.562 272.968C352.938 272.176 354.079 270.411 354.306 268.812L353.475 268.978C353.089 270.402 352.075 271.808 350.888 272.485Z" fill="#4F5052"/>
<path d="M348.833 271.911L349.215 272.793C349.676 272.932 350.252 272.838 350.889 272.484C352.075 271.808 353.09 270.402 353.476 268.978C352.871 269.152 352.231 269.412 351.563 269.793C350.616 270.344 349.695 271.065 348.833 271.911Z" fill="#272626"/>
<path d="M348.339 285.113L348.257 285.086C348.745 285.713 348.8 286.828 348.401 288.015C347.284 288.239 346.271 288.1 345.457 287.653C346.386 288.454 347.631 288.777 349.082 288.512C349.624 286.905 349.346 285.476 348.339 285.113Z" fill="#4F5052"/>
<path d="M344.878 287.03L345.456 287.653C346.27 288.1 347.283 288.239 348.4 288.015C348.799 286.829 348.745 285.713 348.256 285.086C347.239 284.786 345.85 285.61 344.878 287.03Z" fill="#272626"/>
<path d="M345.793 276.705C346.213 277.238 346.328 278.129 346.05 279.177C345.702 280.584 344.81 281.883 343.791 282.627L343.781 283.124L343.791 283.505C345.076 282.936 346.314 281.359 346.74 279.679C347.122 278.129 346.695 276.965 345.793 276.705Z" fill="#4F5052"/>
<path d="M345.472 276.636C344.498 278.589 343.878 280.672 343.789 282.625C344.809 281.882 345.701 280.583 346.048 279.176C346.327 278.128 346.211 277.236 345.791 276.703L345.472 276.636Z" fill="#272626"/>
<path d="M357.382 279.419C356.501 281.417 355.227 283.316 353.74 284.839L353.999 285.713C355.784 284.046 357.29 281.807 358.244 279.455L357.382 279.419Z" fill="#4F5052"/>
<path d="M354.735 281.462C353.976 282.609 353.63 283.859 353.74 284.84C355.228 283.317 356.501 281.418 357.382 279.42C356.501 279.577 355.494 280.307 354.735 281.462Z" fill="#272626"/>
<path d="M357.554 269.792C358.265 270.719 358.683 272.081 358.683 273.752L358.657 274.155C357.917 274.697 357.174 274.885 356.596 274.697C357.156 275.445 358.243 275.422 359.361 274.616L359.368 274.235C359.368 272.126 358.734 270.58 357.651 269.653L357.554 269.792Z" fill="#4F5052"/>
<path d="M356.316 274.195L356.596 274.697C357.175 274.885 357.918 274.697 358.657 274.155L358.684 273.752C358.684 272.081 358.265 270.719 357.554 269.792C356.449 271.172 355.919 272.99 356.316 274.195Z" fill="#272626"/>
<path d="M430.249 173.071L385.152 198.766L368.995 236.751L324.275 270.428L322.156 284.22V292.754L330.639 290.657L337.529 286.733C337.529 277.962 343.757 267.283 351.471 262.907C359.154 258.53 365.411 262.083 365.411 270.849L431.006 233.468C431.006 224.693 437.243 214.032 444.943 209.646C452.633 205.27 458.884 208.822 458.884 217.588L465.444 213.848L473.934 206.295V182.935L447.163 192.226L430.249 173.071Z" fill="#A4A6A9"/>
<path d="M322.155 284.221L264.784 251.526L265.254 248.435L258.42 252.328L320.746 287.832L334.313 280.105L331.839 278.694L322.155 284.221Z" fill="#4C4C54"/>
<path d="M258.42 260.857L320.746 296.366V287.832L258.42 252.328V260.857Z" fill="#2C2B2D"/>
<path d="M320.746 287.832V296.366L336.004 287.662L334.314 280.105L320.746 287.832Z" fill="#181616"/>
<path d="M408.837 188.132L413.541 209.709L374.095 232.178L373.223 234.337L414.999 210.538L409.975 187.491L408.837 188.132Z" fill="#BBBCBD"/>
<path d="M386.88 200.634L374.094 232.179L413.54 209.71L408.836 188.132L386.88 200.634Z" fill="#21334A"/>
<path d="M427.922 177.242L442.15 193.404L417.557 207.416L417.878 208.908L443.607 194.233L428.409 176.982L427.922 177.242Z" fill="#BBBCBD"/>
<path d="M412.842 185.833L417.557 207.415L442.151 193.403L427.922 177.241L412.842 185.833Z" fill="#21334A"/>
<path d="M415.86 238.812L371.763 263.938V235.547L386.269 200.338L410.979 186.264L415.86 209.812V238.812ZM385.648 199.586L385.478 199.657L370.805 235.278L370.784 235.359V265.604L416.584 239.502L416.83 239.368V209.768L411.654 184.759L385.648 199.586Z" fill="#8F9295"/>
<path d="M322.681 280.805L327.174 278.238L328.101 271.174L323.792 273.633L322.681 280.805Z" fill="#B7541E"/>
<path d="M266.904 237.745L324.275 270.427L368.995 236.751L311.616 204.064L266.904 237.745Z" fill="white"/>
<path d="M271.04 238.813L322.295 268.019L360.828 238.965L309.578 209.746L271.04 238.813Z" fill="#BBBCBD"/>
<path d="M344.746 228.49L355.684 234.721L359.269 232.119L348.338 225.892L344.746 228.49Z" fill="#4C4C54"/>
<path d="M315.798 211.992L326.738 218.205L330.323 215.616L319.388 209.399L315.798 211.992Z" fill="#4C4C54"/>
<path d="M264.784 251.524L322.155 284.22L324.275 270.428L266.904 237.745L264.784 251.524Z" fill="#BBBCBD"/>
<path d="M337.83 171.805L385.151 198.766L430.249 173.072L382.932 146.115L337.83 171.805Z" fill="white"/>
<path d="M311.615 204.065L368.995 236.752L385.152 198.766L337.83 171.804L311.615 204.065Z" fill="#BBBCBD"/>
<path d="M338.674 174.946L337.956 174.538L314.26 203.708L368.285 234.469L369.021 232.708L316.188 202.593L338.674 174.946Z" fill="#8F9295"/>
<path d="M316.187 202.591L369.02 232.707L382.889 200.128L338.673 174.944L316.187 202.591Z" fill="#2C4967"/>
<path d="M317.926 200.459L350.697 181.793L338.674 174.944L317.926 200.459Z" fill="#4073B1"/>
<path d="M311.373 274.35L322.68 280.804L323.792 273.633L312.479 267.196L311.373 274.35Z" fill="#E4DBA3"/>
<path d="M278.571 257.962L308.507 275.01L310.16 264.291L280.221 247.238L278.571 257.962Z" fill="#4C4C54"/>
<path d="M265.3 248.11L276.601 254.547L277.724 247.389L266.399 240.952L265.3 248.11Z" fill="#E4DBA3"/>
<path d="M473.932 197.758L463.976 203.434L466.346 205.302L479.825 197.646L479.993 197.113L473.932 193.646V197.758Z" fill="#4C4C54"/>
<path d="M464.748 214.331L479.992 205.641V197.112L466.432 204.839L464.748 214.331Z" fill="#181616"/>
<path d="M462.274 212.92L464.748 214.331L466.432 204.839L463.976 203.432L462.274 212.92Z" fill="#2C2B2D"/>
<path d="M412.876 216.231L412.264 216.263L407.529 218.982C407.068 219.237 406.686 219.909 406.686 220.42L406.957 220.953L407.689 221.378L408.639 220.249L412.264 218.171L412.89 217.45L413.699 216.661L412.89 216.231H412.876Z" fill="#4C4C54"/>
<path d="M413.102 216.726L408.383 219.458C407.91 219.708 407.528 220.353 407.528 220.882C407.528 221.424 407.91 221.625 408.383 221.361L413.102 218.638C413.565 218.378 413.943 217.729 413.943 217.209C413.943 216.681 413.565 216.475 413.102 216.726Z" fill="#2C2B2D"/>
<path d="M367.56 244.245L366.954 244.268L364.48 245.696C364.013 245.961 363.622 246.619 363.622 247.134L363.891 247.662V247.68L364.634 248.074L365.59 246.964L366.954 246.193L367.576 245.481L368.383 244.693L367.576 244.245H367.56Z" fill="#F47415"/>
<path d="M367.79 244.754L365.316 246.178C364.848 246.429 364.479 247.069 364.479 247.598C364.479 248.144 364.848 248.355 365.316 248.077L367.79 246.671C368.251 246.397 368.648 245.744 368.648 245.233C368.648 244.713 368.251 244.494 367.79 244.754Z" fill="#B7541E"/>
<path d="M374.154 234.478L372.57 235.378L372.072 236.238V238.37L372.223 238.697L372.801 239.006L372.668 238.711V236.579L373.181 235.723L374.762 234.814L375.078 234.774L374.527 234.469L374.154 234.478Z" fill="#4C4C54"/>
<path d="M374.755 234.814L373.163 235.723L372.65 236.579V238.711L373.163 239.006L374.755 238.075L375.257 237.233V235.105L374.755 234.814Z" fill="#2C2B2D"/>
<path d="M374.056 236.065C373.691 236.271 373.425 236.764 373.425 237.176L373.623 237.611L376.362 239.16L377.286 237.597L374.526 236.03L374.056 236.065Z" fill="#181616"/>
<path d="M376.785 237.629C376.435 237.83 376.155 238.323 376.155 238.739L376.785 239.111L377.434 238.005C377.434 237.597 377.154 237.414 376.785 237.629Z" fill="#717374"/>
<path d="M384.176 237.953L379.199 235.117L378.486 235.086L376.281 236.188L376.975 236.237L383.334 238.383C383.864 238.696 384.309 239.453 384.309 240.067V242.19L384.009 242.822L384.886 242.374H384.895L385.152 241.756V239.65C385.152 239.019 384.705 238.262 384.176 237.953Z" fill="#2C2B2D"/>
<path d="M383.333 238.382L376.974 236.236C376.427 235.945 375.973 236.192 375.973 236.796V238.911C375.973 239.533 376.427 240.29 376.974 240.599L383.333 242.741C383.863 243.054 384.308 242.812 384.308 242.19V240.066C384.308 239.453 383.863 238.696 383.333 238.382Z" fill="#4C4C54"/>
<path d="M349.715 220.863L353.719 218.583V215.994L349.715 218.274V220.863Z" fill="#A4A6A9"/>
<path d="M283.346 180.49L349.715 218.274L353.719 215.994L287.35 178.201L283.346 180.49Z" fill="#BBBCBD"/>
<path d="M283.346 183.079L349.715 220.863V218.274L283.346 180.49V183.079Z" fill="#8F9295"/>
<path d="M442.632 167.93L446.636 165.654V163.065L442.632 165.341V167.93Z" fill="#A4A6A9"/>
<path d="M376.26 127.562L442.632 165.341L446.636 163.066L380.264 125.281L376.26 127.562Z" fill="#BBBCBD"/>
<path d="M376.26 130.15L442.632 167.93V165.341L376.26 127.561V130.15Z" fill="#8F9295"/>
<path d="M316.177 199.157L320.185 201.437V198.857L316.177 196.572V199.157Z" fill="#A4A6A9"/>
<path d="M316.177 196.57L320.185 198.855L417.117 143.641L413.115 141.361L316.177 196.57Z" fill="#BBBCBD"/>
<path d="M320.185 201.437L417.118 146.232V143.643L320.185 198.857V201.437Z" fill="#8F9295"/>
<path d="M350.089 175.362L358.419 180.105V155.522L350.089 150.769V175.362Z" fill="#A4A6A9"/>
<path d="M350.089 150.769L358.42 155.522L383.213 141.452L374.882 136.708L350.089 150.769Z" fill="#BBBCBD"/>
<path d="M358.42 180.105L383.213 166.04V141.452L358.42 155.522V180.105Z" fill="#8F9295"/>
<path d="M349.715 218.275L349.758 294.122L353.762 291.842L353.719 215.995L349.715 218.275Z" fill="#17202E"/>
<path d="M442.632 165.339L442.673 241.194L446.677 238.91L446.636 163.064L442.632 165.339Z" fill="#17202E"/>
<path d="M432.331 104.264L449.532 114.052V101.344L432.331 91.5562V104.264Z" fill="#17202E"/>
<path d="M432.331 91.5545L449.532 101.342L452.628 99.5772L435.427 89.785L432.331 91.5545Z" fill="#2C4967"/>
<path d="M449.531 114.052L452.628 112.287V99.5789L449.531 101.344V114.052Z" fill="#21334A"/>
<path d="M277.587 191.886L293.45 200.925V190.667L277.587 181.632V191.886Z" fill="#17202E"/>
<path d="M277.587 181.631L293.45 190.666L448.792 102.358L432.93 93.3183L277.587 181.631Z" fill="#2C4967"/>
<path d="M293.451 200.925L448.793 112.613V102.359L293.451 190.667V200.925Z" fill="#21334A"/>
<path d="M236.485 248.091H236.482C234.69 246.966 232.158 247.069 229.354 248.664C223.919 251.759 219.514 259.294 219.514 265.484C219.514 268.45 220.523 270.56 222.167 271.63L225.967 273.803L226.778 272.168C227.604 271.953 228.461 271.599 229.354 271.093C234.788 267.997 239.196 260.472 239.196 254.272C239.196 253.135 239.044 252.113 238.764 251.231L239.938 250.053L236.485 248.091Z" fill="#EF2C47"/>
<path d="M232.896 250.687C227.464 253.777 223.057 261.307 223.057 267.502C223.057 273.697 227.464 276.201 232.896 273.106C238.335 270.006 242.741 262.481 242.741 256.29C242.741 250.095 238.335 247.587 232.896 250.687Z" fill="#9A2120"/>
<path d="M239.722 252.967H239.718C238.272 252.062 236.229 252.143 233.964 253.433C229.579 255.937 226.025 262.007 226.025 267.001C226.025 269.398 226.837 271.104 228.169 271.964L228.167 271.969L257.763 288.816L258.419 287.486C259.082 287.315 259.777 287.029 260.495 286.621C264.884 284.126 268.434 278.047 268.434 273.048C268.434 272.13 268.316 271.306 268.09 270.598L269.034 269.64L239.722 252.967Z" fill="#2C2B2D"/>
<path d="M263.357 270.16C258.97 272.651 255.415 278.729 255.415 283.724C255.415 288.727 258.97 290.748 263.357 288.253C267.739 285.753 271.297 279.679 271.297 274.68C271.297 269.681 267.739 267.656 263.357 270.16Z" fill="#2C2B2D"/>
<path d="M274.005 176.307H274C272.724 175.519 270.93 175.582 268.942 176.719C265.085 178.919 261.95 184.267 261.95 188.657C261.95 190.763 262.672 192.263 263.835 193.02V193.029L266.539 194.57L267.11 193.405C267.693 193.253 268.307 193.002 268.942 192.639C272.794 190.44 275.923 185.092 275.923 180.702C275.923 179.886 275.821 179.165 275.622 178.538L276.452 177.705L274.005 176.307Z" fill="#EF2C47"/>
<path d="M271.455 178.155C267.596 180.354 264.472 185.694 264.472 190.088C264.472 194.492 267.596 196.265 271.455 194.066C275.317 191.876 278.442 186.532 278.442 182.128C278.442 177.738 275.317 175.947 271.455 178.155Z" fill="#9A2120"/>
<path d="M276.299 179.772L276.296 179.776C275.271 179.127 273.822 179.19 272.215 180.103C269.103 181.877 266.577 186.187 266.577 189.734C266.577 191.432 267.154 192.65 268.1 193.26V193.264L289.106 205.22L289.569 204.284C290.039 204.154 290.54 203.948 291.048 203.665C294.16 201.887 296.686 197.573 296.686 194.026C296.686 193.376 296.599 192.789 296.438 192.288L297.111 191.611L276.299 179.772Z" fill="#2C2B2D"/>
<path d="M293.078 191.971C289.962 193.75 287.439 198.059 287.439 201.611C287.439 205.159 289.962 206.592 293.078 204.823C296.192 203.045 298.715 198.735 298.715 195.188C298.715 191.64 296.192 190.197 293.078 191.971Z" fill="#2C2B2D"/>
<path d="M239.094 255.264L259.237 266.736L284.665 199.316L264.52 187.844L239.094 255.264Z" fill="#2C4967"/>
<path d="M259.238 266.736L267.062 266.857L289.514 207.357L284.666 199.316L259.238 266.736Z" fill="#21334A"/>
<path d="M267.636 265.791H267.632C265.838 264.667 263.309 264.765 260.502 266.369C255.063 269.46 250.66 276.994 250.66 283.185C250.66 286.15 251.672 288.265 253.318 289.331L253.314 289.335L257.115 291.503L257.93 289.864C258.748 289.653 259.61 289.299 260.502 288.793C265.937 285.693 270.347 278.163 270.347 271.973C270.347 270.826 270.193 269.809 269.913 268.931L271.085 267.753L267.636 265.791Z" fill="#EF2C47"/>
<path d="M264.048 268.386C258.611 271.482 254.201 279.012 254.201 285.211C254.201 291.397 258.611 293.91 264.048 290.815C269.482 287.72 273.888 280.185 273.888 273.995C273.888 267.799 269.482 265.291 264.048 268.386Z" fill="#9A2120"/>
<path d="M265.949 274.76C266.274 275.212 266.462 275.844 266.462 276.641C266.462 279.042 264.761 281.945 262.661 283.141C261.966 283.535 261.312 283.696 260.755 283.642C261.407 284.561 262.638 284.731 264.044 283.934C266.146 282.738 267.852 279.83 267.852 277.434C267.852 275.826 267.088 274.858 265.949 274.76Z" fill="#EF2C47"/>
<path d="M264.044 275.265C261.946 276.461 260.245 279.373 260.245 281.765C260.245 282.558 260.431 283.194 260.754 283.642C261.311 283.696 261.965 283.535 262.661 283.14C264.761 281.944 266.461 279.042 266.461 276.641C266.461 275.843 266.273 275.212 265.949 274.759C265.392 274.706 264.739 274.871 264.044 275.265Z" fill="#E41D26"/>
<path d="M296.118 188.88H296.112C294.843 188.078 293.046 188.154 291.056 189.288C287.196 191.487 284.064 196.831 284.064 201.225C284.064 203.331 284.78 204.836 285.953 205.593L288.652 207.129L289.224 205.969C289.81 205.817 290.42 205.57 291.056 205.208C294.913 203.008 298.04 197.664 298.04 193.265C298.04 192.455 297.937 191.738 297.735 191.111L298.567 190.273L296.118 188.88Z" fill="#EF2C47"/>
<path d="M293.57 190.716C289.71 192.915 286.581 198.264 286.581 202.662C286.581 207.057 289.71 208.835 293.57 206.645C297.427 204.441 300.559 199.092 300.559 194.698C300.559 190.304 297.427 188.521 293.57 190.716Z" fill="#9A2120"/>
<path d="M294.922 195.24C295.151 195.563 295.285 196.015 295.285 196.584C295.285 198.282 294.074 200.347 292.586 201.198C292.093 201.48 291.629 201.588 291.233 201.547C291.696 202.206 292.572 202.322 293.57 201.758C295.062 200.911 296.273 198.846 296.273 197.144C296.273 196.002 295.728 195.321 294.922 195.24Z" fill="#EF2C47"/>
<path d="M293.571 195.603C292.08 196.449 290.872 198.514 290.872 200.221C290.872 200.777 291.003 201.225 291.234 201.547C291.629 201.587 292.094 201.48 292.587 201.198C294.075 200.347 295.286 198.282 295.286 196.584C295.286 196.015 295.151 195.563 294.922 195.24C294.525 195.209 294.062 195.33 293.571 195.603Z" fill="#E41D26"/>
<path d="M116.037 297.665L124.125 302.275L125.546 301.482L117.451 296.854L116.037 297.665Z" fill="#2C2B2D"/>
<path d="M124.125 322.262L125.546 321.474V301.482L124.125 302.275V322.262Z" fill="#100F0D"/>
<path d="M116.037 317.653L124.125 322.262V302.275L116.037 297.666V317.653Z" fill="#181616"/>
<path d="M125.024 318.429C124.597 318.676 124.267 319.267 124.267 319.719L124.494 320.216L128.383 322.384L129.425 320.57L125.553 318.402L125.024 318.429Z" fill="#1E1D1C"/>
<path d="M128.926 320.605C128.521 320.86 128.175 321.424 128.175 321.899C128.175 322.369 128.521 322.54 128.926 322.325C129.335 322.056 129.672 321.501 129.672 321.039C129.672 320.569 129.335 320.381 128.926 320.605Z" fill="#131210"/>
<path d="M117.098 367.682L137.175 356.282L134.916 354.992L114.875 366.41L117.098 367.682Z" fill="#BBBCBD"/>
<path d="M146.108 259.084C126.639 270.176 119.396 314.84 119.396 321.371C119.396 327.925 119.396 379.412 119.396 379.412L207.738 429.721L211.796 420.426C211.796 420.426 207.756 343.164 231.826 317.662L277.893 284.662L189.555 234.331C189.555 234.331 152.609 255.389 146.108 259.084Z" fill="#ED5F00"/>
<path d="M227.741 311.057L143.999 263.36C129.266 276.525 122.795 309.297 121.688 319.958L205.436 367.673C206.546 357.003 213.017 324.24 227.741 311.057Z" fill="#181616"/>
<path d="M204.905 360.597C204.758 361.425 204.635 362.214 204.522 362.948L123.427 316.765C125.353 304.025 131.518 277.95 143.783 265.453L144.337 265.771C133.115 278.797 127.4 303.21 125.546 315.394L204.905 360.597Z" fill="#214265"/>
<path d="M224.863 311.649C213.317 323.412 207.177 347.225 204.904 360.596L125.545 315.394C127.398 303.21 133.114 278.796 144.336 265.77L224.863 311.649Z" fill="#4073B1"/>
<path d="M145.044 266.164C133.434 276.986 127.32 306.394 125.662 315.478L130.714 318.345L132.565 317.283C134.213 316.347 136.617 314.027 137.909 312.114L151.948 291.298C153.241 289.39 155.633 287.056 157.284 286.124L165.204 281.613V277.672L145.044 266.164Z" fill="#609EDB"/>
<path d="M269.838 348.339L221.027 376.152V412.978L235.001 405.009L247.545 384.784L269.838 372.076V348.339Z" fill="#100F0D"/>
<path d="M252.176 380.2C263.355 373.848 272.335 379.004 272.335 391.658C272.335 404.313 263.355 419.74 252.176 426.025C241.104 432.381 232.059 427.266 232.059 414.584C232.059 401.921 241.104 386.561 252.176 380.2Z" fill="#2E2D2D"/>
<path d="M233.858 369.694C239.295 366.635 244.207 366.308 247.811 368.211H247.836L266.3 378.738C262.684 376.767 257.725 377.081 252.175 380.198C241.102 386.559 232.058 401.919 232.058 414.583C232.058 420.639 234.147 425.002 237.506 427.174L219.196 416.751C215.804 414.547 213.719 410.215 213.719 404.123C213.719 391.469 222.72 376.046 233.858 369.694Z" fill="#414042"/>
<path d="M251.35 379.728C256.79 376.61 261.752 376.301 265.351 378.187L266.3 378.738C262.684 376.767 257.726 377.081 252.176 380.198C241.103 386.559 232.059 401.919 232.059 414.583C232.059 420.639 234.148 425.002 237.507 427.174L236.751 426.695C236.751 426.695 231.268 423.586 231.268 414.121C231.268 401.471 240.236 386.013 251.35 379.728Z" fill="#4F5052"/>
<path d="M245.378 376.343C250.809 373.239 255.752 372.93 259.343 374.816L260.327 375.38C256.662 373.355 251.705 373.664 246.204 376.791C235.083 383.148 226.046 398.508 226.046 411.211C226.046 417.259 228.148 421.595 231.57 423.749H231.489L230.728 423.333C230.728 423.333 225.263 420.206 225.263 410.714C225.263 398.051 234.276 382.673 245.378 376.343Z" fill="#272626"/>
<path d="M239.217 372.785C244.615 369.671 249.518 369.362 253.148 371.244L254.112 371.804C250.523 369.837 245.535 370.115 240.006 373.277C228.903 379.616 219.909 394.989 219.909 407.666C219.909 413.767 221.971 418.059 225.355 420.236L224.551 419.752C224.551 419.752 219.025 416.625 219.025 407.169C219.025 394.519 228.047 379.101 239.217 372.785Z" fill="#272626"/>
<path d="M230.471 408.968L228.902 404.461L232.58 401.017L231.677 396.161L236.213 393.536L235.75 388.447L240.985 386.897L241.524 382.064L246.864 381.307L248.132 377.822L254.656 377.15L256.74 375.304C256.74 375.304 261.451 376.496 262.783 376.944C263.273 377.15 263.755 377.334 264.18 377.584L264.971 377.947C264.351 377.634 263.634 377.356 262.879 377.163C261.751 376.814 257.328 375.631 257.328 375.631L255.241 377.526L248.744 378.189L247.506 381.692L242.154 382.445L241.684 387.184L236.486 388.716L236.875 393.84L232.358 396.421L233.333 401.196L229.59 404.609L231.143 409.214L228.46 413.272L230.973 417.165L229.716 419.844L233.094 423.262L233.569 424.937L232.972 424.57L232.748 423.289L229.191 419.754L230.373 417.058L227.769 413.272L230.471 408.968Z" fill="#2E2D2D"/>
<path d="M223.998 405.269L222.418 400.763L226.125 397.305L225.231 392.48L229.755 389.828L229.263 384.753L234.5 383.19L235.036 378.366L240.393 377.631L241.661 374.119L248.211 373.389L250.228 371.579C250.228 371.579 255.03 372.784 256.33 373.277C256.789 373.389 257.25 373.649 257.725 373.846L258.537 374.294C257.842 373.94 257.119 373.649 256.451 373.478C255.316 373.12 250.888 371.951 250.888 371.951L248.743 373.819L242.297 374.495L241.072 377.944L235.674 378.773L235.286 383.468L230.019 385.004L230.427 390.2L225.889 392.704L226.85 397.484L223.129 400.879L224.628 405.471L221.97 409.578L224.532 413.471L223.284 416.177L226.639 419.554L227.126 421.229L226.474 420.907L226.272 419.617L222.72 416.065L223.929 413.355L221.273 409.547L223.998 405.269Z" fill="#2E2D2D"/>
<path d="M217.605 401.628L216.016 397.095L219.743 393.673L218.803 388.799L223.337 386.187L222.873 381.135L228.131 379.553L228.663 374.751L233.986 373.967L235.214 370.5L241.759 369.793L243.813 367.925C243.813 367.925 248.64 369.143 249.931 369.618C250.448 369.793 250.888 369.972 251.307 370.223V370.196L252.117 370.675C251.479 370.294 250.767 370.025 250.058 369.793C248.863 369.492 244.499 368.283 244.499 368.283L242.298 370.137L235.896 370.832L234.7 374.294L229.264 375.101L228.841 379.849L223.639 381.403L223.999 386.523L219.509 389.086L220.442 393.807L216.711 397.261L218.264 401.874L215.594 405.946L218.105 409.808L216.844 412.473L220.238 415.922L220.734 417.562L220.105 417.212L219.856 415.94L216.31 412.419L217.48 409.718L214.888 405.946L217.605 401.628Z" fill="#2E2D2D"/>
<path d="M252.176 386.873C260.096 382.402 266.483 385.995 266.483 394.99C266.483 403.994 260.096 414.919 252.176 419.412C244.328 423.869 237.937 420.236 237.937 411.25C237.937 402.3 244.328 391.357 252.176 386.873Z" fill="#1E1D1C"/>
<path d="M252.175 388.912C259.091 385.006 264.672 388.173 264.672 396.039C264.672 403.864 259.091 413.397 252.175 417.352C245.286 421.281 239.762 418.06 239.762 410.23C239.762 402.404 245.286 392.84 252.175 388.912Z" fill="#8D8D8D"/>
<path d="M256.608 400.602C256.608 403.406 254.614 406.761 252.176 408.145C249.757 409.548 247.812 408.441 247.812 405.646C247.812 402.869 249.757 399.482 252.176 398.089C254.614 396.718 256.608 397.87 256.608 400.602Z" fill="#686A6C"/>
<path d="M253.349 402.468C253.349 403.189 252.819 404.121 252.177 404.461C251.533 404.837 251.022 404.56 251.022 403.816C251.022 403.06 251.533 402.168 252.177 401.832C252.819 401.474 253.349 401.761 253.349 402.468Z" fill="#4F5052"/>
<path d="M250.608 400.97L250.849 401.06C251.177 401.217 251.177 401.83 250.849 402.368C250.523 402.905 249.994 403.187 249.684 403.017L249.466 402.735C249.757 402.735 250.139 402.444 250.4 402.005L250.608 400.97Z" fill="#484849"/>
<path d="M250.608 400.971L250.4 402.005C250.139 402.444 249.757 402.735 249.466 402.735L249.684 401.714C249.931 401.276 250.308 400.971 250.608 400.971Z" fill="#272626"/>
<path d="M250.638 405.424L250.888 405.474C251.238 405.684 251.238 406.262 250.888 406.831C250.523 407.382 250.02 407.668 249.732 407.44L249.517 407.171C249.81 407.171 250.165 406.876 250.449 406.459L250.638 405.424Z" fill="#484849"/>
<path d="M250.638 405.425L250.449 406.459C250.165 406.876 249.81 407.171 249.517 407.171L249.732 406.164C249.931 405.693 250.317 405.451 250.638 405.425Z" fill="#272626"/>
<path d="M254.543 403.161L254.779 403.188C255.121 403.407 255.121 403.994 254.779 404.558C254.477 405.096 253.94 405.378 253.622 405.176L253.452 404.899C253.743 404.899 254.112 404.608 254.344 404.169L254.543 403.161Z" fill="#484849"/>
<path d="M254.543 403.16L254.344 404.167C254.112 404.606 253.743 404.897 253.452 404.897C253.348 404.606 253.412 404.27 253.622 403.863C253.903 403.451 254.245 403.164 254.543 403.16Z" fill="#272626"/>
<path d="M254.544 398.718L254.741 398.749C255.069 398.915 255.069 399.573 254.741 400.088C254.437 400.603 253.941 400.935 253.609 400.764L253.413 400.46C253.721 400.46 254.069 400.196 254.315 399.739L254.544 398.718Z" fill="#484849"/>
<path d="M254.544 398.716L254.315 399.737C254.069 400.194 253.721 400.458 253.413 400.458L253.609 399.424C253.82 398.998 254.246 398.716 254.544 398.716Z" fill="#272626"/>
<path d="M255.242 387.595C255.735 387.474 256.173 387.394 256.547 387.336C256.192 389.911 254.436 392.756 252.175 393.997C250.576 394.915 249.23 394.745 248.427 393.71C249.168 393.938 250.111 393.808 251.097 393.231C253.004 392.124 254.614 389.911 255.242 387.595Z" fill="#4F5052"/>
<path d="M255.242 387.594C254.614 389.91 253.004 392.123 251.098 393.229C250.112 393.807 249.168 393.937 248.427 393.708C248.133 393.372 247.93 392.839 247.836 392.338C249.231 390.953 250.638 389.789 252.176 388.911C253.242 388.315 254.315 387.876 255.242 387.594Z" fill="#272626"/>
<path d="M246.916 413.396H247.031C248.64 414.064 249.099 416.322 248.212 418.852C245.92 419.305 243.916 418.776 242.439 417.482C243.726 418.23 245.311 418.436 247.118 418.091C247.812 416.178 247.679 414.4 246.916 413.396Z" fill="#4F5052"/>
<path d="M247.118 418.092C245.311 418.437 243.726 418.231 242.439 417.483L241.484 416.493C243.079 414.213 245.246 412.909 246.916 413.384C247.679 414.401 247.812 416.179 247.118 418.092Z" fill="#272626"/>
<path d="M242.957 399.984C244.406 400.437 245.082 402.264 244.498 404.733C243.782 407.438 241.814 409.969 239.762 410.829V410.229V409.432C241.391 408.276 242.812 406.193 243.356 403.944C243.812 402.264 243.615 400.835 242.957 399.984Z" fill="#4F5052"/>
<path d="M242.957 399.985C243.615 400.836 243.812 402.265 243.356 403.944C242.812 406.193 241.391 408.276 239.762 409.432C239.887 406.336 240.893 403.004 242.438 399.908L242.957 399.985Z" fill="#272626"/>
<path d="M262.879 404.387C261.338 408.146 258.948 411.707 256.086 414.399C255.832 413.982 255.752 413.53 255.66 412.97C258.047 410.546 260.067 407.527 261.521 404.311C261.977 404.181 262.464 404.271 262.879 404.387Z" fill="#4F5052"/>
<path d="M261.521 404.313C260.066 407.529 258.046 410.548 255.66 412.972C255.486 411.435 256.046 409.428 257.251 407.619C258.5 405.751 260.095 404.568 261.521 404.313Z" fill="#272626"/>
<path d="M263.575 395.241C263.575 392.544 262.938 390.412 261.773 388.965L261.972 388.714C263.635 390.202 264.672 392.683 264.672 396.038V396.648C262.879 397.933 261.17 397.96 260.264 396.786C261.17 397.046 262.355 396.769 263.562 395.895L263.575 395.241Z" fill="#4F5052"/>
<path d="M263.574 395.24L263.562 395.894C262.355 396.768 261.17 397.046 260.264 396.786L259.803 395.98C259.136 394.076 260.037 391.115 261.773 388.965C262.938 390.412 263.574 392.544 263.574 395.24Z" fill="#272626"/>
<path d="M234.449 309.407C214.976 320.507 207.739 365.172 207.739 371.712C207.739 378.247 207.739 429.721 207.739 429.721L229.086 417.563V404.64C229.086 404.64 235.323 377.176 245.559 371.34L277.894 352.925V284.662C277.894 284.662 240.939 305.711 234.449 309.407Z" fill="#B7541E"/>
<path d="M281.847 353.39L278.698 351.589L277.894 351.652L245.559 370.071C234.614 376.302 228.271 403.708 228.008 404.872C227.876 405.446 228.021 405.853 228.34 406.01L231.323 407.726L241.249 380.894L246.022 375.303L281.847 353.39Z" fill="#2C2B2D"/>
<path d="M232.154 407.649L231.829 407.788C231.239 407.917 230.899 407.407 231.076 406.623C231.333 405.472 237.687 378.048 248.628 371.817L280.958 353.398C281.589 353.044 282.077 353.335 282.077 354.025C282.077 354.746 281.589 355.602 280.958 355.956L248.628 374.38C239.348 379.674 233.284 405.852 233.225 406.121C233.08 406.766 232.635 407.38 232.154 407.649Z" fill="#100F0D"/>
<path d="M210.648 404.98V369.162H212.069V402.565L227.74 393.642C228.506 391.071 234.294 372.602 243.024 367.625L270.291 352.091V317.661H271.688V352.901L243.726 368.844C235.03 373.789 229.073 394.086 229.018 394.287L228.93 394.578L210.648 404.98Z" fill="#8E451C"/>
<path d="M219.221 367.938L214.541 370.594C213.286 371.316 212.103 371.365 211.371 370.711C210.731 370.138 210.52 369.125 210.768 367.858C211.044 366.03 218.104 321.41 234.946 311.824L267.718 293.149C269.996 291.863 271.835 292.921 271.835 295.514V316.191C271.835 318.781 269.996 321.93 267.718 323.224L243.933 336.779C242.553 337.567 240.393 339.673 239.302 341.272L225.263 362.079C223.77 364.278 221.126 366.859 219.221 367.938Z" fill="#181616"/>
<path d="M251.861 303.483V330.973L243.933 335.497C242.288 336.429 239.888 338.767 238.606 340.671L224.552 361.483C223.277 363.382 220.875 365.72 219.222 366.656L214.542 369.308C213.279 370.034 212.162 369.814 211.871 368.771L212.912 368.399L217.58 365.734C219.236 364.779 221.646 362.455 222.921 360.56L236.974 339.748C238.257 337.831 240.656 335.511 242.298 334.566L250.228 330.05V304.401C250.785 304.083 251.324 303.774 251.861 303.483Z" fill="#214265"/>
<path d="M250.228 304.402V330.051L242.298 334.567C240.656 335.512 238.256 337.832 236.974 339.749L222.92 360.561C221.645 362.456 219.235 364.781 217.579 365.735L212.912 368.4L211.871 368.772C211.766 368.445 211.766 368.033 211.855 367.536C211.855 367.536 218.84 322.28 234.946 313.106C238.866 310.861 244.628 307.587 250.228 304.402Z" fill="#325988"/>
<path d="M270.708 296.151V316.842C270.708 318.705 269.363 321.012 267.72 321.962L254.111 329.707V327.848L266.088 321.025C267.739 320.089 269.089 317.773 269.089 315.905V295.21C269.089 294.749 269.009 294.373 268.864 294.05C269.94 293.938 270.708 294.722 270.708 296.151Z" fill="#214265"/>
<path d="M269.089 295.209V315.904C269.089 317.772 267.739 320.088 266.088 321.024L254.111 327.846V302.188C261.497 297.991 267.72 294.438 267.72 294.438L268.864 294.049C269.009 294.371 269.089 294.748 269.089 295.209Z" fill="#325988"/>
<path d="M268.233 343.574C268.233 345.249 266.811 347.44 265.075 348.43L262.117 350.123C260.381 351.091 258.96 350.54 258.96 348.873C258.96 347.198 260.381 345.021 262.117 344.026L265.075 342.342C266.811 341.348 268.233 341.903 268.233 343.574Z" fill="#181616"/>
<path d="M202.785 400.429V371.209L121.688 325.201V354.416L202.785 400.429Z" fill="#2C2B2D"/>
<path d="M202.785 374.563V372.386L121.688 326.368V328.554L202.785 374.563Z" fill="#181616"/>
<path d="M202.785 378.729V376.552L121.688 330.544V332.716L202.785 378.729Z" fill="#181616"/>
<path d="M202.785 382.886V380.705L121.688 334.696V336.873L202.785 382.886Z" fill="#181616"/>
<path d="M202.785 387.043V384.87L121.688 338.862V341.039L202.785 387.043Z" fill="#181616"/>
<path d="M202.785 391.219V389.042L121.688 343.02V345.211L202.785 391.219Z" fill="#181616"/>
<path d="M202.785 395.39V393.195L121.688 347.195V349.363L202.785 395.39Z" fill="#181616"/>
<path d="M202.785 399.55V397.355L121.688 351.36V353.541L202.785 399.55Z" fill="#181616"/>
<path d="M204.191 370.399L123.096 324.39L121.688 325.201L202.785 371.21L204.191 370.399Z" fill="#4C4C54"/>
<path d="M204.192 399.609V370.398L202.786 371.209V400.429L204.192 399.609Z" fill="#181616"/>
<path d="M164.232 367.163L163.549 367.561L160.245 359.18L160.915 358.8L164.232 360.685V367.163Z" fill="#4C4C54"/>
<path d="M163.549 367.561L160.245 365.684V359.18L163.549 361.066V367.561Z" fill="#A4A6A9"/>
<path d="M162.971 366.561L160.668 365.23V360.182L162.971 361.49V366.561Z" fill="#E41D26"/>
<path d="M207.738 432.26L114.875 379.362V366.412L207.738 416.788V429.72V432.26Z" fill="#A4A6A9"/>
<path d="M207.739 419.323L117.098 367.684L119.352 366.399L207.739 416.788V419.323Z" fill="#BBBCBD"/>
<path d="M207.739 432.26L227.811 420.855V407.923L207.739 416.788V429.72V432.26Z" fill="#8F9295"/>
<path d="M207.739 419.323L227.811 407.923L225.554 406.646L207.739 416.788V419.323Z" fill="#A4A6A9"/>
<path d="M204.192 412.781L180.089 399.047V388.915L204.192 402.658V412.781Z" fill="#B7541E"/>
<path d="M191.006 404.097L181.84 398.856V391.205L191.006 396.419V404.097Z" fill="#E4DBA3"/>
<path d="M202.393 410.567L193.225 405.353V397.675L202.393 402.911V410.567Z" fill="#E4DBA3"/>
<path d="M146.973 380.183L122.857 366.458V356.33L146.973 370.059V380.183Z" fill="#B7541E"/>
<path d="M133.777 371.485L124.611 366.267V358.602L133.777 363.825V371.485Z" fill="#E4DBA3"/>
<path d="M145.151 377.988L135.997 372.756V365.082L145.151 370.31V377.988Z" fill="#E4DBA3"/>
<path d="M217.029 370.713C216.612 370.951 216.286 371.542 216.286 371.981L216.5 372.473L220.408 374.654L221.432 372.841L217.568 370.682L217.029 370.713Z" fill="#100F0D"/>
<path d="M220.946 372.621C220.525 372.841 220.181 373.4 220.181 373.871C220.181 374.341 220.525 374.542 220.946 374.296C221.348 374.068 221.691 373.494 221.691 373.02C221.691 372.554 221.348 372.37 220.946 372.621Z" fill="#F2571A"/>
<path d="M220.128 356.919L228.217 361.564L229.638 360.775L221.55 356.139L220.128 356.919Z" fill="#2C2B2D"/>
<path d="M228.218 381.558L229.638 380.724V360.777L228.218 361.566V381.558Z" fill="#100F0D"/>
<path d="M220.128 376.944L228.217 381.558V361.566L220.128 356.92V376.944Z" fill="#181616"/>
</svg>
