<svg width="33" height="33" viewBox="0 0 33 33" fill="none" xmlns="http://www.w3.org/2000/svg">
<path d="M16.5057 8.02643C11.8266 8.02643 8.03845 11.8187 8.03845 16.4937C8.03845 21.1728 11.8307 24.9609 16.5057 24.9609C21.1848 24.9609 24.973 21.1687 24.973 16.4937C24.973 11.8146 21.1807 8.02643 16.5057 8.02643ZM16.5057 21.9896C13.4683 21.9896 11.0098 19.5297 11.0098 16.4937C11.0098 13.4577 13.4697 10.9978 16.5057 10.9978C19.5417 10.9978 22.0016 13.4577 22.0016 16.4937C22.003 19.5297 19.5431 21.9896 16.5057 21.9896Z" fill="white"/>
<path d="M23.3038 0.103657C20.2678 -0.0379684 12.7479 -0.0310933 9.70919 0.103657C7.03894 0.228782 4.68356 0.873657 2.78469 2.77253C-0.388813 5.94603 0.0168125 10.2223 0.0168125 16.4937C0.0168125 22.9122 -0.340688 27.0894 2.78469 30.2148C5.97056 33.3993 10.3087 32.9827 16.5058 32.9827C22.8638 32.9827 25.0583 32.9868 27.3064 32.1164C30.3631 30.9298 32.6703 28.1977 32.8958 23.2903C33.0388 20.2529 33.0306 12.7344 32.8958 9.69566C32.6236 3.90278 29.5147 0.389657 23.3038 0.103657ZM28.1094 28.1152C26.0291 30.1955 23.1429 30.0099 16.4659 30.0099C9.59094 30.0099 6.83406 30.1117 4.82244 28.0945C2.50556 25.7887 2.92494 22.0858 2.92494 16.4717C2.92494 8.87478 2.14531 3.40366 9.76969 3.01316C11.5214 2.95128 12.0371 2.93066 16.4467 2.93066L16.5086 2.97191C23.8359 2.97191 29.5848 2.20466 29.9299 9.82766C30.0083 11.567 30.0262 12.0895 30.0262 16.4923C30.0248 23.2875 30.1541 26.0609 28.1094 28.1152Z" fill="white"/>
<path d="M25.3087 9.67087C26.4015 9.67087 27.2873 8.78501 27.2873 7.69225C27.2873 6.59948 26.4015 5.71362 25.3087 5.71362C24.2159 5.71362 23.3301 6.59948 23.3301 7.69225C23.3301 8.78501 24.2159 9.67087 25.3087 9.67087Z" fill="white"/>
</svg>
