<svg width="55" height="40" viewBox="0 0 55 40" fill="none" xmlns="http://www.w3.org/2000/svg">
<path d="M55 15.5452L42.8739 0.611328H0V33.0338H5.81571C6.02108 36.672 9.14338 39.5709 12.9527 39.5709C16.762 39.5709 19.8843 36.672 20.0896 33.0338H34.9105C35.1159 36.672 38.2382 39.5709 42.0474 39.5709C45.8567 39.5709 48.979 36.672 49.1844 33.0338H55V15.5452ZM30.0971 3.90405V19.1482H3.40206V3.90405H30.0971ZM12.9527 36.278C10.8869 36.278 9.20643 34.6516 9.20643 32.6522C9.20643 30.6529 10.8869 29.0264 12.9527 29.0264C15.0184 29.0264 16.6989 30.6529 16.6989 32.6522C16.6989 34.6516 15.0184 36.278 12.9527 36.278ZM12.9527 25.7337C10.0852 25.7337 7.60814 27.3771 6.47027 29.741H3.40206V22.441H30.0971V29.741H19.435C18.2971 27.3771 15.8202 25.7337 12.9527 25.7337ZM42.0473 36.278C39.9816 36.278 38.3011 34.6516 38.3011 32.6522C38.3011 30.6529 39.9816 29.0264 42.0473 29.0264C44.1131 29.0264 45.7936 30.6529 45.7936 32.6522C45.7936 34.6516 44.1131 36.278 42.0473 36.278ZM51.5979 29.741H48.5297C47.3919 27.377 44.9148 25.7337 42.0473 25.7337C39.1798 25.7337 36.7028 27.3771 35.5649 29.741H33.4992V3.90405H41.2206L51.5979 16.6842V29.741Z" fill="white"/>
</svg>
