<svg width="55" height="38" viewBox="0 0 55 38" fill="none" xmlns="http://www.w3.org/2000/svg">
<path d="M55 15.7464L44.3217 12.3015L38.5022 0.33252H12.3063L0 12.9874V30.5589H5.81435C6.02029 34.5115 9.40761 37.6661 13.5419 37.6661C17.6762 37.6661 21.0636 34.5116 21.2696 30.5589H33.7304C33.9364 34.5115 37.3237 37.6661 41.4581 37.6661C45.5925 37.6661 48.9797 34.5116 49.1856 30.5589H55V15.7464ZM40.4123 11.9941H24.2429V3.62513H36.3432L40.4123 11.9941ZM13.7762 3.62513H20.8408V11.9941H5.6379L13.7762 3.62513ZM13.5419 34.3735C11.1513 34.3735 9.20643 32.4911 9.20643 30.1774C9.20643 27.8637 11.1513 25.9813 13.5419 25.9813C15.9325 25.9813 17.8775 27.8637 17.8775 30.1774C17.8775 32.4911 15.9325 34.3735 13.5419 34.3735ZM41.4581 34.3735C39.0675 34.3735 37.1225 32.4911 37.1225 30.1774C37.1225 27.8637 39.0675 25.9813 41.4581 25.9813C43.8487 25.9813 45.7936 27.8637 45.7936 30.1774C45.7936 32.4911 43.8487 34.3735 41.4581 34.3735ZM51.5979 27.2663H48.5871C47.4111 24.5788 44.6584 22.6887 41.4581 22.6887C38.2578 22.6887 35.5051 24.5788 34.3291 27.2663H20.6709C19.4949 24.5788 16.7422 22.6887 13.5419 22.6887C10.3416 22.6887 7.58887 24.5788 6.41289 27.2663H3.40206V15.2867H42.8168L51.5979 18.1195V27.2663Z" fill="white"/>
</svg>
