<svg width="55" height="59" viewBox="0 0 55 59" fill="none" xmlns="http://www.w3.org/2000/svg">
<path d="M54.4382 34.3348C56.2282 19.7518 53.5782 10.5451 48.7982 6.3809L48.8007 6.37848C41.0856 -0.732805 15.0305 -1.78534 5.80051 6.69787C1.6555 10.8475 0.195492 16.9377 0.0354916 24.4773C-0.124509 32.0193 -0.31451 46.1475 13.288 49.9801H13.3005L13.288 55.8332C13.288 55.8332 13.1955 58.2045 14.7605 58.6811C16.5505 59.2425 17.3605 58.1415 22.9281 51.7053C32.2381 52.4869 39.3881 50.6964 40.2006 50.435C42.0806 49.8253 52.7182 48.463 54.4382 34.3348ZM23.8456 47.5871C23.8456 47.5871 17.9531 54.6984 16.1205 56.5446C15.5205 57.1447 14.863 57.089 14.873 55.8986C14.873 55.117 14.918 46.1813 14.918 46.1813C3.3855 42.9826 4.06551 30.9522 4.19051 24.6588C4.31551 18.3629 5.50551 13.2067 9.01552 9.7345C17.113 2.38609 39.9556 4.02902 45.7756 9.32316C52.8907 15.4279 50.3582 32.675 50.3732 33.2629C48.9107 45.0562 40.2906 45.8039 38.7056 46.3144C38.0281 46.5322 31.7406 48.0977 23.8456 47.5871Z" fill="white"/>
<path d="M27.1055 11.1167C26.143 11.1167 26.143 12.5685 27.1055 12.5806C34.5731 12.6362 40.7231 17.6738 40.7906 26.9142C40.7906 27.8893 42.2656 27.8772 42.2531 26.9021H42.2506C42.1706 16.9455 35.4556 11.1723 27.1055 11.1167Z" fill="white"/>
<path d="M36.9281 25.3826C36.9056 26.3456 38.3781 26.3916 38.3906 25.4165C38.5131 19.9264 35.0156 15.4042 28.4431 14.9276C27.4806 14.8598 27.3806 16.3237 28.3406 16.3914C34.0406 16.81 37.0431 20.5749 36.9281 25.3826Z" fill="white"/>
<path d="M35.3531 31.6273C34.118 30.9353 32.8605 31.366 32.3405 32.0459L31.253 33.4082C30.7005 34.1002 29.668 34.0083 29.668 34.0083C22.133 32.0798 20.118 24.4482 20.118 24.4482C20.118 24.4482 20.0255 23.415 20.7155 22.8609L22.0755 21.772C22.7555 21.2494 23.1855 19.9912 22.493 18.7547C20.643 15.5196 19.4005 14.4042 18.768 13.5476C18.103 12.7418 17.103 12.5604 16.063 13.1048H16.0405C13.878 14.3291 11.5105 16.6206 12.268 18.9797C13.5605 21.4672 15.9355 29.3964 23.5055 35.3875C27.063 38.2209 32.693 41.1245 35.0831 41.7948L35.1056 41.8286C37.4606 42.5884 39.7506 40.2075 40.9731 38.0515V38.0346C41.5156 36.9917 41.3356 36.0045 40.5431 35.3585C39.1381 34.0325 37.0181 32.5686 35.3531 31.6273Z" fill="white"/>
<path d="M29.4732 20.3268C31.8757 20.4623 33.0407 21.677 33.1657 24.1717C33.2107 25.1468 34.6733 25.0791 34.6283 24.1039C34.4683 20.847 32.7132 19.0323 29.5532 18.8629C28.5907 18.8072 28.5007 20.2711 29.4732 20.3268Z" fill="white"/>
</svg>
