<svg width="55" height="54" viewBox="0 0 55 54" fill="none" xmlns="http://www.w3.org/2000/svg">
<path d="M40.1201 32.3092L40.0994 32.4755C35.0601 30.0447 34.533 29.7209 33.8822 30.6657C33.4307 31.32 32.1153 32.8038 31.7188 33.2429C31.3178 33.6754 30.919 33.7087 30.2384 33.4093C29.5509 33.0766 27.344 32.3779 24.7315 30.1157C22.6965 28.3524 21.3307 26.19 20.9274 25.5246C20.2559 24.4023 21.6607 24.2426 22.9395 21.9005C23.1686 21.4348 23.0518 21.0688 22.8822 20.7383C22.7103 20.4056 21.3422 17.1453 20.7693 15.8456C20.2193 14.5504 19.6532 14.7145 19.2293 14.7145C17.9093 14.6036 16.9445 14.6213 16.0943 15.4774C12.3955 19.412 13.3282 23.4708 16.493 27.7868C22.7126 35.6649 26.0263 37.1154 32.0855 39.1292C33.7217 39.6327 35.2136 39.5617 36.3938 39.3976C37.7092 39.1958 40.4432 37.7985 41.0138 36.2349C41.5982 34.6712 41.5982 33.3738 41.4263 33.0744C41.2567 32.7749 40.8076 32.6086 40.1201 32.3092Z" fill="white"/>
<path d="M47.025 8.22685C29.4044 -8.2592 0.242917 3.69779 0.231458 26.9552C0.231458 31.6041 1.48958 36.1376 3.88667 40.141L0 53.808L14.5177 50.144C32.6333 59.6146 54.9908 47.0388 55 26.9686C55 19.9243 52.1583 13.2949 46.9906 8.31335L47.025 8.22685ZM50.4213 26.8954C50.4075 43.825 31.2056 54.398 16.0187 45.7568L15.1938 45.2822L6.6 47.4447L8.90313 39.3603L8.35542 38.5285C-1.09542 23.9677 9.7625 4.93763 27.665 4.93763C33.7471 4.93763 39.4556 7.23321 43.7548 11.3919C48.0517 15.515 50.4213 21.04 50.4213 26.8954Z" fill="white"/>
</svg>
