<svg width="25" height="19" viewBox="0 0 25 19" fill="none" xmlns="http://www.w3.org/2000/svg">
<path d="M25 7.01356L19.4881 0H0V15.2269H2.64351C2.73686 16.9355 4.15608 18.297 5.88758 18.297C7.61907 18.297 9.0383 16.9355 9.13165 15.2269H15.8684C15.9618 16.9355 17.381 18.297 19.1125 18.297C20.844 18.297 22.2632 16.9355 22.3565 15.2269H25V7.01356ZM13.6805 1.54639V8.70567H1.54639V1.54639H13.6805ZM5.88758 16.7505C4.94861 16.7505 4.18474 15.9867 4.18474 15.0477C4.18474 14.1087 4.94861 13.3448 5.88758 13.3448C6.82655 13.3448 7.59041 14.1087 7.59041 15.0477C7.59041 15.9867 6.82655 16.7505 5.88758 16.7505ZM5.88758 11.7985C4.58418 11.7985 3.45825 12.5703 2.94103 13.6805H1.54639V10.2521H13.6805V13.6805H8.83407C8.31686 12.5703 7.19098 11.7985 5.88758 11.7985ZM19.1124 16.7505C18.1735 16.7505 17.4096 15.9867 17.4096 15.0477C17.4096 14.1087 18.1735 13.3448 19.1124 13.3448C20.0514 13.3448 20.8153 14.1087 20.8153 15.0477C20.8153 15.9867 20.0514 16.7505 19.1124 16.7505ZM23.4536 13.6805H22.059C21.5418 12.5702 20.4158 11.7985 19.1124 11.7985C17.809 11.7985 16.6831 12.5703 16.1659 13.6805H15.2269V1.54639H18.7366L23.4536 7.54845V13.6805Z" fill="#FAFAFA"/>
</svg>
