<svg width="25" height="18" viewBox="0 0 25 18" fill="none" xmlns="http://www.w3.org/2000/svg">
<path d="M25 7.23923L20.1462 5.62129L17.501 0H5.59376L0 5.94345V14.196H2.64289C2.73649 16.0524 4.27619 17.5339 6.15541 17.5339C8.03464 17.5339 9.57438 16.0524 9.66799 14.196H15.332C15.4256 16.0524 16.9653 17.5339 18.8446 17.5339C20.7239 17.5339 22.2635 16.0524 22.3571 14.196H25V7.23923ZM18.3692 5.47691H11.0195V1.54639H16.5196L18.3692 5.47691ZM6.26191 1.54639H9.47309V5.47691H2.56268L6.26191 1.54639ZM6.15541 15.9875C5.06876 15.9875 4.18474 15.1035 4.18474 14.0168C4.18474 12.9302 5.06876 12.0461 6.15541 12.0461C7.24206 12.0461 8.12613 12.9302 8.12613 14.0168C8.12613 15.1035 7.24206 15.9875 6.15541 15.9875ZM18.8446 15.9875C17.7579 15.9875 16.8739 15.1035 16.8739 14.0168C16.8739 12.9302 17.7579 12.0461 18.8446 12.0461C19.9312 12.0461 20.8153 12.9302 20.8153 14.0168C20.8153 15.1035 19.9312 15.9875 18.8446 15.9875ZM23.4536 12.6496H22.0851C21.5505 11.3874 20.2993 10.4997 18.8446 10.4997C17.3899 10.4997 16.1387 11.3874 15.6041 12.6496H9.39588C8.86134 11.3874 7.6101 10.4997 6.15541 10.4997C4.70072 10.4997 3.44948 11.3874 2.91495 12.6496H1.54639V7.0233H19.4622L23.4536 8.35376V12.6496Z" fill="#FAFAFA"/>
</svg>
