<svg width="350" height="252" viewBox="0 0 350 252" fill="none" xmlns="http://www.w3.org/2000/svg">
<path d="M80.4427 106.735L68.8634 100.363C67.3344 99.5184 66.0844 97.2415 66.0844 95.3033V89.8404C66.0844 87.8936 67.3344 86.9931 68.8634 87.8379L80.4427 94.2098C81.9671 95.0503 83.2172 97.3272 83.2172 99.2697V104.733C83.2172 106.675 81.9671 107.576 80.4427 106.735Z" fill="#F17751"/>
<path d="M66.084 88.7423C66.084 88.7423 67.6081 87.457 68.3421 87.5235C69.0804 87.5944 67.4225 89.9612 67.4225 89.9612L66.084 88.7423Z" fill="#F17751"/>
<path d="M79.5476 108.271C79.5476 108.271 82.1497 107.931 82.8459 106.855C83.5421 105.784 83.0456 104.61 83.0456 104.61C83.0456 104.61 79.4563 106.04 79.5476 108.271Z" fill="#9A898E"/>
<path d="M79.2144 107.956L67.6351 101.583C66.1107 100.742 64.8605 98.4649 64.8605 96.5221V91.0585C64.8605 89.1157 66.1107 88.2151 67.6351 89.0557L79.2144 95.4286C80.7433 96.2734 81.9934 98.5506 81.9934 100.489V105.953C81.9934 107.895 80.7433 108.796 79.2144 107.956Z" fill="#222222"/>
<path d="M322.711 119.256L290.035 99.5059C290.035 99.5059 295.754 88.026 309.734 92.0302C323.709 96.0255 331.644 101.046 331.644 101.046L322.711 119.256Z" fill="#62411B"/>
<path d="M310.839 114.571C310.831 126.015 303.699 139.306 294.91 144.249C286.122 149.2 279.008 143.93 279.021 132.486C279.034 121.042 286.166 107.755 294.95 102.804C303.738 97.8609 310.853 103.127 310.839 114.571Z" fill="#251E22"/>
<path d="M285.14 145.13L295.353 150.991L314.511 106.955L303.887 100.947L285.14 145.13Z" fill="#251E22"/>
<path d="M320.629 120.673C320.62 132.118 313.764 145.404 305.315 150.356C296.866 155.299 290.026 150.033 290.034 138.589C290.047 127.145 296.908 113.854 305.353 108.911C313.802 103.959 320.641 109.229 320.629 120.673Z" fill="#372D35"/>
<path d="M316.958 123.095C316.953 131.443 311.741 141.143 305.319 144.753C298.897 148.363 293.697 144.521 293.706 136.168C293.715 127.815 298.928 118.121 305.35 114.51C311.772 110.9 316.967 114.742 316.958 123.095Z" fill="white"/>
<path d="M312.063 125.635C312.058 129.961 309.317 134.988 305.935 136.86C302.557 138.733 299.82 136.745 299.825 132.41C299.83 128.08 302.571 123.053 305.953 121.18C309.331 119.308 312.067 121.3 312.063 125.635Z" fill="#372D35"/>
<path d="M310.839 126.969C310.835 130.371 308.642 134.317 305.94 135.79C303.233 137.263 301.045 135.698 301.049 132.292C301.054 128.894 303.246 124.94 305.953 123.471C308.651 121.998 310.844 123.567 310.839 126.969Z" fill="#76627A"/>
<path d="M189.052 196.155L156.642 176.439C156.642 176.439 162.364 164.918 176.339 168.929C190.313 172.946 198.25 177.975 198.25 177.975L189.052 196.155Z" fill="#62411B"/>
<path d="M177.447 191.469C177.434 202.914 170.299 216.201 161.516 221.149C152.729 226.096 145.616 220.83 145.629 209.381C145.638 197.937 152.769 184.648 161.556 179.707C170.343 174.755 177.456 180.025 177.447 191.469Z" fill="#251E22"/>
<path d="M151.748 222.033L161.959 227.891L181.119 183.856L170.493 177.846L151.748 222.033Z" fill="#251E22"/>
<path d="M187.238 197.574C187.225 209.017 180.368 222.306 171.922 227.252C163.471 232.198 156.631 226.934 156.643 215.489C156.652 204.046 163.509 190.754 171.96 185.806C180.41 180.86 187.25 186.126 187.238 197.574Z" fill="#372D35"/>
<path d="M183.567 199.993C183.558 208.342 178.346 218.042 171.925 221.651C165.504 225.262 160.306 221.416 160.315 213.066C160.324 204.714 165.536 195.016 171.956 191.41C178.373 187.799 183.575 191.637 183.567 199.993Z" fill="white"/>
<path d="M178.671 203.385C178.666 207.404 175.925 212.072 172.543 213.81C169.165 215.548 166.429 213.7 166.433 209.675C166.438 205.659 169.179 200.987 172.561 199.249C175.939 197.51 178.676 199.36 178.671 203.385Z" fill="#372D35"/>
<path d="M177.447 203.866C177.443 207.267 175.25 211.221 172.543 212.691C169.841 214.16 167.653 212.594 167.657 209.192C167.661 205.791 169.854 201.84 172.557 200.368C175.263 198.898 177.447 200.467 177.447 203.866Z" fill="#76627A"/>
<path d="M244.751 8.53642C248.213 6.56747 251.047 5.19051 252.863 5.95354L253.394 6.26048L348.776 61.7023L302.513 88.7412L222.728 20.8456C231.682 15.8421 240.702 10.8342 244.751 8.53642Z" fill="#887068"/>
<path d="M340.209 56.59C340.209 56.59 331.137 60.2026 321.216 65.5064C311.295 70.8147 301.048 76.5347 301.048 76.5347C305.069 73.4799 311.999 68.6985 323.451 62.8324C330.693 59.1223 338.841 55.7842 338.841 55.7842L340.209 56.59Z" fill="#424242"/>
<path d="M260.664 11.3798C260.664 11.3798 251.308 15.3957 241.697 20.3865C232.086 25.3773 222.727 30.1514 222.727 30.1514C226.622 27.2727 233.335 22.7736 244.429 17.2537C251.445 13.7627 259.338 10.6216 259.338 10.6216L260.664 11.3798Z" fill="#424242"/>
<path d="M77.2277 104.148C79.1793 97.2334 82.0807 87.2047 85.728 75.3755C89.1238 64.3466 92.1423 57.8275 95.5164 53.3438L131.56 74.2361L170.124 96.5766L200.699 114.299L178.503 163.198L116.958 127.402L77.0977 104.218L77.2277 104.148Z" fill="#6C6C6C"/>
<path d="M108.338 43.7939C118.632 37.8654 163.064 12.0164 174.439 5.69933C182.827 1.0412 187.078 -0.0414963 189.829 1.53886L190.087 1.68729L285.139 56.8209L206.329 118.036L170.687 97.4694L95.4541 54.0706C99.0533 49.3164 103.05 46.8455 108.338 43.7939Z" fill="#FFF1E8"/>
<path d="M77.7421 104.609L172.552 159.695L99.491 205.919L4.57532 150.799L77.7421 104.609Z" fill="#D0D0D0"/>
<path d="M172.191 159.228C174.149 152.339 177.06 142.352 180.719 130.567C187.727 107.972 193.113 104.306 203.355 98.4182C213.596 92.53 257.798 66.8804 269.118 60.6066C280.438 54.3372 284.21 54.5539 286.903 59.1162C288.97 62.6084 298.311 77.6472 302.566 84.4885C313.694 78.1758 333.25 67.4047 339.785 63.7089C346.232 60.0607 350.527 58.3753 349.948 69.1594C349.478 77.8681 346.715 104.857 346.715 104.857L323.91 117.98L318.88 99.744L303.675 99.4883L287.682 117.304L280.043 143.227L190.168 194.973L187.223 177.433L172.548 178.942L153.723 193.079L148.711 218.911L99.3408 247.42C99.3408 247.42 98.4311 221.589 98.6965 205.562C114.702 193.833 156.995 168.595 172.191 159.228Z" fill="#424242"/>
<path d="M99.1261 247.42L99.0034 205.483L4.57576 150.801L3.67175 192.81L99.1261 247.42Z" fill="#A2A2A2"/>
<path d="M74.6498 194.934L96.6267 207.862L96.6777 226.669L74.6498 213.701V194.934Z" fill="#372D35"/>
<path d="M88.1119 204.698L95.4022 208.915L95.4545 224.228L88.1119 219.971V204.698Z" fill="#F7BB3B"/>
<path d="M31.8179 170.522L72.1062 193.708L72.2025 215.684L31.8179 192.425V170.522Z" fill="#372D35"/>
<path d="M33.0413 172.962L69.6679 194.776L69.7544 213.243L33.0413 191.358V172.962Z" fill="#76627A"/>
<path d="M33.0413 174.183L69.6679 196.294L69.7544 198.595L33.0413 176.408V174.183Z" fill="#372D35"/>
<path d="M33.0413 179.066L69.6679 200.071L69.7544 202.257L33.0413 181.184V179.066Z" fill="#372D35"/>
<path d="M33.0413 182.727L69.6679 204.839L69.7544 207.139L33.0413 184.957V182.727Z" fill="#372D35"/>
<path d="M33.0413 187.61L69.6679 209.716L69.7544 212.022L33.0413 189.836V187.61Z" fill="#372D35"/>
<path d="M6.1189 155.875L29.3168 168.802L29.3706 187.61L6.1189 174.639V155.875Z" fill="#372D35"/>
<path d="M287.123 112.191C290.858 105.371 296.943 100.531 302.62 97.3421C315.551 90.0761 327.906 99.3654 327.972 116.109C327.062 116.619 324.567 118.03 324.567 118.03C324.584 104.089 315.445 95.9446 304.72 101.972C302.875 103.009 296.974 110.807 296.974 110.807L290.383 120.182L289.548 120.64C287.373 125.939 286.486 133.929 286.525 139.468C284.509 140.985 279.697 143.343 279.096 143.669C278.608 136.377 280.418 124.413 287.123 112.191Z" fill="white"/>
<path d="M304.769 101.032C289.562 109.964 283.98 125.786 283.915 141.227C284.448 140.925 286.633 139.462 287.833 138.761L287.816 138.323C287.829 125.545 295.53 110.709 305.016 105.185C314.499 99.6657 322.178 105.544 322.165 118.322L322.152 118.725C323.257 118.081 324.388 117.415 325.524 116.758C325.467 101.418 316.18 94.3348 304.769 101.032Z" fill="#424242"/>
<path d="M153.731 189.093C157.465 182.277 163.551 177.433 169.227 174.242C182.158 166.971 194.514 176.265 194.58 193.011C193.67 193.52 191.174 194.932 191.174 194.932C191.188 180.986 182.053 172.846 171.328 178.872C169.482 179.906 163.581 187.705 163.581 187.705L156.991 197.087L156.156 197.537C153.981 202.841 153.093 210.832 153.133 216.375C151.112 217.884 146.31 220.242 145.703 220.567C145.215 213.275 147.03 201.31 153.731 189.093Z" fill="white"/>
<path d="M171.378 177.934C156.171 186.866 150.585 202.692 150.524 218.125C151.057 217.827 153.237 216.364 154.442 215.663L154.425 215.22C154.438 202.443 162.139 187.606 171.621 182.087C181.108 176.564 188.787 182.446 188.774 195.223L188.761 195.627C189.862 194.979 191.002 194.316 192.133 193.656C192.076 178.316 182.789 171.232 171.378 177.934Z" fill="#424242"/>
<path d="M75.875 205.459C75.8794 209.164 78.0722 213.477 80.779 215.08C83.4813 216.686 85.6697 214.98 85.6653 211.264C85.6608 207.554 83.468 203.244 80.7656 201.641C78.0589 200.034 75.875 201.743 75.875 205.459Z" fill="white"/>
<path d="M8.56641 158.316L15.8569 162.535L15.9091 177.845L8.56641 173.59V158.316Z" fill="#F7BB3B"/>
<path d="M17.1323 171.278C17.1368 174.993 19.3296 179.303 22.0319 180.906C24.7342 182.507 26.9226 180.801 26.9226 177.094C26.9182 173.377 24.7209 169.069 22.0186 167.46C19.3163 165.859 17.1279 167.571 17.1323 171.278Z" fill="white"/>
<path d="M99.3494 251.196V236.853L0 179.066V192.976L99.3494 251.196Z" fill="#433642"/>
<path d="M33.0416 201.036L66.0835 220.062L65.964 229.111L33.0416 210.09V201.036Z" fill="white"/>
<path d="M126.05 235.475L99.2435 251.196V237.313L126.05 221.787V235.475Z" fill="#372D35"/>
<path d="M126.05 221.735L123.26 220.527L99.1179 233.965L4.53347 178.691V176.625L0.00134277 179.34L99.0223 237.655L126.05 221.735Z" fill="#76627A"/>
<path d="M18.3567 154.191L89.6796 196.155C89.6796 196.155 103.446 184.78 109.549 180.086C115.647 175.399 157.867 149.109 157.867 149.109L86.5441 107.05C86.5441 107.05 49.0423 129.758 41.9234 134.951C29.368 144.1 18.3567 154.191 18.3567 154.191Z" fill="white"/>
<path d="M157.867 151.904L89.3357 196.155C89.3357 196.155 95.0952 189.36 113.008 177.094C131.786 164.231 157.867 149.771 157.867 149.771V151.904Z" fill="#424242"/>
<path d="M177.906 105.625C182.883 109.025 181.26 112.365 178.518 118.797C175.777 125.229 172.702 135.569 171.146 141.71C169.584 147.856 168.426 152.433 159.706 148.008C151.66 143.925 89.1404 107.197 84.7194 104.005C80.3639 100.865 82.2268 98.3805 83.508 92.8692C85.3228 85.0388 92.2845 67.0024 94.4535 63.9363C96.6268 60.8745 100.396 61.5563 104.166 63.9363C107.935 66.3206 173.686 102.741 177.906 105.625Z" fill="#372D35"/>
<path d="M88.2249 100.628L87.7314 100.241C84.3608 97.1795 85.5372 95.2467 88.2249 86.456C91.1549 76.8835 96.0147 63.8625 100.456 65.7301C102.699 66.6726 105.254 68.2231 110.647 71.1331C116.89 74.5078 126.077 79.1811 129.822 81.3657C135.514 84.6926 168.652 102.982 172.525 105.501C176.979 108.394 180.376 110.326 177.755 116.45C177.415 117.25 177.015 118.196 176.583 119.256C164.074 112.819 140.956 100.98 127.566 94.4953C110.286 86.1346 99.306 82.9597 88.2249 100.628Z" fill="#5D77BA"/>
<path d="M160.7 142.522C151.166 137.582 130.959 126.22 122.22 120.68C110.655 113.359 92.1315 103.452 88.1112 100.385C99.1614 82.7096 110.111 85.8858 127.343 94.2499C140.695 100.737 163.749 112.581 176.223 119.02C173.319 126.116 168.701 138.104 167.682 141.228C167.361 142.223 166.126 145.329 160.7 142.522Z" fill="#79C5CF"/>
<path d="M264.293 70.6702C254.524 76.5936 218.893 95.5806 207.984 102.152C195.936 109.413 191.593 114.611 188.004 129.335C185.032 141.538 183.284 150.243 182.744 153.015L179.896 154.654C179.896 154.654 181.807 144.428 185.576 128.952C189.305 113.642 193.824 108.231 206.354 100.678C217.701 93.8423 254.756 74.0947 264.92 67.9366C275.083 61.7742 280.378 59.5883 284.177 64.8555C287.977 70.1226 297.378 87.0888 297.378 87.0888L295.117 88.3926C293.355 85.2418 286.009 72.1521 282.806 67.7107C279.155 62.6434 274.062 64.7468 264.293 70.6702Z" fill="#372D35"/>
<path d="M195.641 143.768C195.423 144.843 195.262 145.817 195.105 146.783L183.566 153.433C184.102 150.669 185.842 141.992 188.797 129.827C192.367 115.149 196.688 109.968 208.672 102.729C219.522 96.1785 254.964 77.251 264.681 71.3462C274.398 65.4413 279.463 63.3445 283.095 68.3959C283.661 69.1844 284.363 70.2501 285.139 71.4804C267.34 80.7384 222.408 105.103 213.545 111.06C201.588 119.1 198.523 129.446 195.641 143.768Z" fill="#5D77BA"/>
<path d="M194.581 147.329C194.738 146.358 194.899 145.379 195.117 144.299C198.002 129.905 201.07 119.508 213.042 111.428C221.915 105.441 266.898 80.9557 284.718 71.6516C288.292 77.3638 293.49 86.6765 294.93 89.2714L194.581 147.329Z" fill="#79C5CF"/>
<path d="M186.014 176.38L285.139 119.257C283.717 122.314 282.827 125.597 282.16 128.985L191.035 181.507C189.726 179.52 188.051 177.795 186.014 176.38Z" fill="white"/>
<path d="M241.084 120.476L243.531 119.328V81.417L241.084 82.9033V120.476Z" fill="#372D35"/>
<path d="M241.084 165.639L243.531 164.542V119.256L241.084 120.363V165.639Z" fill="#321B00"/>
<path d="M191.2 153.742L199.188 148.744C200.019 148.226 200.699 148.785 200.699 149.99C200.699 151.191 200.019 152.605 199.188 153.124L191.2 158.121C190.365 158.64 189.685 158.086 189.685 156.88C189.685 155.675 190.365 154.261 191.2 153.742Z" fill="#171717"/>
<path d="M249.937 119.562L257.925 114.568C258.76 114.049 259.44 114.604 259.44 115.81C259.44 117.015 258.76 118.425 257.925 118.948L249.937 123.943C249.106 124.466 248.426 123.906 248.426 122.701C248.426 121.495 249.106 120.085 249.937 119.562Z" fill="#171717"/>
<path d="M270.454 52.123C270.454 52.123 247.493 65.1016 232.257 73.1242C217.02 81.1468 190.909 98.5056 190.909 98.5056C190.909 98.5056 209.248 82.9125 230.684 71.4011C252.12 59.894 270.454 52.123 270.454 52.123Z" fill="#424242"/>
<path d="M189.686 5.73975C189.686 5.73975 166.725 18.7185 151.488 26.737C136.251 34.7597 110.141 52.123 110.141 52.123C110.141 52.123 128.479 36.5297 149.911 25.0181C171.347 13.5108 189.686 5.73975 189.686 5.73975Z" fill="#424242"/>
<path d="M192.003 170.209L181.247 163.828C179.831 162.987 178.67 160.716 178.67 158.778V153.307C178.67 151.369 179.831 150.468 181.247 151.304L192.003 157.685C193.419 158.526 194.58 160.797 194.58 162.739V168.206C194.58 170.149 193.419 171.045 192.003 170.209Z" fill="#F17751"/>
<path d="M177.447 152.217C177.447 152.217 178.968 150.929 179.707 150.996C180.442 151.067 178.787 153.433 178.787 153.433L177.447 152.217Z" fill="#F17751"/>
<path d="M192.133 171.742C192.133 171.742 193.867 171.397 194.331 170.323C194.795 169.246 194.468 168.082 194.468 168.082C194.468 168.082 192.076 169.511 192.133 171.742Z" fill="#F17751"/>
<path d="M190.583 171.427L178.999 165.05C177.475 164.209 176.224 161.933 176.224 159.995V154.524C176.224 152.586 177.475 151.685 178.999 152.53L190.583 158.901C192.107 159.742 193.357 162.015 193.357 163.961V169.423C193.357 171.366 192.107 172.268 190.583 171.427Z" fill="#222222"/>
</svg>
