<svg width="350" height="311" viewBox="0 0 350 311" fill="none" xmlns="http://www.w3.org/2000/svg">
<path d="M55.221 170.924C48.5011 173.697 42.633 183.651 41.3883 192.822C39.6846 193.805 35.8471 196.005 34.8719 196.661C35.5718 200.205 37.2324 202.474 39.5269 203.508L48.5814 208.738L54.7191 194.759L54.7334 194.73C56.5518 191.84 58.0174 188.552 58.9352 185.159L64.5767 172.316C62.222 170.043 58.9208 169.395 55.221 170.924Z" fill="#251E22"/>
<path d="M69.7421 183.026C69.7421 192.817 63.9592 204.192 56.8255 208.433C49.6947 212.668 43.9118 208.171 43.9118 198.379C43.9118 188.588 49.6947 177.216 56.8255 172.975C63.9592 168.738 69.7421 173.237 69.7421 183.026Z" fill="#372D35"/>
<path d="M64.5767 186.487C64.5767 192.688 60.8182 199.891 56.179 202.575C51.5455 205.26 47.787 202.412 47.787 196.212C47.787 190.012 51.5455 182.806 56.179 180.121C60.8182 177.436 64.5767 180.287 64.5767 186.487Z" fill="#929292"/>
<path d="M63.2849 187.122C63.2849 191.694 60.3941 196.999 56.8242 198.978C53.2606 200.955 50.3698 198.855 50.3698 194.287C50.3698 189.718 53.2606 184.409 56.8242 182.43C60.3941 180.455 63.2849 182.553 63.2849 187.122Z" fill="white"/>
<path d="M59.41 189.557C59.41 191.841 58.2551 194.495 56.827 195.485C55.404 196.473 54.244 195.424 54.244 193.139C54.244 190.853 55.404 188.2 56.827 187.213C58.2551 186.222 59.41 187.271 59.41 189.557Z" fill="#333232"/>
<path d="M56.827 184.652C56.827 184.979 56.5377 185.357 56.1779 185.497C55.8247 185.64 55.5354 185.488 55.5354 185.164C55.5354 184.837 55.8247 184.459 56.1779 184.316C56.5377 184.177 56.827 184.325 56.827 184.652Z" fill="#333232"/>
<path d="M60.7021 184.652C60.7021 184.979 60.4162 185.357 60.0564 185.497C59.6999 185.64 59.4106 185.488 59.4106 185.164C59.4106 184.837 59.6999 184.459 60.0564 184.316C60.4162 184.177 60.7021 184.325 60.7021 184.652Z" fill="#333232"/>
<path d="M54.244 188.515C54.244 188.842 53.9541 189.22 53.6 189.363C53.2392 189.504 52.9525 189.354 52.9525 189.027C52.9525 188.699 53.2392 188.321 53.6 188.181C53.9541 188.041 54.244 188.191 54.244 188.515Z" fill="#333232"/>
<path d="M60.7021 192.381C60.7021 192.708 60.4162 193.087 60.0564 193.227C59.6999 193.368 59.4106 193.218 59.4106 192.893C59.4106 192.565 59.6999 192.188 60.0564 192.046C60.4162 191.904 60.7021 192.056 60.7021 192.381Z" fill="#333232"/>
<path d="M54.244 196.638C54.244 197.288 53.9541 198.045 53.6 198.33C53.2392 198.608 52.9525 198.312 52.9525 197.658C52.9525 197.008 53.2392 196.251 53.6 195.964C53.9541 195.683 54.244 195.982 54.244 196.638Z" fill="#333232"/>
<path d="M61.9922 188.517C61.9922 188.844 61.7029 189.223 61.3498 189.363C60.9899 189.504 60.7007 189.354 60.7007 189.029C60.7007 188.701 60.9899 188.323 61.3498 188.183C61.7029 188.039 61.9922 188.19 61.9922 188.517Z" fill="#333232"/>
<path d="M52.9523 193.669C52.9523 193.996 52.6631 194.376 52.3032 194.515C51.95 194.658 51.6608 194.506 51.6608 194.181C51.6608 193.856 51.95 193.475 52.3032 193.334C52.6631 193.194 52.9523 193.342 52.9523 193.669Z" fill="#333232"/>
<path d="M56.827 196.638C56.827 197.288 56.5377 198.045 56.1779 198.33C55.8247 198.608 55.5354 198.312 55.5354 197.658C55.5354 197.008 55.8247 196.251 56.1779 195.964C56.5377 195.683 56.827 195.982 56.827 196.638Z" fill="#333232"/>
<path d="M150.178 155.923L350 40.5602L279.896 0.0543213L80.0739 115.416L150.178 155.923Z" fill="#FFF1E8"/>
<path d="M90.4945 117.278L282.842 5.97295L278.88 3.91943L86.5322 115.225L90.4945 117.278Z" fill="#424242"/>
<path d="M149.926 152.059L343.542 40.7506L339.554 38.7001L145.941 150.005L149.926 152.059Z" fill="#424242"/>
<path d="M179.521 221.62L193.727 230.441V246.095L179.521 237.272V221.62Z" fill="#251E22"/>
<path d="M331.919 148.249C331.919 158.037 326.14 169.411 319.004 173.652C311.871 177.89 306.089 173.39 306.089 163.6C306.089 153.809 311.871 142.438 319.004 138.197C326.14 133.957 331.919 138.459 331.919 148.249Z" fill="#251E22"/>
<path d="M320.681 180.398L311.255 174.955L328.072 137.889L337.085 143.065L320.681 180.398Z" fill="#251E22"/>
<path d="M342.251 153.4C342.251 163.191 336.178 174.565 328.688 178.803C321.199 183.043 315.129 178.541 315.129 168.753C315.129 158.962 321.199 147.587 328.688 143.35C336.178 139.109 342.251 143.608 342.251 153.4Z" fill="#372D35"/>
<path d="M338.376 156.859C338.376 163.057 334.33 170.262 329.336 172.948C324.342 175.632 320.295 172.781 320.295 166.582C320.295 160.382 324.342 153.178 329.336 150.494C334.33 147.807 338.376 150.659 338.376 156.859Z" fill="#DEC9DF"/>
<path d="M335.794 158.781C335.794 163.353 332.901 168.66 329.335 170.638C325.769 172.614 322.879 170.516 322.879 165.947C322.879 161.378 325.769 156.067 329.335 154.092C332.901 152.113 335.794 154.212 335.794 158.781Z" fill="white"/>
<path d="M331.919 159.929C331.919 162.214 330.474 164.868 328.69 165.857C326.907 166.845 325.461 165.796 325.461 163.509C325.461 161.229 326.907 158.577 328.69 157.585C330.474 156.593 331.919 157.645 331.919 159.929Z" fill="#372D35"/>
<path d="M329.336 155.024C329.336 155.351 329.046 155.728 328.69 155.87C328.335 156.011 328.045 155.86 328.045 155.535C328.045 155.207 328.335 154.829 328.69 154.689C329.046 154.546 329.336 154.698 329.336 155.024Z" fill="#372D35"/>
<path d="M325.462 164.429C325.462 165.08 325.175 165.84 324.818 166.122C324.459 166.405 324.171 166.104 324.171 165.454C324.171 164.797 324.459 164.038 324.818 163.76C325.175 163.476 325.462 163.778 325.462 164.429Z" fill="#372D35"/>
<path d="M329.336 167.906C329.336 168.231 329.046 168.611 328.69 168.753C328.335 168.894 328.045 168.744 328.045 168.418C328.045 168.09 328.335 167.71 328.69 167.572C329.046 167.428 329.336 167.581 329.336 167.906Z" fill="#372D35"/>
<path d="M300.923 166.283C300.923 176.072 294.85 187.446 287.36 191.686C279.874 195.923 273.801 191.425 273.801 181.634C273.801 171.842 279.874 160.472 287.36 156.231C294.85 151.991 300.923 156.493 300.923 166.283Z" fill="#251E22"/>
<path d="M288.864 198.434L278.966 192.993L296.624 155.924L306.088 161.101L288.864 198.434Z" fill="#251E22"/>
<path d="M311.255 172.722C311.255 182.513 305.185 193.888 297.695 198.125C290.203 202.367 284.133 197.865 284.133 188.077C284.133 178.285 290.203 166.911 297.695 162.673C305.185 158.432 311.255 162.932 311.255 172.722Z" fill="#372D35"/>
<path d="M306.088 175.281C306.088 181.807 302.329 189.391 297.695 192.219C293.058 195.041 289.299 192.043 289.299 185.516C289.299 178.991 293.058 171.407 297.695 168.581C302.329 165.753 306.088 168.754 306.088 175.281Z" fill="#DEC9DF"/>
<path d="M303.506 176.817C303.506 181.386 300.905 186.696 297.697 188.671C294.487 190.65 291.883 188.552 291.883 183.982C291.883 179.413 294.487 174.104 297.697 172.128C300.905 170.146 303.506 172.247 303.506 176.817Z" fill="white"/>
<path d="M300.923 177.964C300.923 180.248 299.477 182.904 297.695 183.891C295.911 184.88 294.465 183.831 294.465 181.544C294.465 179.263 295.911 176.608 297.695 175.62C299.477 174.628 300.923 175.68 300.923 177.964Z" fill="#372D35"/>
<path d="M298.34 173.448C298.34 174.098 298.049 174.857 297.696 175.14C297.336 175.424 297.049 175.122 297.049 174.472C297.049 173.816 297.336 173.056 297.696 172.779C298.049 172.492 298.34 172.797 298.34 173.448Z" fill="#372D35"/>
<path d="M302.214 173.448C302.214 174.098 301.923 174.857 301.57 175.14C301.21 175.424 300.922 175.122 300.922 174.472C300.922 173.816 301.21 173.056 301.57 172.779C301.923 172.492 302.214 172.797 302.214 173.448Z" fill="#372D35"/>
<path d="M294.465 178.211C294.465 178.536 294.174 178.916 293.821 179.057C293.465 179.199 293.174 179.048 293.174 178.723C293.174 178.398 293.465 178.019 293.821 177.875C294.174 177.736 294.465 177.884 294.465 178.211Z" fill="#372D35"/>
<path d="M302.214 182.076C302.214 182.402 301.923 182.781 301.57 182.923C301.21 183.064 300.922 182.913 300.922 182.586C300.922 182.263 301.21 181.884 301.57 181.74C301.923 181.601 302.214 181.749 302.214 182.076Z" fill="#372D35"/>
<path d="M294.465 185.941C294.465 186.266 294.174 186.644 293.821 186.786C293.465 186.928 293.174 186.777 293.174 186.452C293.174 186.124 293.465 185.745 293.821 185.606C294.174 185.462 294.465 185.615 294.465 185.941Z" fill="#372D35"/>
<path d="M303.506 177.311C303.506 177.961 303.218 178.72 302.86 179.006C302.506 179.284 302.215 178.988 302.215 178.333C302.215 177.682 302.506 176.925 302.86 176.641C303.218 176.359 303.506 176.66 303.506 177.311Z" fill="#372D35"/>
<path d="M293.174 183.362C293.174 183.69 292.887 184.069 292.53 184.209C292.174 184.352 291.883 184.202 291.883 183.876C291.883 183.548 292.174 183.169 292.53 183.03C292.887 182.886 293.174 183.039 293.174 183.362Z" fill="#372D35"/>
<path d="M298.34 185.941C298.34 186.266 298.049 186.644 297.696 186.786C297.336 186.928 297.049 186.777 297.049 186.452C297.049 186.124 297.336 185.745 297.696 185.606C298.049 185.462 298.34 185.615 298.34 185.941Z" fill="#372D35"/>
<path d="M182.104 234.554C182.104 244.345 176.037 255.719 168.544 259.957C161.054 264.198 154.983 259.696 154.983 249.907C154.983 240.117 161.054 228.743 168.544 224.505C176.037 220.264 182.104 224.763 182.104 234.554Z" fill="#251E22"/>
<path d="M170.043 266.706L160.148 261.262L177.804 224.197L187.27 229.372L170.043 266.706Z" fill="#251E22"/>
<path d="M192.436 239.71C192.436 249.497 186.363 260.871 178.874 265.111C171.384 269.35 165.314 264.85 165.314 255.059C165.314 245.269 171.384 233.897 178.874 229.658C186.363 225.417 192.436 229.919 192.436 239.71Z" fill="#372D35"/>
<path d="M187.27 243.166C187.27 249.367 183.51 256.568 178.874 259.256C174.237 261.939 170.48 259.088 170.48 252.891C170.48 246.687 174.237 239.486 178.874 236.802C183.51 234.115 187.27 236.964 187.27 243.166Z" fill="#DEC9DF"/>
<path d="M184.687 245.087C184.687 249.659 182.086 254.965 178.874 256.944C175.664 258.922 173.063 256.825 173.063 252.252C173.063 247.685 175.664 242.38 178.874 240.398C182.086 238.42 184.687 240.52 184.687 245.087Z" fill="white"/>
<path d="M182.104 246.237C182.104 248.522 180.656 251.177 178.876 252.166C177.092 253.154 175.647 252.102 175.647 249.817C175.647 247.535 177.092 244.88 178.876 243.891C180.656 242.903 182.104 243.953 182.104 246.237Z" fill="#372D35"/>
<path d="M179.521 241.331C179.521 241.659 179.232 242.038 178.875 242.177C178.518 242.321 178.229 242.168 178.229 241.845C178.229 241.517 178.518 241.14 178.875 240.996C179.232 240.857 179.521 241.005 179.521 241.331Z" fill="#372D35"/>
<path d="M183.395 241.331C183.395 241.659 183.107 242.038 182.751 242.177C182.395 242.321 182.104 242.168 182.104 241.845C182.104 241.517 182.395 241.14 182.751 240.996C183.107 240.857 183.395 241.005 183.395 241.331Z" fill="#372D35"/>
<path d="M175.646 246.484C175.646 246.81 175.361 247.188 175.001 247.331C174.647 247.47 174.355 247.322 174.355 246.996C174.355 246.668 174.647 246.289 175.001 246.149C175.361 246.008 175.646 246.156 175.646 246.484Z" fill="#372D35"/>
<path d="M183.395 249.452C183.395 250.097 183.107 250.856 182.751 251.143C182.395 251.422 182.104 251.125 182.104 250.47C182.104 249.82 182.395 249.061 182.751 248.779C183.107 248.495 183.395 248.796 183.395 249.452Z" fill="#372D35"/>
<path d="M175.646 254.211C175.646 254.539 175.361 254.919 175.001 255.058C174.647 255.201 174.355 255.052 174.355 254.726C174.355 254.398 174.647 254.021 175.001 253.877C175.361 253.738 175.646 253.886 175.646 254.211Z" fill="#372D35"/>
<path d="M184.687 245.197C184.687 245.522 184.395 245.901 184.041 246.042C183.684 246.183 183.396 246.033 183.396 245.706C183.396 245.383 183.684 245.004 184.041 244.86C184.395 244.72 184.687 244.869 184.687 245.197Z" fill="#372D35"/>
<path d="M174.355 250.735C174.355 251.391 174.067 252.151 173.711 252.428C173.351 252.716 173.063 252.416 173.063 251.759C173.063 251.108 173.351 250.354 173.711 250.066C174.067 249.787 174.355 250.084 174.355 250.735Z" fill="#372D35"/>
<path d="M179.521 254.211C179.521 254.539 179.232 254.919 178.875 255.058C178.518 255.201 178.229 255.052 178.229 254.726C178.229 254.398 178.518 254.021 178.875 253.877C179.232 253.738 179.521 253.886 179.521 254.211Z" fill="#372D35"/>
<path d="M130.081 270.57L119.491 264.903L112.362 259.852C112.362 259.852 118.037 257.999 118.571 257.703C119.105 257.403 132.825 261.74 130.081 270.57Z" fill="#232221"/>
<path d="M73.8298 155.924V222.909L81.3663 218.014L23.2482 184.577L73.8298 155.924Z" fill="#EF3075"/>
<path d="M61.9922 230.28L5.16571 262.841V227.926L12.4093 203.585L61.9922 230.28Z" fill="#EF3075"/>
<path d="M15.3294 194.389C16.5656 190.178 19.3572 186.612 23.1325 184.418L23.3966 184.262L81.5127 217.948L99.4463 228.345L97.2177 248.671L61.8785 229.366L12.915 202.616L15.3294 194.389Z" fill="white"/>
<path d="M17.3577 189.416L89.1145 230.15L75.1003 267.995L5.16626 227.386C5.16626 227.386 12.3262 201.901 15.5029 192.658C15.8087 191.777 17.3577 189.416 17.3577 189.416Z" fill="#FFF1E8"/>
<path d="M102.03 253.646L134.733 234.502L161.44 250.138L128.737 269.282L102.03 253.646Z" fill="#372D35"/>
<path d="M161.44 249.96L127.861 269.123V282.165L161.44 263.02V249.96Z" fill="#483E48"/>
<path d="M158.857 261.554L133.026 276.797V278.3L158.857 263.062V261.554Z" fill="#372D35"/>
<path d="M158.857 257.689L133.026 272.932V274.435L158.857 259.197V257.689Z" fill="#372D35"/>
<path d="M167.897 217.764L254.85 166.229L281.55 181.679L194.595 233.214L167.897 217.764Z" fill="#372D35"/>
<path d="M281.55 181.687L193.727 233.072V246.095L281.55 194.723V181.687Z" fill="#483E48"/>
<path d="M278.967 191.992L197.602 239.475V240.943L278.967 193.465V191.992Z" fill="#372D35"/>
<path d="M278.967 189.416L197.602 236.902V238.367L278.967 190.889V189.416Z" fill="#372D35"/>
<path d="M80.0745 114.702V209.536L149.816 249.96V155.16L80.0745 114.702Z" fill="#616161"/>
<path d="M80.0745 114.702V144.846L149.816 185.551V155.439L80.0745 114.702Z" fill="#A1A1A1"/>
<path d="M80.0745 202.297V214.354L149.816 255.112V243.088L80.0745 202.297Z" fill="#FFF1E8"/>
<path d="M350 39.9884V134.796L149.816 249.96V155.183L350 39.9884Z" fill="#887068"/>
<path d="M350 39.9885V70.1812L149.816 185.551V155.39L350 39.9885Z" fill="#424242"/>
<path d="M350 127.584V139.577L149.816 255.112V243.151L350 127.584Z" fill="#424242"/>
<path d="M118.821 270.623C118.821 280.414 113.039 291.788 105.907 296.026C98.7743 300.266 92.9903 295.767 92.9903 285.977C92.9903 276.186 98.7743 264.812 105.907 260.574C113.039 256.333 118.821 260.833 118.821 270.623Z" fill="#251E22"/>
<path d="M107.581 301.486L98.1554 296.045L114.969 258.977L123.986 264.15L107.581 301.486Z" fill="#251E22"/>
<path d="M129.152 275.777C129.152 285.568 123.08 296.938 115.589 301.18C108.1 305.419 102.031 300.917 102.031 291.127C102.031 281.338 108.1 269.964 115.589 265.724C123.08 261.487 129.152 265.985 129.152 275.777Z" fill="#372D35"/>
<path d="M123.986 278.335C123.986 284.861 120.228 292.442 115.588 295.27C110.954 298.096 107.196 295.096 107.196 288.567C107.196 282.042 110.954 274.46 115.588 271.635C120.228 268.806 123.986 271.806 123.986 278.335Z" fill="#DEC9DF"/>
<path d="M122.695 279.872C122.695 284.438 119.801 289.747 116.234 291.725C112.67 293.704 109.779 291.603 109.779 287.034C109.779 282.468 112.67 277.158 116.234 275.18C119.801 273.202 122.695 275.303 122.695 279.872Z" fill="white"/>
<path d="M118.82 282.304C118.82 284.589 117.375 287.244 115.59 288.233C113.809 289.222 112.363 288.169 112.363 285.885C112.363 283.604 113.809 280.948 115.59 279.96C117.375 278.968 118.82 280.02 118.82 282.304Z" fill="#372D35"/>
<path d="M116.236 277.399C116.236 277.726 115.948 278.106 115.589 278.247C115.236 278.388 114.945 278.238 114.945 277.912C114.945 277.585 115.236 277.206 115.589 277.067C115.948 276.923 116.236 277.073 116.236 277.399Z" fill="#372D35"/>
<path d="M120.111 277.399C120.111 277.726 119.823 278.106 119.463 278.247C119.11 278.388 118.819 278.238 118.819 277.912C118.819 277.585 119.11 277.206 119.463 277.067C119.823 276.923 120.111 277.073 120.111 277.399Z" fill="#372D35"/>
<path d="M120.111 285.13C120.111 285.456 119.823 285.835 119.463 285.976C119.11 286.116 118.819 285.968 118.819 285.64C118.819 285.314 119.11 284.935 119.463 284.794C119.823 284.654 120.111 284.802 120.111 285.13Z" fill="#372D35"/>
<path d="M121.403 281.265C121.403 281.591 121.112 281.97 120.759 282.112C120.399 282.253 120.111 282.102 120.111 281.777C120.111 281.452 120.399 281.072 120.759 280.929C121.112 280.79 121.403 280.938 121.403 281.265Z" fill="#372D35"/>
<path d="M112.362 286.417C112.362 286.744 112.071 287.123 111.714 287.262C111.358 287.406 111.07 287.253 111.07 286.928C111.07 286.602 111.358 286.223 111.714 286.082C112.071 285.941 112.362 286.09 112.362 286.417Z" fill="#372D35"/>
<path d="M116.236 289.38C116.236 290.035 115.948 290.794 115.589 291.073C115.236 291.361 114.945 291.054 114.945 290.408C114.945 289.753 115.236 288.993 115.589 288.716C115.948 288.428 116.236 288.728 116.236 289.38Z" fill="#372D35"/>
<path d="M143.358 195.857L92.4856 225.112C88.6676 227.309 85.8423 230.881 84.5912 235.097L74.9083 267.749V302.775L96.0745 290.598C97.8131 278.63 105.138 266.181 113.913 261.135C122.691 256.088 130.013 260.114 131.749 270.082L143.358 263.408V195.857Z" fill="#424242"/>
<path d="M107.196 266.706V217.306L108.487 216.468V266.706H107.196Z" fill="#FFF1E8"/>
<path d="M114.301 263.025C106.524 267.682 100.037 279.164 98.495 290.204L96.8644 291.182C98.5639 279 105.724 266.331 114.301 261.194C122.882 256.058 130.039 260.156 131.735 270.3L130.105 271.276C128.563 262.082 122.075 258.369 114.301 263.025Z" fill="#FFF1E8"/>
<path d="M5.1665 228.061L74.9081 268.155V302.775L5.1665 262.674V228.061Z" fill="#A1A1A1"/>
<path d="M193.727 228.062L198.893 225.337V219.044L193.727 221.768V228.062Z" fill="white"/>
<path d="M193.727 220.8L197.798 217.757L198.893 218.581L194.822 221.62L193.727 220.8Z" fill="#CCE2F5"/>
<path d="M5.1665 228.061L74.9081 267.856V270.57L5.1665 230.773V228.061Z" fill="white"/>
<path d="M143.358 228.061L74.9083 267.778V270.57L143.358 230.85V228.061Z" fill="#FFF1E8"/>
<path d="M63.2849 273.722V275.725L16.7905 248.342V246.34L16.8079 246.096L63.2647 273.456L63.2849 273.722Z" fill="#372D35"/>
<path d="M63.2849 282.882L63.2386 283.453L16.8367 257.298L16.7905 256.675V255.112L63.2849 281.319V282.882Z" fill="#372D35"/>
<path d="M19.7429 243.911L60.3325 266.71C61.5902 267.416 62.6826 268.919 63.2849 270.57L16.7905 244.458C17.3928 243.486 18.4881 243.208 19.7429 243.911Z" fill="#372D35"/>
<path d="M63.285 279.588L16.7906 252.084V249.96L63.285 277.465V279.588Z" fill="#372D35"/>
<path d="M60.4881 285.627L19.5842 262.437C18.4388 261.785 17.4272 260.468 16.7905 258.977L63.2849 285.338C62.6482 286.106 61.6366 286.278 60.4881 285.627Z" fill="#372D35"/>
<path d="M62.8162 270.861C63.0882 271.615 63.256 272.395 63.2849 273.148L16.7905 246.558C16.8223 245.839 16.9872 245.249 17.2591 244.808L62.8162 270.861Z" fill="#C2C2C2"/>
<path d="M63.2849 277.011L16.7905 250.671V248.672L63.2849 275.009V277.011Z" fill="#C2C2C2"/>
<path d="M63.2849 282.165L16.7905 254.627V252.536L63.2849 280.074V282.165Z" fill="#C2C2C2"/>
<path d="M62.668 286.029L17.4074 258.892C17.0802 258.086 16.8687 257.235 16.7905 256.401L63.2849 284.278C63.2038 285.017 62.9924 285.61 62.668 286.029Z" fill="#C2C2C2"/>
<path d="M5.16714 234.502L10.9476 238.331C12.7395 239.412 14.2077 242.419 14.2077 244.919V254.71C14.2077 257.204 12.7395 258.367 10.9476 257.282L5.16714 253.457V234.502Z" fill="#282724"/>
<path d="M69.1378 272.249L74.9082 275.589V293.758L69.1378 290.422C67.3403 289.381 65.8676 286.561 65.8676 284.157V274.729C65.8676 272.322 67.3403 271.209 69.1378 272.249Z" fill="#282724"/>
<path d="M67.1594 275.865C67.1594 278.147 68.6049 280.805 70.3897 281.792C72.1716 282.781 73.617 281.734 73.617 279.447C73.617 277.164 72.1716 274.506 70.3897 273.52C68.6049 272.53 67.1594 273.578 67.1594 275.865Z" fill="white"/>
<path d="M68.451 285.783C68.451 287.738 69.6094 290.017 71.0356 290.861C72.4587 291.711 73.6171 290.812 73.6171 288.855C73.6171 286.896 72.4587 284.621 71.0356 283.772C69.6094 282.923 68.451 283.825 68.451 285.783Z" fill="white"/>
<path d="M6.45755 241.085C6.45755 243.367 7.90297 246.022 9.68487 247.01C11.4697 248.001 12.915 246.95 12.915 244.665C12.915 242.381 11.4697 239.73 9.68487 238.74C7.90297 237.747 6.45755 238.798 6.45755 241.085Z" fill="white"/>
<path d="M7.74908 251.002C7.74908 252.961 8.90513 255.232 10.3291 256.079C11.7561 256.931 12.915 256.029 12.915 254.07C12.915 252.112 11.7561 249.838 10.3291 248.988C8.90513 248.144 7.74908 249.042 7.74908 251.002Z" fill="white"/>
<path d="M18.3892 197.046L11.2003 221.62L10.3323 221.079L16.9004 197.753C17.2417 196.537 18.2898 195.81 19.3728 195.859C18.924 196.08 18.5478 196.481 18.3892 197.046Z" fill="#372D35"/>
<path d="M68.8307 261.028L12.5184 228.921C9.7171 227.326 8.40195 224.023 9.34261 220.96L9.53432 220.332L74.9081 257.768L74.6192 258.737C73.8879 261.174 71.0541 262.293 68.8307 261.028Z" fill="#372D35"/>
<path d="M37.5836 210.289C42.7437 213.388 66.8641 226.885 81.3663 234.98L81.3428 235.091L74.5821 257.689L16.7906 224.491C17.6482 221.841 18.5234 219.14 19.3516 216.597C22.8641 205.767 30.0976 205.799 37.5836 210.289Z" fill="#79C5CF"/>
<path d="M18.1726 197.047C18.3455 196.481 18.7558 196.079 19.2452 195.857C19.6496 195.874 20.0629 195.982 20.4468 196.201L78.0785 228.464C80.675 229.918 81.9235 232.943 81.1293 235.791C66.6577 227.711 42.588 214.24 37.4389 211.147C29.9686 206.666 22.7503 206.634 19.2452 217.442C18.4188 219.981 17.5454 222.677 16.6897 225.322L10.3331 221.668L18.1726 197.047Z" fill="#5D77BA"/>
<path d="M89.1146 292.469C89.1146 292.469 89.1146 297.699 89.1146 299.529C89.1146 303.214 85.0325 305.351 85.0325 305.351L83.9486 297.06L89.1146 292.469Z" fill="#424242"/>
<path d="M74.9082 303.306L74.7427 310.504L63.2846 303.544L63.3812 296.334L74.9082 303.306Z" fill="#424242"/>
<path d="M9.53674e-07 260.265L12.915 267.252V274.435L9.53674e-07 267.415V260.265Z" fill="#424242"/>
<path d="M63.2849 296.598L63.183 304.064L12.916 274.094V266.707L63.2849 296.598Z" fill="#372D35"/>
<path d="M20.6645 273.146L52.9524 291.918L52.8489 296.333L20.6645 277.535V273.146Z" fill="white"/>
<path d="M74.9082 303.113V310.504L84.0674 305.164C85.1654 304.523 86.5318 302.939 86.5318 301.658V296.334L74.9082 303.113Z" fill="#424242"/>
<path d="M89.1145 291.955L75.5795 299.587L4.56394 259.625L4.5669 257.689L0.00012207 260.164L75.5766 302.775L84.9258 297.518C86.329 296.726 87.9093 295.728 88.5828 294.289L89.1145 291.955Z" fill="#5D7CBA"/>
<path d="M55.5355 295.311C55.5355 296.617 56.4055 298.131 57.4713 298.697C58.543 299.262 59.4101 298.662 59.4101 297.354C59.4101 296.052 58.543 294.538 57.4713 293.973C56.4055 293.406 55.5355 294.003 55.5355 295.311Z" fill="white"/>
<path d="M14.2081 272.125C14.2081 273.433 15.0774 274.947 16.1453 275.511C17.2133 276.079 18.0826 275.475 18.0826 274.173C18.0826 272.868 17.2133 271.35 16.1453 270.786C15.0774 270.222 14.2081 270.822 14.2081 272.125Z" fill="white"/>
<path d="M93.1978 225.485L143.358 196.438L73.4055 155.924L23.2478 184.972L93.1978 225.485Z" fill="#D0D0D0"/>
<path d="M96.8633 212.603L135.609 191.762V182.976C135.609 182.976 122.813 189.333 111.67 194.545C100.527 199.756 96.8633 212.603 96.8633 212.603Z" fill="#424242"/>
<path d="M96.2385 212.603C96.2385 212.603 98.0228 206.053 106.819 199.592C114.04 194.289 135.609 183.436 135.609 183.436L80.7012 152.059C80.7012 152.059 59.4793 163 52.156 168.032C42.4721 174.692 41.3282 181.224 41.3282 181.224L96.2385 212.603Z" fill="#FFF1E8"/>
<path d="M92.781 230.941L101.17 225.783C102.122 225.198 102.944 225.505 103.321 226.429C103.071 226.455 102.801 226.536 102.521 226.711L94.1343 231.865C92.8269 232.669 91.7566 234.846 91.7566 236.7V252.551C91.7566 253.05 91.8429 253.475 91.9804 253.817C91.0693 253.909 90.4061 253.079 90.4061 251.624V235.776C90.4061 233.918 91.4763 231.741 92.781 230.941Z" fill="#334686"/>
<path d="M91.6975 236.918C91.6975 235.086 92.87 232.936 94.3024 232.142L103.49 227.051C103.797 226.878 104.093 226.798 104.368 226.773C104.518 227.111 104.613 227.528 104.613 228.024V243.68C104.613 245.511 103.44 247.661 102.011 248.452L92.8198 253.546C92.5127 253.719 92.2203 253.799 91.9427 253.824C91.792 253.486 91.6975 253.066 91.6975 252.574V236.918Z" fill="#5D77BA"/>
<path d="M90.4064 288.604L94.2809 285.881V279.587L90.4064 282.31V288.604Z" fill="white"/>
<path d="M89.1151 282.164L90.4066 282.834V288.604L89.1151 287.931V282.164Z" fill="#80B6E0"/>
<path d="M89.1148 281.618L93.183 279.589L94.2809 280.136L90.2101 282.165L89.1148 281.618Z" fill="#CCE2F5"/>
<path d="M134.318 262.841L138.192 260.112V253.824L134.318 256.546V262.841Z" fill="white"/>
<path d="M133.027 255.112L134.318 255.919V262.841L133.027 262.03V255.112Z" fill="#80B6E0"/>
<path d="M133.026 255.576L137.097 252.537L138.192 253.36L134.122 256.4L133.026 255.576Z" fill="#CCE2F5"/>
</svg>
