<svg width="220" height="264" viewBox="0 0 220 264" fill="none" xmlns="http://www.w3.org/2000/svg">
<path d="M124.809 123.153C118.66 129.406 110.734 140.746 107.918 145.146L87.5959 156.877V174.829L87.6806 175.161L131.389 149.403C130.707 147.646 130.33 145.501 130.33 143.026C130.33 133.084 136.389 121.54 143.866 117.239C145.849 116.096 147.721 115.609 149.418 115.653V107.058C141.869 110.298 132.939 114.88 124.809 123.153Z" fill="#3C3C3D"/>
<path d="M126.88 125.229C120.731 131.485 113.538 142.478 110.721 146.874L89.6677 158.953V176.908L89.7526 177.24L133.461 151.482C132.779 149.725 132.402 147.58 132.402 145.099C132.402 135.163 138.462 123.617 145.937 119.316C147.92 118.175 149.793 117.688 151.491 117.729V109.134C143.941 112.377 135.011 116.954 126.88 125.229Z" fill="#535456"/>
<path d="M145.307 112.006L142.233 110.288V10.9823L148.384 5.23877L145.307 112.006Z" fill="#2C2A2A"/>
<path d="M151.461 111.799L145.307 115.34V10.983L151.461 5.23949V111.799Z" fill="#535456"/>
<path d="M148.196 1.52588e-05L114.34 19.2833C103.918 25.2818 94.9568 40.2535 92.9599 55.0012L86.4039 157.171L89.6743 159.721L92.6853 153.465L98.4584 57.0874C100.204 44.1864 108.046 31.0845 117.165 25.8355L148.196 8.17743V1.52588e-05Z" fill="#3C3C3D"/>
<path d="M151.46 2.45991L148.196 0.000244141L143.877 2.45991L147.985 6.08887L151.46 2.45991Z" fill="#3C3C3D"/>
<path d="M151.461 2.46094L117.604 21.7442C107.182 27.7427 98.2209 42.7144 96.2237 57.4621L89.6798 158.955L89.6677 160.261L95.9494 155.926L101.722 59.5483C103.468 46.6473 111.31 33.5454 120.429 28.2964L151.461 10.6384V2.46094Z" fill="#535456"/>
<path d="M94.845 176.13C94.845 184.119 89.9732 193.397 83.964 196.856C77.955 200.317 73.084 196.644 73.084 188.655C73.084 180.668 77.955 171.386 83.964 167.927C89.9732 164.47 94.845 168.14 94.845 176.13Z" fill="#2C2A2A"/>
<path d="M85.0867 202.003L77.2067 197.583L91.2675 167.475L98.8062 171.676L85.0867 202.003Z" fill="#2C2A2A"/>
<path d="M103.023 180.672C103.023 188.659 98.1505 197.941 92.1416 201.4C86.1314 204.857 81.2596 201.189 81.2596 193.199C81.2596 185.21 86.1314 175.93 92.1416 172.471C98.1505 169.01 103.023 172.682 103.023 180.672Z" fill="#434244"/>
<path d="M100.653 182.292C100.653 188.54 96.8414 195.803 92.1401 198.507C87.4378 201.214 83.6264 198.343 83.6264 192.092C83.6264 185.841 87.4378 178.578 92.1401 175.871C96.8414 173.166 100.653 176.041 100.653 182.292Z" fill="white"/>
<path d="M98.564 183.491C98.564 188.207 95.6881 193.685 92.1412 195.728C88.5931 197.77 85.7172 195.604 85.7172 190.888C85.7172 186.17 88.5931 180.691 92.1412 178.652C95.6881 176.609 98.564 178.775 98.564 183.491Z" fill="#2C2A2A"/>
<path d="M94.5872 185.781C94.5872 187.576 93.4924 189.665 92.1414 190.443C90.7891 191.22 89.6943 190.394 89.6943 188.598C89.6943 186.803 90.7891 184.715 92.1414 183.937C93.4924 183.162 94.5872 183.986 94.5872 185.781Z" fill="white"/>
<path d="M208.489 145.966L151.469 113.184C144.53 116.349 136.708 120.774 129.51 128.099C123.36 134.355 115.435 145.695 112.619 150.092L96.4451 159.431V177.715L122.79 162.189L171.439 191.952L208.489 145.966Z" fill="#887068"/>
<path d="M147.458 68.1918L151.461 65.6394L155.896 68.1918L150.779 72.6655L147.458 68.1918Z" fill="#686A6C"/>
<path d="M212.732 100.914L151.46 65.6392V112.278L212.732 147.53V100.914Z" fill="#686A6C"/>
<path d="M177.348 56.151L117.301 21.9966V24.8658L177.348 59.574V56.151Z" fill="#2C2A2A"/>
<path d="M194.236 46.3512L134.189 12.1992V15.0632L194.236 49.7742V46.3512Z" fill="#2C2A2A"/>
<path d="M195.033 154.115L205.416 148.137L147.434 114.714L137.716 121.05L195.033 154.115Z" fill="#424242"/>
<path d="M208.731 103.469L147.458 68.1917V114.83L208.731 150.082V103.469Z" fill="#434244"/>
<path d="M211.824 162.635C211.824 170.622 206.953 179.904 200.944 183.363C194.935 186.819 190.063 183.149 190.063 175.16C190.063 167.17 194.935 157.893 200.944 154.434C206.953 150.973 211.824 154.645 211.824 162.635Z" fill="#2C2A2A"/>
<path d="M202.066 188.506L194.186 184.086L208.247 153.975L215.784 158.178L202.066 188.506Z" fill="#2C2A2A"/>
<path d="M220 167.176C220 175.165 215.128 184.448 209.119 187.904C203.11 191.363 198.239 187.69 198.239 179.703C198.239 171.714 203.11 162.437 209.119 158.975C215.128 155.516 220 159.189 220 167.176Z" fill="#434244"/>
<path d="M217.635 168.793C217.635 175.044 213.823 182.305 209.12 185.012C204.419 187.719 200.608 184.847 200.608 178.596C200.608 172.345 204.419 165.085 209.12 162.378C213.823 159.671 217.635 162.545 217.635 168.793Z" fill="#434244"/>
<path d="M215.543 169.998C215.543 174.714 212.667 180.192 209.12 182.235C205.572 184.277 202.697 182.108 202.697 177.393C202.697 172.677 205.572 167.196 209.12 165.154C212.667 163.114 215.543 165.28 215.543 169.998Z" fill="white"/>
<path d="M211.567 172.288C211.567 174.083 210.472 176.172 209.12 176.947C207.768 177.725 206.674 176.901 206.674 175.105C206.674 173.305 207.768 171.222 209.12 170.441C210.472 169.663 211.567 170.49 211.567 172.288Z" fill="#76627A"/>
<path d="M86.4039 156.823V175.119L152.862 213.354V195.085L86.4039 156.823Z" fill="#3C3C3D"/>
<path d="M187.992 159.281C181.843 165.539 174.27 177.171 171.452 181.567L150.779 193.008V210.957L150.861 211.292L194.572 185.533C193.89 183.777 193.513 181.634 193.513 179.154C193.513 169.215 199.572 157.671 207.048 153.367C209.032 152.226 210.904 151.739 212.601 151.781V143.188C205.052 146.429 196.122 151.008 187.992 159.281Z" fill="#3C3C3D"/>
<path d="M190.063 161.36C183.913 167.613 176.721 178.606 173.903 183.002L152.851 195.084V213.036L152.934 213.371L196.643 187.61C195.962 185.853 195.583 183.71 195.583 181.23C195.583 171.293 201.644 159.75 209.12 155.446C211.102 154.302 212.975 153.816 214.674 153.859V145.267C207.122 148.505 198.194 153.087 190.063 161.36Z" fill="#535456"/>
<path d="M155.001 150.783C152.221 150.077 146.979 148.153 144.316 146.61C140.632 144.473 136.611 141.452 134.679 139.087C133.49 137.632 131.794 133.833 135.608 131.639L148.217 124.378C151.88 121.782 157.771 121.277 161.158 123.845C163.798 125.846 169.052 130.364 171.689 131.881C174.133 133.287 179.084 134.5 181.479 135.541C184.603 136.9 184.365 140.795 180.551 142.992L167.942 150.25C164.128 152.447 158.137 151.584 155.001 150.783Z" fill="#2C2A2A"/>
<path d="M144.337 131.901C144.337 131.901 134.811 127.128 134.117 129.645C133.225 132.879 133.257 135.112 133.257 135.112L144.337 135.764V131.901Z" fill="#2C2A2A"/>
<path d="M182.631 132.158C181.077 130.002 171.82 134.749 171.82 134.749V139.346L183.635 138.416C183.635 138.416 184.255 134.409 182.631 132.158Z" fill="#2C2A2A"/>
<path d="M155.113 144.899C152.427 144.214 147.366 142.35 144.788 140.866C142.454 139.522 137.34 135.88 135.474 133.593C134.324 132.189 132.684 128.516 136.371 126.394L148.557 119.378C152.098 116.869 157.791 116.383 161.066 118.863C163.618 120.795 168.696 125.163 171.244 126.628C173.605 127.988 178.391 129.16 180.707 130.167C183.725 131.481 183.496 135.246 179.809 137.368L167.623 144.384C163.936 146.504 158.146 145.672 155.113 144.899Z" fill="#343434"/>
<path d="M188.745 125.161V103.667C188.745 96.1416 184.112 87.3228 178.452 84.0622L173.08 80.9715C167.419 77.7108 162.788 81.2033 162.788 88.7265V110.22L188.745 125.161Z" fill="#2C2A2A"/>
<path d="M166.243 80.5146L161.845 83.121L165.779 85.7249L166.243 80.5146Z" fill="#F79931"/>
<path d="M184.459 127.698L188.745 125.161L183.676 120.185L184.459 127.698Z" fill="#2C2A2A"/>
<path d="M184.459 127.698V106.207C184.459 98.6814 179.827 89.8575 174.168 86.5994L168.796 83.5088C163.135 80.2481 158.504 83.7406 158.504 91.2664V112.759L184.459 127.698Z" fill="#343434"/>
<path d="M123.711 124.614C123.014 124.614 122.373 124.781 121.797 125.108C120.031 126.128 119.016 128.634 119.016 131.982C119.016 138.828 123.167 146.782 128.267 149.72C130.263 150.866 132.061 151.052 133.462 150.24C135.229 149.223 136.243 146.717 136.243 143.366C136.243 136.523 132.092 128.567 126.991 125.634C125.816 124.956 124.709 124.614 123.711 124.614ZM131.56 153.277C130.109 153.277 128.557 152.821 126.991 151.922C121.089 148.523 116.467 139.766 116.467 131.982C116.467 127.699 117.945 124.392 120.522 122.909C122.727 121.641 125.477 121.824 128.267 123.431C134.169 126.826 138.792 135.586 138.792 143.366C138.792 147.647 137.313 150.959 134.738 152.443C133.769 152.999 132.696 153.277 131.56 153.277Z" fill="#2C2A2A"/>
<path d="M152.861 195.125L173.902 183.002L107.917 145.146L86.8069 157.172L152.861 195.125Z" fill="#2C2A2A"/>
<path d="M137.225 159.551L130.984 163.141L105.884 148.651L112.089 145.066L137.225 159.551Z" fill="#686A6C"/>
<path d="M105.884 148.651V168.818L130.998 183.267V163.111L105.884 148.651Z" fill="#3C3C3D"/>
<path d="M137.224 159.552L130.997 163.139V182.533L137.224 178.953V159.552Z" fill="#434244"/>
<path d="M102.758 77.3806L92.7083 83.1628V201.049L102.758 195.269V77.3806Z" fill="#535456"/>
<path d="M87.9895 80.4495V194.889L92.7091 197.604V83.1641L87.9895 80.4495Z" fill="#3C3C3D"/>
<path d="M102.759 77.3812L98.1552 74.6641L87.9895 80.4487L92.7091 83.1633L102.759 77.3812Z" fill="#686A6C"/>
<path d="M113.852 96.3103L96.7987 86.4922V90.3272L113.852 100.143V96.3103Z" fill="#887068"/>
<path d="M122.258 97.8174L99.6979 84.8442L96.7987 86.5312L122.258 101.186V97.8174Z" fill="#957D75"/>
<path d="M113.852 109.694L96.7987 99.8789V103.711L113.852 113.527V109.694Z" fill="#887068"/>
<path d="M122.258 111.203L99.6979 98.2278L96.7987 99.9173L122.258 114.572V111.203Z" fill="#957D75"/>
<path d="M124.684 90.4294L114.633 96.2116V210.652L124.684 204.872V90.4294Z" fill="#535456"/>
<path d="M109.914 93.4971V207.94L114.633 210.652V96.2117L109.914 93.4971Z" fill="#3C3C3D"/>
<path d="M124.684 90.4294L120.08 87.7122L109.914 93.497L114.633 96.2117L124.684 90.4294Z" fill="#686A6C"/>
<path d="M141.648 202.566C141.648 210.553 136.778 219.832 130.768 223.295C124.759 226.75 119.887 223.08 119.887 215.091C119.887 207.102 124.759 197.822 130.768 194.363C136.778 190.904 141.648 194.577 141.648 202.566Z" fill="#2C2A2A"/>
<path d="M131.889 228.437L124.01 224.017L138.07 193.906L145.609 198.107L131.889 228.437Z" fill="#2C2A2A"/>
<path d="M149.826 207.106C149.826 215.096 144.955 224.373 138.946 227.832C132.937 231.294 128.065 227.62 128.065 219.634C128.065 211.645 132.937 202.365 138.946 198.906C144.955 195.447 149.826 199.12 149.826 207.106Z" fill="#434244"/>
<path d="M147.457 208.725C147.457 214.976 143.645 222.235 138.945 224.943C134.241 227.65 130.43 224.778 130.43 218.527C130.43 212.276 134.241 205.015 138.945 202.309C143.645 199.602 147.457 202.476 147.457 208.725Z" fill="#434244"/>
<path d="M145.368 209.928C145.368 214.644 142.493 220.124 138.945 222.167C135.397 224.207 132.521 222.041 132.521 217.326C132.521 212.607 135.397 207.128 138.945 205.085C142.493 203.043 145.368 205.212 145.368 209.928Z" fill="white"/>
<path d="M141.39 212.216C141.39 214.014 140.295 216.1 138.945 216.878C137.592 217.656 136.498 216.832 136.498 215.034C136.498 213.237 137.592 211.15 138.945 210.372C140.295 209.595 141.39 210.418 141.39 212.216Z" fill="#76627A"/>
<path d="M208.49 148.137L205.415 146.419V47.11L211.567 41.3716L208.49 148.137Z" fill="#2C2A2A"/>
<path d="M214.643 147.925L208.49 151.466V47.1095L214.643 41.3711V147.925Z" fill="#535456"/>
<path d="M211.38 36.1301L177.523 55.4109C167.101 61.412 158.14 76.3837 156.143 91.1315L149.587 193.299L155.867 189.598L161.641 93.2177C163.387 80.3141 171.229 67.2147 180.347 61.9657L211.38 44.3076V36.1301Z" fill="#3C3C3D"/>
<path d="M214.643 38.5903L211.378 36.1306L207.059 38.5903L211.167 42.2192L214.643 38.5903Z" fill="#3C3C3D"/>
<path d="M152.03 196.061L149.587 193.3L152.862 187.842L156.356 192.288L152.03 196.061Z" fill="#3C3C3D"/>
<path d="M214.643 38.5896L180.787 57.8703C170.365 63.8688 161.404 78.8432 159.407 93.5883L152.862 195.084L152.851 196.387L159.132 192.055L164.905 95.6771C166.651 82.7735 174.493 69.6716 183.611 64.4251L214.643 46.767V38.5896Z" fill="#535456"/>
<path d="M85.9382 141.399L83.0039 143.089V195.744L85.9382 194.585V141.399Z" fill="#957D75"/>
<path d="M123.021 186.9L120.086 188.587L83.0209 167.264L85.9191 165.574L123.021 186.9Z" fill="#957D75"/>
<path d="M123.021 209.107L120.086 210.796L83.0209 189.472L85.9191 187.78L123.021 209.107Z" fill="#686A6C"/>
<path d="M120.087 164.166L79.6039 140.863V144.698L120.087 167.999V164.166Z" fill="#887068"/>
<path d="M123.021 174.655L120.086 176.345L83.0209 155.021L85.9191 153.332L123.021 174.655Z" fill="#957D75"/>
<path d="M123.022 162.476L120.086 164.168V217.351L123.022 215.664V162.476Z" fill="#957D75"/>
<path d="M123.022 162.475L120.087 164.167L79.6039 140.863L82.5031 139.174L123.022 162.475Z" fill="#957D75"/>
<path d="M120.087 176.345L79.6039 153.041V156.876L120.087 180.177V176.345Z" fill="#887068"/>
<path d="M120.087 188.587L79.6039 165.283V169.118L120.087 192.422V188.587Z" fill="#887068"/>
<path d="M83.0038 195.744L79.6039 193.908V141.492L83.0038 143.45V195.744Z" fill="#887068"/>
<path d="M120.086 217.351L116.686 215.394V162.661L120.086 164.616V217.351Z" fill="#887068"/>
<path d="M120.087 210.64L79.6039 187.516V193.299L120.087 216.425V210.64Z" fill="#3C3C3D"/>
<path d="M123.021 218.131L43.3265 263.875L33.3264 258.121L113.021 212.374L123.021 218.131Z" fill="#686A6C"/>
<path d="M43.3277 263.875V261.584L123.023 215.864V218.131L43.3277 263.875Z" fill="#3C3C3D"/>
<path d="M123.021 215.835L43.3265 261.583L33.3264 255.826L113.021 210.082L123.021 215.835Z" fill="#686A6C"/>
<path d="M89.694 198.785L10.0001 244.532L0 238.776L79.6939 193.031L89.694 198.785Z" fill="#686A6C"/>
<path d="M9.99951 244.532V242.237L89.6934 196.519V198.785L9.99951 244.532Z" fill="#3C3C3D"/>
<path d="M89.694 196.491L10.0001 242.238L0 236.485L79.6939 190.738L89.694 196.491Z" fill="#686A6C"/>
<path d="M180.959 55.3292L118.286 19.302L115.388 20.9942L178.094 57.0522L180.959 55.3292Z" fill="#3C3C3D"/>
<path d="M197.847 45.5294L135.175 9.50488L132.276 11.1944L194.982 47.2524L197.847 45.5294Z" fill="#3C3C3D"/>
<path d="M209.121 37.9496L149.074 3.79492V6.66154L209.121 41.3726V37.9496Z" fill="#2C2A2A"/>
<path d="M212.732 37.1249L148.196 0.000732422L145.307 1.72377L209.867 38.8479L212.732 37.1249Z" fill="#3C3C3D"/>
<path d="M127.21 21.7515C127.21 23.9922 123.713 25.8054 119.399 25.8054C115.085 25.8054 111.589 23.9922 111.589 21.7515C111.589 19.5108 115.085 17.6951 119.399 17.6951C123.713 17.6951 127.21 19.5108 127.21 21.7515Z" fill="#2C2A2A"/>
<path d="M127.21 20.3945H111.589V21.752H127.21V20.3945Z" fill="#2C2A2A"/>
<path d="M127.21 20.3936C127.21 22.6343 123.713 24.4475 119.399 24.4475C115.085 24.4475 111.589 22.6343 111.589 20.3936C111.589 18.1554 115.085 16.3396 119.399 16.3396C123.713 16.3396 127.21 18.1554 127.21 20.3936Z" fill="#686A6C"/>
</svg>
