<svg width="175" height="229" viewBox="0 0 175 229" fill="none" xmlns="http://www.w3.org/2000/svg">
<path d="M160.152 75.2517C160.152 75.2517 170.047 75.7649 171.662 82.0289C173.273 88.2976 158.945 88.0618 158.945 88.0618L160.152 75.2517Z" fill="#FBC340"/>
<path d="M158.945 119.141C158.936 133.142 150.299 149.398 139.657 155.447C129.016 161.5 120.398 155.057 120.413 141.056C120.427 127.055 129.064 110.798 139.706 104.75C150.347 98.6964 158.96 105.14 158.945 119.141Z" fill="#251E22"/>
<path d="M127.637 156.53L134.244 160.124L157.339 106.595L151.389 103.276L127.637 156.53Z" fill="#251E22"/>
<path d="M165.367 122.343C165.353 136.344 156.896 152.6 146.481 158.648C136.061 164.706 127.623 158.258 127.637 144.262C127.652 130.257 136.108 114.001 146.528 107.953C156.948 101.9 165.381 108.343 165.367 122.343Z" fill="#372D35"/>
<path d="M160.55 125.762C160.54 135.904 154.243 147.682 146.485 152.072C138.726 156.456 132.444 151.788 132.453 141.642C132.463 131.495 138.765 119.718 146.524 115.333C154.277 110.948 160.56 115.616 160.55 125.762Z" fill="white"/>
<path d="M154.129 129.332C154.125 134.404 151.065 140.293 147.299 142.487C143.528 144.68 140.478 142.346 140.482 137.274C140.487 132.202 143.547 126.313 147.313 124.12C151.084 121.922 154.134 124.261 154.129 129.332Z" fill="#372D35"/>
<path d="M153.326 129.966C153.321 134.227 150.622 139.175 147.298 141.017C143.974 142.859 141.28 140.898 141.285 136.637C141.29 132.376 143.988 127.428 147.313 125.586C150.637 123.744 153.331 125.709 153.326 129.966Z" fill="#76627A"/>
<path d="M75.6814 192.151C109.372 180.215 136.825 155.802 153.857 134.297C169.457 114.606 177.978 104.593 160.396 91.7802C139.635 76.6417 94.0202 124.956 76.5622 133.316C59.0995 141.677 32.1108 154.39 32.1108 154.39L75.6814 192.151Z" fill="#E3F2FB"/>
<path d="M56.0119 60.5755C63.3535 63.4616 66.4377 67.4602 73.7462 83.6497C77.644 92.2935 74.1624 115.139 70.5105 131.814C66.8586 148.488 75.4586 192.445 75.4586 192.445C75.4586 192.445 57.0667 197.237 38.85 177.377C20.6379 157.517 19.1762 131.519 24.11 105.345C27.6389 86.626 28.7648 66.0909 40.2786 59.3869C43.4952 57.5183 51.1727 58.6737 56.0119 60.5755Z" fill="#FFF1E8"/>
<path d="M81.9792 133.539C85.4148 131.698 86.0877 134.142 86.9502 136.979C88.078 140.681 90.3621 145.895 96.769 149.241C108.081 155.153 118.606 149.995 122.07 153.316C125.538 156.638 117.719 166.773 83.1449 180.576C78.0791 182.598 71.0799 183.271 71.132 181.592L69.8383 139.826C69.8383 139.826 74.307 137.648 81.9792 133.539Z" fill="#887068"/>
<path d="M170.185 104.546C170.185 104.546 156.065 139.289 125.728 147.924C112.611 151.66 98.6878 143.958 94.492 139.289C90.2913 134.619 92.9828 130.369 92.7666 121.863C92.5503 113.356 84.7113 98.0388 90.325 93.95C95.9435 89.8516 113.9 63.9858 136.691 60.5586C151.042 58.4024 160.26 62.9243 163.663 74.7434C170.084 97.063 170.185 104.546 170.185 104.546Z" fill="#887068"/>
<path d="M146.904 119.968C146.904 119.968 133.254 133.081 117.229 133.68C104.481 134.163 92.5888 126.515 92.5888 126.515C92.5888 126.515 92.5697 119.254 91.5281 115.222C90.4865 111.184 89.9084 108.986 89.9084 108.986C89.9084 108.986 106.163 115.274 120.549 111.994C133.063 109.139 146.904 100.073 146.904 100.073V119.968Z" fill="#FFF1E8"/>
<path d="M136.469 70.0269C136.469 70.0269 150.683 75.2878 154.247 96.7294C157.001 113.289 157.782 123.293 157.782 123.293C157.782 123.293 170.977 117.031 170.148 104.721C169.313 92.4219 165.74 69.2794 150.683 63.065C140.757 59.8643 136.469 70.0269 136.469 70.0269Z" fill="#FFF1E8"/>
<path d="M63.4164 65.8218C63.4164 65.8218 52.656 77.9979 45.8011 113.005C38.3231 151.183 44.022 164.927 44.022 164.927L29.8081 160.782C29.8081 160.782 24.661 151.9 27.187 114.997C29.8081 76.7522 37.4193 60.1641 39.7645 59.1181C46.1484 56.2702 54.8205 57.0309 63.4164 65.8218Z" fill="#483E48"/>
<path d="M71.7077 189.635C71.7077 189.635 55.3746 188.634 50.9154 183.088C46.4514 177.542 43.8138 176.138 43.8138 176.138L36.124 178.322L40.5026 185.183C40.5026 185.183 55.9296 192.842 64.0179 193.471C72.1062 194.105 76.2618 193.471 76.2618 193.471C76.2618 193.471 73.4155 193.589 71.7077 189.635Z" fill="#76627A"/>
<path d="M40.9403 185.596C40.9258 199.598 32.2881 215.855 21.6499 221.904C11.007 227.957 2.39333 221.513 2.40779 207.512C2.42226 193.516 11.06 177.258 21.6981 171.205C32.3411 165.156 40.9547 171.595 40.9403 185.596Z" fill="#251E22"/>
<path d="M9.63177 222.986L16.2386 226.581L39.3339 173.047L33.3792 169.732L9.63177 222.986Z" fill="#251E22"/>
<path d="M47.3628 189.04C47.3486 203.244 38.8909 219.736 28.4697 225.872C18.0532 232.018 9.61904 225.476 9.6332 211.277C9.64736 197.073 18.1051 180.581 28.5216 174.44C38.9428 168.304 47.3769 174.836 47.3628 189.04Z" fill="#372D35"/>
<path d="M41.7429 192.219C41.7334 202.361 35.6153 214.144 28.077 218.529C20.5387 222.91 14.4349 218.246 14.4492 208.099C14.4587 197.952 20.5767 186.174 28.1151 181.788C35.6534 177.403 41.7524 182.076 41.7429 192.219Z" fill="white"/>
<path d="M36.1231 196.028C36.1133 201.308 32.8748 207.428 28.8884 209.709C24.897 211.99 21.6685 209.563 21.6734 204.287C21.6783 199.012 24.9167 192.887 28.9081 190.606C32.8945 188.325 36.128 190.753 36.1231 196.028Z" fill="#372D35"/>
<path d="M34.5167 196.662C34.5121 201.127 31.9931 206.311 28.8904 208.24C25.7877 210.17 23.2734 208.116 23.278 203.652C23.2826 199.187 25.8015 194.003 28.9042 192.073C32.0115 190.148 34.5213 192.202 34.5167 196.662Z" fill="#76627A"/>
<path d="M47.8929 162.527C48.9744 163.791 50.017 165.207 50.9385 166.936C55.5699 175.642 56.9957 191.604 56.9957 191.604C56.9957 191.604 38.7755 196.166 28.1402 197.577C24.1683 198.105 19.1634 197.402 14.4495 196.318C16.9423 189.413 20.2837 181.915 24.4787 176.417C31.6999 166.955 42.3449 163.653 47.8929 162.527Z" fill="#372D35"/>
<path d="M9.29425 172.573C18.873 157.431 33.2127 155.32 33.2127 155.32C33.2127 155.32 41.1887 155.382 47.3628 162.838C41.938 163.975 31.5293 167.31 24.4686 176.863C20.3667 182.414 17.0995 189.985 14.6621 196.956C6.92798 195.118 0 192.197 0 192.197C0 192.197 2.69343 183.009 9.29425 172.573Z" fill="#433642"/>
<path d="M46.4921 90.0764C47.4013 76.8097 38.9655 76.1564 34.3727 81.8617C32.0809 84.7072 31.3077 89.8018 31.3077 89.8018C31.3077 89.8018 33.3838 83.2821 38.2251 85.621C41.3932 87.1503 42.0821 91.2695 40.7745 97.1737C39.8747 101.26 36.191 104.077 36.191 104.077C36.191 104.077 45.5267 104.077 46.4921 90.0764Z" fill="#372D35"/>
<path d="M31.8001 87.6451C29.2779 91.9871 28.9875 98.5581 31.1562 102.329C33.325 106.096 37.1251 105.632 39.6473 101.295C42.1694 96.9528 42.455 90.377 40.2863 86.6104C38.1224 82.839 34.3222 83.3032 31.8001 87.6451Z" fill="#FBC340"/>
<path d="M74.8776 78.9308C81.0598 97.6901 73.7488 129.471 71.5055 151.608C69.9337 167.147 76.978 187.414 76.978 187.414C76.978 187.414 96.3869 182.49 112.814 170.458C129.237 158.421 150.918 137.402 150.918 137.402C150.918 137.402 141.83 151.48 128.017 163.959C114.205 176.438 79.8882 198.304 73.8774 192.914C66.714 186.482 66.4663 164.087 67.2712 153.573C69.6955 121.787 73.4725 112.719 73.1963 96.4817C72.9152 80.1202 67.0045 71.7373 61.0175 65.8426C49.0054 54.0104 40.1369 59.4817 40.1369 59.4817C52.3395 50.1996 68.8573 60.6711 74.8776 78.9308Z" fill="#6C6C6C"/>
<path d="M174.199 105.96C174.199 105.96 172.888 94.2251 160.005 91.8011C147.117 89.3676 136.121 94.9735 130.178 113.641C122.471 137.858 130.507 147.898 130.507 147.898L136.231 150.515L174.199 105.96Z" fill="#433642"/>
<path d="M136.567 150.515C136.567 150.515 127.912 114.477 149.601 99.4526C171.29 84.4283 175 108.155 175 108.155C175 108.155 173.695 119.892 165.601 129.563C153.506 144.017 136.567 150.515 136.567 150.515Z" fill="#372D35"/>
<path d="M150.689 75.6171C139.188 84.0998 128.802 79.6749 118.683 83.9303C108.565 88.1858 98.3698 99.5918 90.1593 96.2731C88.1509 95.4634 86.6398 94.5784 85.4921 93.7028C84.115 86.6041 86.0469 79.3171 95.1373 72.8492C106.8 64.5501 117.354 64.8796 128.381 58.9012C139.408 52.9276 147.203 50.8987 159.057 58.9012L159.468 59.226C160.453 64.3147 159.138 69.3845 150.689 75.6171Z" fill="#483E48"/>
<path d="M160.421 75.0731C153.077 82.9436 149.434 86.8789 138.856 87.4296C132.626 87.7591 117.345 90.4564 110.343 96.4675C103.341 102.483 89.9254 106.56 86.9714 99.6872C86.1281 97.729 85.4823 95.7284 85.092 93.7137C86.2485 94.5893 87.7713 95.4743 89.7952 96.2839C98.0693 99.6025 108.343 88.1969 118.54 83.9416C128.737 79.6863 139.203 84.111 150.793 75.6286C159.308 69.3963 160.633 64.3265 159.64 59.238C165.635 63.4698 166.464 68.596 160.421 75.0731Z" fill="#372D35"/>
<path d="M100.53 73.6509C103.56 73.6509 107.686 75.1101 112.875 77.1044C119.361 79.5949 113.406 83.0971 103.928 85.4611C97.198 87.1393 92.0043 94.2507 89.5248 87.8251C87.6818 83.0533 92.4256 78.7583 93.8617 77.1142C95.9009 74.7891 97.8203 73.6509 100.53 73.6509Z" fill="#76627A"/>
<path d="M144.853 55.317C150.772 56.1442 157.993 58.3846 156.28 65.1769C154.136 73.6896 141.915 78.3029 141.329 74.9564C140.985 72.9854 144.219 72.7869 148.458 67.3984C152.693 62.0147 150.602 59.0747 142.796 58.862C139.635 58.7769 136.354 58.8762 137.506 57.3968C138.173 56.5412 141.494 54.8443 144.853 55.317Z" fill="#76627A"/>
<path d="M158.945 124.968C160.701 123.584 163.431 121.154 165.526 118.085C167.57 115.087 168.983 111.616 169.8 108.881C170.462 110.824 171.107 112.776 171.789 114.724C171.168 116.629 170.048 119.359 168.024 122.228C165.384 125.971 162.149 128.405 160.116 129.699C159.697 128.128 159.303 126.553 158.945 124.968Z" fill="#DFD2D5"/>
<path d="M25.6869 19.5386C25.6869 21.1587 24.785 23.0418 23.6778 23.7462C22.5664 24.4459 21.6688 23.6992 21.673 22.0791C21.673 20.4543 22.575 18.5712 23.6821 17.8668C24.7892 17.1671 25.6869 17.9138 25.6869 19.5386Z" fill="#372D35"/>
<path d="M41.7429 27.4707L25.0804 17.6028L22.4768 23.927L38.736 33.6172L41.7429 27.4707Z" fill="#372D35"/>
<path d="M42.5444 29.1413C42.5444 30.7665 41.6425 32.65 40.5353 33.3546C39.4239 34.0544 38.5263 33.3077 38.5305 31.6825C38.5305 30.0573 39.4325 28.1784 40.5396 27.4739C41.6467 26.774 42.5444 27.5208 42.5444 29.1413Z" fill="#76627A"/>
<path d="M41.7429 29.7815C41.7385 30.5937 41.199 31.5346 40.5366 31.8844C39.8742 32.2342 39.3347 31.8603 39.3347 31.0521C39.339 30.2398 39.8786 29.299 40.541 28.9451C41.2034 28.5953 41.7429 28.9693 41.7429 29.7815Z" fill="#DFD2D5"/>
<path d="M89.9081 57.0059C88.9309 55.9371 42.0346 28.8127 42.0346 28.8127L40.1371 32.2256L88.0248 60.0391L89.9081 57.0059Z" fill="#DFD2D5"/>
<path d="M90.7096 57.1705C90.7045 58.7905 89.6284 60.6734 88.2962 61.3778C86.9691 62.0774 85.8931 61.3308 85.8931 59.7108C85.8982 58.0861 86.9742 56.2032 88.3013 55.4988C89.6335 54.7992 90.7096 55.5458 90.7096 57.1705Z" fill="#372D35"/>
<path d="M106.766 65.1008L89.4092 55.2354L86.6972 61.561L103.639 71.2488L106.766 65.1008Z" fill="#372D35"/>
<path d="M107.569 66.7758C107.569 68.3999 106.492 70.2822 105.159 70.9863C103.83 71.6858 102.753 70.9394 102.753 69.3153C102.758 67.6911 103.835 65.8088 105.164 65.1094C106.497 64.41 107.575 65.1516 107.569 66.7758Z" fill="#76627A"/>
<path d="M43.3491 5.86043C43.354 10.1215 46.0567 15.0644 49.3796 16.9109C52.7026 18.7526 55.3954 16.7925 55.3904 12.5314C55.3855 8.27034 52.6878 3.32272 49.3648 1.48099C46.037 -0.360743 43.3441 1.59935 43.3491 5.86043Z" fill="#372D35"/>
<path d="M60.4436 39.2217L61.8111 37.4691C61.7439 37.4175 54.8873 32.3048 50.1083 28.0263C45.5596 23.954 43.9618 20.7487 45.2381 18.2369C46.7736 15.1956 48.8896 11.5076 48.904 11.4748L46.9415 10.397C46.9175 10.4345 44.7775 14.1693 43.2133 17.2622C41.438 20.7721 43.1893 24.8257 48.5825 29.6524C53.443 34.0012 60.3717 39.1654 60.4436 39.2217Z" fill="#372D35"/>
<path d="M87.1802 48.0291C88.1574 48.0291 88.9929 47.8759 89.5988 47.5188C92.0858 46.0809 95.8529 42.0039 98.3448 39.3044C99.1754 38.4092 100.113 37.3934 100.343 37.2172L99.7373 36.5075V35.218C99.0728 35.218 98.8871 35.4174 96.6249 37.8665C94.3676 40.3062 90.5857 44.3926 88.4066 45.6589C86.3545 46.8417 77.3886 43.5114 71.6818 40.7609L70.6411 42.7043C72.7323 43.7154 81.9912 48.0244 87.1802 48.0291Z" fill="#372D35"/>
<path d="M44.9537 37.3167C44.9537 39.749 46.5769 42.5755 48.5711 43.6309C50.5654 44.6817 52.1835 43.5629 52.1786 41.126C52.1786 38.6937 50.5555 35.8672 48.5612 34.8118C46.567 33.761 44.9488 34.8843 44.9537 37.3167Z" fill="#76627A"/>
<path d="M48.6352 45.6267L51.3754 43.8919L46.4267 34.4172L44.1505 35.8885L48.6352 45.6267Z" fill="#76627A"/>
<path d="M42.5459 38.9151C42.5459 41.3529 44.1691 44.1804 46.1633 45.2317C48.1576 46.283 49.7757 45.1637 49.7707 42.7304C49.7707 40.2971 48.1477 37.4696 46.1534 36.4138C44.1591 35.3625 42.541 36.4818 42.5459 38.9151Z" fill="#FBC340"/>
<path d="M60.973 56.6454C58.3732 57.6228 51.7886 54.6669 46.7261 52.0208C46.5985 51.4201 46.5276 50.7812 46.5748 50.0756C46.9246 45.0314 52.285 31.8583 52.285 31.8583C52.285 31.8583 60.1837 26.9048 66.7115 31.7154C70.3134 34.3662 72.5445 38.7857 73.8539 42.2518C70.2898 47.2436 64.0503 55.4869 60.973 56.6454Z" fill="#483E48"/>
<path d="M65.1105 58.1624C60.9064 61.6111 56.9836 59.5054 53.8663 58.1624C51.178 57.0064 47.3553 55.1693 46.5593 51.452C51.6642 54.1141 58.304 57.0879 60.9255 56.1046C64.0285 54.9391 70.3203 46.6458 73.9142 41.6238C74.9867 44.4633 75.4586 46.6746 75.4586 46.6746C75.4586 46.6746 69.3145 54.7088 65.1105 58.1624Z" fill="#372D35"/>
<path d="M95.5277 31.4866C95.5323 35.7431 98.0512 40.6909 101.154 42.5327C104.261 44.3745 106.771 42.4142 106.766 38.153C106.766 33.8965 104.247 28.9488 101.14 27.1023C98.0373 25.2605 95.5231 27.2254 95.5277 31.4866Z" fill="#372D35"/>
<path d="M71.4462 51.1681C71.4511 53.8037 73.0682 56.8662 75.0611 58.0097C77.054 59.1484 78.671 57.9361 78.671 55.2957C78.6661 52.6601 77.049 49.5976 75.0512 48.459C73.0583 47.3154 71.4462 48.5326 71.4462 51.1681Z" fill="#76627A"/>
<path d="M75.1251 60.0391L77.8671 58.2987L72.9151 48.8298L70.6423 50.2969L75.1251 60.0391Z" fill="#76627A"/>
<path d="M69.037 52.772C69.042 55.407 70.6591 58.4688 72.6519 59.6121C74.6448 60.7505 76.2618 59.5336 76.2618 56.8986C76.2569 54.2588 74.6399 51.1969 72.647 50.0585C70.6492 48.9201 69.037 50.1321 69.037 52.772Z" fill="#FBC340"/>
</svg>
