<svg width="350" height="319" viewBox="0 0 350 319" fill="none" xmlns="http://www.w3.org/2000/svg">
<path d="M8.65552 260.735L4.39813 258.262L4.32764 233.468L8.58536 235.939L8.65552 260.735Z" fill="#E7AC17"/>
<path d="M8.58537 235.938L4.32764 233.467L95.0016 181.164L99.2592 183.637L8.58537 235.938Z" fill="#957D75"/>
<path d="M99.2592 183.636L99.3292 208.431L8.65548 260.735L8.58533 235.939L99.2592 183.636Z" fill="#887068"/>
<path d="M98.147 218.957L89.6327 214.013L89.5619 189.262L98.077 194.206L98.147 218.957Z" fill="#735F59"/>
<path d="M98.077 194.205L89.5619 189.262L98.2014 184.278L106.717 189.221L98.077 194.205Z" fill="#957D75"/>
<path d="M106.717 189.221L106.787 213.973L98.147 218.957L98.077 194.206L106.717 189.221Z" fill="#E38216"/>
<path d="M341.571 117.25L277.709 80.1702L286.078 75.3423L349.941 112.422L341.571 117.25Z" fill="#2B2F35"/>
<path d="M241.525 174.958L177.662 137.879L277.709 80.1702L341.571 117.25L241.525 174.958Z" fill="#2B2F35"/>
<path d="M186.18 206.883L122.317 169.804L177.662 137.879L241.525 174.958L186.18 206.883Z" fill="#2B2F35"/>
<path d="M186.239 227.739L122.376 190.659L122.317 169.804L186.18 206.884L186.239 227.739Z" fill="#2B2F35"/>
<path d="M349.941 112.422L350 133.277L186.239 227.739L186.18 206.884L241.525 174.959L341.571 117.25L349.941 112.422Z" fill="#2B2F35"/>
<path d="M323.328 127.772L259.466 90.6932L252.092 78.9805L315.956 116.06L323.328 127.772Z" fill="#E38216"/>
<path d="M250.861 77.7898L314.725 114.869C315.221 115.158 315.638 115.554 315.956 116.06L252.093 78.9803C251.775 78.4752 251.359 78.0789 250.861 77.7898Z" fill="#E38216"/>
<path d="M250.861 77.7902L314.725 114.869C312.915 113.818 310.032 114.198 306.916 115.996L243.052 78.917C246.17 77.1196 249.051 76.7397 250.861 77.7902Z" fill="#2B2F35"/>
<path d="M274.876 25.4336L338.739 62.5128C337.058 61.5368 334.727 61.6798 332.147 63.1687L268.283 26.0895C270.865 24.6006 273.195 24.4568 274.876 25.4336Z" fill="#957D75"/>
<path d="M268 138.444L204.137 101.365L243.052 78.917L306.916 115.996L268 138.444Z" fill="#2B2F35"/>
<path d="M251.708 169.085L187.844 132.006L195.127 111.84L258.99 148.918L251.708 169.085Z" fill="#2B2F35"/>
<path d="M258.99 148.918L195.127 111.839C196.583 107.806 200.165 103.655 204.137 101.365L268 138.444C264.028 140.736 260.447 144.885 258.99 148.918Z" fill="#2B2F35"/>
<path d="M332.147 63.1689C337.276 60.2098 341.417 62.5667 341.433 68.4553L341.571 117.25L323.329 127.772L315.956 116.06C314.481 113.716 310.888 113.705 306.915 115.996L268 138.444C264.028 140.736 260.446 144.885 258.99 148.918L251.707 169.085L241.525 174.958L241.356 115.538L332.147 63.1689Z" fill="#887068"/>
<path d="M306.916 115.996C310.888 113.705 314.48 113.717 315.956 116.06L323.328 127.773L251.708 169.085L258.99 148.918C260.447 144.885 264.028 140.736 268 138.444L306.916 115.996Z" fill="#2B2F35"/>
<path d="M241.356 115.538L177.494 78.4592L268.284 26.0894L332.147 63.1688L241.356 115.538Z" fill="#957D75"/>
<path d="M241.525 174.958L177.662 137.879L177.494 78.4592L241.356 115.538L241.525 174.958Z" fill="#E38216"/>
<path d="M186.18 206.883L122.317 169.804L122.287 159.177L186.149 196.256L186.18 206.883Z" fill="#8886C3"/>
<path d="M192.74 176.976L128.877 139.898L153.522 125.682L217.385 162.76L192.74 176.976Z" fill="#8886C3"/>
<path d="M162.021 256.032L98.1571 218.953L98.0272 173.17L161.89 210.25L162.021 256.032Z" fill="#735F59"/>
<path d="M186.15 196.256L186.18 206.883L186.239 227.738L186.279 242.039L162.02 256.032L161.89 210.249L186.15 196.256Z" fill="#887068"/>
<path d="M161.89 210.25L98.0272 173.17L122.287 159.177L186.149 196.256L161.89 210.25Z" fill="#957D75"/>
<path d="M217.385 162.76L153.522 125.682L153.34 61.8342L217.203 98.912L217.385 162.76Z" fill="#8886C3"/>
<path d="M192.558 113.129L128.696 76.0503L153.34 61.8347L217.203 98.9123L192.558 113.129Z" fill="#4A71BF"/>
<path d="M217.385 162.761L217.203 98.9123L192.558 113.129L192.74 176.976L217.385 162.761ZM185.897 107.436L241.243 75.511L241.356 115.538L241.525 174.958L186.18 206.883L186.149 196.256L185.897 107.436Z" fill="#FFF1E8"/>
<path d="M217.203 98.9121L217.385 162.76L192.74 176.976L192.558 113.129L217.203 98.9121Z" fill="#5D77BA"/>
<path d="M185.898 107.436L122.035 70.3565L177.381 38.4314L241.243 75.5107L185.898 107.436Z" fill="#8886C3"/>
<path d="M186.15 196.256L122.287 159.177L122.035 70.3562L185.898 107.436L186.15 196.256Z" fill="#E3D8D1"/>
<path d="M182.256 103.77L118.393 66.6917L177.364 32.6755L241.226 69.7549L182.256 103.77Z" fill="#FFF1E8"/>
<path d="M127.339 281.644C128.161 281.57 129.064 281.272 130.009 280.726C132.872 279.075 135.319 275.669 136.357 272.238C136.703 271.095 136.893 269.949 136.89 268.863C136.884 266.672 136.107 265.136 134.854 264.422C133.601 263.709 131.872 263.818 129.964 264.92C126.184 267.1 123.109 272.422 123.121 276.805C123.131 280.059 124.874 281.865 127.339 281.644Z" fill="#B5B0DF"/>
<path d="M150.543 260.988C150.58 274.006 141.43 289.883 130.053 296.446C118.714 302.987 109.466 297.721 109.429 284.703C109.392 271.642 118.58 255.742 129.919 249.202C141.297 242.639 150.506 247.926 150.543 260.988ZM129.898 241.895C118.915 248.232 109.545 261.219 105.385 274.456C105.267 274.831 105.145 275.207 105.035 275.582C104.469 277.527 104.015 279.471 103.692 281.399C103.633 281.748 103.594 282.094 103.544 282.442C103.254 284.449 103.06 286.44 103.066 288.374C103.069 289.518 103.135 290.608 103.244 291.659C103.28 292.01 103.346 292.331 103.392 292.67C103.488 293.354 103.591 294.031 103.731 294.671C106.426 306.984 117.188 311.184 130.074 303.752C144.961 295.164 156.956 274.364 156.907 257.317C156.858 240.227 144.786 233.308 129.898 241.895Z" fill="#535456"/>
<path d="M129.964 264.92C131.872 263.818 133.601 263.709 134.854 264.422C136.106 265.136 136.884 266.672 136.89 268.863C136.893 269.949 136.703 271.095 136.357 272.238C135.319 275.669 132.872 279.075 130.009 280.727C129.064 281.272 128.161 281.57 127.339 281.644C124.874 281.865 123.131 280.06 123.121 276.805C123.109 272.422 126.184 267.1 129.964 264.92ZM129.919 249.202C118.58 255.742 109.392 271.642 109.429 284.703C109.466 297.721 118.714 302.986 130.053 296.446C141.43 289.883 150.58 274.006 150.543 260.988C150.506 247.926 141.297 242.639 129.919 249.202Z" fill="#3C3C3D"/>
<path d="M103.731 294.671C103.591 294.031 103.488 293.354 103.392 292.67C103.488 293.354 103.591 294.031 103.731 294.671Z" fill="#B5B0DF"/>
<path d="M103.066 288.374C103.069 289.518 103.135 290.608 103.244 291.659C103.135 290.608 103.069 289.518 103.066 288.374Z" fill="#B5B0DF"/>
<path d="M105.035 275.583C105.145 275.207 105.267 274.831 105.385 274.456C105.266 274.833 105.145 275.205 105.035 275.583Z" fill="#B5B0DF"/>
<path d="M103.544 282.442C103.594 282.094 103.633 281.748 103.692 281.399C103.633 281.749 103.595 282.093 103.544 282.442Z" fill="#B5B0DF"/>
<path d="M155.074 229.06C154.712 228.878 154.349 228.697 153.926 228.517C153.504 228.335 153.141 228.155 152.718 227.973C152.296 227.793 151.751 227.672 151.268 227.55C150.845 227.43 150.422 227.309 150 227.189C149.456 227.068 148.913 227.068 148.369 227.008C147.946 226.947 147.463 226.827 146.98 226.827C146.436 226.827 145.832 226.827 145.288 226.887C144.805 226.887 144.322 226.827 143.838 226.887C143.234 226.947 142.63 227.068 142.026 227.189C141.543 227.249 141.059 227.309 140.576 227.43C139.851 227.55 139.187 227.793 138.462 227.973C138.039 228.155 137.555 228.215 137.133 228.396C136.348 228.637 135.502 229 134.657 229.362C134.294 229.482 133.932 229.603 133.569 229.784C132.361 230.388 131.092 230.991 129.884 231.715C110.07 243.122 94.1227 270.764 94.1826 293.516V293.878C94.2433 294.603 94.2433 295.266 94.304 295.991C94.3646 296.533 94.3646 297.077 94.3646 297.56C94.4245 297.982 94.4852 298.345 94.5451 298.767C94.6664 299.612 94.7877 300.517 94.969 301.302C95.0289 301.785 95.1494 302.207 95.27 302.63C95.452 303.353 95.6332 304.078 95.8136 304.742C95.9956 305.224 96.1769 305.647 96.3581 306.069C96.5992 306.673 96.7804 307.276 97.0223 307.82C97.2634 308.242 97.5061 308.604 97.6873 309.027C97.9883 309.57 98.2302 310.053 98.5327 310.536C98.7738 310.898 99.0764 311.26 99.3782 311.622C99.6807 312.045 99.9817 312.467 100.345 312.889C100.647 313.252 100.949 313.492 101.311 313.795C101.673 314.157 101.976 314.519 102.399 314.881C102.762 315.123 103.124 315.363 103.486 315.605C103.849 315.907 104.211 316.209 104.634 316.451L23.7477 269.436C17.3441 265.754 13.3573 257.788 13.2975 246.501C13.2368 223.809 29.1845 196.168 48.9982 184.761C58.9048 179.027 67.9662 178.484 74.4901 182.226L155.074 229.06Z" fill="#686A6C"/>
<path d="M130.065 303.776C117.199 311.2 106.446 306.975 103.727 294.663C103.606 294.059 103.486 293.335 103.365 292.671C103.365 292.309 103.304 292.007 103.244 291.645C103.124 290.619 103.063 289.533 103.063 288.386C103.063 286.455 103.244 284.463 103.546 282.472C103.606 282.11 103.606 281.747 103.668 281.385C104.029 279.454 104.452 277.522 105.057 275.591C105.117 275.229 105.238 274.807 105.358 274.444C109.527 261.227 118.889 248.251 129.884 241.915C144.805 233.284 156.886 240.225 156.886 257.304C156.947 274.384 144.986 295.145 130.065 303.776ZM155.315 229.18C155.255 229.12 155.135 229.12 155.074 229.06C154.712 228.878 154.349 228.697 153.926 228.517C153.504 228.335 153.141 228.155 152.718 227.973C152.296 227.793 151.751 227.672 151.268 227.55C150.845 227.43 150.422 227.309 150 227.189C149.456 227.068 148.912 227.068 148.369 227.008C147.946 226.947 147.463 226.827 146.98 226.827C146.436 226.827 145.832 226.827 145.288 226.887C144.805 226.887 144.322 226.827 143.838 226.887C143.234 226.947 142.63 227.068 142.026 227.189C141.543 227.249 141.059 227.309 140.576 227.43C139.851 227.55 139.187 227.793 138.461 227.973C138.039 228.155 137.555 228.215 137.133 228.396C136.347 228.637 135.502 228.999 134.657 229.361C134.294 229.482 133.932 229.603 133.568 229.783C132.361 230.388 131.092 230.991 129.884 231.715C110.07 243.122 94.1227 270.763 94.1826 293.516V293.878C94.2433 294.602 94.2433 295.266 94.3039 295.991C94.3646 296.533 94.3646 297.077 94.3646 297.56C94.4245 297.982 94.4852 298.345 94.545 298.767C94.6664 299.612 94.7877 300.517 94.9689 301.302C95.0288 301.785 95.1494 302.207 95.2699 302.63C95.4519 303.353 95.6332 304.078 95.8136 304.742C95.9956 305.224 96.1768 305.647 96.358 306.069C96.5992 306.672 96.7804 307.276 97.0223 307.819C97.2634 308.241 97.506 308.604 97.6873 309.026C97.9883 309.569 98.2302 310.053 98.5327 310.535C98.7738 310.897 99.0764 311.26 99.3781 311.622C99.6807 312.045 99.9817 312.467 100.345 312.889C100.647 313.252 100.948 313.492 101.311 313.795C101.673 314.157 101.976 314.519 102.399 314.881C102.761 315.122 103.124 315.363 103.486 315.605C110.07 320.192 119.554 320.011 130.126 313.916C149.879 302.508 165.887 274.867 165.827 252.175C165.766 240.828 161.779 232.923 155.315 229.18Z" fill="#434244"/>
<path d="M170.605 260.889L162.09 255.945L162.02 231.194L170.535 236.138L170.605 260.889Z" fill="#735F59"/>
<path d="M170.536 236.137L162.02 231.194L170.659 226.21L179.174 231.154L170.536 236.137Z" fill="#957D75"/>
<path d="M179.174 231.154L179.244 255.906L170.606 260.889L170.536 236.138L179.174 231.154Z" fill="#E38216"/>
<path d="M92.8379 310.723L88.5804 308.251L88.5104 283.456L92.7679 285.928L92.8379 310.723Z" fill="#E7AC17"/>
<path d="M92.7679 285.927L88.5104 283.456L179.184 231.153L183.442 233.625L92.7679 285.927Z" fill="#957D75"/>
<path d="M183.442 233.625L183.512 258.421L92.8378 310.723L92.7678 285.928L183.442 233.625Z" fill="#887068"/>
<path d="M88.6495 288.429L92.9062 285.958L92.8362 310.709L88.5787 313.181L88.6495 288.429Z" fill="#887068"/>
<path d="M0.0701904 235.961L4.32761 233.489L92.9062 285.958L88.6495 288.429L0.0701904 235.961Z" fill="#957D75"/>
<path d="M88.6495 288.429L88.5788 313.181L0 260.712L0.0701823 235.961L88.6495 288.429Z" fill="#735F59"/>
<path d="M182.272 109.527L118.41 72.4482L118.393 66.6917L182.256 103.77L182.272 109.527Z" fill="#D0D0D0"/>
<path d="M241.226 69.7546L241.243 75.5104L182.272 109.527L182.256 103.77L241.226 69.7546Z" fill="#D0D0D0"/>
<path d="M181.639 175.107L126.761 143.246L126.545 79.2144L181.422 111.076L181.639 175.107Z" fill="#79C5CF"/>
<path d="M335.38 79.0216L316.317 90.0169C315.438 90.5251 314.725 89.9859 314.725 88.8133C314.725 87.6415 315.438 86.2793 316.317 85.7711L335.38 74.7757C336.26 74.2683 336.974 74.8068 336.974 75.9794C336.974 77.1519 336.26 78.5134 335.38 79.0216Z" fill="#424242"/>
<path d="M335.38 88.5623L316.317 99.5577C315.438 100.065 314.725 99.5258 314.725 98.354C314.725 97.1814 315.438 95.8193 316.317 95.3119L335.38 84.3157C336.26 83.8083 336.974 84.3468 336.974 85.5194C336.974 86.692 336.26 88.0541 335.38 88.5623Z" fill="#424242"/>
<path d="M335.38 98.1019L316.317 109.098C315.438 109.606 314.725 109.067 314.725 107.894C314.725 106.722 315.438 105.36 316.317 104.852L335.38 93.8568C336.26 93.3486 336.974 93.8879 336.974 95.0597C336.974 96.2323 336.26 97.5945 335.38 98.1019Z" fill="#424242"/>
<path d="M333.554 139.686L326.257 151.855L290.88 210.7L284.604 221.104L268.427 211.861H268.38C262.569 208.191 258.99 200.761 258.99 190.357C258.99 168.945 274.052 142.845 292.6 132.163C301.572 126.961 309.754 126.31 315.796 129.515C316.169 129.655 316.494 129.84 316.865 130.073L333.554 139.686Z" fill="#2C2A2A"/>
<path d="M343.245 161.352C343.245 182.785 328.184 208.848 309.604 219.565C291.026 230.282 275.964 221.594 275.964 200.161C275.964 178.728 291.026 152.665 309.604 141.949C328.184 131.231 343.245 139.919 343.245 161.352Z" fill="#434244"/>
<path d="M334.906 166.161C334.906 182.282 323.578 201.884 309.605 209.945C295.631 218.006 284.303 211.472 284.303 195.352C284.303 179.231 295.631 159.628 309.605 151.568C323.578 143.507 334.906 150.041 334.906 166.161Z" fill="white"/>
<path d="M332.72 167.422C332.72 182.151 322.371 200.059 309.604 207.423C296.838 214.787 286.489 208.818 286.489 194.091C286.489 179.363 296.838 161.454 309.604 154.09C322.371 146.727 332.72 152.695 332.72 167.422Z" fill="white"/>
<path d="M328.924 169.613C328.924 181.922 320.274 196.889 309.605 203.044C298.935 209.198 290.285 204.21 290.285 191.9C290.285 179.592 298.935 164.624 309.605 158.469C320.274 152.314 328.924 157.303 328.924 169.613Z" fill="#434244"/>
<path d="M316.073 177.026C316.073 181.147 313.177 186.158 309.605 188.218C306.033 190.279 303.137 188.608 303.137 184.487C303.137 180.367 306.033 175.355 309.605 173.295C313.177 171.235 316.073 172.905 316.073 177.026Z" fill="#76627A"/>
<path d="M230.511 215.615L227.722 213.995L227.694 204.221L230.483 205.84L230.511 215.615Z" fill="#39434C"/>
<path d="M230.473 202.592L227.684 200.972L227.666 194.099L230.454 195.718L230.473 202.592Z" fill="#39434C"/>
<path d="M230.445 192.469L227.656 190.85L227.637 183.976L230.425 185.595L230.445 192.469Z" fill="#39434C"/>
<path d="M208.241 215.416L205.452 213.797L227.684 200.972L230.474 202.592L208.241 215.416Z" fill="#5A6D7E"/>
<path d="M230.389 172.573L227.599 170.953L230.403 169.335L233.193 170.955L230.389 172.573Z" fill="#5A6D7E"/>
<path d="M230.416 182.376L227.627 180.757L227.599 170.954L230.389 172.573L230.416 182.376Z" fill="#39434C"/>
<path d="M208.213 205.293L205.424 203.675L227.656 190.85L230.445 192.469L208.213 205.293Z" fill="#5A6D7E"/>
<path d="M208.184 195.2L205.395 193.582L227.628 180.757L230.416 182.376L208.184 195.2Z" fill="#5A6D7E"/>
<path d="M205.448 230.072L202.66 228.453L202.537 185.41L205.326 187.029L205.448 230.072Z" fill="#39434C"/>
<path d="M230.445 192.47L230.425 185.596L208.193 198.42L208.213 205.294L230.445 192.47ZM230.473 202.592L230.454 195.718L208.221 208.543L208.241 215.416L230.473 202.592ZM230.389 172.573L233.193 170.955L233.315 213.997L230.511 215.615L230.483 205.841L208.25 218.665L208.278 228.439L205.448 230.072L205.326 187.029L208.156 185.397L208.184 195.2L230.416 182.376L230.389 172.573Z" fill="#2B2F35"/>
<path d="M205.326 187.029L202.537 185.41L205.367 183.777L208.156 185.396L205.326 187.029Z" fill="#5A6D7E"/>
<path d="M272.725 26.5486V40.8476C272.725 41.4949 272.295 42.1422 271.43 42.6659C269.704 43.652 266.865 43.652 265.138 42.6659C264.274 42.1422 263.843 41.4949 263.843 40.8476V26.5486H272.725Z" fill="#39434C"/>
<path d="M271.423 28.3739C269.688 29.3747 266.877 29.3747 265.141 28.3739C263.408 27.3738 263.408 25.7521 265.141 24.7513C266.877 23.7512 269.688 23.7512 271.423 24.7513C273.157 25.7521 273.157 27.3738 271.423 28.3739Z" fill="#5A6D7E"/>
<path d="M273.79 17.4397V27.4812C273.79 28.284 273.255 29.0859 272.184 29.7356C270.043 30.9579 266.526 30.9579 264.385 29.7356C263.314 29.0859 262.779 28.284 262.779 27.4812V17.4397H273.79Z" fill="#39434C"/>
<path d="M272.174 19.7024C270.025 20.9433 266.539 20.9433 264.389 19.7024C262.239 18.4631 262.239 16.4529 264.389 15.2128C266.539 13.9727 270.025 13.9727 272.174 15.2128C274.324 16.4529 274.325 18.4631 272.174 19.7024Z" fill="#5A6D7E"/>
<path d="M272.725 2.54712V16.8461C272.725 17.4934 272.295 18.14 271.43 18.6637C269.704 19.6498 266.865 19.6498 265.138 18.6637C264.274 18.14 263.843 17.4934 263.843 16.8461V2.54712H272.725Z" fill="#39434C"/>
<path d="M271.423 4.37285C269.688 5.37376 266.877 5.37376 265.141 4.37285C263.408 3.37272 263.408 1.75091 265.141 0.750002C266.877 -0.250131 269.688 -0.25013 271.423 0.750781C273.157 1.75091 273.157 3.37272 271.423 4.37285Z" fill="#5A6D7E"/>
</svg>
