<svg width="350" height="309" viewBox="0 0 350 309" fill="none" xmlns="http://www.w3.org/2000/svg">
<path d="M134.832 97.7117L134.189 97.3879L129.466 90.9643C128.055 89.0444 127.307 86.7714 127.307 84.3936V68.7926C127.307 63.6937 130.771 59.2652 135.728 58.0191L149.45 54.5686C149.88 54.4574 150.309 54.719 150.414 55.1442C150.523 55.5661 150.263 55.9979 149.837 56.1059L136.115 59.5563C131.867 60.6258 128.898 64.423 128.898 68.7926V84.3936C128.898 86.4345 129.538 88.3805 130.748 90.0257L135.475 96.4492C135.734 96.8024 135.656 97.2996 135.301 97.558L134.832 97.7117Z" fill="#7B7B7B"/>
<path d="M130.974 88.0613L127.136 85.8536C125.447 84.8822 124.066 82.2493 124.066 80.0023V62.4291C124.066 60.1822 125.447 59.1422 127.136 60.1136L130.974 62.3245C132.664 63.2959 134.045 65.9288 134.045 68.1724V85.7489C134.045 87.9925 132.664 89.0359 130.974 88.0613Z" fill="#222222"/>
<path d="M130.975 62.3256L127.137 60.1147C126.162 59.5554 125.303 59.6829 124.739 60.3011C125.145 60.2716 125.595 60.3698 126.074 60.6445L129.915 62.8554C131.601 63.8268 132.986 66.4597 132.986 68.7034V86.2766C132.986 87.2316 132.726 87.9479 132.31 88.4058C133.33 88.3305 134.045 87.3558 134.045 85.75V68.1735C134.045 65.9299 132.664 63.297 130.975 62.3256Z" fill="#626161"/>
<path d="M95.1785 279.895V290.897L260.876 195.083V184.081L95.1785 279.895Z" fill="#887068"/>
<path d="M95.2076 279.895V290.897L14.7619 244.987V234.017L95.2076 279.895Z" fill="#887068"/>
<path d="M15.622 234.723L96.0677 280.6L261.736 184.787L181.237 138.877L15.622 234.723Z" fill="#8E6D61"/>
<path d="M238.288 183.518C238.288 196.417 242.752 205.552 250.009 209.974L277.089 225.199C284.64 229.408 279.811 219.855 291.28 213.255C314.358 199.966 333.069 167.793 333.069 141.386C333.069 128.329 345.177 128.221 337.76 123.862L309.25 108.434C301.718 104.369 291.427 105.118 280.077 111.649C256.996 124.934 238.288 157.111 238.288 183.518Z" fill="#2C2A2A"/>
<path d="M266.418 199.074C266.418 225.481 285.13 236.117 308.211 222.832C331.288 209.546 350 177.37 350 150.963C350 124.556 331.288 113.92 308.211 127.208C285.13 140.494 266.418 172.67 266.418 199.074Z" fill="#434244"/>
<path d="M290.927 224.215C279.18 224.212 272.17 214.831 272.17 199.119C272.17 174.465 289.704 144.313 311.263 131.901C317.059 128.565 322.764 126.799 327.75 126.799C339.494 126.799 346.508 136.182 346.508 151.894C346.508 176.549 328.971 206.704 307.412 219.113C301.615 222.449 295.914 224.215 290.927 224.215Z" fill="#434244"/>
<path d="M300.897 206.508C292.102 206.508 286.194 199.362 286.194 188.725C286.194 174.685 295.806 158.151 308.075 151.09C311.798 148.945 315.443 147.859 318.897 147.859C327.692 147.859 333.6 155.002 333.6 165.641C333.6 179.682 323.991 196.212 311.723 203.276C307.996 205.422 304.355 206.508 300.897 206.508Z" fill="white"/>
<path d="M289.847 188.725C289.847 201.396 298.825 206.501 309.9 200.127C320.975 193.749 329.953 178.311 329.953 165.641C329.953 152.97 320.975 147.865 309.9 154.239C298.825 160.614 289.847 176.055 289.847 188.725Z" fill="#434244"/>
<path d="M321.355 151.764C324.93 153.847 327.141 158.266 327.141 164.549C327.141 177.219 318.163 192.66 307.088 199.034C302.827 201.487 298.881 202.236 295.63 201.513C299.268 203.633 304.316 203.338 309.899 200.126C320.974 193.749 329.953 178.311 329.953 165.641C329.953 157.844 326.551 152.918 321.355 151.764Z" fill="#434244"/>
<path d="M302.619 182.228C302.619 186.643 305.745 188.419 309.603 186.198C313.464 183.977 316.59 178.597 316.59 174.185C316.59 169.77 313.464 167.991 309.603 170.211C305.745 172.432 302.619 177.812 302.619 182.228Z" fill="#76627A"/>
<path d="M334.795 122.706C333.407 122.317 331.948 122.065 330.432 121.954L330.465 121.731L330.554 121.153C332.046 121.522 333.463 122.039 334.795 122.706Z" fill="#274A8A"/>
<path d="M254.886 197.925V172.407L281.746 126.213L319.595 104.427L275.743 80.0508L237.755 101.918L210.895 148.11V173.627L254.886 197.925Z" fill="#FFF1E8"/>
<path d="M254.643 198.691L250.952 196.238L244.972 192.218V167.139L245.156 166.802L254.643 171.708V198.691Z" fill="#887068"/>
<path d="M254.886 172.408L281.746 126.213L237.755 101.919L210.895 148.11L254.886 172.408Z" fill="#E3D8D1"/>
<path d="M261.223 194.518V174.106L286.381 130.845L319.752 111.637L328.613 116.906L334.954 113.236L319.733 104.35L281.745 126.214L254.643 172.238V198.691L261.223 194.518Z" fill="#957D75"/>
<path d="M237.757 101.919L281.747 126.213L319.735 104.349L281.777 124.853L237.757 101.919Z" fill="white"/>
<path d="M210.535 92.5102V213.4L245.832 192.935V167.846L271.324 120.926L279.168 115.643V52.4319L210.535 92.5102Z" fill="#957D75"/>
<path d="M214.458 94.7493L275.248 59.2497V113.565L268.333 118.219L241.912 166.854V166.478L214.458 182.393V94.7493Z" fill="#5D77BA"/>
<path d="M210.534 92.51V213.4L135.039 170.387V49.1707L210.534 92.51Z" fill="#FFF1E8"/>
<path d="M138.962 55.9341V132.333L146.806 136.801V102.122L199.588 131.937V166.871L206.614 170.877V94.7697L138.962 55.9341Z" fill="#79C5CF"/>
<path d="M268.332 118.219L245.179 103.966V95.7927L275.247 113.565L268.332 118.219Z" fill="#5D77BA"/>
<path d="M241.913 166.855V79.8009L245.181 77.0339V163.058L241.913 166.855Z" fill="#434244"/>
<path d="M208.696 147.469L207.987 147.07C207.751 146.681 207.876 146.177 208.269 145.941L213.872 142.569C216.831 140.79 218.672 137.542 218.672 134.098V112.306C218.672 108.99 217.022 105.912 214.253 104.074L208.752 100.414C208.371 100.162 208.269 99.6487 208.522 99.2693C208.778 98.8899 209.293 98.7917 209.67 99.0436L215.168 102.7C218.396 104.846 220.325 108.437 220.325 112.306V134.098C220.325 138.118 218.18 141.905 214.725 143.982L209.122 147.351L208.696 147.469Z" fill="#7B7B7B"/>
<path d="M223.023 139.086L219.034 136.79C217.279 135.78 215.842 133.045 215.842 130.71V112.453C215.842 110.121 217.279 109.039 219.034 110.049L223.023 112.342C224.778 113.353 226.212 116.09 226.212 118.422V136.679C226.212 139.014 224.778 140.097 223.023 139.086Z" fill="#222222"/>
<path d="M223.023 112.344L219.034 110.051C218.023 109.469 217.131 109.6 216.544 110.241C216.967 110.211 217.433 110.312 217.931 110.6L221.92 112.893C223.675 113.904 225.109 116.641 225.109 118.973V137.23C225.109 138.221 224.84 138.966 224.41 139.444C225.47 139.362 226.211 138.351 226.211 136.68V118.424C226.211 116.092 224.778 113.354 223.023 112.344Z" fill="#626161"/>
<path d="M214.458 182.393V151.485L241.912 166.478L214.458 182.393Z" fill="#5D77BA"/>
<path d="M206.615 94.77L174.913 76.572L206.615 94.77Z" fill="#325DA6"/>
<path d="M206.614 162.495H199.588V131.938L146.806 102.122V107.182L138.962 111.771V97.8999L174.912 76.572L206.614 94.7699V162.495Z" fill="#79C5CF"/>
<path d="M0 209.687C0 220.562 3.76268 228.264 9.88067 231.989L32.7124 244.823C39.0764 248.375 35.0054 240.32 44.6761 234.753C64.1323 223.554 79.9045 196.428 79.9045 174.168C79.9045 163.159 90.1132 163.07 83.8607 159.394L59.8251 146.387C53.4742 142.959 44.7975 143.591 35.2318 149.098C15.7723 160.3 0 187.427 0 209.687Z" fill="#2C2A2A"/>
<path d="M23.7191 222.802C23.7191 245.062 39.4914 254.03 58.9476 242.828C78.4071 231.63 94.1793 204.503 94.1793 182.243C94.1793 159.98 78.4071 151.015 58.9476 162.213C39.4914 173.415 23.7191 200.539 23.7191 222.802Z" fill="#434244"/>
<path d="M44.379 243.995C34.4787 243.991 28.5674 236.083 28.5674 222.837C28.5674 202.055 43.349 176.633 61.5225 166.173C66.4136 163.357 71.2195 161.869 75.425 161.869C85.3253 161.869 91.2366 169.777 91.2366 183.027C91.2366 203.812 76.4517 229.234 58.2782 239.694C53.3904 242.506 48.5845 243.995 44.3823 243.995H44.379Z" fill="#434244"/>
<path d="M52.782 229.069C45.3715 229.069 40.3885 223.044 40.3885 214.079C40.3885 202.24 48.4911 188.303 58.8343 182.348C61.9737 180.539 65.0442 179.623 67.9605 179.623C75.3709 179.623 80.3538 185.648 80.3538 194.616C80.3538 206.452 72.2512 220.388 61.9113 226.344C58.7687 228.153 55.6982 229.069 52.782 229.069Z" fill="#254A98"/>
<path d="M43.4664 214.079C43.4664 224.76 51.0344 229.061 60.3737 223.688C69.7098 218.311 77.2777 205.297 77.2777 194.615C77.2777 183.933 69.7098 179.629 60.3737 185.003C51.0344 190.38 43.4664 203.397 43.4664 214.079Z" fill="#AED2F0"/>
<path d="M70.0305 182.916C73.0452 184.672 74.9086 188.397 74.9086 193.696C74.9086 204.378 67.3373 217.395 58.0012 222.769C54.4092 224.836 51.0828 225.467 48.3437 224.855C51.4076 226.644 55.6656 226.396 60.373 223.688C69.7091 218.311 77.277 205.297 77.277 194.615C77.277 188.041 74.4099 183.89 70.0305 182.916Z" fill="#7FB7E7"/>
<path d="M52.5787 196.717C51.716 196.226 50.3152 197.031 49.4557 198.516C48.5897 199.997 48.5897 201.597 49.4557 202.087C50.3152 202.578 51.716 201.773 52.5787 200.288C53.4415 198.807 53.4415 197.207 52.5787 196.717ZM68.5183 205.78C67.6588 205.289 66.2581 206.094 65.3953 207.575C64.5326 209.06 64.5326 210.659 65.3953 211.15C66.2581 211.641 67.6588 210.836 68.5183 209.351C69.3811 207.87 69.3811 206.27 68.5183 205.78ZM47.7138 207.896C46.4935 208.596 45.5061 210.296 45.5061 211.693C45.5061 213.089 46.4935 213.652 47.7138 212.949C48.9341 212.246 49.9216 210.545 49.9216 209.152C49.9216 207.755 48.9341 207.193 47.7138 207.896ZM70.2602 194.918C69.0399 195.618 68.0524 197.319 68.0524 198.715C68.0524 200.108 69.0399 200.671 70.2602 199.971C71.4806 199.268 72.468 197.567 72.468 196.174C72.468 194.777 71.4806 194.215 70.2602 194.918ZM52.5787 214.957C51.716 214.466 50.3152 215.271 49.4557 216.753C48.5897 218.237 48.5897 219.837 49.4557 220.327C50.3152 220.818 51.716 220.013 52.5787 218.528C53.4415 217.047 53.4415 215.444 52.5787 214.957ZM65.3953 192.91C66.2581 193.4 67.6588 192.596 68.5183 191.114C69.3811 189.629 69.3811 188.03 68.5183 187.539C67.6588 187.049 66.2581 187.853 65.3953 189.335C64.5326 190.82 64.5326 192.419 65.3953 192.91ZM58.9854 214.303C57.7684 215.006 56.7777 216.707 56.7777 218.1C56.7777 219.497 57.7684 220.059 58.9854 219.356C60.2057 218.653 61.1964 216.952 61.1964 215.559C61.1964 214.162 60.2057 213.6 58.9854 214.303ZM58.9854 188.511C57.7684 189.211 56.7777 190.911 56.7777 192.308C56.7777 193.701 57.7684 194.264 58.9854 193.561C60.2057 192.861 61.1964 191.16 61.1964 189.763C61.1964 188.37 60.2057 187.808 58.9854 188.511Z" fill="#23366A"/>
<path d="M53.4807 206.873C53.4807 208.692 54.1105 209.98 55.134 210.602L57.5845 212.067C58.6801 212.679 58.0011 211.331 59.615 210.402C62.8692 208.528 65.5068 203.995 65.5068 200.273C65.5068 198.432 67.2125 198.419 66.166 197.804L63.4827 196.293C62.4198 195.72 60.9699 195.825 59.369 196.744C56.1181 198.618 53.4807 203.151 53.4807 206.873Z" fill="#5191D4"/>
<path d="M56.1114 208.404C56.1114 212.126 58.7489 213.624 62.003 211.753C65.2539 209.879 67.8914 205.346 67.8914 201.624C67.8914 197.902 65.2539 196.404 62.003 198.275C58.7489 200.149 56.1114 204.682 56.1114 208.404Z" fill="#386FB2"/>
<path d="M38.1303 244.25L32.9636 240.335L28.8303 239.099L25.9173 241.006C29.2863 242.899 32.0025 244.424 32.5864 244.754L38.1303 244.25Z" fill="#23366A"/>
<path d="M81.5819 158.159C80.5945 157.626 79.3348 156.942 77.9307 156.184L77.1828 161.018L81.9361 162.048L81.5819 158.159Z" fill="#23366A"/>
<path d="M34.0031 245.343C33.5733 245.16 33.1534 244.957 32.7433 244.741L32.9927 244.719C33.3207 244.938 33.6586 245.147 34.0031 245.343Z" fill="#315CAB"/>
<path d="M36.198 246.115C35.4435 245.905 34.7087 245.647 34.0034 245.343C33.659 245.147 33.3211 244.938 32.993 244.718L33.7836 244.646C34.5446 245.202 35.3516 245.696 36.198 246.115Z" fill="#315CAB"/>
<path d="M27.2777 240.117C25.3849 237.706 23.9448 234.678 23.0558 231.087L23.8693 230.655L24.509 230.884C25.2274 234.288 26.4215 237.219 28.0125 239.633L27.2777 240.117Z" fill="#315CAB"/>
<path d="M28.0128 239.633C26.4218 237.219 25.2277 234.288 24.5092 230.884L25.8969 231.381C26.5366 234.321 27.5306 236.902 28.8296 239.1L28.0128 239.633Z" fill="#315CAB"/>
<path d="M25.8956 231.38L24.5079 230.883L23.8683 230.654L23.0547 231.086C22.6381 229.398 22.3429 227.58 22.1789 225.65L23.6616 224.679L23.7568 224.731L25.128 225.49C25.2395 227.586 25.4987 229.552 25.8956 231.38Z" fill="#274A8A"/>
<path d="M32.7425 244.742C30.6529 243.627 28.8159 242.076 27.2774 240.117L28.0122 239.633L28.829 239.1C30.1707 241.367 31.8404 243.228 33.7824 244.647L32.9919 244.719L32.7425 244.742Z" fill="#274A8A"/>
<path d="M55.5037 162.433C55.9104 162.174 56.3139 161.926 56.724 161.684C56.4976 161.896 56.2745 162.109 56.0515 162.325L55.5037 162.433Z" fill="#274A8A"/>
<path d="M197.545 133.079V205.416L84.977 270.518V234.39C84.977 212.415 96.6586 192.088 115.675 180.977L197.545 133.079Z" fill="#957D75"/>
<path d="M115.676 180.977L197.545 133.079L149.746 105.461L67.8799 153.36C48.8633 164.474 37.1784 184.801 37.1784 206.776V242.904L84.9774 270.518V234.39C84.9774 212.415 96.659 192.088 115.676 180.977Z" fill="#E3D8D1"/>
<path d="M67.4016 153.642C67.4048 153.642 67.4081 153.638 67.4114 153.635C67.4081 153.638 67.4081 153.642 67.4016 153.642ZM67.5098 153.576C67.5164 153.573 67.523 153.569 67.5328 153.566C67.523 153.569 67.5164 153.573 67.5098 153.576ZM67.6181 153.514C67.628 153.507 67.6377 153.5 67.6476 153.497C67.6377 153.5 67.628 153.507 67.6181 153.514ZM67.7329 153.448C67.7427 153.441 67.7526 153.435 67.7657 153.428C67.7526 153.435 67.7427 153.441 67.7329 153.448Z" fill="#719BD0"/>
<path d="M92.7487 204.45L92.7258 204.437C97.9744 194.975 105.697 186.89 115.328 181.179C105.7 186.893 97.9941 194.988 92.7487 204.45ZM115.334 181.179C115.367 181.16 115.4 181.14 115.433 181.121C115.4 181.14 115.367 181.16 115.334 181.179ZM115.449 181.111C115.482 181.091 115.518 181.068 115.551 181.049C115.518 181.068 115.482 181.091 115.449 181.111ZM115.561 181.042C115.6 181.022 115.64 180.999 115.676 180.977C115.64 180.999 115.6 181.022 115.561 181.042Z" fill="#AAD4F2"/>
<path d="M92.7246 204.438L44.545 177.593C49.7707 167.85 57.5748 159.503 67.3996 153.642C67.4062 153.642 67.4062 153.639 67.4095 153.636C67.4423 153.619 67.4784 153.6 67.5079 153.577C67.5145 153.573 67.5211 153.57 67.5309 153.567C67.5571 153.551 67.5867 153.531 67.6162 153.515C67.626 153.508 67.6358 153.501 67.6457 153.498C67.6752 153.482 67.7047 153.466 67.731 153.449C67.7408 153.443 67.7507 153.436 67.7638 153.43C67.7999 153.407 67.8393 153.384 67.8786 153.361L115.674 180.978C115.638 181.001 115.599 181.024 115.56 181.043C115.556 181.047 115.553 181.05 115.55 181.05C115.517 181.07 115.481 181.093 115.448 181.112C115.441 181.115 115.435 181.119 115.432 181.122C115.399 181.142 115.366 181.161 115.333 181.181C115.33 181.181 115.33 181.181 115.327 181.181C105.695 186.891 97.9732 194.976 92.7246 204.438Z" fill="#FFF1E8"/>
<path d="M115.675 180.977L197.545 133.078L149.746 105.461L67.8796 153.359L115.675 180.977Z" fill="#FFF1E8"/>
<path d="M27.566 224.196C25.5617 223.054 23.3409 223.097 21.5104 223.947L21.4874 223.934L18.2628 225.811L18.8992 226.103C18.1381 227.159 17.669 228.457 17.669 229.923V233.776L36.4659 246.731L38.4997 245.494V230.26L27.566 224.196Z" fill="black"/>
<path d="M36.805 231.316C36.044 232.373 36.4671 246.731 36.4671 246.731L38.501 245.494V230.26L36.805 231.316Z" fill="#254A98"/>
<path d="M36.8347 231.31L36.4377 246.623L16.004 234.826V230.973C16.004 225.91 21.4921 222.734 25.901 225.246L36.8347 231.31Z" fill="black"/>
<path d="M36.4672 231.446V246.68L15.6365 234.962V231.109C15.6365 226.046 21.1214 222.87 25.5335 225.382L36.4672 231.446Z" fill="#262626"/>
<path d="M18.0175 233.578V231.109C18.0175 228.496 20.2187 226.877 22.2624 226.877C22.9873 226.877 23.6926 227.066 24.3519 227.443L34.0883 232.842V242.615L18.0175 233.578Z" fill="#FFF1E8"/>
<path d="M19.5757 232.885V230.419C19.5757 228.882 20.3433 227.704 21.3832 226.985C19.6348 227.371 18.0175 228.868 18.0175 231.109V233.578L34.0883 242.615V241.048L19.5757 232.885Z" fill="#E3D8D1"/>
<path d="M21.3309 230.904L23.7945 236.104C23.7945 236.104 27.7868 232.641 27.0422 231.041C26.2975 229.442 21.3309 230.904 21.3309 230.904Z" fill="#E1B81A"/>
<path d="M24.5986 234.593C24.5986 235.904 23.6703 236.431 22.5255 235.773C21.3773 235.113 20.4489 233.517 20.4489 232.205C20.4489 230.893 21.3773 230.367 22.5255 231.028C23.6703 231.685 24.5986 233.281 24.5986 234.593Z" fill="#FBC340"/>
<path d="M26.4075 232.31L28.8711 237.51C28.8711 237.51 32.8635 234.047 32.1188 232.447C31.3742 230.848 26.4075 232.31 26.4075 232.31Z" fill="#E1B81A"/>
<path d="M29.6757 236C29.6757 237.311 28.7474 237.838 27.6025 237.177C26.4543 236.52 25.5259 234.924 25.5259 233.612C25.5259 232.301 26.4543 231.774 27.6025 232.435C28.7474 233.092 29.6757 234.688 29.6757 236Z" fill="#FBC340"/>
<path d="M105.971 270.945C105.971 281.82 109.734 289.522 115.855 293.25L138.684 306.081C145.051 309.633 140.98 301.577 150.647 296.014C170.104 284.812 185.879 257.686 185.879 235.426C185.879 224.417 196.085 224.328 189.832 220.652L165.797 207.648C159.449 204.217 150.772 204.848 141.203 210.356C121.747 221.558 105.971 248.685 105.971 270.945Z" fill="#2C2A2A"/>
<path d="M129.69 284.061C129.69 306.321 145.463 315.289 164.922 304.088C184.378 292.889 200.154 265.762 200.154 243.502C200.154 221.239 184.378 212.274 164.922 223.473C145.463 234.675 129.69 261.802 129.69 284.061Z" fill="#434244"/>
<path d="M150.354 305.255C140.45 305.255 134.539 297.347 134.539 284.1C134.539 263.316 149.324 237.893 167.497 227.43C172.385 224.617 177.191 223.133 181.397 223.133C191.297 223.133 197.211 231.038 197.211 244.287C197.211 265.072 182.423 290.491 164.253 300.954C159.362 303.767 154.556 305.255 150.354 305.255Z" fill="#434244"/>
<path d="M158.758 290.329C151.344 290.329 146.365 284.304 146.365 275.339C146.365 263.5 154.467 249.563 164.807 243.607C167.95 241.799 171.02 240.883 173.933 240.883C181.347 240.883 186.327 246.908 186.327 255.876C186.327 267.712 178.227 281.648 167.884 287.604C164.741 289.413 161.671 290.329 158.758 290.329Z" fill="white"/>
<path d="M149.438 275.338C149.438 286.02 157.009 290.321 166.345 284.947C175.681 279.574 183.252 266.557 183.252 255.875C183.252 245.193 175.681 240.889 166.345 246.266C157.009 251.639 149.438 264.656 149.438 275.338Z" fill="#434244"/>
<path d="M176.002 244.176C179.017 245.932 180.88 249.657 180.88 254.956C180.88 265.638 173.312 278.655 163.976 284.029C160.384 286.096 157.054 286.727 154.315 286.115C157.382 287.904 161.637 287.656 166.345 284.948C175.681 279.574 183.252 266.557 183.252 255.875C183.252 249.301 180.381 245.15 176.002 244.176Z" fill="#434244"/>
<path d="M159.921 268.498C159.921 272.22 162.555 273.718 165.809 271.847C169.063 269.973 171.697 265.44 171.697 261.718C171.697 257.996 169.063 256.498 165.809 258.368C162.555 260.242 159.921 264.776 159.921 268.498Z" fill="#76627A"/>
<path d="M166.262 159.659L144.11 172.493C143.431 172.885 143.011 173.608 143.011 174.39V174.884C143.011 175.57 143.759 175.999 144.356 175.655L166.505 162.821C167.184 162.432 167.604 161.706 167.604 160.924V160.43C167.604 159.744 166.859 159.315 166.262 159.659Z" fill="#424242"/>
<path d="M166.66 159.546L166.811 160.036V160.53C166.811 161.312 166.394 162.035 165.712 162.427L143.562 175.261L143.162 175.375C143.412 175.745 143.92 175.905 144.356 175.657L166.506 162.823C167.185 162.43 167.605 161.708 167.605 160.926V160.432C167.605 159.896 167.145 159.52 166.66 159.546Z" fill="#424242"/>
<path d="M166.262 165.674L144.11 178.508C143.431 178.897 143.011 179.62 143.011 180.405V180.895C143.011 181.582 143.759 182.014 144.356 181.671L166.505 168.837C167.184 168.444 167.604 167.721 167.604 166.94V166.446C167.604 165.759 166.859 165.327 166.262 165.674Z" fill="#424242"/>
<path d="M166.66 165.56L166.811 166.051V166.545C166.811 167.326 166.394 168.049 165.712 168.442L143.562 181.276L143.162 181.39C143.412 181.76 143.92 181.92 144.356 181.671L166.506 168.837C167.185 168.445 167.605 167.722 167.605 166.94V166.446C167.605 165.907 167.145 165.534 166.66 165.56Z" fill="#424242"/>
<path d="M166.262 171.686L144.11 184.523C143.431 184.912 143.011 185.635 143.011 186.42V186.911C143.011 187.597 143.759 188.029 144.356 187.686L166.505 174.848C167.184 174.459 167.604 173.737 167.604 172.952V172.461C167.604 171.774 166.859 171.346 166.262 171.686Z" fill="#424242"/>
<path d="M166.66 171.573L166.811 172.063V172.557C166.811 173.339 166.394 174.062 165.712 174.454L143.562 187.288L143.162 187.4C143.412 187.772 143.92 187.933 144.356 187.684L166.506 174.847C167.185 174.458 167.605 173.735 167.605 172.95V172.459C167.605 171.92 167.145 171.547 166.66 171.573Z" fill="#424242"/>
<path d="M166.262 177.701L144.11 190.536C143.431 190.928 143.011 191.651 143.011 192.436V192.926C143.011 193.613 143.759 194.045 144.356 193.702L166.505 180.864C167.184 180.475 167.604 179.752 167.604 178.967V178.477C167.604 177.79 166.859 177.358 166.262 177.701Z" fill="#424242"/>
<path d="M166.66 177.589L166.811 178.079V178.57C166.811 179.355 166.394 180.078 165.712 180.467L143.562 193.304L143.162 193.416C143.412 193.785 143.92 193.949 144.356 193.7L166.506 180.863C167.185 180.473 167.605 179.751 167.605 178.966V178.475C167.605 177.935 167.145 177.563 166.66 177.589Z" fill="#424242"/>
<path d="M166.262 183.714L144.11 196.548C143.431 196.941 143.011 197.663 143.011 198.445V198.939C143.011 199.626 143.759 200.054 144.356 199.711L166.505 186.877C167.184 186.488 167.604 185.765 167.604 184.98V184.489C167.604 183.802 166.859 183.371 166.262 183.714Z" fill="#424242"/>
<path d="M166.66 183.603L166.811 184.093V184.584C166.811 185.366 166.394 186.092 165.712 186.481L143.562 199.318L143.162 199.429C143.412 199.799 143.92 199.962 144.356 199.711L166.506 186.877C167.185 186.487 167.605 185.765 167.605 184.98V184.489C167.605 183.949 167.145 183.573 166.66 183.603Z" fill="#424242"/>
<path d="M73.2473 216.208V267.897L76.3473 265.997V214.311L73.2473 216.208Z" fill="#434244"/>
<path d="M73.269 216.208V267.897L36.912 247.04V195.384L73.269 216.208Z" fill="#645555"/>
<path d="M36.912 195.383L73.269 216.207L76.346 214.31L39.9366 193.453L36.912 195.383Z" fill="#957D75"/>
<path d="M98.3379 272.506V279.446L96.2646 280.581L74.5811 268.574L73.8528 251.891L75.8703 250.651L90.1302 258.409C95.2051 261.3 98.3379 266.677 98.3379 272.506Z" fill="black"/>
<path d="M96.8553 273.511L96.3272 280.605L74.391 267.997L73.9416 251.918L88.651 259.415C93.7258 262.303 96.8553 267.683 96.8553 273.511Z" fill="black"/>
<path d="M96.3035 273.694V280.634L73.8359 268.18V251.836L88.0991 259.597C93.1707 262.489 96.3035 267.866 96.3035 273.694Z" fill="#262626"/>
<path d="M76.2194 266.782V255.835L86.9595 261.68C91.2404 264.12 93.9238 268.732 93.9238 273.693V276.598L76.2194 266.782Z" fill="#FFF1E8"/>
<path d="M77.6923 265.919V256.637L76.2194 255.835V266.782L93.9238 276.598V274.917L77.6923 265.919Z" fill="#E3D8D1"/>
<path d="M78.1631 260.531L80.794 266.081C80.794 266.081 85.0553 262.385 84.2614 260.678C83.4643 258.968 78.1631 260.531 78.1631 260.531Z" fill="#E1B81A"/>
<path d="M81.6497 264.469C81.6497 265.869 80.659 266.432 79.4354 265.728C78.2118 265.025 77.2211 263.318 77.2211 261.921C77.2211 260.522 78.2118 259.956 79.4354 260.662C80.659 261.365 81.6497 263.069 81.6497 264.469Z" fill="#FBC340"/>
<path d="M82.8651 265.331L85.5189 270.93C85.5189 270.93 91.2563 266.694 90.4559 264.971C89.6522 263.247 82.8651 265.331 82.8651 265.331Z" fill="#E1B81A"/>
<path d="M86.384 269.304C86.384 270.717 85.3835 271.283 84.15 270.573C82.9166 269.863 81.916 268.143 81.916 266.733C81.916 265.32 82.9166 264.751 84.15 265.461C85.3835 266.174 86.384 267.891 86.384 269.304Z" fill="#FBC340"/>
<path d="M40.3741 246.01V200.999L69.619 218.249V262.507L40.3741 246.01Z" fill="#363636"/>
<path d="M42.5785 244.705V202.36L40.3741 200.999V246.01L69.619 262.507V259.959L42.5785 244.705Z" fill="#C1A399"/>
<path d="M43.6105 247.907V202.785L46.0215 204.313V249.258L43.6105 247.907Z" fill="#E3D8D1"/>
<path d="M47.6073 248.323V205.399L46.0228 204.313V249.258L47.6073 248.323Z" fill="#957D75"/>
<path d="M48.9134 250.925V205.915L51.3245 207.442V252.276L48.9134 250.925Z" fill="#E3D8D1"/>
<path d="M52.9077 251.344V208.528L51.3232 207.442V252.276L52.9077 251.344Z" fill="#957D75"/>
<path d="M54.2158 253.852V208.731L56.6269 210.258V255.203L54.2158 253.852Z" fill="#E3D8D1"/>
<path d="M58.2125 254.268V211.563L56.6281 210.588V255.203L58.2125 254.268Z" fill="#957D75"/>
<path d="M59.5186 256.873V211.755L61.9297 213.279V258.224L59.5186 256.873Z" fill="#E3D8D1"/>
<path d="M63.513 257.292V214.695L61.9285 213.72V258.224L63.513 257.292Z" fill="#957D75"/>
<path d="M64.754 259.882V214.76L67.165 216.288V261.233L64.754 259.882Z" fill="#E3D8D1"/>
<path d="M68.7449 260.298V217.812L67.1638 216.837V261.233L68.7449 260.298Z" fill="#957D75"/>
<path d="M69.6511 217.582V225.703L40.2422 209.144V200.813L69.6511 217.582Z" fill="#E3D8D1"/>
<path d="M69.6511 225.703L68.6736 225.154V218.23L40.2422 202.017V200.813L69.6511 217.582V225.703Z" fill="white"/>
<path d="M210.724 87.6987V98.7012L282.926 56.9122V45.9097L210.724 87.6987Z" fill="#D9CDC5"/>
<path d="M210.756 87.6987V98.7012L130.31 52.7911V41.8213L210.756 87.6987Z" fill="#E3D8D1"/>
<path d="M130.31 41.8215L210.756 87.6987L282.929 45.9098L202.427 0L130.31 41.8215Z" fill="#FFF1E8"/>
<path d="M130.31 41.8218L210.756 87.6987L282.929 45.91L210.864 86.4821L130.31 41.8218Z" fill="#FFF1E8"/>
<path d="M205.25 90.3504C205.25 92.2931 203.872 93.0747 202.177 92.0968C200.481 91.1189 199.103 88.7543 199.103 86.8116C199.103 84.8688 200.481 84.0871 202.177 85.065C203.872 86.0429 205.25 88.4076 205.25 90.3504Z" fill="#FBC340"/>
<path d="M203.781 91.2072C202.085 90.2293 200.71 87.8646 200.71 85.9219C200.71 85.4149 200.809 84.993 200.976 84.6528C199.877 84.5547 199.103 85.3561 199.103 86.8115C199.103 88.7542 200.481 91.1189 202.177 92.0968C203.43 92.8196 204.502 92.5743 204.981 91.6193C204.614 91.5866 204.207 91.4525 203.781 91.2072Z" fill="#FFF1E8"/>
<path d="M197.406 85.7871C197.406 87.7299 196.028 88.5115 194.332 87.5336C192.633 86.5557 191.258 84.191 191.258 82.2482C191.258 80.3087 192.633 79.5238 194.332 80.5017C196.028 81.4796 197.406 83.8476 197.406 85.7871Z" fill="#FBC340"/>
<path d="M195.936 86.6462C194.24 85.6682 192.866 83.3036 192.866 81.3608C192.866 80.8539 192.964 80.4319 193.131 80.0918C192.032 79.9937 191.258 80.7983 191.258 82.2504C191.258 84.1932 192.636 86.5578 194.332 87.5358C195.585 88.2586 196.658 88.0133 197.137 87.0583C196.769 87.0256 196.363 86.8915 195.936 86.6462Z" fill="#FFF1E8"/>
<path d="M150.097 58.7441C150.097 60.6869 148.722 61.4686 147.026 60.4906C145.327 59.5127 143.953 57.1481 143.953 55.2054C143.953 53.2626 145.327 52.4809 147.026 53.4588C148.722 54.4367 150.097 56.8014 150.097 58.7441Z" fill="#FBC340"/>
<path d="M148.63 59.6C146.934 58.6221 145.557 56.2574 145.557 54.3146C145.557 53.8077 145.655 53.3858 145.826 53.0456C144.723 52.9475 143.953 53.7521 143.953 55.2043C143.953 57.147 145.327 59.5117 147.026 60.4896C148.279 61.2091 149.352 60.9671 149.831 60.0121C149.464 59.9794 149.057 59.8453 148.63 59.6Z" fill="#FFF1E8"/>
<path d="M141.519 54.018C141.519 55.9608 140.145 56.7425 138.445 55.7646C136.749 54.7899 135.375 52.4219 135.375 50.4824C135.375 48.5396 136.749 47.758 138.445 48.7359C140.145 49.7106 141.519 52.0785 141.519 54.018Z" fill="#FBC340"/>
<path d="M140.053 54.8735C138.357 53.8989 136.979 51.5308 136.979 49.5913C136.979 49.0811 137.077 48.6592 137.248 48.3191C136.146 48.221 135.375 49.0255 135.375 50.481C135.375 52.4205 136.749 54.7852 138.445 55.7631C139.702 56.486 140.774 56.244 141.253 55.2889C140.883 55.2529 140.479 55.1188 140.053 54.8735Z" fill="#FFF1E8"/>
</svg>
